<?xml version="1.0" standalone="no"?>
<!DOCTYPE svg PUBLIC "-//W3C//DTD SVG 1.1//EN" "http://www.w3.org/Graphics/SVG/1.1/DTD/svg11.dtd" >
<svg xmlns="http://www.w3.org/2000/svg">
<metadata></metadata>
<defs>
<font id="routerextralight" horiz-adv-x="1269" >
<font-face units-per-em="2048" ascent="1536" descent="-512" />
<missing-glyph horiz-adv-x="430" />
<glyph unicode="&#xfb01;" horiz-adv-x="1155" d="M94 954q0 12 9.5 20.5t23.5 8.5q6 0 29 -3t39 -3h41v297q0 106 57 159.5t139 53.5q97 0 154 -57q20 -20 20 -37q0 -13 -8.5 -21t-19.5 -8q-8 0 -14 4.5t-13 14t-10 12.5q-40 43 -113 43q-55 0 -97 -37.5t-42 -118.5v-305h178q15 0 39 3t29 3q12 0 21 -8.5t9 -20.5 q0 -13 -8.5 -20.5t-21.5 -7.5q-5 0 -29 2t-39 2h-178v-824q0 -19 3 -45t3 -32q0 -15 -9 -26t-24 -11t-24 11t-9 26q0 6 3.5 32t3.5 45v824h-41q-16 0 -39 -2t-29 -2q-14 0 -23.5 7.5t-9.5 20.5zM840 1309q0 22 15 37.5t38 15.5t39 -15.5t16 -37.5q0 -23 -16 -39.5t-39 -16.5 t-38 16t-15 40zM860 29q0 7 3 33t3 44v754q0 18 -3 44.5t-3 33.5q0 14 9.5 25.5t23.5 11.5t23.5 -11.5t9.5 -25.5q0 -7 -2 -33.5t-2 -44.5v-754q0 -18 2 -44t2 -33q0 -14 -9.5 -25.5t-23.5 -11.5t-23.5 11.5t-9.5 25.5z" />
<glyph unicode="&#xfb02;" horiz-adv-x="1107" d="M94 954q0 12 9.5 20.5t23.5 8.5q6 0 29 -3t39 -3h41v297q0 106 57 159.5t139 53.5q97 0 154 -57q20 -20 20 -37q0 -13 -8.5 -21t-19.5 -8q-8 0 -14 4.5t-13 14t-10 12.5q-40 43 -113 43q-55 0 -97 -37.5t-42 -118.5v-305h178q15 0 39 3t29 3q12 0 21 -8.5t9 -20.5 q0 -13 -8.5 -20.5t-21.5 -7.5q-5 0 -29 2t-39 2h-178v-824q0 -19 3 -45t3 -32q0 -15 -9 -26t-24 -11t-24 11t-9 26q0 6 3.5 32t3.5 45v824h-41q-16 0 -39 -2t-29 -2q-14 0 -23.5 7.5t-9.5 20.5zM829 29q0 7 2.5 33t2.5 44v1266q0 18 -2.5 44.5t-2.5 33.5q0 15 9 26t24 11 q14 0 22.5 -10.5t8.5 -26.5q0 -7 -2 -33.5t-2 -44.5v-1266q0 -18 2 -44t2 -33q0 -15 -8.5 -26t-22.5 -11t-23.5 11.5t-9.5 25.5z" />
<glyph horiz-adv-x="2048" />
<glyph horiz-adv-x="2048" />
<glyph unicode="&#xd;" horiz-adv-x="2048" />
<glyph unicode=" "  horiz-adv-x="430" />
<glyph unicode="&#x09;" horiz-adv-x="430" />
<glyph unicode="&#xa0;" horiz-adv-x="430" />
<glyph unicode="!" horiz-adv-x="368" d="M131 49q0 23 15 39t38 16t39.5 -16t16.5 -39q0 -22 -16.5 -37.5t-39.5 -15.5t-38 15.5t-15 37.5zM147 1448q0 15 9.5 27t25.5 12q17 0 27 -12t10 -27q0 -7 -3 -36t-3 -50l-4 -928q0 -19 2 -40t2 -27q0 -14 -8 -24.5t-21 -10.5t-20.5 10.5t-7.5 24.5q0 6 2 27t2 40l-8 928 q0 21 -2.5 50t-2.5 36z" />
<glyph unicode="&#x22;" horiz-adv-x="524" d="M143 1438q0 14 8.5 25.5t24.5 11.5t24.5 -11.5t8.5 -25.5q0 -6 -3 -36.5t-3 -49.5v-105q0 -16 1 -36t1 -25q0 -35 -27 -35q-28 0 -28 35q0 5 2 25t2 36l-4 105q0 19 -3.5 49.5t-3.5 36.5zM317 1438q0 13 9.5 25t23.5 12q16 0 25.5 -11.5t9.5 -25.5q0 -6 -4 -36.5 t-4 -49.5v-105q0 -16 2 -36t2 -25q0 -15 -8 -25t-21 -10q-26 0 -26 35q0 5 1 25t1 36l-4 105q0 19 -3.5 49.5t-3.5 36.5z" />
<glyph unicode="#" horiz-adv-x="1185" d="M76 479q0 13 9.5 21t23.5 8q5 0 29 -2t40 -2h101l77 418h-106q-15 0 -40 -3.5t-30 -3.5q-14 0 -23.5 9t-9.5 22q0 12 9.5 20.5t23.5 8.5q5 0 30 -3t40 -3h115l59 317l8 70q6 35 35 35q13 0 21 -12t6 -27q-1 -6 -7.5 -28.5t-11.5 -47.5l-57 -307h426l59 317q3 15 5.5 38.5 t4.5 31.5q3 35 33 35q14 0 21.5 -11.5t5.5 -27.5q-1 -6 -8 -28.5t-11 -47.5l-57 -307h125q16 0 40.5 3t29.5 3q13 0 22.5 -8.5t9.5 -20.5q0 -13 -9 -22t-23 -9q-5 0 -29.5 3.5t-40.5 3.5h-133l-78 -418h139q16 0 40.5 2t29.5 2q14 0 23.5 -8t9.5 -21t-9.5 -20.5t-23.5 -7.5 q-5 0 -29.5 2t-40.5 2h-147l-66 -353l-8 -69q-6 -35 -33 -35q-28 0 -28 39q1 6 7.5 28.5t10.5 47.5l64 342h-426l-66 -353l-8 -69q-6 -35 -33 -35q-14 0 -22.5 11.5t-6.5 27.5q1 6 7.5 28.5t11.5 47.5l63 342h-92q-16 0 -40 -2t-29 -2q-14 0 -23.5 7.5t-9.5 20.5zM332 504 h426l78 418h-426z" />
<glyph unicode="$" horiz-adv-x="1097" d="M94 287q0 30 29 30q12 0 20 -11t10 -18.5t7 -27.5q30 -105 134 -167t234 -62v674l-30 12q-157 61 -238.5 156t-81.5 214q0 132 96.5 224.5t251.5 99.5v78q0 20 -2 45.5t-2 32.5q0 13 9.5 22.5t23.5 9.5q13 0 22 -10.5t9 -23.5q0 -8 -3 -34t-3 -42v-78q115 -6 201.5 -55 t129.5 -125q13 -22 13 -39q0 -12 -8.5 -21.5t-20.5 -9.5q-3 0 -6 0.5t-5.5 2.5t-4.5 4t-4.5 5.5t-4 6.5l-4 8t-4 8.5t-4 10t-4.5 10.5q-32 64 -108 101t-166 42v-612l32 -15q200 -78 284.5 -171t84.5 -226q0 -67 -26 -127.5t-75 -108.5t-126.5 -79t-173.5 -37v-80 q0 -18 2 -43.5t2 -30.5q-2 -16 -10.5 -26t-22.5 -9q-13 0 -21 10.5t-8 24.5q0 8 2 33.5t2 40.5v78q-156 3 -269 76.5t-157 189.5q-6 18 -6 39zM233 1090q0 -217 285 -322l10 -6v598q-130 -6 -212.5 -80.5t-82.5 -189.5zM580 33q161 12 253.5 97.5t92.5 207.5 q0 118 -81 199.5t-257 148.5l-8 2v-655z" />
<glyph unicode="%" horiz-adv-x="1822" d="M100 983q0 188 85 309t231 121q147 0 233 -121t86 -309q0 -190 -85.5 -310t-233.5 -120q-146 0 -231 120t-85 310zM150 983q0 -176 74.5 -280.5t191.5 -104.5q119 0 194.5 104.5t75.5 280.5q0 172 -75.5 276.5t-194.5 104.5q-117 0 -191.5 -104t-74.5 -277zM528 23 q0 12 11 30q4 7 14.5 24.5t15.5 28.5l621 1225q7 15 15.5 37.5t11.5 30.5q12 26 32 26q12 0 20.5 -8.5t8.5 -21.5q0 -16 -10 -29q-4 -8 -15 -25t-16 -28l-621 -1227q-6 -15 -14 -37.5t-12 -30.5q-9 -26 -33 -26q-12 0 -20.5 9t-8.5 22zM1098 418q0 188 85.5 309t231.5 121 t232 -121t86 -309q0 -190 -85.5 -310t-232.5 -120q-146 0 -231.5 120t-85.5 310zM1147 418q0 -175 75 -280t193 -105q119 0 195 105.5t76 279.5q0 173 -76 278t-195 105q-118 0 -193 -105t-75 -278z" />
<glyph unicode="&#x26;" horiz-adv-x="1382" d="M111 393q0 69 23.5 134t65 117t89.5 93t104 74l58 33q-199 206 -199 364q0 125 75 203t208 78q123 0 203.5 -80.5t80.5 -202.5q0 -205 -252 -352l-37 -23l537 -552q49 87 55 170q1 6 -0.5 20.5t-1.5 17.5q0 11 8 19t21 8q11 0 20 -9t9 -26q0 -67 -35 -149q-9 -31 -41 -88 l139 -142q12 -13 29.5 -27t23.5 -22q11 -11 11 -22q0 -12 -7.5 -21.5t-19.5 -9.5q-20 0 -35 18q-20 29 -41 54l-127 131q-167 -226 -489 -226q-201 0 -338 118.5t-137 299.5zM164 395q0 -159 120 -264.5t302 -105.5q308 0 454 211l-555 571l-59 -35q-111 -64 -186.5 -161 t-75.5 -216zM305 1210q0 -76 47.5 -159t141.5 -183l43 25q229 130 229 311q0 97 -64 168.5t-167 71.5q-111 0 -170.5 -66t-59.5 -168z" />
<glyph unicode="'" horiz-adv-x="350" d="M141 1438q0 14 8.5 25.5t24.5 11.5q14 0 23.5 -12t9.5 -25q0 -6 -3 -36.5t-3 -49.5v-105q0 -16 1 -36t1 -25q0 -35 -27 -35q-13 0 -21 10t-8 25q0 5 1.5 25t1.5 36l-3 105q0 19 -3 49.5t-3 36.5z" />
<glyph unicode="(" horiz-adv-x="663" d="M147 639q0 277 109.5 506t278.5 332q33 16 40 16q10 0 18.5 -8t8.5 -21q0 -6 -1.5 -10.5t-5 -8.5t-6 -7t-9.5 -7t-10.5 -5.5t-13 -6t-13.5 -6.5q-145 -83 -244.5 -303t-99.5 -471q0 -253 99.5 -473t244.5 -301l18 -9t17.5 -9t12 -8.5t9 -12t2.5 -14.5q0 -13 -8.5 -20 t-18.5 -7q-11 0 -40 16q-169 103 -278.5 332t-109.5 506z" />
<glyph unicode=")" horiz-adv-x="663" d="M47 -188q0 8 2.5 14.5t9 12t12 8.5t17.5 9l18 9q145 81 245 301t100 473q0 251 -100 471t-245 303q-4 2 -13.5 6.5t-13 6t-10.5 5.5t-9.5 7t-6 7t-5 8.5t-1.5 10.5q0 13 8.5 21t18.5 8q8 0 41 -16q169 -102 278 -331t109 -507t-109 -507t-278 -331q-29 -16 -41 -16 q-10 0 -18.5 7t-8.5 20z" />
<glyph unicode="*" horiz-adv-x="743" d="M84 1231q0 12 8 20.5t19 8.5l20 -5q27 -16 55 -24l162 -57v178q0 17 -3 40t-3 29q0 14 8 24.5t21 10.5q14 0 22 -10t8 -25q0 -6 -3 -29t-3 -40v-178l162 57q28 8 55 24q20 5 21 5q11 0 18.5 -8.5t7.5 -20.5q0 -21 -24 -31q-4 -1 -26 -4.5t-40 -9.5l-163 -56l120 -157 q9 -13 23.5 -27t19.5 -22q9 -12 9 -23t-7.5 -19t-19.5 -8q-20 0 -31 17q-15 30 -33 57l-116 154l-115 -154q-10 -15 -21 -34t-14 -23q-11 -17 -28 -17q-12 0 -20.5 8t-8.5 19q0 10 10 23q5 8 19.5 22t23.5 27l117 157l-160 56q-18 6 -39.5 9.5t-25.5 4.5q-25 11 -25 31z" />
<glyph unicode="+" horiz-adv-x="929" d="M135 555q0 13 10 22t25 9q5 0 30.5 -3t41.5 -3h196v215q0 19 -3 45t-3 32q0 15 9 26t24 11t24 -11t9 -26q0 -6 -3 -32t-3 -45v-215h196q16 0 41.5 3t30.5 3q15 0 25 -9t10 -22t-10 -22t-25 -9q-5 0 -30.5 2t-41.5 2h-196v-231q0 -17 3 -44.5t3 -33.5q0 -14 -9.5 -24.5 t-23.5 -10.5t-23.5 10.5t-9.5 24.5q0 6 3 33.5t3 44.5v231h-196q-16 0 -41.5 -2t-30.5 -2q-15 0 -25 9t-10 22z" />
<glyph unicode="," horiz-adv-x="376" d="M131 49q0 23 15 39t38 16q28 0 45 -20.5t17 -58.5q0 -112 -49 -183q-14 -26 -37 -26q-11 0 -18 7t-7 17q0 6 2.5 10.5t12 13.5t14.5 15q37 45 37 107q0 12 -17 12q-23 0 -38 14.5t-15 36.5z" />
<glyph unicode="-" horiz-adv-x="788" d="M121 551q0 13 9.5 22t23.5 9q5 0 29 -3.5t40 -3.5h342q16 0 40.5 3.5t29.5 3.5q14 0 23.5 -9t9.5 -22t-9.5 -22t-23.5 -9q-5 0 -29.5 3t-40.5 3h-342q-16 0 -40 -3t-29 -3q-14 0 -23.5 9t-9.5 22z" />
<glyph unicode="." horiz-adv-x="368" d="M131 49q0 23 15 39t38 16t39.5 -16t16.5 -39q0 -22 -16.5 -37.5t-39.5 -15.5t-38 15.5t-15 37.5z" />
<glyph unicode="/" horiz-adv-x="765" d="M-74 -287q0 14 8 27q3 6 14.5 24.5t18.5 32.5l742 1606q4 10 11.5 33.5t12.5 33.5q9 27 35 27q13 0 21.5 -8.5t7.5 -22.5q0 -12 -6 -24q-2 -4 -14.5 -24.5t-18.5 -35.5l-744 -1605q-5 -12 -12.5 -35.5t-11.5 -32.5q-10 -26 -33 -26q-14 0 -22.5 8.5t-8.5 21.5z" />
<glyph unicode="0" horiz-adv-x="1302" d="M127 696q0 206 63 368t183 255.5t278 93.5t278 -93.5t183.5 -255.5t63.5 -368t-63.5 -367.5t-183.5 -254t-278 -92.5t-278 92.5t-183 254t-63 367.5zM180 696q0 -302 132.5 -483.5t338.5 -181.5t338.5 181.5t132.5 483.5q0 303 -132.5 485.5t-338.5 182.5t-338.5 -182.5 t-132.5 -485.5z" />
<glyph unicode="1" horiz-adv-x="561" d="M51 1210q0 14 8.5 22.5t22.5 8.5q7 0 16.5 -5t16.5 -5q16 0 45 29l98 106q29 29 37.5 35t23.5 6t24 -9.5t9 -23.5q0 -8 -2 -33t-2 -41v-1191q0 -19 2 -46.5t2 -33.5q0 -15 -9 -26t-24 -11q-14 0 -22 10.5t-8 26.5q0 6 2 33.5t2 46.5v1132q0 66 4 102l-96 -108 q-54 -57 -107 -57q-20 0 -31.5 9t-11.5 23z" />
<glyph unicode="2" horiz-adv-x="1056" d="M92 57q0 218 91 370.5t298 260.5l127 66q145 74 208 154.5t63 176.5q0 123 -93 200t-249 77q-84 0 -154 -22t-122 -73t-68 -126q-1 -5 -2.5 -14t-2 -13.5t-2.5 -11.5t-4 -10.5t-5 -7.5t-7 -5.5t-10 -1.5q-11 0 -20 9.5t-9 25.5q0 27 19 76q83 219 387 219 q172 0 283.5 -87.5t111.5 -234.5q0 -116 -73 -207.5t-230 -170.5l-129 -68q-191 -99 -273 -236.5t-82 -353.5h719q20 0 44.5 5t31.5 5q13 0 23 -8.5t10 -21.5t-10 -21t-23 -8h-799q-49 0 -49 57z" />
<glyph unicode="3" horiz-adv-x="1103" d="M63 283q0 12 9 20t20 8t18 -8t8.5 -14t6.5 -23q44 -109 146 -173.5t241 -63.5q185 2 308.5 124t123.5 306q0 178 -106.5 272t-286.5 94q-35 0 -52 -2t-26 -2q-13 0 -22 7t-9 16q0 14 19 30q55 55 57 58l301 346q11 12 33 33.5t29 29.5h-557q-18 0 -42.5 -5t-31.5 -5 q-13 0 -23 8.5t-10 22.5q0 13 10 20t23 7h651q15 0 25 -8.5t10 -24.5q0 -8 -3.5 -16.5t-6 -12.5t-11 -14.5t-10.5 -12.5l-346 -393q-19 -23 -43 -41q79 5 150 -7.5t131 -44t104 -80t69 -119t25 -156.5q0 -97 -35.5 -184t-97.5 -152t-153.5 -103t-198.5 -38q-144 0 -256.5 67 t-173.5 193q-17 27 -17 41z" />
<glyph unicode="4" horiz-adv-x="1019" d="M53 465v14q0 7 1.5 13.5t6 13.5t7.5 11t11.5 14.5t12.5 15.5l588 780q3 4 11.5 17t12.5 18t11 13t14.5 11t15.5 3h33q15 0 23 -10t8 -25q0 -5 -2 -30.5t-2 -43.5v-801h57q18 0 42.5 5t31.5 5q13 0 24 -7.5t11 -18.5q0 -13 -11 -22t-24 -9h-131v-328q0 -18 2 -44t2 -31 q0 -15 -9 -26t-24 -11q-28 0 -28 37q0 5 1 31t1 44v328h-662q-17 0 -26 9.5t-9 23.5zM102 479h648v862z" />
<glyph unicode="5" horiz-adv-x="1134" d="M86 283q0 11 8.5 19.5t18.5 8.5q8 0 13.5 -2t9.5 -8t5.5 -9t4.5 -13.5t4 -12.5q42 -108 146.5 -173t246.5 -64q186 2 313 131t127 323q0 175 -110 286.5t-306 111.5q-195 0 -321 -123q-28 -25 -43 -25q-12 0 -19.5 8.5t-7.5 20.5q0 10 1.5 19.5t5 24.5t5.5 30l76 440 q2 16 3.5 38t2.5 27q2 26 12 37t35 11h576q14 0 23.5 -7.5t9.5 -19.5q0 -14 -9.5 -22.5t-23.5 -8.5q-7 0 -31.5 5t-42.5 5h-500l-92 -548q62 65 152 100t190 35q217 0 341 -126t124 -321q0 -128 -58 -240.5t-172.5 -185.5t-262.5 -73q-146 0 -263.5 68t-177.5 194 q-14 24 -14 39z" />
<glyph unicode="6" horiz-adv-x="1210" d="M129 627q0 364 151.5 575t399.5 211q201 0 321 -123q19 -19 19 -33q0 -11 -8 -19.5t-21 -8.5q-6 0 -11.5 3t-9 7t-11.5 13t-15 16q-43 45 -115 71.5t-151 26.5q-151 0 -264 -91t-173 -254.5t-63 -379.5q65 122 190 203.5t275 81.5q109 0 198.5 -37t147 -100t88.5 -145.5 t31 -174.5q0 -99 -32.5 -187.5t-91.5 -155t-149 -105.5t-198 -39q-219 0 -363.5 177.5t-144.5 467.5zM178 580q11 -244 138 -396.5t321 -152.5q186 0 302 124t116 314q0 83 -27.5 157t-78 131t-131 90.5t-179.5 33.5q-151 0 -273 -85.5t-188 -215.5z" />
<glyph unicode="7" horiz-adv-x="925" d="M51 1362q0 12 9.5 19.5t23.5 7.5h772q39 0 39 -31q0 -16 -6 -24.5t-23 -24.5q-145 -103 -248 -236.5t-162.5 -290t-87 -320.5t-30.5 -356q0 -19 4 -45.5t4 -31.5q0 -15 -9 -26t-24 -11q-14 0 -22 10.5t-8 26.5q0 5 1 31.5t1 45.5q2 188 28.5 350t82 316.5t152 287.5 t230.5 236l53 43h-675q-16 0 -41 -4t-31 -4q-14 0 -23.5 8.5t-9.5 22.5z" />
<glyph unicode="8" horiz-adv-x="1148" d="M102 397q0 152 96 262t234 142q-97 42 -159 120.5t-62 174.5q0 135 97 227t255 92q164 0 269.5 -91.5t105.5 -231.5q0 -109 -64.5 -201t-171.5 -133q342 -127 342 -385q0 -77 -31 -147t-88 -124.5t-146 -87t-197 -32.5q-110 0 -202 34t-152 91.5t-93 132t-33 157.5z M154 399q0 -160 120.5 -264t307.5 -104q176 0 293.5 95t117.5 243q0 135 -101.5 228.5t-307.5 150.5q-32 6 -113 34q-138 -36 -227.5 -141t-89.5 -242zM264 1096q0 -112 86.5 -186.5t218.5 -110.5l86 -25q78 25 131.5 77.5t77 113t23.5 125.5q0 123 -90.5 200.5t-231.5 77.5 q-140 0 -220.5 -78.5t-80.5 -193.5z" />
<glyph unicode="9" horiz-adv-x="1210" d="M104 926q0 132 57.5 242.5t167 177.5t249.5 67q221 0 361.5 -173t139.5 -464q-1 -377 -149 -585.5t-402 -208.5q-199 0 -323 124q-19 19 -19 33q0 11 8 20t21 9q6 0 11 -3t8.5 -6.5t11.5 -13t14 -16.5q44 -49 116 -74.5t154 -25.5q225 0 357 187.5t143 504.5 q-70 -115 -192.5 -187.5t-264.5 -72.5q-140 0 -249 67.5t-164.5 172.5t-55.5 225zM156 926q0 -78 28.5 -152.5t80 -134.5t132.5 -96.5t178 -36.5q142 0 266.5 80t188.5 200q-4 263 -128 421.5t-324 158.5q-182 0 -302 -126t-120 -314z" />
<glyph unicode=":" horiz-adv-x="368" d="M131 49q0 23 15 39t38 16t39.5 -16t16.5 -39q0 -22 -16.5 -37.5t-39.5 -15.5t-38 15.5t-15 37.5zM131 780q0 24 15 40t38 16t39.5 -16.5t16.5 -39.5t-16 -38t-40 -15q-23 0 -38 15t-15 38z" />
<glyph unicode=";" horiz-adv-x="378" d="M131 49q0 23 15 39t38 16q28 0 45 -20.5t17 -58.5q0 -112 -49 -183q-14 -26 -37 -26q-11 0 -18 7t-7 17q0 6 2.5 10.5t12 13.5t14.5 15q37 45 37 107q0 12 -17 12q-23 0 -38 14.5t-15 36.5zM137 780q0 24 15 40t38 16t38.5 -16.5t15.5 -39.5t-15.5 -38t-38.5 -15t-38 15 t-15 38z" />
<glyph unicode="&#x3c;" horiz-adv-x="929" d="M172 559q0 19 18 31l39 26l385 314q10 8 23.5 20.5t17.5 16.5q11 8 21 8q12 0 19 -8t7 -19q0 -18 -14 -28q-6 -5 -19.5 -13t-21.5 -14l-414 -334l414 -336q8 -6 21.5 -13.5t19.5 -12.5q14 -11 14 -29q0 -11 -7 -19t-19 -8q-9 0 -21 9q-4 3 -17.5 15.5t-23.5 20.5 l-383 316q-11 8 -26.5 17.5t-16.5 10.5q-16 13 -16 29z" />
<glyph unicode="=" horiz-adv-x="929" d="M133 444q0 13 10 22t25 9q5 0 30.5 -2t41.5 -2h450q16 0 41.5 2t30.5 2q15 0 25 -9t10 -22t-10 -21.5t-25 -8.5q-5 0 -30.5 3t-41.5 3h-450q-16 0 -41.5 -3t-30.5 -3q-15 0 -25 8.5t-10 21.5zM133 639q0 13 10 22t25 9q5 0 30.5 -3t41.5 -3h450q16 0 41.5 3t30.5 3 q15 0 25 -9t10 -22t-10 -22t-25 -9q-5 0 -30.5 2t-41.5 2h-450q-16 0 -41.5 -2t-30.5 -2q-15 0 -25 9t-10 22z" />
<glyph unicode="&#x3e;" horiz-adv-x="929" d="M225 168q0 18 15 29q6 4 19 12t22 14l413 336l-413 334q-9 7 -22 15t-19 12q-15 11 -15 28q0 10 8.5 18.5t18.5 8.5q9 0 20 -8q7 -5 19.5 -17.5t21.5 -19.5l385 -314q9 -7 23.5 -15.5t17.5 -10.5q19 -15 19 -31t-19 -29q-38 -25 -41 -28l-385 -316q-9 -7 -21.5 -19 t-19.5 -17q-12 -9 -20 -9q-10 0 -18.5 8.5t-8.5 18.5z" />
<glyph unicode="?" horiz-adv-x="946" d="M59 1147q0 138 116.5 239t291.5 101q99 0 178.5 -29.5t127.5 -79t73.5 -110t25.5 -125.5q0 -120 -58.5 -206t-188.5 -171q-111 -72 -159.5 -130t-51.5 -134q-3 -61 20 -90q2 -2 8.5 -8t9.5 -11.5t3 -13.5q0 -12 -9.5 -21.5t-21.5 -9.5q-28 0 -49 36.5t-21 94.5 q0 90 50.5 165.5t183.5 160.5q112 71 170.5 147.5t58.5 192.5q0 56 -22 107.5t-64 93.5t-110.5 67t-153.5 25q-152 0 -252 -87t-100 -198q0 -25 7 -41t7 -25q0 -12 -8 -20t-19 -8q-43 0 -43 88zM375 49q0 23 15 39t38 16t39 -16t16 -39q0 -22 -16 -37.5t-39 -15.5t-38 15.5 t-15 37.5z" />
<glyph unicode="@" horiz-adv-x="1611" d="M168 487q0 147 53 275t142 215.5t206 137.5t244 50q192 0 338 -83t223.5 -226t77.5 -324q0 -151 -73.5 -247.5t-190.5 -96.5q-110 0 -154 74q-74 -104 -221 -104q-132 0 -215.5 98t-83.5 238q0 138 83.5 232.5t209.5 94.5q123 0 199 -100v41q0 12 7.5 21.5t20.5 9.5 q14 0 22.5 -9.5t8.5 -21.5q0 -6 -4 -31t-4 -41v-307q0 -79 36 -116.5t93 -37.5q90 0 155.5 81t65.5 225q0 262 -163 426.5t-431 164.5q-115 0 -223 -45.5t-192 -126t-134.5 -202.5t-50.5 -265q0 -171 77 -316t219 -233t318 -88q136 0 251.5 43t187.5 105q10 7 19.5 18.5 t17 18t16.5 6.5q11 0 19 -7t8 -16q0 -18 -31 -43q-212 -165 -488 -165q-181 0 -331.5 87.5t-239 243t-88.5 346.5zM567 494q0 -127 68.5 -210t175.5 -83q147 0 207 100q-12 37 -12 84v285q-75 110 -201 110q-99 0 -168.5 -77.5t-69.5 -208.5z" />
<glyph unicode="A" d="M57 25q0 10 6 22q22 43 29 66l475 1255q5 15 12.5 39t10.5 31q8 32 41 32h6q33 0 41 -32q8 -33 22 -70l478 -1255q6 -18 15.5 -40.5t10.5 -25.5q6 -12 6 -22q0 -13 -8.5 -23t-21.5 -10q-23 0 -33 26q-8 34 -23 76l-110 293h-762l-109 -293q-4 -11 -20 -76 q-10 -26 -33 -26q-14 0 -23.5 10t-9.5 23zM270 436h725l-338 905q-2 6 -24 78q-18 -61 -25 -76z" />
<glyph unicode="B" horiz-adv-x="1259" d="M231 37q0 6 2.5 33.5t2.5 46.5v1229q0 19 -2.5 46t-2.5 33q0 37 33 37h340q203 0 314.5 -93t111.5 -263q0 -98 -59.5 -191t-169.5 -129q165 -22 252.5 -123.5t87.5 -238.5q0 -188 -124.5 -306t-324.5 -118h-426q-17 0 -26 10.5t-9 26.5zM291 49h395q183 0 290 104.5 t107 270.5q0 147 -100.5 238.5t-284.5 91.5h-407v-705zM291 801h387q130 0 214.5 91.5t84.5 215.5q0 150 -99.5 227.5t-277.5 77.5h-309v-612z" />
<glyph unicode="C" horiz-adv-x="1452" d="M160 733q0 215 76 386t219.5 269.5t330.5 98.5q158 0 280.5 -66t186.5 -180q23 -38 23 -57q0 -12 -9 -21.5t-22 -9.5q-7 0 -12 2.5t-9.5 8.5t-6.5 11.5t-6.5 17t-8.5 19.5q-49 103 -163 164.5t-253 61.5q-173 0 -304.5 -96t-199 -255.5t-67.5 -355.5q0 -144 40 -271.5 t113 -223t182.5 -150.5t240.5 -55q95 0 180.5 29t161 96.5t116.5 165.5q3 7 7.5 21t7 19.5t8.5 11t16 5.5q14 0 21.5 -10.5t8 -22.5t-19.5 -55q-71 -153 -207 -231t-303 -78q-188 0 -331.5 97.5t-220 268t-76.5 385.5z" />
<glyph unicode="D" horiz-adv-x="1406" d="M231 37q0 6 2.5 33.5t2.5 46.5v1229q0 19 -2.5 46t-2.5 33q0 37 33 37h363q288 0 450 -183.5t162 -524.5q0 -350 -164.5 -552t-462.5 -202h-346q-17 0 -26 10.5t-9 26.5zM291 49h321q126 0 229.5 44.5t180 130.5t118.5 221.5t42 308.5q0 317 -144.5 488t-406.5 171h-340 v-1364z" />
<glyph unicode="E" horiz-adv-x="1155" d="M231 37q0 6 2.5 33.5t2.5 46.5v1229q0 19 -2.5 46t-2.5 33q0 16 9 26.5t26 10.5h715q15 0 25 -8t10 -22q0 -13 -10.5 -21t-24.5 -8q-7 0 -32.5 5t-45.5 5h-612v-600h454q16 0 40.5 2t29.5 2q14 0 23.5 -8.5t9.5 -20.5q0 -13 -9.5 -21.5t-23.5 -8.5q-5 0 -29.5 2t-40.5 2 h-454v-713h659q20 0 45.5 5t32.5 5q13 0 24 -8.5t11 -19.5q0 -14 -10.5 -22.5t-24.5 -8.5h-762q-17 0 -26 10.5t-9 26.5z" />
<glyph unicode="F" horiz-adv-x="1073" d="M231 29q0 7 2.5 34.5t2.5 45.5v1237q0 19 -2.5 46t-2.5 33q0 16 9 26.5t26 10.5h707q14 0 24.5 -8.5t10.5 -21.5t-10.5 -21t-24.5 -8q-7 0 -32.5 5t-45.5 5h-604v-620h457q16 0 40 2t29 2q14 0 23.5 -8.5t9.5 -20.5q0 -13 -9.5 -22t-23.5 -9q-5 0 -29 2t-40 2h-457v-632 q0 -18 3 -45.5t3 -34.5q0 -14 -9.5 -25.5t-23.5 -11.5t-23.5 11.5t-9.5 25.5z" />
<glyph unicode="G" horiz-adv-x="1470" d="M160 733q0 216 76.5 386.5t220 269t331.5 98.5q159 0 284.5 -68.5t189.5 -185.5q16 -32 16 -49q0 -12 -9 -21.5t-22 -9.5q-7 0 -12 2.5t-9.5 8.5t-6.5 11.5t-6.5 17t-8.5 19.5q-48 101 -162 163.5t-254 62.5q-174 0 -306 -96t-199.5 -255.5t-67.5 -355.5q0 -194 68 -352 t199.5 -253t303.5 -95q149 0 262 67.5t170.5 178.5t57.5 247v66h-342q-16 0 -41.5 -3t-30.5 -3q-14 0 -23.5 8.5t-9.5 21.5t9.5 21t23.5 8q5 0 30.5 -2t41.5 -2h348q27 0 37 -11.5t10 -39.5v-60q0 -115 -38 -215t-107 -173.5t-172 -115.5t-226 -42q-188 0 -331 97.5 t-219 267.5t-76 386z" />
<glyph unicode="H" horiz-adv-x="1460" d="M231 29q0 7 2.5 34.5t2.5 45.5v1245q0 18 -2.5 45.5t-2.5 34.5q0 14 9.5 25t23.5 11t23.5 -11t9.5 -25q0 -7 -3 -34.5t-3 -45.5v-529h878v529q0 18 -3 45.5t-3 34.5q0 14 9.5 25t23.5 11t23.5 -11t9.5 -25q0 -7 -2 -34.5t-2 -45.5v-1245q0 -18 2 -45.5t2 -34.5 q0 -14 -9.5 -25.5t-23.5 -11.5t-23.5 11.5t-9.5 25.5q0 7 3 34.5t3 45.5v667h-878v-667q0 -18 3 -45.5t3 -34.5q0 -14 -9.5 -25.5t-23.5 -11.5t-23.5 11.5t-9.5 25.5z" />
<glyph unicode="I" horiz-adv-x="567" d="M252 29q0 7 2 34.5t2 45.5v1245q0 18 -2 45.5t-2 34.5q0 15 8.5 25.5t24.5 10.5q14 0 23 -11t9 -25q0 -7 -3 -34.5t-3 -45.5v-1245q0 -18 3 -45.5t3 -34.5q0 -14 -9 -25.5t-23 -11.5q-16 0 -24.5 11t-8.5 26z" />
<glyph unicode="J" horiz-adv-x="1150" d="M51 295q0 13 8.5 22t22.5 9q10 0 16 -6t9 -13t7 -21t7 -22q46 -114 142 -173.5t222 -59.5q98 0 173.5 32.5t122 91t70 135.5t23.5 169v895q0 18 -2 45.5t-2 34.5q0 15 8.5 25.5t24.5 10.5q14 0 23.5 -11t9.5 -25q0 -7 -3 -34.5t-3 -45.5v-889q0 -104 -26.5 -190 t-79 -152.5t-139.5 -103.5t-200 -37q-140 0 -248 66t-167 192q-19 33 -19 55z" />
<glyph unicode="K" horiz-adv-x="1230" d="M231 29q0 7 2.5 34.5t2.5 45.5v1245q0 18 -2.5 45.5t-2.5 34.5q0 14 9.5 25t23.5 11t23.5 -11t9.5 -25q0 -7 -3 -34.5t-3 -45.5v-697l371 396l317 346q12 14 26.5 32.5t16.5 20.5q13 18 31 18q13 0 21.5 -7.5t8.5 -20.5q0 -15 -12 -27q-5 -7 -24.5 -24t-30.5 -29 l-459 -496l545 -755q10 -14 53 -64q10 -17 10 -24q0 -11 -8 -21t-24 -10q-19 0 -31 18q-1 2 -15.5 26.5t-25.5 39.5l-543 753l-227 -239v-481q0 -18 3 -45.5t3 -34.5q0 -14 -9.5 -25.5t-23.5 -11.5t-23.5 11.5t-9.5 25.5z" />
<glyph unicode="L" horiz-adv-x="1116" d="M231 37q0 6 2.5 33.5t2.5 46.5v1237q0 18 -2.5 45.5t-2.5 34.5q0 14 9.5 25t23.5 11t23.5 -11t9.5 -25q0 -7 -3 -34.5t-3 -45.5v-1301h672q20 0 45 4t32 4q14 0 24.5 -8t10.5 -20q0 -14 -10.5 -23.5t-24.5 -9.5h-774q-17 0 -26 10.5t-9 26.5z" />
<glyph unicode="M" horiz-adv-x="1677" d="M231 29q0 6 2.5 33.5t2.5 46.5v1237q0 19 -2.5 46t-2.5 33q0 16 9 26.5t26 10.5h6q27 0 39 -28q10 -15 21 -48l477 -1019q19 -39 29 -74q2 4 7 17.5t11.5 28.5t13.5 30l473 1017q10 15 21 48q16 28 39 28h6q17 0 27 -10.5t10 -26.5q0 -6 -2 -33t-2 -46v-1237 q0 -19 2 -46.5t2 -33.5q0 -15 -9 -26t-24 -11t-24 11t-9 26q0 6 3 33.5t3 46.5l3 1167q0 29 6 104l-500 -1071q-2 -4 -7.5 -16.5t-9.5 -21.5t-6 -11q-10 -20 -32 -20q-25 0 -35 20q-2 2 -6 12t-9.5 22t-7.5 17l-501 1069q8 -50 8 -104l2 -1167q0 -19 2 -46.5t2 -33.5 q0 -16 -8.5 -26.5t-22.5 -10.5q-33 0 -33 37z" />
<glyph unicode="N" horiz-adv-x="1505" d="M231 29q0 7 2.5 34.5t2.5 45.5v1237q0 19 -2.5 46t-2.5 33q0 16 9 26.5t26 10.5q25 0 41 -24l821 -1217q61 -89 91 -143q-2 23 -2 125l-5 1151q0 18 -2 45.5t-2 34.5q0 14 9.5 25t23.5 11t23.5 -11t9.5 -25q0 -7 -2 -34.5t-2 -45.5v-1245q0 -18 2 -45.5t2 -34.5 q0 -14 -9.5 -25.5t-23.5 -11.5q-10 0 -19 6t-13.5 12.5t-14.5 23t-16 25.5l-895 1327q6 -40 6 -104l2 -1173q0 -18 3 -45.5t3 -34.5q0 -14 -9.5 -25.5t-23.5 -11.5t-23.5 11.5t-9.5 25.5z" />
<glyph unicode="O" horiz-adv-x="1576" d="M160 733q0 216 76 386.5t219.5 269t332.5 98.5t333 -98.5t220 -269t76 -386.5q0 -161 -44.5 -299.5t-125 -238.5t-199 -156.5t-260.5 -56.5q-189 0 -332.5 97.5t-219.5 267.5t-76 386zM215 731q0 -145 39.5 -272t111.5 -222.5t181 -150.5t241 -55t241 55t180.5 150.5 t111 222.5t39.5 272q0 146 -39.5 274.5t-111 225t-180.5 152t-241 55.5t-241 -55.5t-181 -152t-111.5 -225t-39.5 -274.5z" />
<glyph unicode="P" horiz-adv-x="1202" d="M231 29q0 7 2.5 34.5t2.5 45.5v1237q0 19 -2.5 46t-2.5 33q0 16 9 26.5t26 10.5h375q222 0 343.5 -105t121.5 -290q0 -181 -126 -293t-329 -112h-360v-553q0 -18 3 -45.5t3 -34.5q0 -14 -9.5 -25.5t-23.5 -11.5t-23.5 11.5t-9.5 25.5zM291 711h360q179 0 289.5 99 t110.5 257q0 165 -108 255.5t-300 90.5h-352v-702z" />
<glyph unicode="Q" horiz-adv-x="1593" d="M160 733q0 216 76 386.5t219.5 269t332.5 98.5t333 -98.5t220 -269t76 -386.5q0 -181 -57 -335.5t-164 -256.5l127 -170q43 -60 76.5 -86t64.5 -26q40 0 59 19.5t17 49.5q4 27 27 27q28 0 28 -35q0 -44 -34.5 -76t-85.5 -32q-54 0 -95.5 29t-95.5 100l-125 168 q-159 -127 -371 -127q-189 0 -332.5 97.5t-219.5 267.5t-76 386zM215 731q0 -145 39.5 -272t111.5 -222.5t181 -150.5t241 -55q197 0 340 121l-114 155q-45 60 -76.5 85.5t-63.5 25.5q-37 0 -56 -19.5t-17 -54.5q-4 -25 -27 -25q-29 0 -29 35q0 45 36.5 77t84.5 32 q56 0 95 -29.5t94 -101.5l110 -148q95 95 145 238.5t50 308.5q0 197 -67 356.5t-198.5 255t-306.5 95.5q-132 0 -241 -55.5t-181 -152t-111.5 -225t-39.5 -274.5z" />
<glyph unicode="R" horiz-adv-x="1263" d="M231 29q0 7 2.5 34.5t2.5 45.5v1237q0 19 -2.5 46t-2.5 33q0 16 9 26.5t26 10.5h377q214 0 337.5 -99.5t123.5 -279.5q0 -167 -110.5 -272t-295.5 -117l373 -606q22 -35 49 -35q7 0 17 4t18 4q14 0 24.5 -9.5t10.5 -20.5q0 -16 -16 -27.5t-41 -11.5q-33 0 -58.5 18 t-52.5 60l-385 622h-346v-583q0 -18 3 -45.5t3 -34.5q0 -14 -9.5 -25.5t-23.5 -11.5t-23.5 11.5t-9.5 25.5zM291 741h358q184 0 292 91.5t108 250.5q0 161 -108 245.5t-298 84.5h-352v-672z" />
<glyph unicode="S" horiz-adv-x="1161" d="M98 301q0 13 9 22t22 9q4 0 8 -1t7 -3.5t5 -5t4.5 -7t3.5 -7.5t2.5 -9.5t2.5 -9t2.5 -10t1.5 -9.5q35 -110 145.5 -174.5t251.5 -64.5q192 0 306 95t114 239q0 110 -82 193.5t-283 164.5l-92 35q-333 135 -333 387q0 145 107.5 243.5t279.5 98.5q131 0 232 -52t149 -139 q14 -28 14 -41q0 -12 -9.5 -20t-21.5 -8q-9 0 -15.5 6t-11 14t-12.5 26q-3 6 -4 9q-35 68 -123.5 112t-199.5 44q-143 0 -236.5 -82t-93.5 -209q0 -109 71.5 -193t227.5 -145l98 -39q209 -84 301 -178.5t92 -229.5q0 -160 -126.5 -270t-348.5 -110q-168 0 -287.5 75.5 t-166.5 202.5q-11 26 -11 41z" />
<glyph unicode="T" horiz-adv-x="1146" d="M49 1432q0 14 10.5 22t24.5 8h979q15 0 25 -8t10 -22q0 -13 -10.5 -21t-24.5 -8q-7 0 -32.5 5t-45.5 5h-383v-1304q0 -18 2 -45.5t2 -34.5q0 -14 -9.5 -25.5t-23.5 -11.5t-23 11.5t-9 25.5q0 7 2 34.5t2 45.5v1304h-383q-20 0 -45.5 -5t-32.5 -5q-14 0 -24.5 8t-10.5 21z " />
<glyph unicode="U" horiz-adv-x="1454" d="M217 1434q0 14 9.5 25t23.5 11t23.5 -11t9.5 -25q0 -7 -3.5 -34.5t-3.5 -45.5v-828q0 -229 124.5 -362t326.5 -133t326.5 133t124.5 362v828q0 18 -3.5 45.5t-3.5 34.5q0 14 9.5 25t23.5 11t23.5 -11t9.5 -25q0 -7 -2 -34.5t-2 -45.5v-828q0 -253 -140 -398.5 t-366 -145.5t-366 145.5t-140 398.5v828q0 18 -2 45.5t-2 34.5z" />
<glyph unicode="V" d="M57 1438q0 13 9.5 22.5t23.5 9.5q23 0 33 -26q16 -65 20 -76l469 -1243q4 -9 8.5 -23.5t9.5 -30.5t7 -22q8 36 22 74l467 1245q5 15 12.5 41.5t10.5 34.5q10 26 31 26q14 0 23 -9.5t9 -22.5q0 -11 -6 -23q-2 -5 -12 -26.5t-16 -38.5l-476 -1254q-5 -15 -12 -39.5 t-10 -31.5q-9 -33 -41 -33h-6q-32 0 -41 33q-7 27 -23 71l-477 1254q-6 20 -29 65q-6 12 -6 23z" />
<glyph unicode="W" horiz-adv-x="1687" d="M57 1438q0 12 9 22t22 10q28 0 35 -36q8 -53 10 -64l324 -1229q10 -34 14 -78q6 22 29 82l293 777q16 51 18 55q11 22 35 22q25 0 33 -22q2 -4 18 -55l295 -779q16 -40 27 -84l16 82l321 1229q5 23 11 64q7 36 35 36q13 0 20.5 -9.5t7.5 -22.5q0 -9 -6 -27 q-12 -32 -18 -59l-332 -1258l-17 -69q-9 -31 -34 -31h-6q-24 0 -33 26q-1 2 -11 32t-12 34l-295 778q-11 25 -22 64q-4 -27 -19 -62l-297 -780l-20 -66q-12 -26 -33 -26h-8q-27 0 -33 31l-16 69l-334 1258q-6 25 -18 57q-9 18 -9 29z" />
<glyph unicode="X" horiz-adv-x="1185" d="M57 25q0 6 11 24q28 33 47 60l446 645l-414 596q-6 10 -14.5 20.5t-19 22t-13.5 14.5q-8 13 -8 27q0 12 9 21t22 9q17 0 29 -16q5 -6 18 -31t23 -39l403 -585l399 585q6 11 18.5 35t18.5 31q12 20 33 20q12 0 20.5 -8.5t8.5 -21.5t-11 -27q-3 -4 -20 -24t-25 -33 l-413 -600l446 -641q19 -27 47 -60q10 -17 10 -24q0 -14 -9.5 -23.5t-22.5 -9.5q-18 0 -29 18q-5 7 -18 31t-21 37l-438 633l-432 -633q-8 -11 -15 -24t-13.5 -25.5t-8.5 -16.5q-16 -20 -31 -20q-14 0 -23.5 10t-9.5 23z" />
<glyph unicode="Y" horiz-adv-x="1134" d="M57 1438q0 12 9 22t22 10q23 0 33 -24q17 -46 29 -72l419 -815l416 815q8 18 18 43t11 27q13 26 35 26q13 0 20.5 -9.5t7.5 -22.5q0 -12 -8 -25q-27 -41 -37 -61l-436 -846v-397q0 -18 3 -45.5t3 -34.5q0 -14 -9.5 -25.5t-23.5 -11.5q-16 0 -24 11t-8 26q0 7 2 34.5 t2 45.5v399l-439 842q-13 28 -36 63q-9 15 -9 25z" />
<glyph unicode="Z" horiz-adv-x="1112" d="M57 29q0 8 15 34l850 1268q26 42 59 84h-735q-20 0 -45.5 -5t-32.5 -5q-35 0 -35 29q0 13 10.5 20.5t24.5 7.5h840q14 0 23 -8.5t9 -19.5q0 -15 -14 -35l-858 -1282q-34 -50 -49 -68h821q20 0 45.5 5t32.5 5q35 0 35 -28q0 -13 -10.5 -22t-24.5 -9h-928q-14 0 -23.5 9 t-9.5 20z" />
<glyph unicode="[" horiz-adv-x="688" d="M203 -127q0 6 2 33.5t2 46.5v1423q0 19 -2 46.5t-2 33.5q0 16 9 26.5t26 10.5h325q14 0 24.5 -8.5t10.5 -22.5q0 -13 -10.5 -20.5t-24.5 -7.5q-6 0 -32.5 5t-43.5 5h-227v-1559h227q17 0 43.5 5.5t32.5 5.5q14 0 24.5 -8t10.5 -21q0 -14 -10.5 -22.5t-24.5 -8.5h-325 q-17 0 -26 10.5t-9 26.5z" />
<glyph unicode="\" horiz-adv-x="702" d="M-10 1466q-1 14 7 22.5t21 8.5q26 0 35 -27q1 -2 25 -67l741 -1606q7 -14 18.5 -32.5t14.5 -24.5q8 -13 8 -27q0 -13 -8.5 -21.5t-22.5 -8.5q-22 0 -32 26q-4 10 -12 33t-13 35l-743 1605q-6 15 -18.5 35.5t-14.5 24.5q-6 12 -6 24z" />
<glyph unicode="]" horiz-adv-x="688" d="M78 -133q0 13 10.5 21t24.5 8q6 0 32 -5.5t43 -5.5h228v1559h-228q-17 0 -43 -5t-32 -5q-14 0 -24.5 7.5t-10.5 20.5q0 14 10.5 22.5t24.5 8.5h325q17 0 26 -10.5t9 -26.5q0 -6 -2 -33.5t-2 -46.5v-1423q0 -19 2 -46.5t2 -33.5q0 -16 -9 -26.5t-26 -10.5h-325 q-14 0 -24.5 8.5t-10.5 22.5z" />
<glyph unicode="^" horiz-adv-x="1085" d="M100 723q0 10 9 22q25 30 34 46l344 530q6 8 14 22t13 21q8 14 29 14q19 0 30 -14q22 -38 25 -43l344 -530q2 -4 35 -43q8 -10 8 -23q0 -12 -8.5 -20.5t-20.5 -8.5q-15 0 -26 15q-5 6 -13 22.5t-14 24.5l-360 557l-361 -557q-6 -8 -13.5 -24.5t-12.5 -22.5 q-13 -17 -27 -17q-11 0 -20 9t-9 20z" />
<glyph unicode="_" horiz-adv-x="792" d="M-2 -135q0 24 29 24h737q31 0 31 -24q0 -23 -31 -23h-737q-12 0 -20.5 6.5t-8.5 16.5z" />
<glyph unicode="`" horiz-adv-x="643" d="M164 1456q0 14 9 23.5t22 9.5t32 -19q1 -1 14 -15.5t25 -24.5l162 -158l37 -35q14 -14 14 -27q0 -10 -7.5 -17t-18.5 -7q-15 0 -27 12q-1 1 -11.5 13.5t-21.5 21.5l-160 151q-13 11 -30.5 24.5t-22.5 18.5q-16 13 -16 29z" />
<glyph unicode="a" horiz-adv-x="999" d="M102 268q0 133 92.5 212.5t266.5 94.5q130 10 201 37.5t96 77.5v33q0 95 -71.5 162t-188.5 67q-95 0 -156 -35t-82 -92q-2 -6 -6 -20.5t-6.5 -20.5t-8.5 -12t-16 -6q-26 0 -26 31q0 14 8 34q29 77 103.5 122.5t191.5 45.5q137 0 225 -81t88 -203v-586q0 -82 35 -82 q10 0 19 4t16 4q28 0 28 -28q0 -14 -15 -24.5t-38 -10.5q-85 0 -96 100q-119 -110 -311 -110q-157 0 -253 81t-96 205zM158 266q0 -103 80 -170t217 -67q82 0 163 27.5t140 82.5v488q-66 -78 -289 -101q-311 -28 -311 -260z" />
<glyph unicode="b" horiz-adv-x="1136" d="M207 33q0 6 5 33.5t5 46.5v1263q0 17 -3 44t-3 34q0 14 9.5 24.5t23.5 10.5t23 -10.5t9 -24.5q0 -7 -3 -34t-3 -44v-512q118 135 295 135q192 0 312 -138.5t120 -356.5q0 -227 -120 -374.5t-322 -147.5q-89 0 -162.5 34t-122.5 86v-69q0 -15 -8 -25t-22 -10t-23.5 10.5 t-9.5 24.5zM270 156q107 -127 283 -127q168 0 279.5 129t111.5 346q0 124 -44.5 224.5t-131.5 161t-203 60.5q-183 0 -295 -139v-655z" />
<glyph unicode="c" horiz-adv-x="1077" d="M139 492q0 139 54 253.5t157.5 184t237.5 69.5q222 0 338 -174q18 -27 18 -45q0 -11 -9 -19.5t-22 -8.5q-6 0 -10.5 2.5t-9 8.5t-7 10.5t-8 15t-8.5 16.5q-41 69 -114 107t-166 38q-118 0 -209.5 -63.5t-138.5 -167t-47 -227.5q0 -129 47.5 -234t137 -167t204.5 -62 q107 0 186 44.5t119 125.5q4 7 8.5 19t7.5 18t9 11t14 5q13 0 21.5 -9.5t8.5 -21.5q0 -14 -16 -43q-55 -97 -147 -146.5t-211 -49.5q-131 0 -233.5 67.5t-157 183.5t-54.5 259z" />
<glyph unicode="d" horiz-adv-x="1136" d="M139 504q0 218 120 356.5t312 138.5q179 0 295 -133v510q0 17 -3 44t-3 34q0 14 9.5 24.5t23.5 10.5t23.5 -10.5t9.5 -24.5q0 -7 -2 -34t-2 -44v-1263q0 -19 4 -46.5t4 -33.5q0 -14 -9.5 -24.5t-23.5 -10.5q-13 0 -22 10.5t-9 24.5v67q-118 -118 -284 -118 q-135 0 -236.5 69t-154 187t-52.5 266zM195 504q0 -217 110.5 -346t278.5 -129q172 0 282 127v655q-112 139 -293 139q-117 0 -204 -60.5t-130.5 -161t-43.5 -224.5z" />
<glyph unicode="e" horiz-adv-x="1124" d="M139 496q0 101 31.5 192.5t87.5 160.5t140.5 109.5t183.5 40.5q185 0 300 -132.5t115 -336.5q0 -31 -11.5 -43t-39.5 -12h-753q3 -123 50 -223t138 -161.5t211 -61.5q105 0 187.5 45.5t117.5 124.5q2 5 5.5 14t5 13t5 10t6.5 9t8 5t11 2q12 0 20.5 -10t8.5 -21 q0 -14 -13 -37q-111 -202 -362 -202q-133 0 -237 67.5t-160 184t-56 262.5zM193 522h753v11q0 175 -97 295q-100 124 -267 124q-168 0 -274.5 -122t-114.5 -308z" />
<glyph unicode="f" horiz-adv-x="614" d="M94 954q0 12 9.5 20.5t23.5 8.5q6 0 29 -3t39 -3h41v297q0 106 57 159.5t139 53.5q97 0 154 -57q20 -20 20 -37q0 -13 -8.5 -21t-19.5 -8q-8 0 -14 4.5t-13 14t-10 12.5q-40 43 -113 43q-55 0 -97 -37.5t-42 -118.5v-305h178q15 0 39 3t29 3q12 0 21 -8.5t9 -20.5 q0 -13 -8.5 -20.5t-21.5 -7.5q-5 0 -29 2t-39 2h-178v-824q0 -19 3 -45t3 -32q0 -15 -9 -26t-24 -11t-24 11t-9 26q0 6 3.5 32t3.5 45v824h-41q-16 0 -39 -2t-29 -2q-14 0 -23.5 7.5t-9.5 20.5z" />
<glyph unicode="g" horiz-adv-x="1132" d="M139 504q0 218 120 356.5t312 138.5q176 0 291 -129v48q0 14 9 24t24 10q13 0 22 -10t9 -24q0 -6 -4 -33.5t-4 -44.5v-836q0 -216 -104 -339.5t-290 -123.5q-204 0 -319 160q-12 15 -12 35q0 11 7.5 19.5t20.5 8.5q8 0 15 -5t10 -9t9.5 -16t8.5 -15q37 -61 105 -95 t155 -34q154 0 246 105.5t92 304.5v96q-118 -114 -280 -114q-135 0 -236.5 69t-154 187t-52.5 266zM195 504q0 -217 110.5 -346t278.5 -129q169 0 278 121v667q-117 133 -289 133q-117 0 -204 -60.5t-130.5 -161t-43.5 -224.5z" />
<glyph unicode="h" horiz-adv-x="1136" d="M207 29q0 7 2 33t2 44v1266q0 18 -2 44.5t-2 33.5q0 15 9 26t24 11q14 0 22 -10.5t8 -26.5q0 -7 -2 -33.5t-2 -44.5v-551q56 79 139.5 128.5t190.5 49.5q155 0 247.5 -103t92.5 -275v-515q0 -18 2 -44t2 -33q0 -14 -9.5 -25.5t-23.5 -11.5t-22 11t-8 26q0 7 2 33t2 44 v512q0 152 -78 242t-217 90q-99 0 -181.5 -50.5t-138.5 -137.5v-656q0 -18 2 -44t2 -33q0 -15 -8 -26t-22 -11t-23.5 11.5t-9.5 25.5z" />
<glyph unicode="i" horiz-adv-x="520" d="M207 1309q0 22 15 37.5t38 15.5t39 -15.5t16 -37.5q0 -23 -16 -39.5t-39 -16.5t-38 16t-15 40zM227 29q0 7 3 33t3 44v754q0 18 -3 44.5t-3 33.5q0 14 9.5 25.5t23.5 11.5t23.5 -11.5t9.5 -25.5q0 -7 -2 -33.5t-2 -44.5v-754q0 -18 2 -44t2 -33q0 -14 -9.5 -25.5 t-23.5 -11.5t-23.5 11.5t-9.5 25.5z" />
<glyph unicode="j" horiz-adv-x="528" d="M10 -416q0 12 8.5 20.5t20.5 8.5q11 0 28 -10.5t42 -10.5q65 0 99 42.5t34 125.5v1100q0 18 -3 44.5t-3 33.5q0 14 9 25.5t23 11.5t23.5 -11.5t9.5 -25.5q0 -7 -3 -33.5t-3 -44.5v-1122q0 -89 -51 -143t-144 -54q-90 0 -90 43zM215 1300q0 22 15 38t38 16t39.5 -16 t16.5 -38q0 -23 -16.5 -39t-39.5 -16t-38 16t-15 39z" />
<glyph unicode="k" horiz-adv-x="952" d="M207 29q0 7 2 33t2 44v1266q0 18 -2 44.5t-2 33.5q0 15 9 26t24 11q14 0 22 -10.5t8 -26.5q0 -7 -2 -33.5t-2 -44.5v-631q0 -20 -1 -147.5t-1 -155.5l277 289l159 174q11 11 19.5 21.5t15.5 20t10 13.5q16 19 33 19q11 0 20 -9t9 -22q0 -14 -10 -24q-4 -6 -24.5 -23 t-33.5 -33l-270 -286l350 -472q11 -15 28.5 -34t22.5 -25q11 -15 11 -24q0 -11 -9.5 -21t-23.5 -10q-17 0 -29 18q-22 38 -39 62l-348 471l-166 -172v-265q0 -18 2 -44t2 -33q0 -15 -8 -26t-22 -11t-23.5 11.5t-9.5 25.5z" />
<glyph unicode="l" horiz-adv-x="477" d="M207 29q0 7 2 33t2 44v1266q0 18 -2 44.5t-2 33.5q0 15 9 26t24 11q14 0 22 -10.5t8 -26.5q0 -7 -2 -33.5t-2 -44.5v-1266q0 -18 2 -44t2 -33q0 -15 -8 -26t-22 -11t-23.5 11.5t-9.5 25.5z" />
<glyph unicode="m" horiz-adv-x="1767" d="M207 918q0 14 9 24t24 10q14 0 22 -10t8 -24v-97q56 79 137 128.5t183 49.5q114 0 188.5 -57t110.5 -156q53 99 141.5 156t192.5 57q157 0 250.5 -103.5t93.5 -277.5v-512q0 -18 2 -44t2 -33q0 -14 -9.5 -25.5t-23.5 -11.5t-22.5 11t-8.5 26q0 7 2 33t2 44v512 q0 152 -76 242t-216 90q-98 0 -183.5 -57t-130.5 -154q13 -63 13 -159v-474q0 -18 3 -44t3 -33q0 -15 -8.5 -26t-22.5 -11t-23.5 11.5t-9.5 25.5q0 7 2 33t2 44v472q0 119 -20 192q-29 86 -97.5 133t-162.5 47q-194 0 -314 -188v-656q0 -18 3 -44t3 -33q0 -14 -9 -25.5 t-23 -11.5t-23.5 11.5t-9.5 25.5q0 7 3 33t3 44v732q0 19 -5 46.5t-5 33.5z" />
<glyph unicode="n" horiz-adv-x="1140" d="M207 918q0 14 9 24t24 10q14 0 22 -10t8 -24v-101q126 182 332 182q154 0 246 -103t92 -275v-515q0 -18 2 -44t2 -33q0 -15 -8.5 -26t-22.5 -11t-23 11.5t-9 25.5q0 7 2 33t2 44v512q0 152 -78 242t-217 90q-196 0 -320 -190v-654q0 -18 3 -44t3 -33q0 -14 -9 -25.5 t-23 -11.5t-23.5 11.5t-9.5 25.5q0 7 3 33t3 44v732q0 19 -5 46.5t-5 33.5z" />
<glyph unicode="o" horiz-adv-x="1169" d="M139 489q0 102 31 194t86.5 162.5t140.5 112t187 41.5q137 0 240 -72t154.5 -186.5t51.5 -251.5q0 -139 -51.5 -253t-154.5 -184t-240 -70q-135 0 -238 70t-155 184.5t-52 252.5zM195 489q0 -124 45 -227.5t135 -168t209 -64.5q91 0 166 37.5t123.5 101t75 146.5 t26.5 175q0 123 -44.5 226.5t-135 169t-211.5 65.5q-119 0 -209 -65.5t-135 -169t-45 -226.5z" />
<glyph unicode="p" horiz-adv-x="1136" d="M207 918q0 14 9 24t24 10q14 0 22 -10t8 -24v-56q119 137 295 137q192 0 312 -138.5t120 -356.5q0 -227 -120 -374.5t-322 -147.5q-89 0 -162.5 34t-122.5 86v-448q0 -18 3 -44.5t3 -33.5q0 -16 -8.5 -26.5t-23.5 -10.5t-24 11t-9 26q0 7 3 33.5t3 44.5v1184 q0 19 -5 46.5t-5 33.5zM270 156q107 -127 283 -127q168 0 279.5 129t111.5 346q0 124 -44.5 224.5t-131.5 161t-203 60.5q-183 0 -295 -139v-655z" />
<glyph unicode="q" horiz-adv-x="1136" d="M139 504q0 218 120 356.5t312 138.5q176 0 295 -137v56q0 14 9 24t24 10q13 0 22 -10t9 -24q0 -6 -4 -33.5t-4 -44.5v-1164q0 -84 36 -84q8 0 18 5.5t19 5.5q12 0 20.5 -8t8.5 -21q0 -15 -15.5 -25t-39.5 -10q-48 0 -75.5 35.5t-27.5 106.5v419q-118 -118 -284 -118 q-135 0 -236.5 69t-154 187t-52.5 266zM195 504q0 -217 110.5 -346t278.5 -129q172 0 282 127v655q-112 139 -293 139q-117 0 -204 -60.5t-130.5 -161t-43.5 -224.5z" />
<glyph unicode="r" horiz-adv-x="665" d="M207 918q0 14 9 24t24 10q14 0 22 -10t8 -24v-97q62 87 132 132.5t130 45.5q39 0 61.5 -13t22.5 -32q0 -13 -9.5 -21.5t-22.5 -8.5q-11 0 -28 11t-42 11q-52 0 -116 -46.5t-128 -141.5v-652q0 -18 3 -44t3 -33q0 -14 -9 -25.5t-23 -11.5t-23.5 11.5t-9.5 25.5q0 7 3 33 t3 44v732q0 19 -5 46.5t-5 33.5z" />
<glyph unicode="s" horiz-adv-x="870" d="M78 209q0 31 28 31q8 0 13.5 -3t9.5 -10.5t6 -11.5t5.5 -16t4.5 -15q30 -71 107 -113t172 -42q120 0 197 56.5t77 150.5q0 80 -58.5 134.5t-203.5 104.5l-51 19q-242 81 -242 264q0 103 81 171t200 68q178 0 274 -131q17 -24 17 -39q0 -11 -8.5 -18.5t-22.5 -7.5 q-7 0 -13.5 4.5t-10 10t-10 15.5t-9.5 15q-65 104 -217 104q-96 0 -161.5 -52t-65.5 -140q0 -71 48 -125.5t165 -93.5l49 -17q156 -53 224.5 -118.5t68.5 -165.5q0 -111 -88 -183.5t-238 -72.5q-112 0 -203 49.5t-135 144.5q-10 23 -10 33z" />
<glyph unicode="t" horiz-adv-x="636" d="M61 954q0 12 9.5 20.5t23.5 8.5q6 0 29 -3t39 -3h49v162q0 19 -3 45.5t-3 32.5q0 15 9 25.5t24 10.5t23.5 -10.5t8.5 -25.5q0 -6 -3 -32.5t-3 -45.5v-162h187q15 0 38.5 3t28.5 3q12 0 21.5 -8.5t9.5 -20.5q0 -13 -9 -20.5t-22 -7.5q-5 0 -28.5 2t-38.5 2h-187v-729 q0 -44 13 -77t34.5 -50t44 -25t45.5 -8q75 0 111 41q3 3 8.5 10.5t9 11.5t9.5 7.5t12 3.5q12 0 20.5 -7.5t8.5 -21.5q0 -17 -23 -37q-57 -57 -151 -57q-81 0 -138 53t-57 156v729h-49q-16 0 -39 -2t-29 -2q-14 0 -23.5 7.5t-9.5 20.5z" />
<glyph unicode="u" horiz-adv-x="1140" d="M197 944q0 14 9 24.5t23 10.5t22.5 -10.5t8.5 -24.5q0 -8 -2 -35t-2 -45v-504q0 -151 79 -241t224 -90q92 0 173 40t138 113v682q0 18 -3 45t-3 35q0 14 9.5 24.5t23.5 10.5t23.5 -10.5t9.5 -24.5q0 -8 -2 -35t-2 -45v-758q0 -17 4 -44t4 -33q0 -15 -9 -26t-24 -11 q-14 0 -22.5 10.5t-8.5 26.5v98q-56 -67 -139.5 -106t-181.5 -39q-159 0 -253.5 102.5t-94.5 273.5v506q0 18 -2 45t-2 35z" />
<glyph unicode="v" horiz-adv-x="901" d="M57 944q0 12 9 21.5t22 9.5q21 0 31 -27q3 -7 10 -33.5t12 -40.5l285 -737l27 -82q2 20 24 80l283 739l22 74q10 27 31 27q13 0 22 -9.5t9 -21.5q0 -10 -6 -22q-1 -4 -12 -25.5t-17 -38.5l-295 -762q-2 -5 -22 -65q-5 -20 -12 -27.5t-25 -7.5h-9q-16 0 -22.5 7.5 t-13.5 27.5q-1 4 -5 17l-8 26t-8 22l-295 762q-5 12 -31 64q-6 12 -6 22z" />
<glyph unicode="w" horiz-adv-x="1376" d="M57 942q0 14 10 23.5t23 9.5q24 0 31 -33q11 -44 20 -72l248 -741q16 -47 23 -74l24 74l199 551l18 57q6 29 35 29q25 0 35 -29l18 -57l197 -549l25 -74l22 74l250 739q5 16 11 40t9 32q7 33 31 33q13 0 23 -9.5t10 -23.5q0 -4 -6 -22q-20 -41 -29 -64l-262 -762 q-21 -63 -21 -71q-8 -27 -32 -27h-8q-25 0 -33 24l-27 74l-194 541q-11 21 -19 55q-8 -31 -18 -55l-199 -541l-25 -74q-11 -24 -32 -24h-8q-25 0 -33 27q0 3 -10 35t-13 36l-260 762q-7 25 -27 64q-6 18 -6 22z" />
<glyph unicode="x" horiz-adv-x="925" d="M57 23q0 13 11 24q4 4 18.5 19.5t26.5 29.5l315 416l-272 358l-45 50q-11 11 -11 24t10 22t21 9q18 0 29 -19q6 -7 17 -26t20 -31l268 -352l262 352q9 13 21 32t18 27q9 15 27 15q11 0 20.5 -8t9.5 -21q0 -14 -10 -24l-43 -50l-276 -362l319 -412q14 -18 45 -49 q8 -12 8 -24q0 -13 -8.5 -22t-19.5 -9q-20 0 -31 18q-3 5 -14.5 24t-22.5 34l-311 405l-303 -405q-10 -14 -22.5 -34.5t-16.5 -25.5q-13 -16 -29 -16q-11 0 -21 9t-10 22z" />
<glyph unicode="y" horiz-adv-x="901" d="M57 942q0 14 9.5 23.5t23.5 9.5q21 0 31 -23q10 -41 22 -75l273 -762q20 -61 22 -76l322 838q6 16 13 42t9 33q10 23 31 23q13 0 22 -9.5t9 -23.5q0 -5 -8 -24q-15 -25 -27 -60l-461 -1196q-45 -123 -166 -123q-40 0 -63 12t-23 31q0 12 8.5 21.5t20.5 9.5q13 0 30 -11.5 t38 -11.5q74 0 112 101l115 301q-29 4 -37 31q-3 8 -7 32t-9 41l-275 762q-9 26 -26 60q-9 18 -9 24z" />
<glyph unicode="z" horiz-adv-x="884" d="M61 33q0 19 17 39l620 807l43 51h-530q-17 0 -43.5 -4t-32.5 -4q-35 0 -35 28q0 13 10.5 21t24.5 8h631q37 0 37 -33q0 -17 -17 -37l-630 -821l-31 -39h586q17 0 43 5t32 5q14 0 24.5 -8t10.5 -22q0 -13 -10.5 -21t-24.5 -8h-690q-35 0 -35 33z" />
<glyph unicode="{" horiz-adv-x="763" d="M113 635q0 13 9 22t21 9q8 0 20 -2t19 -2q67 0 120.5 61.5t53.5 134.5q0 41 -9 232t-9 251q0 78 48 125t144 47q82 0 132 -24q22 -13 22 -31q0 -11 -10 -18.5t-21 -7.5q-13 0 -24 8q-37 26 -103 26q-69 0 -103 -36t-34 -93q0 -60 9.5 -251.5t9.5 -229.5 q0 -77 -48.5 -139.5t-119.5 -81.5q71 -19 119.5 -81t48.5 -138q0 -40 -9.5 -231t-9.5 -251q0 -57 34 -94t103 -37q62 0 103 29q16 8 24 8q12 0 21.5 -7.5t9.5 -20.5q0 -16 -22 -29q-52 -25 -132 -25q-96 0 -144 47t-48 125q0 60 9 251.5t9 232.5q0 73 -54 134.5t-122 61.5 q-5 0 -15.5 -2t-19.5 -2q-13 0 -22.5 8.5t-9.5 20.5z" />
<glyph unicode="|" horiz-adv-x="475" d="M207 -416q0 8 2 35t2 45v1847q0 18 -2 45t-2 35q0 14 8.5 24.5t22.5 10.5t23 -10.5t9 -24.5q0 -8 -3 -35t-3 -45v-1847q0 -18 3 -45t3 -35q0 -14 -9 -24.5t-23 -10.5t-22.5 10.5t-8.5 24.5z" />
<glyph unicode="}" horiz-adv-x="763" d="M82 -188q0 13 9.5 20.5t21.5 7.5q8 0 24 -8q41 -29 103 -29q69 0 103 37t34 94q0 60 -9.5 251t-9.5 231q0 76 48.5 138t119.5 81q-71 19 -119.5 81.5t-48.5 139.5q0 38 9.5 229.5t9.5 251.5q0 57 -34 93t-103 36q-66 0 -103 -26q-11 -8 -24 -8q-11 0 -21 7.5t-10 18.5 q0 18 22 31q50 24 132 24q96 0 144 -47t48 -125q0 -60 -9 -251t-9 -232q0 -73 53.5 -134.5t120.5 -61.5q7 0 19 2t20 2q12 0 21 -9t9 -22q0 -12 -9.5 -20.5t-22.5 -8.5q-9 0 -19 2t-16 2q-68 0 -122 -61.5t-54 -134.5q0 -41 9 -232.5t9 -251.5q0 -78 -48 -125t-144 -47 q-80 0 -132 25q-22 13 -22 29z" />
<glyph unicode="~" horiz-adv-x="876" d="M102 694q0 21 17 45q33 45 67.5 62.5t83.5 17.5q56 0 144 -43l71 -37q79 -39 123 -39q82 0 103 74q8 31 34 31q11 0 20 -8.5t9 -20.5q0 -18 -18 -43q-31 -44 -66 -62t-84 -18q-59 0 -141 43l-74 35q-79 39 -123 39q-82 0 -102 -72q-8 -30 -35 -30q-11 0 -20 8t-9 18z" />
<glyph unicode="&#xa1;" horiz-adv-x="368" d="M139 1251q0 22 15.5 38t38.5 16t39 -16t16 -38q0 -23 -16 -39t-39 -16t-38.5 16t-15.5 39zM156 -147q0 7 2 36t2 50l8 927q0 19 -2 40.5t-2 27.5q0 14 8 24.5t21 10.5t20.5 -10.5t7.5 -24.5q0 -6 -2 -27.5t-2 -40.5l4 -927q0 -21 3 -50t3 -36q0 -15 -10 -27t-27 -12 q-16 0 -25 12t-9 27z" />
<glyph unicode="&#xa2;" horiz-adv-x="1058" d="M131 502q0 123 45 232t136 185t212 91v75q0 17 -3 43.5t-3 32.5q0 14 10 25.5t25 11.5q14 0 23.5 -11.5t9.5 -25.5q0 -6 -4 -32.5t-4 -43.5v-71h2q116 0 202 -46t133 -122q15 -27 15 -41q0 -12 -8.5 -21.5t-20.5 -9.5q-8 0 -15 5t-9.5 9.5t-9 17t-9.5 17.5 q-37 67 -110 105.5t-168 38.5h-2v-936h6q102 0 180 42t113 117q16 42 25 48q6 4 13 4q13 0 22 -10t9 -21q0 -16 -12 -37q-50 -95 -141 -143.5t-209 -48.5h-6v-64q0 -18 4 -43.5t4 -32.5q0 -15 -9 -26t-24 -11t-25 11t-10 26q0 7 3 32.5t3 43.5v68q-118 16 -208.5 91 t-137.5 186t-47 239zM186 502q0 -107 37.5 -205t116 -171.5t184.5 -90.5v928q-153 -23 -245.5 -155t-92.5 -306z" />
<glyph unicode="&#xa3;" horiz-adv-x="1079" d="M68 37q0 11 4.5 20t10 14t16 14t16.5 15q106 101 173.5 232t67.5 272q0 20 -4 60h-98q-15 0 -39 -2.5t-29 -2.5q-15 0 -23.5 8.5t-8.5 20.5t8.5 20.5t23.5 8.5q5 0 29 -3t39 -3h90q-7 35 -50.5 173t-43.5 218q0 76 29 137t76.5 98t104.5 56.5t118 19.5q191 0 301 -141 q20 -26 20 -45q0 -12 -7.5 -21.5t-19.5 -9.5q-11 0 -18 5.5t-14.5 20t-10.5 19.5q-72 123 -251 123q-51 0 -98 -15.5t-87 -46t-64 -83t-24 -119.5q0 -75 42 -212t50 -177h324q15 0 38.5 3t28.5 3q14 0 23.5 -8.5t9.5 -20.5t-9.5 -20.5t-23.5 -8.5q-5 0 -28.5 2.5t-38.5 2.5 h-318q5 -50 5 -60q0 -135 -60 -268t-178 -248q-29 -29 -41 -39h752q17 0 41 4t30 4q13 0 23 -7.5t10 -20.5t-9.5 -21t-23.5 -8h-848q-36 0 -36 37z" />
<glyph unicode="&#xa4;" horiz-adv-x="1183" d="M150 758q0 198 131 329l-58 70q-8 10 -24 27t-21 24q-16 16 -16 31q0 11 9 20t19 9q21 0 33 -21q1 -2 15.5 -23.5t25.5 -35.5l55 -68q118 88 273 88t274 -92l58 72l39 57q15 21 32 21q12 0 20.5 -8.5t8.5 -20.5q0 -13 -14 -31l-47 -51l-58 -72q129 -129 129 -325 q0 -101 -36.5 -188t-102.5 -148l68 -82q9 -11 25.5 -29t19.5 -22q14 -14 14 -31q0 -12 -8.5 -20.5t-20.5 -8.5q-17 0 -32 21q-15 27 -39 57l-68 82q-113 -80 -262 -80q-151 0 -264 80l-58 -72q-24 -30 -39 -57q-14 -20 -32 -20q-12 0 -20.5 8t-8.5 20q0 14 14 31q4 4 20 21 t25 28l60 72q-139 130 -139 338zM201 758q0 -173 110.5 -287.5t280.5 -114.5t280.5 114.5t110.5 287.5t-111 288t-280 115t-280 -115t-111 -288z" />
<glyph unicode="&#xa5;" horiz-adv-x="1081" d="M55 1366q0 11 8 21t21 10q22 0 33 -25q18 -49 28 -69l398 -771l391 771q14 29 29 69q14 25 32 25q13 0 21 -10t8 -21q0 -14 -8 -25q-2 -5 -14.5 -25.5t-20.5 -37.5l-244 -469h144q15 0 39.5 2t29.5 2q13 0 22 -8t9 -21t-9 -20.5t-22 -7.5q-5 0 -29.5 2t-39.5 2h-168 l-78 -148h149q15 0 39 2t29 2q14 0 23.5 -7t9.5 -19q0 -13 -9.5 -22t-23.5 -9q-5 0 -29 3t-39 3h-174l-41 -82v-374q0 -19 2 -46.5t2 -33.5q0 -16 -8.5 -26.5t-23.5 -10.5q-14 0 -22.5 10.5t-8.5 26.5q0 6 2 33.5t2 46.5v376l-53 101l-129 -21q-11 0 -46.5 -2t-39.5 -2 q-31 0 -37 14q-13 13 4 29q17 10 61 10q2 0 81.5 -1t82.5 -1l13 -8l-80 156h-174q-15 0 -39 -2t-29 -2q-31 0 -31 28q0 13 8.5 21t22.5 8q5 0 29 -2t39 -2h147l-244 469q-6 14 -13.5 26t-14.5 22.5t-9 14.5q-8 11 -8 25z" />
<glyph unicode="&#xa6;" horiz-adv-x="475" d="M207 -383q0 7 2 34t2 44v723q0 18 -2 44.5t-2 33.5q0 16 8 26t23 10t23.5 -10.5t8.5 -25.5q0 -7 -3 -33.5t-3 -44.5v-723q0 -17 3 -44t3 -34q0 -14 -9 -24.5t-23 -10.5t-22.5 10.5t-8.5 24.5zM207 702q0 8 2 35t2 45v721q0 18 -2 45t-2 35q0 14 8.5 24.5t22.5 10.5 t23 -10.5t9 -24.5q0 -8 -3 -35t-3 -45v-721q0 -18 3 -45t3 -35q0 -14 -9 -24t-23 -10t-22.5 10t-8.5 24z" />
<glyph unicode="&#xa7;" horiz-adv-x="878" d="M78 207q0 13 7.5 22t20.5 9q8 0 13.5 -3t9.5 -10.5t6 -11.5t5.5 -16t4.5 -15q31 -71 104.5 -113t166.5 -42q121 0 198.5 60t77.5 155q0 79 -59 131.5t-207 103.5l-47 17q-128 43 -194 113.5t-66 156.5q0 80 50 140t132 85q-166 87 -166 232q0 104 85.5 173.5t199.5 69.5 q175 0 270 -137q12 -18 12 -31t-8 -21.5t-22 -8.5q-5 0 -9.5 2.5t-9 8.5t-7.5 10.5t-8 13t-7 12.5q-68 104 -209 104q-93 0 -163.5 -53.5t-70.5 -140.5q0 -72 50.5 -127.5t169.5 -94.5l47 -16q158 -54 230.5 -118.5t72.5 -161.5q0 -81 -49 -143t-138 -89q90 -43 132 -98 t42 -131q0 -112 -89 -189.5t-236 -77.5q-114 0 -203.5 52.5t-132.5 152.5q-6 15 -6 25zM172 766q0 -151 229 -225l48 -17q25 -10 71 -26q83 22 134 77t51 127q0 78 -62 131.5t-211 104.5l-47 16q-3 1 -29 11q-79 -16 -131.5 -69.5t-52.5 -129.5z" />
<glyph unicode="&#xa8;" horiz-adv-x="768" d="M164 1300q0 23 15.5 39.5t37.5 16.5q23 0 39 -16.5t16 -39.5q0 -22 -16 -37.5t-39 -15.5q-22 0 -37.5 15.5t-15.5 37.5zM496 1300q0 24 15 40t38 16t39 -16.5t16 -39.5q0 -22 -16 -37.5t-39 -15.5t-38 15.5t-15 37.5z" />
<glyph unicode="&#xa9;" horiz-adv-x="1699" d="M129 731q0 135 40 254t109 206.5t160.5 151t197.5 95.5t216 32q138 0 266.5 -51.5t229.5 -143.5t162 -234t61 -310q0 -169 -61 -311t-162 -234.5t-229.5 -144t-266.5 -51.5q-139 0 -268 51.5t-231 144t-163 234.5t-61 311zM174 731q0 -128 37 -241.5t102 -196.5t151 -143 t185 -90.5t203 -30.5q129 0 249.5 48.5t215.5 136.5t152 222.5t57 294.5q0 158 -57 292.5t-152 222.5t-215.5 137t-249.5 49q-104 0 -203.5 -30.5t-185 -91t-150.5 -144t-102 -196t-37 -239.5zM535 717q0 166 86 272.5t243 106.5q85 0 150 -34.5t102 -92.5q10 -15 10 -27 q0 -11 -8 -19t-20 -8q-8 0 -17.5 7t-13.5 18q-19 48 -74.5 78.5t-128.5 30.5q-137 0 -207.5 -92.5t-70.5 -239.5q0 -149 70.5 -241.5t207.5 -92.5q76 0 137 35.5t76 87.5q6 24 29 24q13 0 21 -8t8 -16q0 -11 -11 -33q-36 -61 -106 -98t-154 -37q-157 0 -243 106.5t-86 272.5 z" />
<glyph unicode="&#xaa;" horiz-adv-x="663" d="M82 999q0 87 59 139t174 62q151 11 185 66v26q0 60 -44 102t-116 42q-59 0 -96.5 -22t-50.5 -56q-1 -2 -2.5 -6.5t-2 -7t-2 -6t-2.5 -5.5l-2.5 -5t-2.5 -4.5t-3 -3.5t-3.5 -3t-4 -1.5t-4.5 -0.5q-23 0 -23 26q0 15 6 27q20 48 69 77.5t124 29.5q92 0 149.5 -54t57.5 -139 v-367q0 -49 22 -49q6 0 12 2t11 2q22 0 22 -22q0 -12 -11.5 -20.5t-29.5 -8.5q-55 0 -67 62q-79 -70 -199 -70q-102 0 -163.5 52.5t-61.5 135.5zM129 997q0 -65 49 -106t133 -41q116 0 189 70v299q-40 -46 -178 -58q-193 -20 -193 -164z" />
<glyph unicode="&#xab;" horiz-adv-x="1007" d="M106 553q0 16 19 29q3 3 17.5 11.5t23.5 16.5l287 240q7 6 17.5 18t16.5 17q8 8 21 8q11 0 20 -7.5t9 -19.5q0 -15 -17 -28q-7 -5 -20 -13t-19 -12l-315 -260l315 -260q3 -2 17.5 -11t21.5 -16q17 -13 17 -26q0 -12 -9 -19.5t-20 -7.5q-13 0 -21 8l-34 33l-287 242 q-8 6 -16 11.5t-16.5 11t-12.5 7.5q-15 15 -15 27zM434 553q0 13 17 27l43 30l286 240l35 33q8 8 21 8q11 0 19.5 -7.5t8.5 -19.5q0 -14 -16 -26q-7 -7 -21.5 -16t-17.5 -11l-315 -258l315 -258q4 -3 18 -12t21 -15q16 -12 16 -26q0 -12 -8.5 -20.5t-19.5 -8.5q-10 0 -21 8 q-4 4 -10.5 11t-12.5 13t-12 11l-286 240q-7 5 -22 15t-21 15q-17 14 -17 27z" />
<glyph unicode="&#xac;" horiz-adv-x="1001" d="M80 801q0 14 10 22t25 8h692q33 0 33 -36q0 -6 -2 -33.5t-2 -44.5v-150q0 -17 2 -44.5t2 -33.5q0 -36 -33 -36q-15 0 -24 10.5t-9 25.5q0 6 3 33.5t3 44.5v215h-587q-20 0 -45.5 -5t-32.5 -5q-14 0 -24.5 8t-10.5 21z" />
<glyph unicode="&#xad;" horiz-adv-x="788" d="M121 551q0 13 9.5 22t23.5 9q5 0 29 -3.5t40 -3.5h342q16 0 40.5 3.5t29.5 3.5q14 0 23.5 -9t9.5 -22t-9.5 -22t-23.5 -9q-5 0 -29.5 3t-40.5 3h-342q-16 0 -40 -3t-29 -3q-14 0 -23.5 9t-9.5 22z" />
<glyph unicode="&#xae;" horiz-adv-x="1699" d="M129 731q0 135 40 254t109 206.5t160.5 151t197.5 95.5t216 32q138 0 266.5 -51.5t229.5 -143.5t162 -234t61 -310q0 -169 -61 -311t-162 -234.5t-229.5 -144t-266.5 -51.5q-139 0 -268 51.5t-231 144t-163 234.5t-61 311zM174 731q0 -128 37 -241.5t102 -196.5t151 -143 t185 -90.5t203 -30.5q129 0 249.5 48.5t215.5 136.5t152 222.5t57 294.5q0 158 -57 292.5t-152 222.5t-215.5 137t-249.5 49q-104 0 -203.5 -30.5t-185 -91t-150.5 -144t-102 -196t-37 -239.5zM633 389q0 6 3 29t3 39v538q0 15 -3 37.5t-3 30.5q0 12 10 21.5t23 9.5h190 q107 0 175.5 -57.5t68.5 -153.5q0 -84 -50.5 -142t-146.5 -71l148 -238q11 -18 20 -18q3 0 11 5t14 5q12 0 21 -9.5t9 -21.5q0 -13 -11.5 -22t-29.5 -9q-49 0 -75 48l-162 258h-158v-211q0 -16 2 -39t2 -29q0 -13 -8 -24t-22 -11t-22.5 11t-8.5 24zM690 711h158 q101 0 152 48t51 126q0 73 -53 119.5t-142 46.5h-166v-340z" />
<glyph unicode="&#xaf;" horiz-adv-x="817" d="M164 1307q0 12 9.5 19t23.5 7q4 0 27 -2t40 -2h291q15 0 39 2t29 2q12 0 21 -7t9 -19q0 -13 -9 -21t-21 -8q-5 0 -29 2t-39 2h-291q-17 0 -40 -2t-27 -2q-14 0 -23.5 8t-9.5 21z" />
<glyph unicode="&#xb0;" horiz-adv-x="628" d="M98 1237q0 90 62.5 155.5t152.5 65.5t153.5 -65.5t63.5 -155.5t-63.5 -154.5t-153.5 -64.5t-152.5 64.5t-62.5 154.5zM141 1237q0 -76 49.5 -129t122.5 -53t123.5 53.5t50.5 128.5q0 76 -50.5 130t-123.5 54t-122.5 -54t-49.5 -130z" />
<glyph unicode="&#xb1;" horiz-adv-x="929" d="M135 25q0 30 35 30q5 0 30.5 -2t41.5 -2h446q16 0 41.5 2t30.5 2q35 0 35 -30q0 -13 -10 -22t-25 -9q-5 0 -30.5 3t-41.5 3h-446q-16 0 -41.5 -3t-30.5 -3q-15 0 -25 9t-10 22zM135 627q0 13 10 21.5t25 8.5q5 0 30.5 -3t41.5 -3h196v215q0 19 -3 45.5t-3 32.5q0 15 9 26 t24 11t24 -11t9 -26q0 -6 -3 -32.5t-3 -45.5v-215h196q16 0 41.5 3t30.5 3q15 0 25 -8.5t10 -21.5t-10 -22t-25 -9q-5 0 -30.5 2t-41.5 2h-196v-227q0 -17 3 -44.5t3 -33.5q0 -14 -9.5 -24.5t-23.5 -10.5t-23.5 10.5t-9.5 24.5q0 6 3 33.5t3 44.5v227h-196q-16 0 -41.5 -2 t-30.5 -2q-15 0 -25 9t-10 22z" />
<glyph unicode="&#xb2;" horiz-adv-x="696" d="M78 625q0 137 58 233t188 164l84 43q161 80 161 199q0 73 -57 119.5t-150 46.5q-80 0 -137.5 -34.5t-70.5 -101.5q-3 -43 -27 -43q-10 0 -17.5 7t-7.5 20q0 25 13 55q29 69 93 104.5t154 35.5q111 0 182.5 -58t71.5 -151q0 -74 -45.5 -132.5t-144.5 -109.5l-86 -45 q-116 -61 -164.5 -142t-50.5 -208h440q11 0 27.5 3t21.5 3q12 0 20.5 -7.5t8.5 -17.5q0 -12 -8.5 -19t-20.5 -7h-497q-39 0 -39 43z" />
<glyph unicode="&#xb3;" horiz-adv-x="722" d="M59 762q0 11 7.5 18.5t17.5 7.5q21 0 29 -34q27 -65 88 -103.5t145 -38.5q111 2 186.5 77t75.5 185q0 104 -65 162t-174 58q-22 0 -34 -2t-18 -2q-24 0 -24 20q0 11 12 23q3 6 21 22t20 19l178 200q5 7 39 41h-334q-13 0 -29.5 -3t-21.5 -3q-11 0 -19.5 7t-8.5 18 q0 24 28 24h412q28 0 28 -26q0 -19 -22 -41l-207 -232l-29 -29q127 8 211 -60t84 -196q0 -129 -87 -217t-224 -88q-92 0 -162 41t-108 117q-15 23 -15 35z" />
<glyph unicode="&#xb4;" horiz-adv-x="643" d="M164 1210q0 15 14 29q3 3 16 14t21 19l162 158q11 10 22 22.5t17 17.5q16 19 33 19q13 0 21.5 -8.5t8.5 -22.5q0 -15 -16 -28l-53 -44l-160 -151q-10 -9 -20 -20.5t-13 -14.5q-14 -14 -27 -14q-10 0 -18 7.5t-8 16.5z" />
<glyph unicode="&#xb5;" horiz-adv-x="1097" d="M180 944q0 14 9.5 24.5t23.5 10.5t22.5 -10.5t8.5 -24.5q0 -8 -2 -35t-2 -45v-506q0 -147 81 -237t220 -90q96 0 177 40.5t136 116.5v676q0 18 -3 45t-3 35q0 14 9.5 24.5t23.5 10.5t23 -10.5t9 -24.5q0 -8 -2 -35t-2 -45v-758q0 -17 4.5 -44t4.5 -33q0 -15 -9 -26 t-24 -11q-14 0 -22.5 10.5t-8.5 26.5v100q-55 -67 -137.5 -107t-181.5 -40q-103 0 -180.5 50.5t-114.5 137.5v-514q0 -19 5 -45.5t5 -32.5q0 -15 -9 -26t-24 -11t-24 11t-9 26v1286q0 18 -2 45t-2 35z" />
<glyph unicode="&#xb6;" horiz-adv-x="1239" d="M90 1067q0 181 125.5 288t347.5 107h611q14 0 24 -7.5t10 -20.5t-10.5 -22t-23.5 -9q-7 0 -32.5 5t-45.5 5h-84v-1304q0 -18 2 -45.5t2 -34.5q0 -15 -8.5 -26t-22.5 -11q-16 0 -24.5 11t-8.5 26q0 7 2 34.5t2 45.5v1304h-118v-1304q0 -18 3 -45.5t3 -34.5 q0 -14 -9.5 -25.5t-23.5 -11.5t-23.5 11.5t-9.5 25.5q0 7 3 34.5t3 45.5v559h-249q-204 0 -324.5 110t-120.5 289zM145 1067q0 -160 104 -255t283 -95h252v696h-233q-187 0 -296.5 -92t-109.5 -254z" />
<glyph unicode="&#xb7;" horiz-adv-x="395" d="M143 551q0 23 16 38t38 15q23 0 39 -15t16 -38t-16 -38t-39 -15q-22 0 -38 15t-16 38z" />
<glyph unicode="&#xb8;" horiz-adv-x="757" d="M164 -379q0 9 7 17t19 8q18 0 29 -19q45 -73 160 -73q66 0 116 40t50 105q0 58 -41.5 100.5t-118.5 42.5q-29 0 -49 -6t-29 -6q-12 0 -19 7t-7 18q0 18 22 30q37 19 55.5 49.5t28.5 79.5l43 -12q-20 -86 -74 -125q29 4 56 2q80 -6 131 -57t51 -121q0 -85 -62 -139 t-153 -54q-125 0 -199 80q-16 20 -16 33z" />
<glyph unicode="&#xb9;" horiz-adv-x="401" d="M55 1331q0 11 7.5 19t17.5 8q5 0 12.5 -3t11.5 -3q11 0 29 18l64 64q17 18 25 23t20 5q26 0 26 -30q0 -5 -2 -23t-2 -29v-721q0 -10 2 -29t2 -24q0 -28 -28 -28q-12 0 -19.5 8t-7.5 20q0 5 1 24t1 29v674q0 56 2 70q-28 -35 -55 -62q-33 -36 -72 -36q-17 0 -26 7.5 t-9 18.5z" />
<glyph unicode="&#xba;" horiz-adv-x="770" d="M102 1141q0 139 80.5 236.5t212.5 97.5q133 0 213 -97t80 -235q0 -139 -80 -235.5t-213 -96.5q-132 0 -212.5 96.5t-80.5 233.5zM152 1141q0 -121 66 -205t177 -84q113 0 179.5 84t66.5 205q0 122 -66.5 207.5t-179.5 85.5q-111 0 -177 -85.5t-66 -207.5z" />
<glyph unicode="&#xbb;" horiz-adv-x="1007" d="M143 238q0 13 17 26q7 7 21.5 16t17.5 11l313 258l-313 258q-4 3 -18 12t-21 15q-17 13 -17 26q0 12 9 20.5t20 8.5q10 0 21 -8q3 -3 14.5 -15.5t19.5 -19.5l287 -238q9 -8 23.5 -17t19.5 -13q16 -13 16 -27t-16 -27l-43 -30l-287 -242l-34 -33q-8 -8 -21 -8 q-11 0 -20 7.5t-9 19.5zM471 236q0 16 16 28q7 5 20 13t19 12l314 260l-314 260q-3 2 -17.5 11t-21.5 16q-16 12 -16 26q0 12 9 19.5t20 7.5q12 0 20 -8l35 -33l287 -240q9 -7 24 -17.5t21 -15.5q14 -11 14 -24q0 -17 -18 -29l-41 -28l-287 -242q-7 -6 -18 -18t-17 -17 q-8 -8 -20 -8q-11 0 -20 7.5t-9 19.5z" />
<glyph unicode="&#xbc;" horiz-adv-x="1357" d="M88 1331q0 11 7.5 19t17.5 8q5 0 12.5 -3t11.5 -3q11 0 29 18l63 64q17 18 25 23t20 5t19.5 -8.5t7.5 -21.5q0 -5 -2 -23t-2 -29v-721q0 -10 2 -29t2 -24q0 -12 -8 -20t-21 -8q-12 0 -19 8t-7 20q0 5 1 24t1 29v674q0 56 2 70q-28 -35 -55 -62q-33 -36 -72 -36 q-17 0 -26 7.5t-9 18.5zM207 23q0 13 10 30q4 7 15 24.5t16 28.5l655 1301q6 13 14.5 36t12.5 30q12 26 33 26q13 0 21 -8.5t7 -22.5q0 -11 -10 -28q-7 -14 -31 -54l-655 -1300q-6 -15 -14.5 -37.5t-12.5 -30.5q-12 -26 -32 -26q-12 0 -20.5 9t-8.5 22zM690 295v12 q0 8 3 15.5t6 12t9.5 12.5t10.5 13l358 471q4 6 11.5 17.5t11 15.5t10.5 8.5t16 4.5h25q25 0 25 -29q0 -3 -1 -21t-1 -28v-490h32q13 0 29.5 3t21.5 3q11 0 19 -6t8 -16t-8.5 -17.5t-20.5 -7.5h-81v-192q0 -11 1 -29.5t1 -23.5q0 -11 -7 -19t-18 -8q-12 0 -19.5 8t-7.5 19 q0 5 1 23.5t1 29.5v192h-409q-11 0 -19 8t-8 19zM733 309h393v522z" />
<glyph unicode="&#xbd;" horiz-adv-x="1427" d="M88 1331q0 11 7.5 19t17.5 8q5 0 12.5 -3t11.5 -3q11 0 29 18l63 64q17 18 25 23t20 5t19.5 -8.5t7.5 -21.5q0 -5 -2 -23t-2 -29v-721q0 -10 2 -29t2 -24q0 -12 -8 -20t-21 -8q-12 0 -19 8t-7 20q0 5 1 24t1 29v674q0 56 2 70q-28 -35 -55 -62q-33 -36 -72 -36 q-17 0 -26 7.5t-9 18.5zM207 23q0 13 10 30q4 7 15 24.5t16 28.5l655 1301q6 13 14.5 36t12.5 30q12 26 33 26q13 0 21 -8.5t7 -22.5q0 -11 -10 -28q-7 -14 -31 -54l-655 -1300q-6 -15 -14.5 -37.5t-12.5 -30.5q-12 -26 -32 -26q-12 0 -20.5 9t-8.5 22zM772 43q0 137 58 233 t188 164l84 43q162 80 162 199q0 73 -57 119.5t-150 46.5q-80 0 -138 -34t-71 -101q-3 -43 -27 -43t-24 26q0 28 12 56q29 69 93.5 104t154.5 35q111 0 182.5 -58t71.5 -151q0 -74 -46 -132.5t-145 -109.5l-86 -45q-116 -61 -164.5 -142t-50.5 -208h441q11 0 27.5 3t21.5 3 q12 0 20 -7t8 -17q0 -12 -8 -19.5t-20 -7.5h-498q-39 0 -39 43z" />
<glyph unicode="&#xbe;" horiz-adv-x="1560" d="M66 762q0 11 7 18.5t17 7.5q21 0 29 -34q27 -65 88 -103.5t145 -38.5q111 2 186.5 77t75.5 185q0 104 -65 162t-174 58q-22 0 -33.5 -2t-17.5 -2q-11 0 -18 6t-7 14q0 11 12 23q3 6 21 22t20 19l178 200q5 7 39 41h-333q-13 0 -30 -3t-22 -3q-11 0 -19.5 7t-8.5 18 q0 24 28 24h412q29 0 29 -26q0 -18 -23 -41l-207 -232q-3 -4 -28 -29q127 8 211 -60t84 -196t-87.5 -216.5t-224.5 -88.5q-92 0 -162 41t-108 117q-14 21 -14 35zM432 23q0 13 10 30q4 7 15 24.5t16 28.5l655 1301q6 13 14.5 36t12.5 30q12 26 33 26q13 0 21.5 -8.5 t7.5 -22.5q0 -10 -11 -28q-12 -24 -30 -54l-656 -1300q-6 -15 -14 -37.5t-12 -30.5q-12 -26 -33 -26q-12 0 -20.5 9t-8.5 22zM913 295v12q0 8 3 15.5t6 12t9.5 12.5t10.5 13l358 471q3 5 11 17t11.5 16t11 8.5t16.5 4.5h24q25 0 25 -29q0 -3 -1 -21t-1 -28v-490h33 q13 0 29.5 3t21.5 3q26 0 26 -22q0 -11 -8 -18t-20 -7h-82v-192q0 -11 1 -29.5t1 -23.5q0 -11 -7 -19t-18 -8q-12 0 -19 8t-7 19q0 5 1 23.5t1 29.5v192h-410q-10 0 -18.5 8t-8.5 19zM956 309h394v522z" />
<glyph unicode="&#xbf;" horiz-adv-x="946" d="M49 156q0 120 59 205.5t189 170.5q111 71 159.5 130t51.5 135q3 60 -21 90l-8 8t-9 11.5t-3 13.5q0 12 9.5 21t21.5 9q28 0 48.5 -36.5t20.5 -94.5q0 -90 -50 -165t-183 -160q-112 -71 -171 -147.5t-59 -192.5q0 -56 22 -107.5t64.5 -93.5t111 -67t153.5 -25 q152 0 252 86.5t100 197.5q0 25 -7 41t-7 25q0 12 7.5 20.5t18.5 8.5q43 0 43 -88q0 -138 -116 -239t-291 -101q-99 0 -178.5 29.5t-128 79t-74 110t-25.5 125.5zM438 1249q0 22 16.5 38t39.5 16t38 -16t15 -38q0 -23 -15 -39t-38 -16t-39.5 16t-16.5 39z" />
<glyph unicode="&#xc0;" d="M57 25q0 10 6 22q22 43 29 66l475 1255q5 15 12.5 39t10.5 31q8 32 41 32h6q33 0 41 -32q8 -33 22 -70l478 -1255q6 -18 15.5 -40.5t10.5 -25.5q6 -12 6 -22q0 -13 -8.5 -23t-21.5 -10q-23 0 -33 26q-8 34 -23 76l-110 293h-762l-109 -293q-4 -11 -20 -76 q-10 -26 -33 -26q-14 0 -23.5 10t-9.5 23zM270 436h725l-338 905q-2 6 -24 78q-18 -61 -25 -76zM387 1884q0 14 9 22.5t20 8.5q14 0 28 -14q1 -1 13 -15t24 -24l133 -121q17 -17 33 -29q15 -11 15 -24q0 -10 -7 -17.5t-18 -7.5q-16 0 -25 12q-4 3 -13.5 13t-16.5 14 l-136 119q-10 9 -25.5 19.5t-19.5 14.5q-14 14 -14 29z" />
<glyph unicode="&#xc1;" d="M57 25q0 10 6 22q22 43 29 66l475 1255q5 15 12.5 39t10.5 31q8 32 41 32h6q33 0 41 -32q8 -33 22 -70l478 -1255q6 -18 15.5 -40.5t10.5 -25.5q6 -12 6 -22q0 -13 -8.5 -23t-21.5 -10q-23 0 -33 26q-8 34 -23 76l-110 293h-762l-109 -293q-4 -11 -20 -76 q-10 -26 -33 -26q-14 0 -23.5 10t-9.5 23zM270 436h725l-338 905q-2 6 -24 78q-18 -61 -25 -76zM600 1688q0 14 14 24q16 12 33 29l133 121l37 39q14 14 29 14q10 0 19 -8.5t9 -22.5q0 -15 -14 -29q-34 -25 -45 -34l-137 -119l-29 -27q-12 -12 -24 -12q-11 0 -18 7.5 t-7 17.5z" />
<glyph unicode="&#xc2;" d="M57 25q0 10 6 22q22 43 29 66l475 1255q5 15 12.5 39t10.5 31q8 32 41 32h6q33 0 41 -32q8 -33 22 -70l478 -1255q6 -18 15.5 -40.5t10.5 -25.5q6 -12 6 -22q0 -13 -8.5 -23t-21.5 -10q-23 0 -33 26q-8 34 -23 76l-110 293h-762l-109 -293q-4 -11 -20 -76 q-10 -26 -33 -26q-14 0 -23.5 10t-9.5 23zM270 436h725l-338 905q-2 6 -24 78q-18 -61 -25 -76zM442 1690q0 17 11 24q27 27 41 45l86 103q6 10 15 22t13 17q13 16 27 16q16 0 29 -16l28 -39l84 -103q14 -18 41 -45q10 -7 10 -24q0 -12 -8.5 -19.5t-19.5 -7.5q-17 0 -27 14 q-6 7 -16.5 23.5t-18.5 28.5l-102 131l-103 -131q-9 -12 -18.5 -28.5t-15.5 -23.5q-10 -14 -27 -14q-11 0 -20 7.5t-9 19.5z" />
<glyph unicode="&#xc3;" d="M57 25q0 10 6 22q22 43 29 66l475 1255q5 15 12.5 39t10.5 31q8 32 41 32h6q33 0 41 -32q8 -33 22 -70l478 -1255q6 -18 15.5 -40.5t10.5 -25.5q6 -12 6 -22q0 -13 -8.5 -23t-21.5 -10q-23 0 -33 26q-8 34 -23 76l-110 293h-762l-109 -293q-4 -11 -20 -76 q-10 -26 -33 -26q-14 0 -23.5 10t-9.5 23zM270 436h725l-338 905q-2 6 -24 78q-18 -61 -25 -76zM362 1747q0 52 35 80q40 35 99 35q60 0 151 -60q51 -34 76.5 -44.5t56.5 -10.5t50.5 14t19.5 37q0 5 -2 13t-2 14q0 11 8.5 20.5t22.5 9.5q30 0 30 -40q0 -56 -43 -86 q-34 -27 -88 -27q-67 0 -153 57q-51 35 -77 46.5t-57 11.5q-30 0 -49.5 -15t-19.5 -37q0 -5 3 -13t3 -13q0 -13 -9 -22t-24 -9q-14 0 -22.5 11t-8.5 28z" />
<glyph unicode="&#xc4;" d="M57 25q0 10 6 22q22 43 29 66l475 1255q5 15 12.5 39t10.5 31q8 32 41 32h6q33 0 41 -32q8 -33 22 -70l478 -1255q6 -18 15.5 -40.5t10.5 -25.5q6 -12 6 -22q0 -13 -8.5 -23t-21.5 -10q-23 0 -33 26q-8 34 -23 76l-110 293h-762l-109 -293q-4 -11 -20 -76 q-10 -26 -33 -26q-14 0 -23.5 10t-9.5 23zM270 436h725l-338 905q-2 6 -24 78q-18 -61 -25 -76zM416 1798q0 23 15.5 39t37.5 16q23 0 39 -16t16 -39q0 -22 -16 -37.5t-39 -15.5q-22 0 -37.5 15.5t-15.5 37.5zM745 1798q0 23 16 39t38 16q23 0 39 -16t16 -39 q0 -22 -16 -37.5t-39 -15.5q-22 0 -38 15.5t-16 37.5z" />
<glyph unicode="&#xc5;" d="M57 25q0 10 6 22q22 43 29 66l475 1255l25 66q-67 14 -111.5 68.5t-44.5 127.5q0 86 57.5 145.5t139.5 59.5t140 -59.5t58 -145.5q0 -72 -43.5 -126t-109.5 -68q6 -36 22 -68l478 -1255q6 -18 15.5 -40.5t10.5 -25.5q6 -12 6 -22q0 -13 -8.5 -23t-21.5 -10q-23 0 -33 26 q-8 34 -23 76l-108 293h-762l-111 -293q-4 -11 -20 -76q-10 -26 -33 -26q-14 0 -23.5 10t-9.5 23zM270 436h725l-338 905l-24 78q-18 -61 -25 -76zM483 1630q0 -66 42.5 -113t107.5 -47q64 0 107.5 47.5t43.5 112.5q0 68 -44 115t-107 47t-106.5 -47t-43.5 -115z" />
<glyph unicode="&#xc6;" horiz-adv-x="1857" d="M37 23q0 16 12 30q1 2 16 22t23 34l770 1257q13 24 33 68q6 13 15 19.5t17 7.5t23 1h735q14 0 24.5 -8.5t10.5 -21.5q0 -14 -10.5 -22.5t-24.5 -8.5q-7 0 -32 5t-43 5h-613v-596h459q17 0 37.5 2t26.5 2q14 0 24 -9t10 -22t-10 -21.5t-24 -8.5q-6 0 -26.5 2t-37.5 2h-459 v-711h658q20 0 45.5 5t32.5 5q14 0 24 -8t10 -22q0 -13 -10 -22t-24 -9h-760q-17 0 -26 10.5t-9 26.5q0 6 3 33.5t3 46.5v270h-618l-189 -309q-9 -15 -18.5 -35t-12.5 -25q-15 -26 -32 -26q-14 0 -23.5 10t-9.5 21zM350 436h590v985q-2 -5 -12.5 -27t-21.5 -44.5t-21 -38.5z " />
<glyph unicode="&#xc7;" horiz-adv-x="1452" d="M160 733q0 215 76 386t219.5 269.5t330.5 98.5q158 0 280.5 -66t186.5 -180q23 -38 23 -57q0 -12 -9 -21.5t-22 -9.5q-7 0 -12 2.5t-9.5 8.5t-6.5 11.5t-6.5 17t-8.5 19.5q-49 103 -163 164.5t-253 61.5q-173 0 -304.5 -96t-199 -255.5t-67.5 -355.5q0 -144 40 -271.5 t113 -223t182.5 -150.5t240.5 -55q95 0 180.5 29t161 96.5t116.5 165.5q3 7 7.5 21t7 19.5t8.5 11t16 5.5q14 0 21.5 -10.5t7.5 -22.5t-19 -55q-67 -142 -187.5 -219t-272.5 -88q-20 -73 -70 -107q29 4 55 2q81 -6 132 -57t51 -121q0 -85 -62 -139t-153 -54q-125 0 -199 80 q-17 21 -17 33q0 9 7.5 17t19.5 8q18 0 29 -19q45 -73 160 -73q66 0 115.5 40t49.5 105q0 58 -41 100.5t-118 42.5q-29 0 -49 -6t-29 -6q-12 0 -19.5 7t-7.5 18q0 17 23 30q58 31 76 97h-3q-188 0 -331.5 97.5t-220 268t-76.5 385.5z" />
<glyph unicode="&#xc8;" horiz-adv-x="1155" d="M231 37q0 6 2.5 33.5t2.5 46.5v1229q0 19 -2.5 46t-2.5 33q0 16 9 26.5t26 10.5h715q15 0 25 -8t10 -22q0 -13 -10.5 -21t-24.5 -8q-7 0 -32.5 5t-45.5 5h-612v-600h454q16 0 40.5 2t29.5 2q14 0 23.5 -8.5t9.5 -20.5q0 -13 -9.5 -21.5t-23.5 -8.5q-5 0 -29.5 2t-40.5 2 h-454v-713h659q20 0 45.5 5t32.5 5q13 0 24 -8.5t11 -19.5q0 -14 -10.5 -22.5t-24.5 -8.5h-762q-17 0 -26 10.5t-9 26.5zM401 1884q0 14 9 22.5t20 8.5q15 0 29 -14q1 -1 13 -15t24 -24l133 -121q17 -17 33 -29q14 -10 14 -24q0 -10 -7 -17.5t-18 -7.5q-15 0 -24 12 q-3 3 -13.5 12.5t-17.5 14.5l-135 119q-10 9 -25.5 19.5t-19.5 14.5q-15 15 -15 29z" />
<glyph unicode="&#xc9;" horiz-adv-x="1155" d="M231 37q0 6 2.5 33.5t2.5 46.5v1229q0 19 -2.5 46t-2.5 33q0 16 9 26.5t26 10.5h715q15 0 25 -8t10 -22q0 -13 -10.5 -21t-24.5 -8q-7 0 -32.5 5t-45.5 5h-612v-600h454q16 0 40.5 2t29.5 2q14 0 23.5 -8.5t9.5 -20.5q0 -13 -9.5 -21.5t-23.5 -8.5q-5 0 -29.5 2t-40.5 2 h-454v-713h659q20 0 45.5 5t32.5 5q13 0 24 -8.5t11 -19.5q0 -14 -10.5 -22.5t-24.5 -8.5h-762q-17 0 -26 10.5t-9 26.5zM614 1688q0 13 15 24q16 12 33 29l133 121l36 39q14 14 29 14q10 0 19.5 -8.5t9.5 -22.5t-15 -29q-34 -25 -45 -34l-137 -119l-28 -27q-12 -12 -25 -12 q-11 0 -18 7.5t-7 17.5z" />
<glyph unicode="&#xca;" horiz-adv-x="1155" d="M231 37q0 6 2.5 33.5t2.5 46.5v1229q0 19 -2.5 46t-2.5 33q0 16 9 26.5t26 10.5h715q15 0 25 -8t10 -22q0 -13 -10.5 -21t-24.5 -8q-7 0 -32.5 5t-45.5 5h-612v-600h454q16 0 40.5 2t29.5 2q14 0 23.5 -8.5t9.5 -20.5q0 -13 -9.5 -21.5t-23.5 -8.5q-5 0 -29.5 2t-40.5 2 h-454v-713h659q20 0 45.5 5t32.5 5q13 0 24 -8.5t11 -19.5q0 -14 -10.5 -22.5t-24.5 -8.5h-762q-17 0 -26 10.5t-9 26.5zM455 1690q0 17 10 24q27 27 41 45l86 103q6 10 15.5 22t13.5 17q13 16 26 16q16 0 29 -16l29 -39l83 -103q14 -18 41 -45q11 -7 11 -24q0 -12 -9 -19.5 t-20 -7.5q-17 0 -27 14q-6 7 -15.5 23.5t-18.5 28.5l-103 131l-102 -131q-8 -12 -18.5 -28.5t-16.5 -23.5q-10 -14 -27 -14q-11 0 -19.5 7.5t-8.5 19.5z" />
<glyph unicode="&#xcb;" horiz-adv-x="1155" d="M231 37q0 6 2.5 33.5t2.5 46.5v1229q0 19 -2.5 46t-2.5 33q0 16 9 26.5t26 10.5h715q15 0 25 -8t10 -22q0 -13 -10.5 -21t-24.5 -8q-7 0 -32.5 5t-45.5 5h-612v-600h454q16 0 40.5 2t29.5 2q14 0 23.5 -8.5t9.5 -20.5q0 -13 -9.5 -21.5t-23.5 -8.5q-5 0 -29.5 2t-40.5 2 h-454v-713h659q20 0 45.5 5t32.5 5q13 0 24 -8.5t11 -19.5q0 -14 -10.5 -22.5t-24.5 -8.5h-762q-17 0 -26 10.5t-9 26.5zM428 1798q0 23 15.5 39t37.5 16q23 0 39.5 -16t16.5 -39q0 -22 -16.5 -37.5t-39.5 -15.5q-22 0 -37.5 15.5t-15.5 37.5zM758 1798q0 23 15.5 39 t37.5 16q23 0 39 -16t16 -39q0 -22 -16 -37.5t-39 -15.5q-22 0 -37.5 15.5t-15.5 37.5z" />
<glyph unicode="&#xcc;" horiz-adv-x="567" d="M39 1884q0 14 9 22.5t20 8.5q14 0 28 -14q1 -1 13 -15t24 -24l133 -121q17 -17 33 -29q14 -10 14 -24q0 -11 -7 -18t-17 -7q-16 0 -25 12q-3 3 -13.5 12.5t-17.5 14.5l-135 119q-10 9 -25.5 19.5t-19.5 14.5q-14 14 -14 29zM252 29q0 7 2 34.5t2 45.5v1245q0 18 -2 45.5 t-2 34.5q0 15 8.5 25.5t24.5 10.5q14 0 23 -11t9 -25q0 -7 -3 -34.5t-3 -45.5v-1245q0 -18 3 -45.5t3 -34.5q0 -14 -9 -25.5t-23 -11.5q-16 0 -24.5 11t-8.5 26z" />
<glyph unicode="&#xcd;" horiz-adv-x="567" d="M252 29q0 7 2 34.5t2 45.5v1245q0 18 -2 45.5t-2 34.5q0 15 8.5 25.5t24.5 10.5q14 0 23 -11t9 -25q0 -7 -3 -34.5t-3 -45.5v-1245q0 -18 3 -45.5t3 -34.5q0 -14 -9 -25.5t-23 -11.5q-16 0 -24.5 11t-8.5 26zM252 1688q0 14 14 24q16 12 33 29l133 121l37 39q14 14 29 14 q10 0 19 -8.5t9 -22.5q0 -15 -14 -29q-34 -25 -45 -34l-137 -119l-29 -27q-12 -12 -25 -12q-10 0 -17 7t-7 18z" />
<glyph unicode="&#xce;" horiz-adv-x="567" d="M92 1690q0 17 10 24q27 27 41 45l86 103q7 10 16 22t13 17q13 16 27 16q15 0 28 -16l29 -39l84 -103q14 -18 41 -45q10 -7 10 -24q0 -12 -8.5 -19.5t-19.5 -7.5q-17 0 -27 14q-6 7 -16.5 23.5t-18.5 28.5l-102 131l-103 -131q-8 -12 -18.5 -28.5t-16.5 -23.5 q-11 -14 -26 -14q-11 0 -20 7.5t-9 19.5zM252 29q0 7 2 34.5t2 45.5v1245q0 18 -2 45.5t-2 34.5q0 15 8.5 25.5t24.5 10.5q14 0 23 -11t9 -25q0 -7 -3 -34.5t-3 -45.5v-1245q0 -18 3 -45.5t3 -34.5q0 -14 -9 -25.5t-23 -11.5q-16 0 -24.5 11t-8.5 26z" />
<glyph unicode="&#xcf;" horiz-adv-x="567" d="M66 1798q0 23 15.5 39t37.5 16q23 0 39 -16t16 -39q0 -22 -16 -37.5t-39 -15.5q-22 0 -37.5 15.5t-15.5 37.5zM252 29q0 7 2 34.5t2 45.5v1245q0 18 -2 45.5t-2 34.5q0 15 8.5 25.5t24.5 10.5q14 0 23 -11t9 -25q0 -7 -3 -34.5t-3 -45.5v-1245q0 -18 3 -45.5t3 -34.5 q0 -14 -9 -25.5t-23 -11.5q-16 0 -24.5 11t-8.5 26zM395 1798q0 23 16 39t38 16q23 0 39 -16t16 -39q0 -22 -16 -37.5t-39 -15.5q-22 0 -38 15.5t-16 37.5z" />
<glyph unicode="&#xd0;" horiz-adv-x="1505" d="M63 729q0 13 10.5 21t24.5 8q6 0 28.5 -2t41.5 -2h178v592q0 19 -2 46t-2 33q0 37 33 37h362q288 0 450.5 -184t162.5 -524q0 -350 -164.5 -552t-462.5 -202h-346q-17 0 -26 10.5t-9 26.5q0 6 2 33.5t2 46.5v585h-178q-19 0 -41.5 -2t-28.5 -2q-14 0 -24.5 8.5 t-10.5 22.5zM401 49h322q126 0 229.5 44.5t179.5 131t118 221.5t42 308q0 317 -144.5 488t-406.5 171h-340v-659h152q19 0 40.5 3t27.5 3q15 0 25.5 -9t10.5 -22q0 -15 -10 -23t-26 -8q-6 0 -27.5 2t-40.5 2h-152v-653z" />
<glyph unicode="&#xd1;" horiz-adv-x="1505" d="M231 29q0 7 2.5 34.5t2.5 45.5v1237q0 19 -2.5 46t-2.5 33q0 16 9 26.5t26 10.5q25 0 41 -24l821 -1217q61 -89 91 -143q-2 23 -2 125l-5 1151q0 18 -2 45.5t-2 34.5q0 14 9.5 25t23.5 11t23.5 -11t9.5 -25q0 -7 -2 -34.5t-2 -45.5v-1245q0 -18 2 -45.5t2 -34.5 q0 -14 -9.5 -25.5t-23.5 -11.5q-10 0 -19 6t-13.5 12.5t-14.5 23t-16 25.5l-895 1327q6 -40 6 -104l2 -1173q0 -18 3 -45.5t3 -34.5q0 -14 -9.5 -25.5t-23.5 -11.5t-23.5 11.5t-9.5 25.5zM479 1747q0 52 35 80q40 35 98 35q61 0 152 -60q51 -34 76.5 -44.5t56.5 -10.5 t50.5 14t19.5 37q0 5 -2 13t-2 14q0 12 8 21t22 9t22.5 -11t8.5 -29q0 -56 -43 -86q-34 -27 -88 -27q-68 0 -154 57q-52 35 -77 46.5t-56 11.5q-30 0 -49.5 -15t-19.5 -37q0 -5 3 -13t3 -13q0 -13 -9.5 -22t-23.5 -9t-22.5 11t-8.5 28z" />
<glyph unicode="&#xd2;" horiz-adv-x="1576" d="M160 733q0 216 76 386.5t219.5 269t332.5 98.5t333 -98.5t220 -269t76 -386.5q0 -161 -44.5 -299.5t-125 -238.5t-199 -156.5t-260.5 -56.5q-189 0 -332.5 97.5t-219.5 267.5t-76 386zM215 731q0 -145 39.5 -272t111.5 -222.5t181 -150.5t241 -55t241 55t180.5 150.5 t111 222.5t39.5 272q0 146 -39.5 274.5t-111 225t-180.5 152t-241 55.5t-241 -55.5t-181 -152t-111.5 -225t-39.5 -274.5zM543 1884q0 14 8.5 22.5t19.5 8.5q15 0 29 -14q1 -1 13 -15t24 -24l133 -121q17 -17 33 -29q14 -10 14 -24q0 -11 -7 -18t-17 -7q-16 0 -25 12 q-3 3 -13.5 12.5t-17.5 14.5l-135 119q-10 9 -25.5 19.5t-19.5 14.5q-14 14 -14 29z" />
<glyph unicode="&#xd3;" horiz-adv-x="1576" d="M160 733q0 216 76 386.5t219.5 269t332.5 98.5t333 -98.5t220 -269t76 -386.5q0 -161 -44.5 -299.5t-125 -238.5t-199 -156.5t-260.5 -56.5q-189 0 -332.5 97.5t-219.5 267.5t-76 386zM215 731q0 -145 39.5 -272t111.5 -222.5t181 -150.5t241 -55t241 55t180.5 150.5 t111 222.5t39.5 272q0 146 -39.5 274.5t-111 225t-180.5 152t-241 55.5t-241 -55.5t-181 -152t-111.5 -225t-39.5 -274.5zM756 1688q0 14 14 24q16 12 33 29l133 121l37 39q14 14 28 14q10 0 19.5 -8.5t9.5 -22.5q0 -15 -14 -29q-34 -25 -45 -34l-137 -119l-29 -27 q-12 -12 -25 -12q-10 0 -17 7t-7 18z" />
<glyph unicode="&#xd4;" horiz-adv-x="1576" d="M160 733q0 216 76 386.5t219.5 269t332.5 98.5t333 -98.5t220 -269t76 -386.5q0 -161 -44.5 -299.5t-125 -238.5t-199 -156.5t-260.5 -56.5q-189 0 -332.5 97.5t-219.5 267.5t-76 386zM215 731q0 -145 39.5 -272t111.5 -222.5t181 -150.5t241 -55t241 55t180.5 150.5 t111 222.5t39.5 272q0 146 -39.5 274.5t-111 225t-180.5 152t-241 55.5t-241 -55.5t-181 -152t-111.5 -225t-39.5 -274.5zM596 1690q0 17 10 24q27 27 41 45l86 103q7 10 16 22t13 17q13 16 26 16q16 0 29 -16l29 -39l84 -103q14 -18 41 -45q10 -7 10 -24q0 -12 -9 -19.5 t-20 -7.5q-16 0 -26 14q-6 7 -16.5 23.5t-18.5 28.5l-103 131l-102 -131q-8 -12 -18.5 -28.5t-16.5 -23.5q-11 -14 -26 -14q-11 0 -20 7.5t-9 19.5z" />
<glyph unicode="&#xd5;" horiz-adv-x="1576" d="M160 733q0 216 76 386.5t219.5 269t332.5 98.5t333 -98.5t220 -269t76 -386.5q0 -161 -44.5 -299.5t-125 -238.5t-199 -156.5t-260.5 -56.5q-189 0 -332.5 97.5t-219.5 267.5t-76 386zM215 731q0 -145 39.5 -272t111.5 -222.5t181 -150.5t241 -55t241 55t180.5 150.5 t111 222.5t39.5 272q0 146 -39.5 274.5t-111 225t-180.5 152t-241 55.5t-241 -55.5t-181 -152t-111.5 -225t-39.5 -274.5zM516 1747q0 52 35 80q40 35 98 35q61 0 152 -60q51 -34 76.5 -44.5t56.5 -10.5t50.5 14t19.5 37q0 5 -2.5 13t-2.5 14q0 11 8.5 20.5t22.5 9.5 t22.5 -11t8.5 -29q0 -56 -43 -86q-34 -27 -88 -27q-68 0 -154 57q-52 35 -77 46.5t-56 11.5q-30 0 -50 -15t-20 -37q0 -5 3.5 -13t3.5 -13q0 -13 -9 -22t-24 -9q-14 0 -22.5 11t-8.5 28z" />
<glyph unicode="&#xd6;" horiz-adv-x="1576" d="M160 733q0 216 76 386.5t219.5 269t332.5 98.5t333 -98.5t220 -269t76 -386.5q0 -161 -44.5 -299.5t-125 -238.5t-199 -156.5t-260.5 -56.5q-189 0 -332.5 97.5t-219.5 267.5t-76 386zM215 731q0 -145 39.5 -272t111.5 -222.5t181 -150.5t241 -55t241 55t180.5 150.5 t111 222.5t39.5 272q0 146 -39.5 274.5t-111 225t-180.5 152t-241 55.5t-241 -55.5t-181 -152t-111.5 -225t-39.5 -274.5zM569 1798q0 23 16 39t38 16q23 0 39 -16t16 -39q0 -22 -16 -37.5t-39 -15.5q-22 0 -38 15.5t-16 37.5zM899 1798q0 23 15.5 39t37.5 16q23 0 39.5 -16 t16.5 -39q0 -22 -16.5 -37.5t-39.5 -15.5q-22 0 -37.5 15.5t-15.5 37.5z" />
<glyph unicode="&#xd7;" horiz-adv-x="929" d="M96 209q0 17 19 33q5 6 24 20.5t27 24.5l260 266l-254 262q-8 10 -27 24.5t-24 20.5q-19 19 -19 33q0 13 9 23t22 10q14 0 31 -17q2 -2 17.5 -22.5t27.5 -32.5l256 -266l258 266q20 20 45 55q17 17 33 17q12 0 21 -10.5t9 -22.5q0 -13 -20 -33q-5 -6 -23 -21t-26 -24 l-258 -264l260 -264q8 -9 26 -24t23 -21q21 -17 21 -33q0 -12 -9.5 -22.5t-21.5 -10.5q-16 0 -33 17q-25 35 -45 55l-264 268l-258 -268q-12 -12 -27.5 -32.5t-17.5 -22.5q-17 -17 -31 -17q-13 0 -22 10t-9 23z" />
<glyph unicode="&#xd8;" horiz-adv-x="1576" d="M160 733q0 216 76 386.5t219.5 269t332.5 98.5q240 0 404 -158l39 55q9 11 16.5 24t14.5 26t10 18q11 14 28 14q12 0 21.5 -8.5t9.5 -21.5q0 -14 -8 -25q-4 -7 -20.5 -26t-26.5 -33l-45 -64q90 -102 138 -244.5t48 -310.5q0 -161 -44.5 -299.5t-125 -238.5t-199 -156.5 t-260.5 -56.5q-225 0 -385 135l-26 -37q-9 -13 -22 -37t-19 -31q-8 -14 -27 -14q-13 0 -23 9t-10 22q0 12 9 24q45 53 49 58l31 45q-99 102 -152 250t-53 327zM215 731q0 -162 46 -301t134 -233l768 1089q-155 152 -375 152q-132 0 -241 -55.5t-181 -152t-111.5 -225 t-39.5 -274.5zM432 162q147 -131 356 -131q132 0 241 55t180.5 150.5t111 222.5t39.5 272q0 153 -41.5 286.5t-120.5 229.5z" />
<glyph unicode="&#xd9;" horiz-adv-x="1454" d="M217 1434q0 14 9.5 25t23.5 11t23.5 -11t9.5 -25q0 -7 -3.5 -34.5t-3.5 -45.5v-828q0 -229 124.5 -362t326.5 -133t326.5 133t124.5 362v828q0 18 -3.5 45.5t-3.5 34.5q0 14 9.5 25t23.5 11t23.5 -11t9.5 -25q0 -7 -2 -34.5t-2 -45.5v-828q0 -253 -140 -398.5 t-366 -145.5t-366 145.5t-140 398.5v828q0 18 -2 45.5t-2 34.5zM481 1884q0 14 9 22.5t20 8.5q15 0 29 -14q2 -2 13 -16t23 -23l134 -121q20 -20 32 -29q15 -11 15 -24q0 -10 -7 -17.5t-18 -7.5q-15 0 -24 12q-3 3 -13.5 12.5t-17.5 14.5l-135 119q-10 9 -25.5 19.5 t-19.5 14.5q-15 15 -15 29z" />
<glyph unicode="&#xda;" horiz-adv-x="1454" d="M217 1434q0 14 9.5 25t23.5 11t23.5 -11t9.5 -25q0 -7 -3.5 -34.5t-3.5 -45.5v-828q0 -229 124.5 -362t326.5 -133t326.5 133t124.5 362v828q0 18 -3.5 45.5t-3.5 34.5q0 14 9.5 25t23.5 11t23.5 -11t9.5 -25q0 -7 -2 -34.5t-2 -45.5v-828q0 -253 -140 -398.5 t-366 -145.5t-366 145.5t-140 398.5v828q0 18 -2 45.5t-2 34.5zM694 1688q0 13 15 24q12 9 32 29l133 121l37 39q14 14 29 14q10 0 19.5 -8.5t9.5 -22.5t-15 -29q-34 -25 -45 -34l-137 -119l-29 -27q-12 -12 -24 -12q-11 0 -18 7.5t-7 17.5z" />
<glyph unicode="&#xdb;" horiz-adv-x="1454" d="M217 1434q0 14 9.5 25t23.5 11t23.5 -11t9.5 -25q0 -7 -3.5 -34.5t-3.5 -45.5v-828q0 -229 124.5 -362t326.5 -133t326.5 133t124.5 362v828q0 18 -3.5 45.5t-3.5 34.5q0 14 9.5 25t23.5 11t23.5 -11t9.5 -25q0 -7 -2 -34.5t-2 -45.5v-828q0 -253 -140 -398.5 t-366 -145.5t-366 145.5t-140 398.5v828q0 18 -2 45.5t-2 34.5zM535 1690q0 17 10 24q27 27 41 45l86 103q6 10 15 22t13 17q13 16 27 16q16 0 29 -16l28 -39l84 -103q14 -18 41 -45q11 -7 11 -24q0 -12 -9 -19.5t-20 -7.5q-17 0 -27 14q-6 7 -16.5 23.5t-18.5 28.5 l-102 131l-102 -131q-8 -12 -18.5 -28.5t-16.5 -23.5q-10 -14 -27 -14q-11 0 -19.5 7.5t-8.5 19.5z" />
<glyph unicode="&#xdc;" horiz-adv-x="1454" d="M217 1434q0 14 9.5 25t23.5 11t23.5 -11t9.5 -25q0 -7 -3.5 -34.5t-3.5 -45.5v-828q0 -229 124.5 -362t326.5 -133t326.5 133t124.5 362v828q0 18 -3.5 45.5t-3.5 34.5q0 14 9.5 25t23.5 11t23.5 -11t9.5 -25q0 -7 -2 -34.5t-2 -45.5v-828q0 -253 -140 -398.5 t-366 -145.5t-366 145.5t-140 398.5v828q0 18 -2 45.5t-2 34.5zM510 1798q0 23 15.5 39t37.5 16q23 0 39 -16t16 -39q0 -22 -16 -37.5t-39 -15.5q-22 0 -37.5 15.5t-15.5 37.5zM840 1798q0 23 15.5 39t37.5 16q23 0 39 -16t16 -39q0 -22 -16 -37.5t-39 -15.5 q-22 0 -37.5 15.5t-15.5 37.5z" />
<glyph unicode="&#xdd;" horiz-adv-x="1134" d="M57 1438q0 12 9 22t22 10q23 0 33 -24q17 -46 29 -72l419 -815l416 815q8 18 18 43t11 27q13 26 35 26q13 0 20.5 -9.5t7.5 -22.5q0 -12 -8 -25q-27 -41 -37 -61l-436 -846v-397q0 -18 3 -45.5t3 -34.5q0 -14 -9.5 -25.5t-23.5 -11.5q-16 0 -24 11t-8 26q0 7 2 34.5 t2 45.5v399l-439 842q-13 28 -36 63q-9 15 -9 25zM535 1688q0 14 14 24q16 12 33 29l133 121l37 39q14 14 28 14q10 0 19.5 -8.5t9.5 -22.5q0 -15 -14 -29q-34 -25 -45 -34l-138 -119l-28 -27q-12 -12 -25 -12q-10 0 -17 7t-7 18z" />
<glyph unicode="&#xde;" horiz-adv-x="1259" d="M231 29q0 6 2.5 33.5t2.5 46.5v1310q0 18 -2.5 45.5t-2.5 34.5q0 14 9.5 25.5t23.5 11.5t23.5 -11.5t9.5 -25.5q0 -7 -3 -34.5t-3 -45.5v-252h389q106 0 193.5 -31.5t144 -85.5t87 -125t30.5 -151q0 -189 -126.5 -305.5t-332.5 -116.5h-385v-243q0 -19 3 -46.5t3 -33.5 q0 -15 -9 -26t-24 -11t-24 11t-9 26zM291 401h385q184 0 293.5 103t109.5 270q0 162 -111.5 253t-289.5 91h-387v-717z" />
<glyph unicode="&#xdf;" horiz-adv-x="1159" d="M207 29q0 7 2 34.5t2 45.5v962q0 113 40 206t122 151.5t192 58.5q150 0 240 -98t90 -252q0 -108 -56 -192t-137 -122q148 -23 241 -138.5t93 -264.5q0 -85 -30 -163t-84.5 -138.5t-138 -96.5t-183.5 -36q-94 0 -156 30q-38 17 -38 39q0 13 8 22t22 9q8 0 19.5 -10 t17.5 -13q47 -28 139 -28q96 0 180 47t137.5 135.5t53.5 198.5q0 164 -105.5 267t-248.5 103q-13 0 -27 -1t-22 -1q-15 0 -25 7.5t-10 19.5q0 27 57 27q88 0 164 87t76 216t-73.5 213t-205.5 84q-137 0 -217 -106.5t-80 -258.5v-964q0 -18 2 -45.5t2 -34.5q0 -15 -8 -26 t-24 -11q-14 0 -22.5 11t-8.5 26z" />
<glyph unicode="&#xe0;" horiz-adv-x="999" d="M102 268q0 133 92.5 212.5t266.5 94.5q130 10 201 37.5t96 77.5v33q0 95 -71.5 162t-188.5 67q-95 0 -156 -35t-82 -92q-2 -6 -6 -20.5t-6.5 -20.5t-8.5 -12t-16 -6q-26 0 -26 31q0 14 8 34q29 77 103.5 122.5t191.5 45.5q137 0 225 -81t88 -203v-586q0 -82 35 -82 q10 0 19 4t16 4q28 0 28 -28q0 -14 -15 -24.5t-38 -10.5q-85 0 -96 100q-119 -110 -311 -110q-157 0 -253 81t-96 205zM158 266q0 -103 80 -170t217 -67q82 0 163 27.5t140 82.5v488q-66 -78 -289 -101q-311 -28 -311 -260zM215 1456q0 14 9.5 23.5t21.5 9.5q14 0 33 -19 q2 -2 14 -16.5t24 -23.5l162 -158l37 -35q14 -14 14 -27q0 -10 -7.5 -17t-18.5 -7q-15 0 -27 12q-1 1 -11.5 13.5t-21.5 21.5l-159 151q-13 11 -30.5 24.5t-23.5 18.5q-16 13 -16 29z" />
<glyph unicode="&#xe1;" horiz-adv-x="999" d="M102 268q0 133 92.5 212.5t266.5 94.5q130 10 201 37.5t96 77.5v33q0 95 -71.5 162t-188.5 67q-95 0 -156 -35t-82 -92q-2 -6 -6 -20.5t-6.5 -20.5t-8.5 -12t-16 -6q-26 0 -26 31q0 14 8 34q29 77 103.5 122.5t191.5 45.5q137 0 225 -81t88 -203v-586q0 -82 35 -82 q10 0 19 4t16 4q28 0 28 -28q0 -14 -15 -24.5t-38 -10.5q-85 0 -96 100q-119 -110 -311 -110q-157 0 -253 81t-96 205zM158 266q0 -103 80 -170t217 -67q82 0 163 27.5t140 82.5v488q-66 -78 -289 -101q-311 -28 -311 -260zM479 1210q0 14 15 29q3 3 15.5 14t20.5 19 l162 158q11 10 22 22.5t17 17.5q16 19 33 19q13 0 22 -8.5t9 -22.5t-17 -28l-53 -44l-160 -151q-10 -9 -20 -20.5t-13 -14.5q-14 -14 -26 -14q-10 0 -18.5 7.5t-8.5 16.5z" />
<glyph unicode="&#xe2;" horiz-adv-x="999" d="M102 268q0 133 92.5 212.5t266.5 94.5q130 10 201 37.5t96 77.5v33q0 95 -71.5 162t-188.5 67q-95 0 -156 -35t-82 -92q-2 -6 -6 -20.5t-6.5 -20.5t-8.5 -12t-16 -6q-26 0 -26 31q0 14 8 34q29 77 103.5 122.5t191.5 45.5q137 0 225 -81t88 -203v-586q0 -82 35 -82 q10 0 19 4t16 4q28 0 28 -28q0 -14 -15 -24.5t-38 -10.5q-85 0 -96 100q-119 -110 -311 -110q-157 0 -253 81t-96 205zM158 266q0 -103 80 -170t217 -67q82 0 163 27.5t140 82.5v488q-66 -78 -289 -101q-311 -28 -311 -260zM276 1223q0 17 11 24l12.5 12.5t14 15.5t14.5 19 l125 148l28 39q13 16 29 16t29 -16l28 -39l123 -148q8 -11 14.5 -19t14 -15.5l12.5 -12.5q10 -7 10 -24q0 -13 -8.5 -21t-19.5 -8q-17 0 -29 16q-5 7 -14.5 23t-20.5 31l-139 174l-141 -174q-8 -12 -18 -28.5t-17 -25.5q-12 -16 -29 -16q-11 0 -20 8t-9 21z" />
<glyph unicode="&#xe3;" horiz-adv-x="999" d="M102 268q0 133 92.5 212.5t266.5 94.5q130 10 201 37.5t96 77.5v33q0 95 -71.5 162t-188.5 67q-95 0 -156 -35t-82 -92q-2 -6 -6 -20.5t-6.5 -20.5t-8.5 -12t-16 -6q-26 0 -26 31q0 14 8 34q29 77 103.5 122.5t191.5 45.5q137 0 225 -81t88 -203v-586q0 -82 35 -82 q10 0 19 4t16 4q28 0 28 -28q0 -14 -15 -24.5t-38 -10.5q-85 0 -96 100q-119 -110 -311 -110q-157 0 -253 81t-96 205zM158 266q0 -103 80 -170t217 -67q82 0 163 27.5t140 82.5v488q-66 -78 -289 -101q-311 -28 -311 -260zM236 1266q0 50 34 77q40 35 99 35q65 0 151 -57 q51 -35 76.5 -46t56.5 -11t50.5 14.5t19.5 36.5q0 5 -2 13t-2 13q0 13 8.5 22t22.5 9q13 0 21.5 -11t8.5 -28q0 -56 -43 -86q-31 -28 -88 -28q-64 0 -153 59q-51 33 -77 44t-57 11t-50 -14t-19 -37q0 -5 3 -13t3 -14q0 -11 -9.5 -20.5t-23.5 -9.5t-22 11t-8 30z" />
<glyph unicode="&#xe4;" horiz-adv-x="999" d="M102 268q0 133 92.5 212.5t266.5 94.5q130 10 201 37.5t96 77.5v33q0 95 -71.5 162t-188.5 67q-95 0 -156 -35t-82 -92q-2 -6 -6 -20.5t-6.5 -20.5t-8.5 -12t-16 -6q-26 0 -26 31q0 14 8 34q29 77 103.5 122.5t191.5 45.5q137 0 225 -81t88 -203v-586q0 -82 35 -82 q10 0 19 4t16 4q28 0 28 -28q0 -14 -15 -24.5t-38 -10.5q-85 0 -96 100q-119 -110 -311 -110q-157 0 -253 81t-96 205zM158 266q0 -103 80 -170t217 -67q82 0 163 27.5t140 82.5v488q-66 -78 -289 -101q-311 -28 -311 -260zM289 1300q0 23 15.5 39.5t37.5 16.5 q23 0 39 -16.5t16 -39.5q0 -22 -16 -37.5t-39 -15.5q-22 0 -37.5 15.5t-15.5 37.5zM621 1300q0 24 15 40t38 16t39 -16.5t16 -39.5q0 -22 -16 -37.5t-39 -15.5t-38 15.5t-15 37.5z" />
<glyph unicode="&#xe5;" horiz-adv-x="999" d="M102 268q0 133 92.5 212.5t266.5 94.5q130 10 201 37.5t96 77.5v33q0 95 -71.5 162t-188.5 67q-95 0 -156 -35t-82 -92q-2 -6 -6 -20.5t-6.5 -20.5t-8.5 -12t-16 -6q-26 0 -26 31q0 14 8 34q29 77 103.5 122.5t191.5 45.5q137 0 225 -81t88 -203v-586q0 -82 35 -82 q10 0 19 4t16 4q28 0 28 -28q0 -14 -15 -24.5t-38 -10.5q-85 0 -96 100q-119 -110 -311 -110q-157 0 -253 81t-96 205zM158 266q0 -103 80 -170t217 -67q82 0 163 27.5t140 82.5v488q-66 -78 -289 -101q-311 -28 -311 -260zM309 1405q0 84 58.5 143.5t140.5 59.5 q80 0 138.5 -59.5t58.5 -143.5t-58.5 -143.5t-138.5 -59.5q-82 0 -140.5 59.5t-58.5 143.5zM356 1405q0 -66 44.5 -113t107.5 -47t106 47t43 113q0 68 -43 115t-106 47t-107.5 -47.5t-44.5 -114.5z" />
<glyph unicode="&#xe6;" horiz-adv-x="1675" d="M102 276q0 133 91.5 208.5t265.5 90.5q43 4 77.5 9t76.5 18t70 31t48.5 49t22.5 72q-3 80 -70 139t-180 59q-190 0 -234 -127q-2 -5 -5.5 -16.5t-5.5 -17t-6 -12.5t-8.5 -10t-11.5 -3q-28 0 -28 35q0 6 4 22q27 79 100.5 127.5t194.5 48.5q119 0 194.5 -57.5t96.5 -148.5 q57 95 145 150.5t201 55.5q184 0 294.5 -134.5t110.5 -338.5q0 -51 -49 -51h-739q3 -123 47 -223t131.5 -161.5t204.5 -61.5q108 0 189 45t118 125q2 5 6 16t6.5 15.5t6.5 10.5t8.5 8.5t11.5 2.5q14 0 22.5 -9.5t8.5 -21.5q0 -7 -13 -37q-111 -202 -364 -202 q-203 0 -322 155q-140 -155 -364 -155q-158 0 -255.5 85t-97.5 209zM158 274q0 -104 81.5 -174t219.5 -71q210 0 334 145q-84 131 -84 324q0 57 14 114q-73 -69 -254 -86q-162 -15 -236.5 -78.5t-74.5 -173.5zM758 522h737q0 116 -39.5 211.5t-121.5 156t-193 60.5 q-165 0 -270 -122t-113 -306z" />
<glyph unicode="&#xe7;" horiz-adv-x="1077" d="M139 492q0 139 54 253.5t157.5 184t237.5 69.5q222 0 338 -174q18 -27 18 -45q0 -11 -9 -19.5t-22 -8.5q-6 0 -10.5 2.5t-9 8.5t-7 10.5t-8 15t-8.5 16.5q-41 69 -114 107t-166 38q-118 0 -209.5 -63.5t-138.5 -167t-47 -227.5q0 -129 47.5 -234t137 -167t204.5 -62 q107 0 186 44.5t119 125.5q4 7 8.5 19t7.5 18t9 11t14 5q13 0 21.5 -9.5t8.5 -21.5q0 -14 -16 -43q-100 -175 -313 -194q-20 -73 -70 -107q29 4 55 2q81 -6 132 -57t51 -121q0 -85 -62 -139t-153 -54q-125 0 -199 80q-16 20 -16 33q0 9 7 17t19 8q18 0 29 -19 q45 -73 160 -73q66 0 116 40t50 105q0 58 -41.5 100.5t-118.5 42.5q-29 0 -49 -6t-29 -6q-12 0 -19.5 7t-7.5 18q0 17 23 30q58 31 76 97q-131 1 -233 68.5t-156 183t-54 258.5z" />
<glyph unicode="&#xe8;" horiz-adv-x="1126" d="M139 496q0 101 31.5 192.5t87.5 160.5t140.5 109.5t183.5 40.5q185 0 300 -132.5t115 -336.5q0 -31 -11.5 -43t-39.5 -12h-753q3 -123 50 -223t138 -161.5t211 -61.5q105 0 187.5 45.5t117.5 124.5q2 5 5.5 14t5 13t5 10t6.5 9t8 5t11 2q12 0 20.5 -10t8.5 -21 q0 -14 -13 -37q-111 -202 -362 -202q-133 0 -237 67.5t-160 184t-56 262.5zM193 522h753q3 182 -97 306t-267 124q-168 0 -274.5 -122t-114.5 -308zM309 1456q0 14 9.5 23.5t21.5 9.5q14 0 33 -19q1 -1 14 -15.5t25 -24.5l161 -158l37 -35q15 -15 15 -27q0 -10 -8 -17 t-19 -7q-15 0 -27 12q-2 2 -11.5 14t-20.5 21l-160 151q-13 11 -30.5 24.5t-22.5 18.5q-17 14 -17 29z" />
<glyph unicode="&#xe9;" horiz-adv-x="1126" d="M139 496q0 101 31.5 192.5t87.5 160.5t140.5 109.5t183.5 40.5q185 0 300 -132.5t115 -336.5q0 -31 -11.5 -43t-39.5 -12h-753q3 -123 50 -223t138 -161.5t211 -61.5q105 0 187.5 45.5t117.5 124.5q2 5 5.5 14t5 13t5 10t6.5 9t8 5t11 2q12 0 20.5 -10t8.5 -21 q0 -14 -13 -37q-111 -202 -362 -202q-133 0 -237 67.5t-160 184t-56 262.5zM193 522h753q3 182 -97 306t-267 124q-168 0 -274.5 -122t-114.5 -308zM571 1210q0 14 15 29q3 3 16 14t21 19l161 158q11 10 22 22.5t17 17.5q16 19 33 19q13 0 22 -8.5t9 -22.5t-17 -28l-53 -44 l-160 -151q-10 -9 -19.5 -20.5t-12.5 -14.5q-14 -14 -27 -14q-10 0 -18.5 7.5t-8.5 16.5z" />
<glyph unicode="&#xea;" horiz-adv-x="1126" d="M139 496q0 101 31.5 192.5t87.5 160.5t140.5 109.5t183.5 40.5q185 0 300 -132.5t115 -336.5q0 -31 -11.5 -43t-39.5 -12h-753q3 -123 50 -223t138 -161.5t211 -61.5q105 0 187.5 45.5t117.5 124.5q2 5 5.5 14t5 13t5 10t6.5 9t8 5t11 2q12 0 20.5 -10t8.5 -21 q0 -14 -13 -37q-111 -202 -362 -202q-133 0 -237 67.5t-160 184t-56 262.5zM193 522h753q3 182 -97 306t-267 124q-168 0 -274.5 -122t-114.5 -308zM369 1223q0 17 10 24l12.5 12.5t14 15.5t14.5 19l125 148l28 39q13 16 29 16t29 -16l28 -39l123 -148q8 -11 14.5 -19 t14 -15.5l12.5 -12.5q11 -7 11 -24q0 -13 -9 -21t-20 -8q-17 0 -29 16q-5 7 -14.5 23t-20.5 31l-139 174l-141 -174q-8 -12 -18 -28.5t-17 -25.5q-12 -16 -29 -16q-11 0 -19.5 8t-8.5 21z" />
<glyph unicode="&#xeb;" horiz-adv-x="1126" d="M139 496q0 101 31.5 192.5t87.5 160.5t140.5 109.5t183.5 40.5q185 0 300 -132.5t115 -336.5q0 -31 -11.5 -43t-39.5 -12h-753q3 -123 50 -223t138 -161.5t211 -61.5q105 0 187.5 45.5t117.5 124.5q2 5 5.5 14t5 13t5 10t6.5 9t8 5t11 2q12 0 20.5 -10t8.5 -21 q0 -14 -13 -37q-111 -202 -362 -202q-133 0 -237 67.5t-160 184t-56 262.5zM193 522h753q3 182 -97 306t-267 124q-168 0 -274.5 -122t-114.5 -308zM381 1300q0 23 15.5 39.5t37.5 16.5q23 0 39 -16.5t16 -39.5q0 -22 -16 -37.5t-39 -15.5q-22 0 -37.5 15.5t-15.5 37.5z M713 1300q0 24 15 40t38 16t39 -16.5t16 -39.5q0 -22 -16 -37.5t-39 -15.5t-38 15.5t-15 37.5z" />
<glyph unicode="&#xec;" horiz-adv-x="497" d="M-43 1456q0 14 9.5 23.5t21.5 9.5q13 0 32 -19q1 -1 14 -15.5t25 -24.5l162 -158l37 -35q14 -14 14 -27q0 -10 -7.5 -17t-18.5 -7q-15 0 -27 12q-1 1 -11.5 13.5t-21.5 21.5l-159 151q-13 11 -30.5 24.5t-23.5 18.5q-16 13 -16 29zM217 29q0 7 2 33t2 44v754 q0 18 -2 44.5t-2 33.5q0 14 9.5 25.5t23.5 11.5t22.5 -11t8.5 -26q0 -7 -2.5 -33.5t-2.5 -44.5v-754q0 -18 2.5 -44t2.5 -33q0 -15 -8.5 -26t-22.5 -11t-23.5 11.5t-9.5 25.5z" />
<glyph unicode="&#xed;" horiz-adv-x="497" d="M217 29q0 7 2 33t2 44v754q0 18 -2 44.5t-2 33.5q0 14 9.5 25.5t23.5 11.5t22.5 -11t8.5 -26q0 -7 -2.5 -33.5t-2.5 -44.5v-754q0 -18 2.5 -44t2.5 -33q0 -15 -8.5 -26t-22.5 -11t-23.5 11.5t-9.5 25.5zM219 1210q0 15 14 29q3 3 16 14t21 19l162 158q11 10 22 22.5 t17 17.5q16 19 33 19q13 0 22 -8.5t9 -22.5t-17 -28l-53 -44l-160 -151q-10 -9 -20 -20.5t-13 -14.5q-14 -14 -26 -14q-10 0 -18.5 7.5t-8.5 16.5z" />
<glyph unicode="&#xee;" horiz-adv-x="497" d="M16 1223q0 17 11 24l12.5 12.5t14 15.5t14.5 19l125 148l28 39q13 16 29 16t29 -16l28 -39l123 -148q8 -11 14.5 -19t14 -15.5l12.5 -12.5q10 -7 10 -24q0 -13 -8.5 -21t-19.5 -8q-17 0 -29 16q-5 7 -14.5 23t-20.5 31l-139 174l-141 -174q-8 -12 -18 -28.5t-17 -25.5 q-12 -16 -29 -16q-11 0 -20 8t-9 21zM217 29q0 7 2 33t2 44v754q0 18 -2 44.5t-2 33.5q0 14 9.5 25.5t23.5 11.5t22.5 -11t8.5 -26q0 -7 -2.5 -33.5t-2.5 -44.5v-754q0 -18 2.5 -44t2.5 -33q0 -15 -8.5 -26t-22.5 -11t-23.5 11.5t-9.5 25.5z" />
<glyph unicode="&#xef;" horiz-adv-x="497" d="M29 1300q0 23 15.5 39.5t37.5 16.5q23 0 39 -16.5t16 -39.5q0 -22 -16 -37.5t-39 -15.5q-22 0 -37.5 15.5t-15.5 37.5zM217 29q0 7 2 33t2 44v754q0 18 -2 44.5t-2 33.5q0 14 9.5 25.5t23.5 11.5t22.5 -11t8.5 -26q0 -7 -2.5 -33.5t-2.5 -44.5v-754q0 -18 2.5 -44 t2.5 -33q0 -15 -8.5 -26t-22.5 -11t-23.5 11.5t-9.5 25.5zM360 1300q0 23 15.5 39.5t38.5 16.5t39 -16.5t16 -39.5q0 -22 -16 -37.5t-39 -15.5t-38.5 15.5t-15.5 37.5z" />
<glyph unicode="&#xf0;" horiz-adv-x="1177" d="M139 492q0 137 52 250.5t155 184.5t238 72q117 1 212.5 -47t157.5 -133q-61 288 -258 465l-106 -59q-16 -7 -33.5 -19.5t-19.5 -13.5q-15 -6 -23 -6q-9 0 -17 7t-8 17q0 14 21 27q35 15 57 27l92 51q-83 64 -180 98q-20 6 -63 12q-33 7 -33 29q0 12 9 19.5t20 7.5 q7 0 57 -15q128 -39 236 -127l108 60q16 8 32.5 20.5t20.5 14.5q15 6 23 6q9 0 16.5 -7.5t7.5 -17.5q0 -22 -18 -29q-1 -1 -21.5 -9.5t-37.5 -16.5l-95 -51q140 -134 214.5 -327t74.5 -402q0 -127 -27.5 -234.5t-81 -189.5t-140 -128t-197.5 -46q-135 0 -238 71t-155 185.5 t-52 253.5zM195 492q0 -124 45 -228t135 -169.5t209 -65.5q87 0 156 32.5t113.5 85.5t74 126t41.5 149t12 160q0 80 -12 159q-59 96 -156.5 153.5t-222.5 57.5q-92 0 -167.5 -37.5t-125 -101.5t-76 -147t-26.5 -174z" />
<glyph unicode="&#xf1;" horiz-adv-x="1140" d="M207 918q0 14 9 24t24 10q14 0 22 -10t8 -24v-101q126 182 332 182q154 0 246 -103t92 -275v-515q0 -18 2 -44t2 -33q0 -15 -8.5 -26t-22.5 -11t-23 11.5t-9 25.5q0 7 2 33t2 44v512q0 152 -78 242t-217 90q-196 0 -320 -190v-654q0 -18 3 -44t3 -33q0 -14 -9 -25.5 t-23 -11.5t-23.5 11.5t-9.5 25.5q0 7 3 33t3 44v732q0 19 -5 46.5t-5 33.5zM324 1266q0 50 34 77q40 35 99 35q65 0 151 -57q51 -35 76.5 -46t56.5 -11t50.5 14.5t19.5 36.5q0 5 -2 13t-2 13q0 13 8.5 22t22.5 9q13 0 21.5 -11t8.5 -28q0 -56 -43 -86q-31 -28 -88 -28 q-64 0 -153 59q-51 34 -76.5 44.5t-56.5 10.5t-50.5 -14t-19.5 -37q0 -5 3 -13t3 -14q0 -11 -9.5 -20.5t-23.5 -9.5t-22 11t-8 30z" />
<glyph unicode="&#xf2;" horiz-adv-x="1169" d="M139 489q0 102 31 194t86.5 162.5t140.5 112t187 41.5q137 0 240 -72t154.5 -186.5t51.5 -251.5q0 -139 -51.5 -253t-154.5 -184t-240 -70q-135 0 -238 70t-155 184.5t-52 252.5zM195 489q0 -124 45 -227.5t135 -168t209 -64.5q91 0 166 37.5t123.5 101t75 146.5 t26.5 175q0 123 -44.5 226.5t-135 169t-211.5 65.5q-119 0 -209 -65.5t-135 -169t-45 -226.5zM293 1456q0 14 9.5 23.5t21.5 9.5q13 0 32 -19q1 -1 14 -15.5t25 -24.5l162 -158l37 -35q14 -14 14 -27q0 -10 -7.5 -17t-18.5 -7q-15 0 -27 12q-1 1 -11.5 13.5t-21.5 21.5 l-160 151q-13 11 -30.5 24.5t-22.5 18.5q-16 13 -16 29z" />
<glyph unicode="&#xf3;" horiz-adv-x="1169" d="M139 489q0 102 31 194t86.5 162.5t140.5 112t187 41.5q137 0 240 -72t154.5 -186.5t51.5 -251.5q0 -139 -51.5 -253t-154.5 -184t-240 -70q-135 0 -238 70t-155 184.5t-52 252.5zM195 489q0 -124 45 -227.5t135 -168t209 -64.5q91 0 166 37.5t123.5 101t75 146.5 t26.5 175q0 123 -44.5 226.5t-135 169t-211.5 65.5q-119 0 -209 -65.5t-135 -169t-45 -226.5zM555 1210q0 15 14 29q3 3 16 14t21 19l162 158q11 10 22 22.5t17 17.5q16 19 33 19q13 0 21.5 -8.5t8.5 -22.5q0 -15 -16 -28l-53 -44l-160 -151q-10 -9 -20 -20.5t-13 -14.5 q-14 -14 -26 -14q-10 0 -18.5 7.5t-8.5 16.5z" />
<glyph unicode="&#xf4;" horiz-adv-x="1169" d="M139 489q0 102 31 194t86.5 162.5t140.5 112t187 41.5q137 0 240 -72t154.5 -186.5t51.5 -251.5q0 -139 -51.5 -253t-154.5 -184t-240 -70q-135 0 -238 70t-155 184.5t-52 252.5zM195 489q0 -124 45 -227.5t135 -168t209 -64.5q91 0 166 37.5t123.5 101t75 146.5 t26.5 175q0 123 -44.5 226.5t-135 169t-211.5 65.5q-119 0 -209 -65.5t-135 -169t-45 -226.5zM352 1223q0 17 10 24l12.5 12.5t14 15.5t14.5 19l125 148l29 39q13 16 29 16q15 0 28 -16l29 -39l123 -148q8 -11 14.5 -19t14 -15.5l12.5 -12.5q10 -7 10 -24q0 -13 -9 -21 t-20 -8q-16 0 -28 16q-5 7 -14.5 23t-20.5 31l-139 174l-142 -174q-9 -13 -18.5 -29.5t-15.5 -24.5q-12 -16 -29 -16q-11 0 -20 8t-9 21z" />
<glyph unicode="&#xf5;" horiz-adv-x="1169" d="M139 489q0 102 31 194t86.5 162.5t140.5 112t187 41.5q137 0 240 -72t154.5 -186.5t51.5 -251.5q0 -139 -51.5 -253t-154.5 -184t-240 -70q-135 0 -238 70t-155 184.5t-52 252.5zM195 489q0 -124 45 -227.5t135 -168t209 -64.5q91 0 166 37.5t123.5 101t75 146.5 t26.5 175q0 123 -44.5 226.5t-135 169t-211.5 65.5q-119 0 -209 -65.5t-135 -169t-45 -226.5zM313 1266q0 49 35 77q40 35 98 35q66 0 152 -57q51 -35 76.5 -46t56.5 -11t50.5 14.5t19.5 36.5q0 5 -2 13t-2 13q0 13 8 22t22 9t22.5 -11t8.5 -28q0 -56 -43 -86 q-31 -28 -88 -28q-65 0 -154 59q-51 34 -76.5 44.5t-56.5 10.5t-50 -14t-19 -37q0 -5 3 -13t3 -14q0 -11 -9.5 -20.5t-23.5 -9.5t-22.5 11t-8.5 30z" />
<glyph unicode="&#xf6;" horiz-adv-x="1169" d="M139 489q0 102 31 194t86.5 162.5t140.5 112t187 41.5q137 0 240 -72t154.5 -186.5t51.5 -251.5q0 -139 -51.5 -253t-154.5 -184t-240 -70q-135 0 -238 70t-155 184.5t-52 252.5zM195 489q0 -124 45 -227.5t135 -168t209 -64.5q91 0 166 37.5t123.5 101t75 146.5 t26.5 175q0 123 -44.5 226.5t-135 169t-211.5 65.5q-119 0 -209 -65.5t-135 -169t-45 -226.5zM365 1300q0 23 15.5 39.5t37.5 16.5q23 0 39 -16.5t16 -39.5q0 -22 -16 -37.5t-39 -15.5q-22 0 -37.5 15.5t-15.5 37.5zM696 1300q0 23 15.5 39.5t38.5 16.5t39 -16.5t16 -39.5 q0 -22 -16 -37.5t-39 -15.5t-38.5 15.5t-15.5 37.5z" />
<glyph unicode="&#xf7;" horiz-adv-x="929" d="M133 627q0 13 10 21.5t25 8.5q5 0 30.5 -3t41.5 -3h450q16 0 41.5 3t30.5 3q15 0 25 -8.5t10 -21.5t-10 -22t-25 -9q-5 0 -30.5 2t-41.5 2h-450q-16 0 -41.5 -2t-30.5 -2q-15 0 -25 9t-10 22zM416 350q0 24 16 40t41 16q23 0 39 -16.5t16 -39.5q0 -24 -15.5 -39.5 t-39.5 -15.5q-25 0 -41 15t-16 40zM416 883q0 25 16 40t41 15q24 0 39.5 -15.5t15.5 -39.5q0 -23 -16 -39.5t-39 -16.5q-25 0 -41 16.5t-16 39.5z" />
<glyph unicode="&#xf8;" horiz-adv-x="1173" d="M139 489q0 102 31 194t87.5 162.5t141.5 112t187 41.5q168 0 282 -108l21 24q10 13 23.5 38t19.5 32q8 14 26 14q12 0 22.5 -9t10.5 -21q0 -14 -8 -25q-4 -5 -22.5 -24.5t-28.5 -34.5l-27 -31q127 -146 127 -365q0 -139 -52 -253t-155 -184t-239 -70q-179 0 -295 116 l-15 -18q-9 -12 -23 -36.5t-20 -31.5q-8 -14 -26 -14q-13 0 -23 9t-10 22q0 8 8 24l20 21q20 22 31 37l21 24q-115 146 -115 354zM195 489q0 -187 96 -315l547 678q-98 98 -252 98q-120 0 -210.5 -65.5t-135.5 -169t-45 -226.5zM324 135q98 -106 262 -106q120 0 210.5 64.5 t135.5 168t45 227.5q0 92 -27.5 177t-79.5 147z" />
<glyph unicode="&#xf9;" horiz-adv-x="1140" d="M197 944q0 14 9 24.5t23 10.5t22.5 -10.5t8.5 -24.5q0 -8 -2 -35t-2 -45v-504q0 -151 79 -241t224 -90q92 0 173 40t138 113v682q0 18 -3 45t-3 35q0 14 9.5 24.5t23.5 10.5t23.5 -10.5t9.5 -24.5q0 -8 -2 -35t-2 -45v-758q0 -17 4 -44t4 -33q0 -15 -9 -26t-24 -11 q-14 0 -22.5 10.5t-8.5 26.5v98q-56 -67 -139.5 -106t-181.5 -39q-159 0 -253.5 102.5t-94.5 273.5v506q0 18 -2 45t-2 35zM272 1456q0 14 9 23.5t22 9.5q14 0 33 -19q1 -1 14 -15.5t25 -24.5l162 -158l36 -35q15 -15 15 -27q0 -10 -8 -17t-19 -7q-14 0 -26 12 q-1 1 -11.5 13.5t-21.5 21.5l-160 151q-13 11 -30.5 24.5t-22.5 18.5q-17 14 -17 29z" />
<glyph unicode="&#xfa;" horiz-adv-x="1140" d="M197 944q0 14 9 24.5t23 10.5t22.5 -10.5t8.5 -24.5q0 -8 -2 -35t-2 -45v-504q0 -151 79 -241t224 -90q92 0 173 40t138 113v682q0 18 -3 45t-3 35q0 14 9.5 24.5t23.5 10.5t23.5 -10.5t9.5 -24.5q0 -8 -2 -35t-2 -45v-758q0 -17 4 -44t4 -33q0 -15 -9 -26t-24 -11 q-14 0 -22.5 10.5t-8.5 26.5v98q-56 -67 -139.5 -106t-181.5 -39q-159 0 -253.5 102.5t-94.5 273.5v506q0 18 -2 45t-2 35zM537 1210q0 15 14 29q3 3 16 14t21 19l162 158q11 10 22 22.5t16 17.5q16 19 33 19q13 0 22 -8.5t9 -22.5q0 -15 -16 -28l-54 -44l-159 -151 q-10 -9 -20 -20.5t-13 -14.5q-14 -14 -27 -14q-10 0 -18 7.5t-8 16.5z" />
<glyph unicode="&#xfb;" horiz-adv-x="1140" d="M197 944q0 14 9 24.5t23 10.5t22.5 -10.5t8.5 -24.5q0 -8 -2 -35t-2 -45v-504q0 -151 79 -241t224 -90q92 0 173 40t138 113v682q0 18 -3 45t-3 35q0 14 9.5 24.5t23.5 10.5t23.5 -10.5t9.5 -24.5q0 -8 -2 -35t-2 -45v-758q0 -17 4 -44t4 -33q0 -15 -9 -26t-24 -11 q-14 0 -22.5 10.5t-8.5 26.5v98q-56 -67 -139.5 -106t-181.5 -39q-159 0 -253.5 102.5t-94.5 273.5v506q0 18 -2 45t-2 35zM334 1223q0 17 10 24l12.5 12.5t14 15.5t14.5 19l125 148l29 39q13 16 28 16q16 0 29 -16l29 -39l123 -148q5 -7 40 -47q11 -7 11 -24q0 -13 -9 -21 t-20 -8q-17 0 -29 16q-5 7 -14 23t-20 31l-140 174l-141 -174q-8 -12 -18 -28.5t-17 -25.5q-12 -16 -29 -16q-11 0 -19.5 8t-8.5 21z" />
<glyph unicode="&#xfc;" horiz-adv-x="1140" d="M197 944q0 14 9 24.5t23 10.5t22.5 -10.5t8.5 -24.5q0 -8 -2 -35t-2 -45v-504q0 -151 79 -241t224 -90q92 0 173 40t138 113v682q0 18 -3 45t-3 35q0 14 9.5 24.5t23.5 10.5t23.5 -10.5t9.5 -24.5q0 -8 -2 -35t-2 -45v-758q0 -17 4 -44t4 -33q0 -15 -9 -26t-24 -11 q-14 0 -22.5 10.5t-8.5 26.5v98q-56 -67 -139.5 -106t-181.5 -39q-159 0 -253.5 102.5t-94.5 273.5v506q0 18 -2 45t-2 35zM346 1300q0 23 15.5 39.5t37.5 16.5q23 0 39.5 -16.5t16.5 -39.5q0 -22 -16.5 -37.5t-39.5 -15.5q-22 0 -37.5 15.5t-15.5 37.5zM678 1300 q0 24 15 40t38 16t39 -16.5t16 -39.5q0 -22 -16 -37.5t-39 -15.5t-38 15.5t-15 37.5z" />
<glyph unicode="&#xfd;" horiz-adv-x="901" d="M57 942q0 14 9.5 23.5t23.5 9.5q21 0 31 -23q10 -41 22 -75l273 -762q20 -61 22 -76l322 838q6 16 13 42t9 33q10 23 31 23q13 0 22 -9.5t9 -23.5q0 -5 -8 -24q-15 -25 -27 -60l-461 -1196q-45 -123 -166 -123q-40 0 -63 12t-23 31q0 12 8.5 21.5t20.5 9.5q13 0 30 -11.5 t38 -11.5q74 0 112 101l115 301q-29 4 -37 31q-3 8 -7 32t-9 41l-275 762q-9 26 -26 60q-9 18 -9 24zM420 1210q0 15 14 29q3 3 16 14t21 19l162 158q11 10 22 22.5t17 17.5q16 19 33 19q13 0 21.5 -8.5t8.5 -22.5q0 -15 -16 -28l-53 -44l-160 -151q-10 -9 -20 -20.5 t-13 -14.5q-14 -14 -27 -14q-10 0 -18 7.5t-8 16.5z" />
<glyph unicode="&#xfe;" horiz-adv-x="1132" d="M207 -412q0 7 2 33.5t2 44.5v1706q0 18 -2 44.5t-2 33.5q0 15 9 26t24 11q14 0 22 -10.5t8 -26.5q0 -7 -2 -33.5t-2 -44.5v-506q119 133 303 133q187 0 305.5 -140.5t118.5 -356.5q0 -147 -52 -264.5t-153.5 -186.5t-236.5 -69q-89 0 -162.5 33.5t-122.5 84.5v-434 q0 -18 2 -44.5t2 -33.5q0 -16 -8 -26.5t-22 -10.5q-15 0 -24 11t-9 26zM266 154q113 -125 283 -125q167 0 278 128.5t111 344.5q0 190 -102 319t-269 129q-187 0 -301 -139v-657z" />
<glyph unicode="&#xff;" horiz-adv-x="901" d="M57 942q0 14 9.5 23.5t23.5 9.5q21 0 31 -23q10 -41 22 -75l273 -762q20 -61 22 -76l322 838q6 16 13 42t9 33q10 23 31 23q13 0 22 -9.5t9 -23.5q0 -5 -8 -24q-15 -25 -27 -60l-461 -1196q-45 -123 -166 -123q-40 0 -63 12t-23 31q0 12 8.5 21.5t20.5 9.5q13 0 30 -11.5 t38 -11.5q74 0 112 101l115 301q-29 4 -37 31q-3 8 -7 32t-9 41l-275 762q-9 26 -26 60q-9 18 -9 24zM229 1300q0 23 16 39.5t38 16.5q23 0 39 -16.5t16 -39.5q0 -22 -16 -37.5t-39 -15.5q-22 0 -38 15.5t-16 37.5zM561 1300q0 24 15 40t38 16t39.5 -16.5t16.5 -39.5 q0 -22 -16.5 -37.5t-39.5 -15.5t-38 15.5t-15 37.5z" />
<glyph unicode="&#x152;" horiz-adv-x="1990" d="M160 733q0 216 76 386.5t219.5 269t332.5 98.5q76 0 168 -29q82 4 197 4h655q14 0 24.5 -8t10.5 -22q0 -13 -10 -20t-25 -7q-7 0 -31 5t-44 5h-672q147 -76 235.5 -235t102.5 -367h233q17 0 37.5 2t26.5 2q14 0 24.5 -8.5t10.5 -20.5q0 -13 -10.5 -21.5t-24.5 -8.5 q-6 0 -26.5 2t-37.5 2h-229v-29q0 -239 -96 -421.5t-263 -264.5h740q20 0 45.5 5t32.5 5q34 0 34 -26q0 -14 -10 -22.5t-24 -8.5h-928q-68 -18 -146 -18q-189 0 -332.5 97.5t-219.5 267.5t-76 386zM215 731q0 -194 66.5 -351.5t198 -253t306.5 -95.5q132 0 239.5 55 t178 150.5t108.5 222.5t38 272q0 147 -38 275t-108.5 224.5t-178 152t-239.5 55.5q-174 0 -305.5 -96t-198.5 -255.5t-67 -355.5z" />
<glyph unicode="&#x153;" horiz-adv-x="1927" d="M139 489q0 102 31 194t86.5 162.5t140.5 112t187 41.5q158 0 264 -95.5t145 -250.5q37 155 141.5 250.5t262.5 95.5q182 0 292.5 -134.5t110.5 -338.5q0 -51 -49 -51h-733q5 -187 110.5 -316.5t268.5 -129.5q108 0 189 45t118 125q2 5 6 16t6.5 15.5t6.5 10.5t8.5 8.5 t11.5 2.5q13 0 22 -10t9 -21q0 -7 -13 -37q-111 -202 -364 -202q-150 0 -258.5 95.5t-145.5 250.5q-41 -161 -147 -253.5t-262 -92.5q-135 0 -238 70t-155 184.5t-52 252.5zM193 489q0 -124 45 -227.5t135 -168t209 -64.5q120 0 208 65t130.5 167.5t42.5 227.5 q0 124 -42.5 227t-131 168.5t-207.5 65.5t-209 -65.5t-135 -169t-45 -226.5zM1018 522h731q0 116 -39 212t-121 157t-194 61q-166 0 -267.5 -123t-109.5 -307z" />
<glyph unicode="&#x178;" horiz-adv-x="1134" d="M57 1438q0 12 9 22t22 10q23 0 33 -24q17 -46 29 -72l419 -815l416 815q8 18 18 43t11 27q13 26 35 26q13 0 20.5 -9.5t7.5 -22.5q0 -12 -8 -25q-27 -41 -37 -61l-436 -846v-397q0 -18 3 -45.5t3 -34.5q0 -14 -9.5 -25.5t-23.5 -11.5q-16 0 -24 11t-8 26q0 7 2 34.5 t2 45.5v399l-439 842q-13 28 -36 63q-9 15 -9 25zM350 1798q0 23 15.5 39t37.5 16q23 0 39.5 -16t16.5 -39q0 -22 -16.5 -37.5t-39.5 -15.5q-22 0 -37.5 15.5t-15.5 37.5zM680 1798q0 23 15.5 39t37.5 16q23 0 39 -16t16 -39q0 -22 -16 -37.5t-39 -15.5q-22 0 -37.5 15.5 t-15.5 37.5z" />
<glyph unicode="&#x2c6;" horiz-adv-x="792" d="M164 1223q0 17 10 24l12.5 12.5t14 15.5t14.5 19l125 148l29 39q13 16 28 16q16 0 29 -16l29 -39l123 -148q5 -7 40 -47q11 -7 11 -24q0 -13 -9 -21t-20 -8q-17 0 -29 16q-5 7 -14 23t-20 31l-140 174l-141 -174q-8 -12 -18 -28.5t-17 -25.5q-12 -16 -28 -16q-11 0 -20 8 t-9 21z" />
<glyph unicode="&#x2dc;" horiz-adv-x="872" d="M164 1266q0 49 35 77q40 35 98 35q66 0 152 -57q51 -35 76.5 -46t56.5 -11q30 0 49.5 14.5t19.5 36.5q0 5 -2 13t-2 13q0 13 8.5 22t22.5 9t22.5 -11t8.5 -28q0 -56 -43 -86q-31 -28 -88 -28q-65 0 -154 59q-51 34 -76.5 44.5t-56.5 10.5t-50.5 -14t-19.5 -37q0 -5 3 -13 t3 -14q0 -11 -9 -20.5t-23 -9.5t-22.5 11t-8.5 30z" />
<glyph unicode="&#x2000;" horiz-adv-x="958" />
<glyph unicode="&#x2001;" horiz-adv-x="1917" />
<glyph unicode="&#x2002;" horiz-adv-x="958" />
<glyph unicode="&#x2003;" horiz-adv-x="1917" />
<glyph unicode="&#x2004;" horiz-adv-x="639" />
<glyph unicode="&#x2005;" horiz-adv-x="479" />
<glyph unicode="&#x2006;" horiz-adv-x="319" />
<glyph unicode="&#x2007;" horiz-adv-x="319" />
<glyph unicode="&#x2008;" horiz-adv-x="239" />
<glyph unicode="&#x2009;" horiz-adv-x="383" />
<glyph unicode="&#x200a;" horiz-adv-x="106" />
<glyph unicode="&#x2010;" horiz-adv-x="788" d="M121 551q0 13 9.5 22t23.5 9q5 0 29 -3.5t40 -3.5h342q16 0 40.5 3.5t29.5 3.5q14 0 23.5 -9t9.5 -22t-9.5 -22t-23.5 -9q-5 0 -29.5 3t-40.5 3h-342q-16 0 -40 -3t-29 -3q-14 0 -23.5 9t-9.5 22z" />
<glyph unicode="&#x2011;" horiz-adv-x="788" d="M121 551q0 13 9.5 22t23.5 9q5 0 29 -3.5t40 -3.5h342q16 0 40.5 3.5t29.5 3.5q14 0 23.5 -9t9.5 -22t-9.5 -22t-23.5 -9q-5 0 -29.5 3t-40.5 3h-342q-16 0 -40 -3t-29 -3q-14 0 -23.5 9t-9.5 22z" />
<glyph unicode="&#x2012;" horiz-adv-x="788" d="M121 551q0 13 9.5 22t23.5 9q5 0 29 -3.5t40 -3.5h342q16 0 40.5 3.5t29.5 3.5q14 0 23.5 -9t9.5 -22t-9.5 -22t-23.5 -9q-5 0 -29.5 3t-40.5 3h-342q-16 0 -40 -3t-29 -3q-14 0 -23.5 9t-9.5 22z" />
<glyph unicode="&#x2013;" horiz-adv-x="1024" d="M121 551q0 13 9.5 22t23.5 9q5 0 29 -3.5t40 -3.5h578q16 0 40 3.5t29 3.5q14 0 23.5 -9t9.5 -22t-9.5 -22t-23.5 -9q-5 0 -29 3t-40 3h-578q-16 0 -40 -3t-29 -3q-14 0 -23.5 9t-9.5 22z" />
<glyph unicode="&#x2014;" horiz-adv-x="2048" d="M121 551q0 13 9.5 22t23.5 9q5 0 29 -3.5t40 -3.5h1602q16 0 40 3.5t29 3.5q14 0 23.5 -9t9.5 -22t-9.5 -22t-23.5 -9q-5 0 -29 3t-40 3h-1602q-16 0 -40 -3t-29 -3q-14 0 -23.5 9t-9.5 22z" />
<glyph unicode="&#x2018;" horiz-adv-x="376" d="M127 1266q0 103 49 182q19 27 37 27q10 0 17.5 -8t7.5 -17q0 -5 -2 -10t-5 -8t-9.5 -10.5t-10.5 -12.5q-39 -48 -39 -104q0 -13 16 -13q23 0 38.5 -15t15.5 -38t-15.5 -38t-38.5 -15q-28 0 -44.5 21t-16.5 59z" />
<glyph unicode="&#x2019;" horiz-adv-x="376" d="M135 1421q0 23 15 38.5t38 15.5q28 0 45 -21t17 -59q0 -104 -49 -183q-18 -26 -37 -26q-10 0 -17.5 7.5t-7.5 16.5q0 5 2 10t5 8t9.5 10.5t10.5 12.5q39 48 39 105q0 12 -17 12q-23 0 -38 15t-15 38z" />
<glyph unicode="&#x201a;" horiz-adv-x="376" d="M135 49q0 23 15 39t38 16q28 0 45 -20.5t17 -58.5q0 -107 -49 -183q-16 -26 -37 -26q-11 0 -18 7t-7 17q0 6 2.5 11t11 13.5t13.5 14.5q39 48 39 107q0 12 -17 12q-23 0 -38 14.5t-15 36.5z" />
<glyph unicode="&#x201c;" horiz-adv-x="563" d="M127 1264q0 109 47 184q19 27 37 27q12 0 19.5 -7t7.5 -18q0 -6 -3.5 -11t-11.5 -13t-14 -15q-37 -45 -37 -106q0 -13 16 -13q24 0 39 -15t15 -38t-15.5 -38t-38.5 -15q-58 0 -61 78zM313 1266q0 103 49 182q19 27 37 27q10 0 17.5 -8t7.5 -17q0 -5 -2 -10t-5 -8 t-9.5 -10.5t-10.5 -12.5q-37 -45 -37 -104q0 -13 15 -13q23 0 39 -15t16 -38t-16 -38t-39 -15q-27 0 -44 21t-18 59z" />
<glyph unicode="&#x201d;" horiz-adv-x="565" d="M133 1421q0 23 16 38.5t39 15.5q28 0 44 -20t16 -58q3 -106 -47 -185q-16 -26 -37 -26q-10 0 -17.5 7.5t-7.5 16.5q0 5 2.5 10t5 8t10 10.5t11.5 12.5q35 43 35 105q0 12 -15 12q-25 0 -40 15t-15 38zM324 1421q0 23 15 38.5t40 15.5q27 0 43 -21t16 -59q0 -108 -47 -183 q-18 -26 -37 -26q-12 0 -19 7t-7 17q0 4 1 7.5t4 7.5t5 6.5t8 9t10 10.5q37 45 37 105q0 12 -16 12q-23 0 -38 15t-15 38z" />
<glyph unicode="&#x201e;" horiz-adv-x="565" d="M133 49q0 24 15.5 39.5t39.5 15.5q28 0 44 -20.5t16 -56.5q3 -109 -47 -185q-16 -26 -37 -26q-11 0 -18 7t-7 17q0 6 2.5 10.5t12 13.5t14.5 15q35 43 35 107q0 12 -15 12q-24 0 -39.5 14.5t-15.5 36.5zM324 49q0 24 15.5 39.5t39.5 15.5q27 0 43 -20.5t16 -58.5 q0 -110 -47 -183q-16 -26 -37 -26q-26 0 -26 24q0 5 2 9.5t4.5 7.5t9.5 10l12 12q37 45 37 107q0 12 -16 12q-23 0 -38 14.5t-15 36.5z" />
<glyph unicode="&#x2022;" horiz-adv-x="647" d="M137 553q0 75 54.5 130.5t130.5 55.5q79 0 133.5 -55t54.5 -131q0 -77 -54.5 -132.5t-133.5 -55.5q-76 0 -130.5 55.5t-54.5 132.5z" />
<glyph unicode="&#x2026;" horiz-adv-x="1105" d="M131 49q0 23 15 39t38 16t39.5 -16t16.5 -39q0 -22 -16.5 -37.5t-39.5 -15.5t-38 15.5t-15 37.5zM498 49q0 23 15.5 39t37.5 16q23 0 39 -16t16 -39q0 -22 -16 -37.5t-39 -15.5q-22 0 -37.5 15.5t-15.5 37.5zM868 49q0 23 15.5 39t38.5 16t39 -16t16 -39q0 -22 -16 -37.5 t-39 -15.5t-38.5 15.5t-15.5 37.5z" />
<glyph unicode="&#x202f;" horiz-adv-x="383" />
<glyph unicode="&#x2039;" horiz-adv-x="679" d="M104 551q0 15 17 29q38 25 41 28l287 240q8 7 19.5 19.5t14.5 15.5q13 8 23 8q11 0 18.5 -8.5t7.5 -20.5q0 -16 -14 -26q-4 -3 -18 -12t-21 -15l-317 -256l315 -260q5 -4 19 -12t22 -15q14 -11 14 -26q0 -12 -7.5 -19.5t-18.5 -7.5q-13 0 -23 8l-34 33l-287 240 q-6 6 -43 30q-15 15 -15 27z" />
<glyph unicode="&#x203a;" horiz-adv-x="679" d="M143 240q0 13 17 26q7 7 21.5 16t17.5 11l313 260l-313 256q-4 3 -18 12t-21 15q-17 13 -17 26q0 12 9 20.5t20 8.5q10 0 21 -8q3 -3 14.5 -15.5t19.5 -19.5l287 -240q10 -8 23.5 -16.5t17.5 -11.5q18 -12 18 -29q0 -14 -16 -27l-43 -30l-287 -240l-34 -33q-8 -8 -21 -8 q-11 0 -20 7.5t-9 19.5z" />
<glyph unicode="&#x205f;" horiz-adv-x="479" />
<glyph unicode="&#x20ac;" horiz-adv-x="1329" d="M90 590q0 26 33 26q4 0 27.5 -2t37.5 -2h58q-2 49 -2 150h-56q-14 0 -37.5 -2t-27.5 -2q-33 0 -33 28q0 29 33 29q4 0 27.5 -2t37.5 -2h58q24 283 167.5 442.5t360.5 159.5q135 0 232.5 -56t154.5 -153q15 -30 15 -41q0 -12 -8 -20t-21 -8q-4 0 -8 1t-6.5 2.5t-5.5 4.5 t-4.5 5t-4.5 7.5t-4 7.5t-4 9.5t-4 9.5q-34 77 -124 128.5t-208 51.5q-197 0 -324 -146t-147 -405h393q15 0 38.5 2t27.5 2q14 0 24.5 -8t10.5 -21t-10.5 -20.5t-24.5 -7.5q-4 0 -27.5 2t-38.5 2h-395q-5 -59 2 -150h326q15 0 38 2t27 2q14 0 24.5 -7t10.5 -19 q0 -13 -10.5 -22t-24.5 -9q-4 0 -27 3t-38 3h-322q27 -242 148.5 -387t318.5 -145q112 0 210.5 51t133.5 137q7 19 10 27t10.5 16t16.5 8q13 0 22 -7.5t9 -18.5q0 -15 -12 -39q-44 -90 -148.5 -157.5t-251.5 -67.5q-212 0 -351.5 156t-170.5 427h-64q-14 0 -37.5 -3 t-27.5 -3q-15 0 -24 8.5t-9 22.5z" />
<glyph unicode="&#x2122;" horiz-adv-x="1259" d="M90 1440q0 20 23 20h405q27 0 27 -20q0 -10 -7.5 -15.5t-17.5 -5.5q-4 0 -19.5 2t-25.5 2h-137v-465q0 -10 1 -26t1 -21q0 -11 -6.5 -18.5t-18.5 -7.5q-22 0 -22 26q0 5 1 21t1 26v465h-137q-8 0 -24 -2t-21 -2q-23 0 -23 21zM631 911q0 5 1 21t1 26v431q0 9 -1 25t-1 22 q0 9 8 16.5t18 7.5h5q19 0 24 -16l14 -29l172 -360q17 -35 19 -43q3 10 18 45l172 358l15 29q8 16 24 16h4q10 0 17.5 -7.5t7.5 -16.5q0 -6 -1 -22t-1 -25v-431q0 -10 1 -26t1 -21q0 -11 -6.5 -18.5t-16.5 -7.5t-17 7.5t-7 18.5q0 5 2 21t2 26l2 381q0 13 1 35.5t1 28.5 l-184 -391l-13 -25q-3 -16 -22 -16t-25 16l-12 27l-184 385q4 -28 4 -60l2 -381q0 -10 1 -26t1 -21q0 -11 -6.5 -18.5t-16.5 -7.5t-17 7.5t-7 18.5z" />
<glyph unicode="&#x25fc;" horiz-adv-x="972" d="M0 0v973h973v-973h-973z" />
<glyph unicode="&#xfb03;" horiz-adv-x="1769" d="M94 954q0 12 9.5 20.5t23.5 8.5q6 0 29 -3t39 -3h41v297q0 106 57 159.5t139 53.5q97 0 154 -57q20 -20 20 -37q0 -13 -8.5 -21t-19.5 -8q-8 0 -14 4.5t-13 14t-10 12.5q-40 43 -113 43q-55 0 -97 -37.5t-42 -118.5v-305h178q15 0 39 3t29 3q12 0 21 -8.5t9 -20.5 q0 -13 -8.5 -20.5t-21.5 -7.5q-5 0 -29 2t-39 2h-178v-824q0 -19 3 -45t3 -32q0 -15 -9 -26t-24 -11t-24 11t-9 26q0 6 3.5 32t3.5 45v824h-41q-16 0 -39 -2t-29 -2q-14 0 -23.5 7.5t-9.5 20.5zM709 954q0 12 9.5 20.5t22.5 8.5q6 0 29 -3t39 -3h41v297q0 106 57.5 159.5 t139.5 53.5q96 0 153 -57q21 -21 21 -37q0 -13 -9 -21t-20 -8q-8 0 -14 4.5t-13 14t-10 12.5q-40 43 -113 43q-55 0 -97 -37.5t-42 -118.5v-305h178q15 0 39 3t29 3q12 0 21.5 -8.5t9.5 -20.5q0 -13 -9 -20.5t-22 -7.5q-5 0 -29 2t-39 2h-178v-824q0 -19 3 -45t3 -32 q0 -16 -8.5 -26.5t-23.5 -10.5t-24 11t-9 26q0 6 3 32t3 45v824h-41q-16 0 -39 -2t-29 -2q-32 0 -32 28zM1454 1309q0 22 15 37.5t38 15.5t39.5 -15.5t16.5 -37.5q0 -23 -16.5 -39.5t-39.5 -16.5t-38 16t-15 40zM1475 29q0 7 3 33t3 44v754q0 18 -3 44.5t-3 33.5 q0 14 9 25.5t23 11.5t23.5 -11.5t9.5 -25.5q0 -7 -2 -33.5t-2 -44.5v-754q0 -18 2 -44t2 -33q0 -14 -9.5 -25.5t-23.5 -11.5t-23 11.5t-9 25.5z" />
<glyph unicode="&#xfb04;" horiz-adv-x="1722" d="M94 954q0 12 9.5 20.5t23.5 8.5q6 0 29 -3t39 -3h41v297q0 106 57 159.5t139 53.5q97 0 154 -57q20 -20 20 -37q0 -13 -8.5 -21t-19.5 -8q-8 0 -14 4.5t-13 14t-10 12.5q-40 43 -113 43q-55 0 -97 -37.5t-42 -118.5v-305h178q15 0 39 3t29 3q12 0 21 -8.5t9 -20.5 q0 -13 -8.5 -20.5t-21.5 -7.5q-5 0 -29 2t-39 2h-178v-824q0 -19 3 -45t3 -32q0 -15 -9 -26t-24 -11t-24 11t-9 26q0 6 3.5 32t3.5 45v824h-41q-16 0 -39 -2t-29 -2q-14 0 -23.5 7.5t-9.5 20.5zM709 954q0 12 9.5 20.5t22.5 8.5q6 0 29 -3t39 -3h41v297q0 106 57.5 159.5 t139.5 53.5q96 0 153 -57q21 -21 21 -37q0 -13 -9 -21t-20 -8q-8 0 -14 4.5t-13 14t-10 12.5q-40 43 -113 43q-55 0 -97 -37.5t-42 -118.5v-305h178q15 0 39 3t29 3q12 0 21.5 -8.5t9.5 -20.5q0 -13 -9 -20.5t-22 -7.5q-5 0 -29 2t-39 2h-178v-824q0 -19 3 -45t3 -32 q0 -16 -8.5 -26.5t-23.5 -10.5t-24 11t-9 26q0 6 3 32t3 45v824h-41q-16 0 -39 -2t-29 -2q-32 0 -32 28zM1444 29q0 7 2 33t2 44v1266q0 18 -2 44.5t-2 33.5q0 15 9 26t24 11q14 0 22 -10.5t8 -26.5q0 -7 -2 -33.5t-2 -44.5v-1266q0 -18 2 -44t2 -33q0 -15 -8 -26t-22 -11 t-23.5 11.5t-9.5 25.5z" />
</font>
</defs>
</svg>
