<?xml version="1.0" standalone="no"?>
<!DOCTYPE svg PUBLIC "-//W3C//DTD SVG 1.1//EN" "http://www.w3.org/Graphics/SVG/1.1/DTD/svg11.dtd" >
<svg xmlns="http://www.w3.org/2000/svg">
<metadata></metadata>
<defs>
<font id="routerextralight_italic" horiz-adv-x="1204" >
<font-face units-per-em="2048" ascent="1536" descent="-512" />
<missing-glyph horiz-adv-x="430" />
<glyph unicode="&#xfb01;" horiz-adv-x="1140" d="M-115 -422q0 13 9.5 22t21.5 9q7 0 22.5 -6t36.5 -6q51 0 87 38.5t47 100.5l204 1194h-45q-14 0 -36.5 -2t-28.5 -2q-14 0 -22.5 7t-8.5 19q0 13 10.5 22t24.5 9q4 0 27 -3t38 -3h50l55 319q35 191 198 191q50 0 95 -25q24 -16 24 -35q0 -13 -9.5 -21.5t-20.5 -8.5 q-13 0 -27 14q-34 29 -68 29q-49 0 -88.5 -35t-50.5 -109l-55 -319h160q15 0 38.5 3t28.5 3q12 0 20.5 -8.5t8.5 -20.5t-9.5 -20t-23.5 -8q-6 0 -29 2t-37 2h-165l-207 -1198q-18 -98 -74 -144.5t-133 -46.5q-68 0 -68 37zM778 139q0 50 37 238l96 448q8 41 0.5 68t-30.5 27 q-8 0 -16.5 -4.5t-16.5 -4.5q-12 0 -20.5 7.5t-8.5 19.5q0 15 13 26t36 11q36 0 62.5 -21.5t32.5 -60.5q5 -23 -5 -80l-94 -451q-35 -169 -35 -223q0 -90 43 -90q8 0 16.5 3t16.5 3q12 0 20.5 -7t8.5 -19q0 -15 -13 -26t-36 -11q-48 0 -77.5 37.5t-29.5 109.5zM932 1305 q0 23 16 39t39 16t38 -16t15 -39q0 -22 -15 -38t-38 -16t-39 16t-16 38z" />
<glyph unicode="&#xfb02;" horiz-adv-x="1138" d="M-115 -422q0 13 9.5 22t21.5 9q7 0 22.5 -6t36.5 -6q51 0 87 38.5t47 100.5l204 1194h-45q-14 0 -36.5 -2t-28.5 -2q-14 0 -22.5 7t-8.5 19q0 13 10.5 22t24.5 9q4 0 27 -3t38 -3h50l55 319q35 191 198 191q50 0 95 -25q24 -16 24 -35q0 -13 -9.5 -21.5t-20.5 -8.5 q-13 0 -27 14q-34 29 -68 29q-49 0 -88.5 -35t-50.5 -109l-55 -319h160q15 0 38.5 3t28.5 3q12 0 20.5 -8.5t8.5 -20.5t-9.5 -20t-23.5 -8q-6 0 -29 2t-37 2h-165l-207 -1198q-18 -98 -74 -144.5t-133 -46.5q-68 0 -68 37zM756 139q0 50 37 238l176 997q4 19 6 48t2 30 q3 14 12.5 24.5t22.5 10.5t22 -11.5t6 -25.5q-1 -8 -8 -35.5t-10 -42.5l-180 -1010q-33 -183 -33 -223q-3 -90 41 -90q10 0 18 3t15 3q12 0 21 -7t9 -19q0 -15 -13 -26t-36 -11q-49 0 -78.5 37.5t-29.5 109.5z" />
<glyph horiz-adv-x="2048" />
<glyph horiz-adv-x="2048" />
<glyph unicode="&#xd;" horiz-adv-x="2048" />
<glyph unicode=" "  horiz-adv-x="430" />
<glyph unicode="&#x09;" horiz-adv-x="430" />
<glyph unicode="&#xa0;" horiz-adv-x="430" />
<glyph unicode="!" horiz-adv-x="509" d="M127 45q0 25 17 42t42 17q22 0 37 -14.5t15 -36.5q0 -24 -18 -40.5t-42 -16.5q-22 0 -36.5 13.5t-14.5 35.5zM195 348q0 9 2 18t6.5 24.5t7.5 29.5l149 923q3 18 6 48t5 39q9 34 37 34q18 0 26 -11.5t6 -27.5q-1 -7 -9 -38t-11 -50l-162 -921q-2 -18 -3.5 -39t-2.5 -27 q-6 -31 -33 -31q-24 0 -24 29z" />
<glyph unicode="&#x22;" horiz-adv-x="450" d="M236 1171q0 7 5 30.5t7 41.5l18 109q3 21 4.5 46.5t3.5 33.5q10 32 37 32q15 0 23 -11t6 -26q-1 -9 -9 -34t-12 -45l-18 -107q-1 -5 -10 -67q-6 -31 -31 -31q-12 0 -19 8t-5 20zM410 1171q0 7 5 30.5t7 41.5l18 109q3 20 5 45.5t4 34.5q10 32 36 32q15 0 23 -11t6 -26 q-1 -9 -8.5 -34t-11.5 -45l-19 -107q-1 -5 -10 -67q-6 -31 -31 -31q-12 0 -19 8t-5 20z" />
<glyph unicode="#" horiz-adv-x="1234" d="M66 479q0 12 10 20.5t24 8.5q5 0 25.5 -3t38.5 -3h110l148 418h-150q-17 0 -37 -2.5t-26 -2.5q-14 0 -23 8t-8 21q0 13 10.5 21t24.5 8q5 0 25 -2t38 -2h164l121 340q12 38 21 73q9 31 36 31q15 0 21.5 -14t-0.5 -31q-2 -7 -13 -30t-18 -40l-116 -329h446l119 331 q7 21 20 74q9 31 37 31q15 0 21.5 -14t-0.5 -31q-2 -7 -13 -30t-18 -40l-115 -321h111q17 0 37 2t26 2q14 0 23.5 -8t9.5 -21t-11.5 -21t-25.5 -8q-5 0 -25 2.5t-38 2.5h-123l-150 -418h142q18 0 38 3t25 3q14 0 24 -8.5t9 -20.5q0 -28 -37 -28q-5 0 -25 2t-38 2h-154 l-127 -359q-6 -16 -12.5 -41t-8.5 -32q-10 -31 -34 -31q-17 0 -24 15t1 32q1 1 13 25.5t18 41.5l123 349h-447l-125 -351q-6 -16 -12 -41t-8 -32q-10 -31 -35 -31q-17 0 -24 15t1 32q0 1 12.5 26t18.5 42l121 340h-98q-17 0 -37.5 -2t-26.5 -2q-15 0 -23 7t-7 21zM326 502 h446l150 418h-449z" />
<glyph unicode="$" horiz-adv-x="1150" d="M86 311q0 39 31 39q24 0 28 -31q1 -3 2 -18t3 -22q27 -106 114 -169t207 -77l117 672l-35 18q-264 134 -264 350q0 142 107.5 240t281.5 98q23 0 33 -2l14 76q4 18 5 45.5t1 30.5q8 34 35 34q14 0 22 -10.5t5 -25.5q-1 -8 -8.5 -34t-10.5 -42l-14 -80q95 -17 164 -66.5 t98 -115.5q16 -37 16 -56q0 -12 -8.5 -21t-21.5 -9q-10 0 -16 5.5t-8 11t-6 20t-7 22.5q-21 63 -80.5 104.5t-140.5 55.5l-109 -617l35 -16q168 -87 239.5 -169t71.5 -198q0 -72 -29.5 -138t-85 -118.5t-144 -84t-196.5 -31.5h-22l-12 -76q-2 -15 -5 -43t-4 -33 q-7 -35 -32 -35q-13 0 -22 11t-7 26q1 2 9 30t12 46l12 78q-131 14 -223 83t-134 169q-18 36 -18 73zM342 1073q0 -94 56 -167.5t180 -137.5q10 -6 20 -10l104 604q-5 0 -14 1t-14 1q-142 0 -237 -80.5t-95 -210.5zM518 31h14q180 0 291 93.5t111 227.5q0 100 -65.5 172.5 t-227.5 155.5l-8 4z" />
<glyph unicode="%" horiz-adv-x="1867" d="M158 891q0 136 44.5 254t130 192t193.5 74q129 0 201 -95t72 -245q0 -136 -44 -253.5t-129 -191t-194 -73.5q-128 0 -201 94t-73 244zM207 893q0 -130 59.5 -212.5t163.5 -82.5q133 0 226.5 137.5t93.5 335.5q0 130 -61.5 211.5t-166.5 81.5q-130 0 -222.5 -136.5 t-92.5 -334.5zM543 18q0 12 12 27q3 6 13.5 18.5t17.5 24.5l809 1237q7 10 15 27t11 22q13 27 33 27q10 0 17.5 -8t7.5 -19q0 -10 -13 -26q-3 -6 -13 -18.5t-17 -24.5l-809 -1237q-7 -10 -15.5 -27.5t-11.5 -22.5q-13 -26 -33 -26q-10 0 -17 7.5t-7 18.5zM1155 328 q0 136 45.5 254t131.5 192t194 74q130 0 201 -94.5t71 -245.5q0 -136 -44 -253.5t-129.5 -191t-194.5 -73.5q-127 0 -201 94.5t-74 243.5zM1204 330q0 -130 60 -212.5t166 -82.5q132 0 225.5 138t93.5 337q0 129 -61 211t-166 82q-131 0 -224.5 -137.5t-93.5 -335.5z" />
<glyph unicode="&#x26;" horiz-adv-x="1404" d="M109 465q0 177 110.5 293.5t267.5 136.5q-60 40 -94.5 110t-34.5 152q0 143 97 236.5t241 93.5q101 0 171 -41t104 -111q12 -24 12 -43q0 -10 -7 -18t-20 -8q-23 0 -30 30q-12 64 -75 105t-157 41q-120 0 -203 -81.5t-83 -205.5q0 -98 52.5 -171t114.5 -75h54 q24 -3 24 -26q0 -10 -8 -19.5t-22 -9.5q-5 0 -27.5 3t-40.5 3q-102 0 -190 -45.5t-145.5 -137t-57.5 -210.5q0 -196 126 -317t347 -121q115 0 209 42t154 112t92 159.5t32 187.5q0 59 -18 146h-57q-112 0 -160.5 -30t-48.5 -87q0 -26 10 -43t10 -24q0 -10 -8 -17.5t-19 -7.5 q-18 0 -30.5 27t-12.5 59q0 83 63.5 126.5t205.5 43.5h125q92 0 142 31t50 88q0 26 -9 43t-9 24q0 9 8 17t20 8q18 0 29.5 -26t11.5 -60q0 -85 -65 -128.5t-186 -43.5h-21q18 -69 18 -148q0 -109 -37.5 -208t-105.5 -174t-170 -119.5t-223 -44.5q-246 0 -386 134t-140 349z " />
<glyph unicode="'" horiz-adv-x="276" d="M215 1171q0 7 5 30.5t7 41.5l19 109q3 21 4.5 46.5t3.5 33.5q10 32 37 32q15 0 22.5 -10.5t5.5 -26.5q-1 -9 -8.5 -34t-11.5 -45l-18 -107q-4 -17 -11 -67q-6 -31 -30 -31q-12 0 -19 8t-6 20z" />
<glyph unicode="(" horiz-adv-x="700" d="M180 481q0 213 69.5 412t196.5 352t291 234q28 12 37 12q11 0 19 -7.5t8 -19.5q0 -13 -8 -19.5t-31 -14.5q-97 -36 -192 -125.5t-170.5 -213.5t-122 -286t-46.5 -330q0 -195 74 -380.5t184 -248.5q25 -14 25 -32q0 -13 -8.5 -20t-18.5 -7q-14 0 -41 20q-116 92 -191 278 t-75 396z" />
<glyph unicode=")" horiz-adv-x="700" d="M-55 -172q0 13 8 20t31 15q97 36 191.5 125.5t170 213t122 285.5t46.5 330q0 195 -74 380.5t-184 248.5q-25 14 -25 33q0 12 8.5 19t18.5 7q14 0 41 -20q116 -92 191 -278t75 -396q0 -213 -69.5 -411.5t-196.5 -351.5t-291 -234q-30 -13 -37 -13q-11 0 -18.5 7.5 t-7.5 19.5z" />
<glyph unicode="*" horiz-adv-x="692" d="M164 1235q0 12 8.5 19.5t22.5 7.5q9 -1 27.5 -11t39.5 -18l148 -57l30 174q3 13 4.5 27.5t2.5 28.5t2 19q2 13 10.5 23t21.5 10t21 -10t6 -23q-1 -8 -8.5 -34.5t-10.5 -40.5l-30 -174l174 55q19 6 35 12.5t24 10t17 3.5t16.5 -6.5t7.5 -15.5q0 -24 -22 -31q-6 -3 -32 -7 t-46 -11l-168 -56l90 -157q8 -14 19 -28t16.5 -23t5.5 -19q0 -12 -9.5 -20.5t-21.5 -8.5q-13 0 -22 15q-3 6 -12.5 27t-16.5 32l-90 158l-141 -156q-13 -14 -43 -59q-14 -17 -33 -17q-10 0 -17.5 8t-7.5 17q0 16 13 29q1 1 19 17t30 30l147 160l-145 55q-17 6 -37.5 10.5 t-24.5 5.5q-20 9 -20 29z" />
<glyph unicode="+" horiz-adv-x="948" d="M147 555q1 13 12.5 22t26.5 9q6 0 27.5 -3t40.5 -3h190l39 215q3 15 4.5 30t2.5 28.5t2 18.5q8 35 34 35q14 0 22 -11t5 -26q-1 -8 -8 -35t-10 -42l-39 -213h204q17 0 39.5 3t28.5 3q15 0 25 -9t10 -22q0 -14 -11.5 -22.5t-27.5 -8.5q-6 0 -27.5 2t-40.5 2h-211l-41 -233 q-2 -16 -4.5 -45t-3.5 -33q-2 -14 -11.5 -24.5t-23.5 -10.5q-13 0 -21 12t-5 27q1 6 8 33t10 45l41 229h-184q-19 0 -41.5 -2t-28.5 -2q-14 0 -23.5 8.5t-9.5 22.5z" />
<glyph unicode="," horiz-adv-x="380" d="M63 -158q0 6 3.5 12.5t6.5 9.5t12 10.5t13 10.5q24 21 39 51.5t15 53.5q0 8 -11 8q-22 0 -35.5 15t-13.5 36q0 23 15.5 39t37.5 16q25 0 41.5 -18.5t16.5 -50.5q0 -47 -20 -100t-54 -93q-23 -26 -39 -26q-11 0 -19 7t-8 19z" />
<glyph unicode="-" horiz-adv-x="788" d="M121 551q0 13 11.5 21t25.5 8q6 0 27 -2.5t38 -2.5h344q19 0 40.5 2.5t27.5 2.5q14 0 23.5 -8t9.5 -21q0 -14 -11 -22.5t-26 -8.5q-6 0 -27.5 3t-38.5 3h-346q-18 0 -39 -3t-26 -3q-33 0 -33 31z" />
<glyph unicode="." horiz-adv-x="378" d="M76 45q0 25 16.5 42t42.5 17q20 0 34.5 -14.5t14.5 -36.5q0 -24 -17.5 -40.5t-41.5 -16.5q-22 0 -35.5 13.5t-13.5 35.5z" />
<glyph unicode="/" horiz-adv-x="702" d="M-176 -291q0 15 12 33q23 33 35 55l879 1604l28 67q13 29 35 29q13 0 22 -8.5t9 -20.5q0 -10 -13 -30q-19 -26 -34 -58l-879 -1603l-29 -68q-14 -28 -34 -28q-13 0 -22 8.5t-9 19.5z" />
<glyph unicode="0" horiz-adv-x="1302" d="M147 549q0 166 43.5 321.5t121 276t193.5 193.5t251 73q142 0 244 -74.5t152 -201t50 -291.5q0 -135 -27.5 -263t-80.5 -236.5t-125.5 -190t-169 -128t-203.5 -46.5q-211 0 -330 157t-119 410zM201 547q0 -229 105.5 -372.5t289.5 -143.5q151 0 278 107.5t201 295.5 t74 414q0 229 -105.5 372.5t-289.5 143.5q-112 0 -214 -63.5t-176.5 -172t-118.5 -260.5t-44 -321z" />
<glyph unicode="1" horiz-adv-x="581" d="M201 1237q0 13 10.5 22t24.5 9q8 0 16.5 -6.5t11.5 -6.5q14 0 51 29l111 92q45 35 59 35q34 0 31 -31q0 -11 -8 -38.5t-10 -41.5l-211 -1200q-2 -15 -4.5 -41.5t-3.5 -31.5q-3 -14 -12.5 -24.5t-22.5 -10.5t-21.5 11.5t-5.5 25.5q1 5 7.5 31t8.5 42l205 1149 q11 60 23 101q-5 -5 -58 -49.5t-57 -45.5q-65 -51 -104 -51q-17 0 -29 9t-12 22z" />
<glyph unicode="2" horiz-adv-x="1103" d="M109 55q0 403 411 619l111 59q168 88 250 174t82 187q0 122 -96.5 197t-237.5 73q-250 -3 -322 -190q-2 -5 -6.5 -18.5t-6.5 -18.5t-6.5 -12.5t-10 -10t-13.5 -2.5q-11 0 -18.5 8.5t-7.5 20.5q0 23 24 78q113 194 367 194q163 0 275 -86.5t112 -232.5q0 -120 -93 -216.5 t-272 -189.5l-110 -59q-196 -103 -288.5 -245.5t-92.5 -334.5h682q19 0 43 5t30 5q13 0 23 -8t10 -20q-1 -13 -12 -22t-25 -9h-759q-43 0 -43 55z" />
<glyph unicode="3" horiz-adv-x="1095" d="M47 262q0 14 8 22.5t21 8.5q22 0 33 -33q19 -85 126.5 -158t249.5 -73q127 0 230.5 51.5t166 151.5t62.5 229q0 157 -108 256.5t-281 99.5q-19 0 -37 -2t-24 -2q-13 0 -22 7t-9 16q0 17 20 30q7 7 32 29t32 29l338 356q45 45 63 61h-565q-19 0 -43.5 -5t-30.5 -5 q-14 0 -24.5 8t-10.5 21q0 14 12 21.5t27 7.5h656q40 0 37 -35q0 -19 -35 -54l-387 -403q-40 -34 -49 -41q196 11 329 -100t133 -299q0 -204 -141.5 -339.5t-370.5 -135.5q-143 0 -253.5 66t-159.5 157q-25 45 -25 57z" />
<glyph unicode="4" horiz-adv-x="989" d="M29 481l2 17q1 4 2 7.5t2 6t4 6.5t4.5 5.5t6 6.5t6 6.5l8 8l8.5 8.5l737 780q9 9 20 21.5t16.5 18.5t14 11t17.5 5h26q30 -3 27 -35q-1 -8 -7.5 -34.5t-9.5 -41.5l-141 -784h78q17 0 41.5 4t30.5 4q14 0 22.5 -7t7.5 -20q0 -13 -12 -21t-25 -8h-151l-59 -346l-9 -73 q-8 -35 -32 -35q-15 0 -23.5 11.5t-5.5 25.5q1 7 8 32.5t10 40.5l60 344h-654q-18 0 -25.5 10.5t-4.5 24.5zM82 494h639l151 841z" />
<glyph unicode="5" horiz-adv-x="1134" d="M76 260q0 12 7.5 20.5t20.5 8.5q25 0 31 -29q20 -85 128 -158t245 -73q133 0 244 60t176 170t65 247q0 171 -108 269.5t-293 98.5q-179 0 -303 -108q-18 -18 -39 -18q-11 0 -20 7.5t-9 20.5q0 9 3 17.5t10 25.5t12 33l135 432q6 16 11 38.5t7 27.5q6 24 14.5 31.5 t32.5 7.5h564q32 0 32 -27q0 -13 -10.5 -22t-23.5 -9q-7 0 -32.5 5t-43.5 5h-483l-168 -534q132 113 313 113q207 0 330 -113t123 -305q0 -141 -67.5 -259.5t-191.5 -189.5t-280 -71q-144 0 -253.5 67.5t-156.5 157.5q-22 35 -22 53z" />
<glyph unicode="6" horiz-adv-x="1189" d="M160 586q0 114 25 229t78.5 222.5t127.5 190.5t180.5 133t229.5 50q194 0 305 -115q16 -13 16 -28q0 -13 -7.5 -22t-20.5 -9q-14 0 -33 23q-80 104 -262 104q-126 0 -233 -59t-179 -156.5t-117.5 -217.5t-58.5 -249q77 113 196 181.5t259 68.5q105 0 190 -37.5t138 -100 t81.5 -141.5t28.5 -166q0 -136 -57.5 -250.5t-166.5 -184.5t-247 -70q-139 0 -247 77.5t-167 214.5t-59 312zM207 586q0 -247 118.5 -402t307.5 -155q178 0 298 130t120 326q0 79 -24.5 150t-71.5 128t-123.5 90.5t-172.5 33.5q-134 0 -253.5 -73t-198.5 -191v-37z" />
<glyph unicode="7" horiz-adv-x="899" d="M160 1360q1 13 12 21t25 8h794q37 0 37 -29q0 -28 -41 -55q-290 -189 -446 -489t-215 -712q-2 -19 -2.5 -44t-1.5 -33q-2 -14 -10.5 -24.5t-24.5 -10.5q-13 0 -21 11.5t-8 25.5q2 14 7 35.5t7 39.5q23 154 53.5 281.5t78.5 255.5t110.5 235t151 208.5t200.5 187.5 q64 49 97 69h-697q-17 0 -42 -5t-29 -5q-14 0 -24.5 8t-10.5 21z" />
<glyph unicode="8" horiz-adv-x="1067" d="M70 381q0 88 32.5 165.5t86 131.5t120 89t137.5 48q-170 104 -170 270q0 140 101 234t258 94q163 0 262.5 -94t99.5 -240q0 -107 -80.5 -203t-203.5 -131q60 -30 106 -62t87 -74.5t63 -96.5t22 -117q0 -75 -33 -148.5t-91.5 -132.5t-147.5 -95.5t-191 -36.5 q-109 0 -198 33.5t-144.5 89.5t-85.5 127t-30 149zM125 381q0 -151 112 -251.5t289 -100.5t294.5 108.5t117.5 257.5q0 118 -84 199.5t-268 155.5q-7 3 -46.5 19t-56.5 24q-153 -29 -255.5 -142t-102.5 -270zM328 1085q0 -56 21 -102t59.5 -80t78 -56.5t91.5 -43.5l45 -18 t49 -19q124 34 199 125.5t75 185.5q0 129 -86.5 210t-226.5 81q-137 0 -221 -83.5t-84 -199.5z" />
<glyph unicode="9" horiz-adv-x="1165" d="M147 127q0 12 8 20.5t21 8.5q17 0 33 -23q80 -104 264 -104q124 0 229.5 60.5t175 159.5t113.5 215t58 238q-77 -108 -187.5 -173.5t-240.5 -65.5q-108 0 -195.5 39.5t-141.5 104.5t-83 144t-29 162q0 211 130 354.5t325 143.5q222 0 350.5 -159.5t128.5 -448.5 q0 -103 -24 -213.5t-76 -219.5t-124.5 -195t-180 -139.5t-232.5 -53.5q-195 0 -305 114q-17 17 -17 31zM227 911q0 -58 15 -114.5t47 -108.5t78 -92t112.5 -64t145.5 -24q135 0 244 72.5t186 195.5v31q0 259 -116.5 407t-313.5 148q-163 0 -280.5 -127.5t-117.5 -323.5z" />
<glyph unicode=":" horiz-adv-x="399" d="M90 45q0 25 17 42t43 17q20 0 34.5 -14.5t14.5 -36.5q0 -24 -18 -40.5t-42 -16.5q-22 0 -35.5 13.5t-13.5 35.5zM221 776q0 25 17 42.5t43 17.5q20 0 34.5 -15t14.5 -37q0 -24 -18 -40.5t-42 -16.5q-22 0 -35.5 13.5t-13.5 35.5z" />
<glyph unicode=";" horiz-adv-x="409" d="M72 -158q0 5 1.5 9.5t5.5 9t7 7.5t10 8.5t10 8.5q24 21 39 51.5t15 53.5q0 8 -10 8q-22 0 -36 15t-14 36q0 23 16 39t38 16q25 0 41 -18.5t16 -50.5q0 -47 -20 -100t-54 -93q-23 -26 -39 -26q-11 0 -18.5 7t-7.5 19zM229 776q0 25 17 42.5t43 17.5q20 0 34.5 -15 t14.5 -37q0 -24 -17.5 -40.5t-41.5 -16.5q-22 0 -36 13.5t-14 35.5z" />
<glyph unicode="&#x3c;" horiz-adv-x="911" d="M166 561q0 13 20 29q24 14 43 28l414 318q6 4 17.5 15.5t19.5 15.5q11 8 20 8q11 0 19 -7.5t8 -19.5q0 -15 -18 -28l-41 -27l-447 -334l371 -334q6 -5 19 -14t20 -16q14 -11 14 -27q0 -10 -8.5 -18.5t-18.5 -8.5t-24 11q-6 5 -16 16.5t-19 19.5l-340 314q-7 8 -37 33 q-16 13 -16 26z" />
<glyph unicode="=" horiz-adv-x="948" d="M129 444q0 13 11 22t26 9q6 0 27 -2t40 -2h451q19 0 41.5 2t28.5 2q14 0 24 -9t10 -22q-3 -30 -40 -30q-6 0 -27.5 3t-40.5 3h-451q-17 0 -39 -3t-28 -3q-16 0 -25 8t-8 22zM162 639q0 13 11 22t26 9q6 0 27 -3t40 -3h451q19 0 41 3t28 3q14 0 24.5 -9t10.5 -22 q-1 -14 -13 -22.5t-28 -8.5q-6 0 -27 2t-40 2h-451q-17 0 -39 -2t-28 -2q-16 0 -25 8t-8 23z" />
<glyph unicode="&#x3e;" horiz-adv-x="911" d="M195 168q0 15 18 29l39 26l446 330l-368 336q-9 8 -22 17.5t-17 13.5q-15 11 -15 26q0 12 8 20.5t19 8.5q13 0 25 -10q6 -5 15.5 -17.5t18.5 -21.5l338 -314q6 -5 18.5 -14.5t18.5 -15.5q19 -15 19 -27t-21 -29q-6 -4 -20 -12.5t-23 -15.5l-413 -318l-37 -33 q-8 -6 -21 -6q-11 0 -18.5 7.5t-7.5 19.5z" />
<glyph unicode="?" horiz-adv-x="927" d="M133 1145q0 64 31.5 126t85 109.5t132 77t165.5 29.5q186 0 290.5 -97t104.5 -241q0 -117 -78 -221.5t-241 -186.5q-138 -69 -188 -130.5t-50 -137.5q0 -25 4.5 -42t10 -23t10 -13t4.5 -14q0 -13 -9.5 -22t-21.5 -9q-23 0 -39 30t-16 79q0 98 57.5 173.5t208.5 151.5 q149 74 222 163t73 200q0 127 -90 209t-254 82q-145 0 -250 -83.5t-105 -193.5q0 -10 2.5 -20.5t2.5 -14.5q0 -15 -8.5 -23.5t-20.5 -8.5q-33 0 -33 51zM309 45q0 25 17 42t43 17q22 0 35.5 -14.5t13.5 -36.5q0 -24 -17.5 -40.5t-42.5 -16.5q-22 0 -35.5 13.5t-13.5 35.5z " />
<glyph unicode="@" horiz-adv-x="1490" d="M94 426q0 159 58 298.5t155 235.5t225.5 151.5t266.5 55.5q137 0 249 -43t186.5 -119t114.5 -180.5t40 -226.5q0 -113 -37 -206.5t-106.5 -149.5t-158.5 -56q-63 0 -107 31t-58 82q-28 -63 -80.5 -101t-126.5 -38q-120 0 -194.5 86t-74.5 211q0 151 94 258.5t232 107.5 q123 0 191 -104l6 39q4 33 28 33q12 0 19.5 -9t7.5 -20q0 -9 -6.5 -34.5t-9.5 -41.5l-50 -287q-12 -70 21 -122t111 -52q105 0 179 101t74 274q0 236 -146.5 382t-399.5 146q-93 0 -187 -30.5t-178.5 -91t-150 -143t-104 -195.5t-38.5 -240q0 -159 69.5 -290t200.5 -209.5 t300 -78.5q134 0 248 42.5t194 105.5q8 6 33 31q12 12 26 12q10 0 17.5 -6.5t7.5 -16.5q0 -20 -43 -49q-222 -159 -490 -159q-171 0 -310 80t-218.5 221.5t-79.5 314.5zM500 457q0 -112 60.5 -183t154.5 -71q76 0 127 54t65 138l45 273q-62 112 -186 112 q-109 0 -187.5 -89.5t-78.5 -233.5z" />
<glyph unicode="A" horiz-adv-x="1214" d="M-37 23q0 10 17 36l30 47l668 1270q6 12 16.5 35t14.5 31q14 28 41 28h6q29 0 37 -32q2 -9 5.5 -34.5t6.5 -41.5l258 -1253q3 -16 11 -44q9 -33 9 -43q1 -12 -7 -20q-10 -10 -23 -10t-22 10t-11 23q-1 4 -2 17.5t-3 29t-5 30.5l-58 285h-737l-158 -301 q-8 -16 -17.5 -40.5t-12.5 -31.5q-13 -22 -33 -22q-13 0 -22 9.5t-9 21.5zM240 436h702l-184 903q-2 12 -7 36.5t-6 35.5q-1 -3 -11.5 -28.5t-16.5 -36.5z" />
<glyph unicode="B" horiz-adv-x="1323" d="M184 39q1 7 8.5 34t10.5 44l219 1231q4 20 6 49t2 30q8 35 37 35h303q181 0 283 -81t102 -234q0 -132 -79.5 -235t-201.5 -134q125 -31 198 -118t73 -205q0 -203 -139.5 -329t-384.5 -126h-408q-17 0 -25 12q-5 8 -5 18q0 4 1 9zM244 49h385q214 0 337.5 113.5 t123.5 290.5q0 136 -98 219.5t-275 83.5h-348zM377 801h373q106 0 187.5 50t122 127.5t40.5 168.5q0 133 -85.5 199.5t-242.5 66.5h-285z" />
<glyph unicode="C" horiz-adv-x="1392" d="M182 608q0 186 55 350t149 279.5t223 182.5t272 67q151 0 266.5 -61.5t177.5 -172.5q23 -41 23 -57q0 -11 -9 -21t-22 -10q-11 0 -18 7.5t-16 29.5t-13 31q-54 97 -156.5 151t-232.5 54q-181 0 -329.5 -112t-231 -300.5t-82.5 -409.5q0 -167 56 -297.5t170.5 -208 t272.5 -77.5q139 0 260 65.5t183 180.5l9 18t9 16t7.5 10.5t9.5 8.5t12 2q12 0 20 -9.5t8 -21.5q0 -21 -24 -55q-74 -123 -206 -194.5t-292 -71.5q-166 0 -292 80.5t-192.5 222t-66.5 323.5z" />
<glyph unicode="D" horiz-adv-x="1452" d="M182 39q1 7 8.5 34t10.5 44l219 1231q4 20 6 49t2 30q7 35 37 35h307q256 0 395.5 -151.5t139.5 -431.5q0 -137 -31 -266t-92.5 -240t-146.5 -194.5t-200.5 -131t-246.5 -47.5h-379q-17 0 -25 12q-5 8 -5 18q0 4 1 9zM240 49h350q120 0 226 45.5t184.5 125t135.5 184 t86 226.5t29 249q0 255 -124 394.5t-351 139.5h-291z" />
<glyph unicode="E" d="M182 39q1 7 8.5 34t10.5 44l219 1231q4 20 6 49t2 30q8 35 37 35h704q14 0 23 -7.5t8 -20.5q0 -14 -11 -22.5t-26 -8.5q-6 0 -31 5t-42 5h-605l-106 -600h450q16 0 40.5 2t29.5 2q13 0 22 -8.5t9 -20.5q-1 -13 -12 -21.5t-25 -8.5q-5 0 -29 2t-39 2h-456l-127 -713h661 q19 0 46 5t32 5q14 0 23.5 -8.5t9.5 -21.5q-1 -13 -13 -21t-26 -8h-764q-17 0 -25 12q-5 8 -5 18q0 4 1 9z" />
<glyph unicode="F" horiz-adv-x="1124" d="M182 31q1 9 8.5 36t10.5 44l221 1237q4 20 6 49t2 30q8 35 37 35h704q14 0 23 -7.5t8 -20.5q0 -14 -11 -22.5t-26 -8.5q-6 0 -31 5t-42 5h-605l-110 -620h444q15 0 39 2t29 2q13 0 22 -8.5t9 -20.5q0 -13 -11 -22t-26 -9q-5 0 -28.5 2t-39.5 2h-448l-113 -635 q-1 -4 -10 -77q-2 -16 -11.5 -26.5t-23.5 -10.5q-15 0 -23 12q-5 9 -5 19q0 4 1 8z" />
<glyph unicode="G" horiz-adv-x="1476" d="M182 608q0 186 55 350t148.5 279.5t222.5 182.5t273 67q154 0 269 -62.5t175 -171.5q23 -41 23 -57q0 -11 -9 -21t-22 -10q-11 0 -18 7.5t-16 29.5t-13 31q-54 97 -156.5 151t-232.5 54q-182 0 -330.5 -112.5t-230.5 -300t-82 -409.5q0 -165 56 -295.5t170 -209 t269 -78.5q217 0 363 134t174 349l8 74h-340q-16 0 -40.5 -3t-29.5 -3q-15 0 -23.5 8t-6.5 22q0 13 9.5 21t24.5 8q5 0 29.5 -2t40.5 -2h348q28 0 37.5 -11.5t5.5 -39.5l-12 -82q-34 -238 -195.5 -381t-392.5 -143q-166 0 -292 80.5t-192.5 222t-66.5 323.5z" />
<glyph unicode="H" horiz-adv-x="1517" d="M182 31q1 9 8.5 36t10.5 44l221 1245q4 19 6 48t2 30q7 36 37 36q14 0 22 -11.5t5 -26.5q-1 -9 -8.5 -36t-10.5 -44l-94 -527h860l94 531q4 18 11 78q4 36 34 36q14 0 22 -12q5 -8 6 -18q0 -4 -1 -8q-1 -9 -8 -36.5t-10 -43.5l-222 -1246q-2 -16 -4.5 -44.5t-3.5 -32.5 q-3 -16 -13 -26.5t-24 -10.5q-13 0 -21 12t-5 27q1 9 8 36.5t10 43.5l117 665h-858l-119 -670q-1 -4 -10 -77q-2 -16 -11.5 -26.5t-23.5 -10.5q-15 0 -23 12q-5 9 -5 19q0 4 1 8z" />
<glyph unicode="I" horiz-adv-x="618" d="M188 31q1 9 8.5 36t10.5 44l223 1245q4 19 6 48t2 30q3 16 12.5 26t22.5 10q15 0 23 -11q6 -9 6 -21v-6q-1 -2 -8 -31t-11 -49l-223 -1246q-2 -16 -4.5 -44.5t-3.5 -32.5q-3 -16 -13 -26.5t-24 -10.5q-13 0 -21 12q-6 9 -7 19q0 4 1 8z" />
<glyph unicode="J" horiz-adv-x="1189" d="M41 322q0 13 9.5 21.5t21.5 8.5q9 0 14.5 -3.5t9.5 -15t5 -16.5t5 -24q23 -117 124.5 -189.5t226.5 -72.5q183 0 283.5 119t142.5 368l147 838q1 4 10 78q2 16 11 26t24 10t23 -12q5 -8 5 -18q0 -4 -1 -8q-1 -9 -8.5 -36t-10.5 -44l-147 -838q-22 -126 -56 -218.5 t-89.5 -166t-139.5 -110.5t-196 -37q-58 0 -117.5 16.5t-118.5 50.5t-105.5 95.5t-68.5 142.5q-5 31 -4 35z" />
<glyph unicode="K" horiz-adv-x="1208" d="M182 31q1 9 8.5 36t10.5 44l221 1245q4 19 6 48t2 30q7 36 37 36q14 0 22 -11.5t5 -26.5q-1 -9 -8.5 -36t-10.5 -44l-51 -283q0 -3 -59 -346l346 297l444 381l55 53q16 16 31 16q12 0 20.5 -9t8.5 -21q0 -18 -17 -29q-7 -6 -29.5 -23t-33.5 -26l-553 -469l387 -782 q8 -17 20.5 -37t14.5 -23q10 -25 11 -28q0 -10 -9 -20.5t-23 -10.5q-20 0 -32 24q-2 4 -6.5 16.5t-10.5 26t-12 25.5l-381 776l-244 -205l-98 -549q-1 -4 -10 -77q-2 -16 -11.5 -26.5t-23.5 -10.5q-15 0 -23 12q-5 9 -5 19q0 4 1 8z" />
<glyph unicode="L" horiz-adv-x="1107" d="M182 39q1 7 8.5 34t10.5 44l219 1239q4 19 6 48t2 30q7 36 37 36q14 0 22 -11.5t5 -26.5q-1 -9 -8.5 -36t-10.5 -44l-231 -1303h639q17 0 44 5t33 5q14 0 23.5 -8.5t9.5 -21.5q-1 -13 -13 -21t-26 -8h-741q-17 0 -25 12q-5 8 -5 18q0 4 1 9z" />
<glyph unicode="M" horiz-adv-x="1697" d="M182 31q1 9 8.5 36t10.5 44l223 1237q4 20 6 49t2 30q3 14 12.5 24.5t22.5 10.5h8q21 0 29 -24l14 -60l268 -1016l17 -63q10 22 33 57l647 1024l33 56q16 26 40 26h7q13 0 21 -12q6 -9 5 -20v-7q-15 -59 -18 -77l-230 -1240q-2 -16 -4.5 -44.5t-3.5 -32.5q-7 -37 -35 -37 q-15 0 -22 11.5t-4 27.5q1 9 8 36.5t10 43.5l215 1155q17 73 21 102l-670 -1065l-27 -41q-13 -22 -36 -22q-24 0 -31 28l-10 47l-281 1059q-7 -81 -10 -96l-209 -1172q-2 -16 -4.5 -44.5t-3.5 -32.5q-7 -37 -35 -37q-15 0 -23 12q-5 9 -5 19q0 4 1 8z" />
<glyph unicode="N" horiz-adv-x="1511" d="M182 31q1 9 8.5 36t10.5 44l221 1237q4 20 6 49t2 30q8 35 37 35q26 0 43 -41l549 -1224l49 -117q0 28 16 106l205 1170q1 4 10 78q2 16 11 26t24 10q14 0 22 -12q5 -8 6 -18q0 -4 -1 -8q-1 -9 -8.5 -36t-10.5 -44l-221 -1246l-10 -77q-2 -16 -11.5 -26.5t-23.5 -10.5 q-22 0 -31 22l-32 76l-580 1299q0 -21 -12 -95l-209 -1188q-2 -16 -4.5 -44.5t-3.5 -32.5q-7 -37 -35 -37q-15 0 -23 12q-5 9 -5 19q0 4 1 8z" />
<glyph unicode="O" horiz-adv-x="1579" d="M182 608q0 185 55 348.5t148.5 279.5t223 183.5t274.5 67.5q172 0 298 -83t189.5 -224t63.5 -322q0 -240 -91 -441t-251.5 -318t-354.5 -117q-172 0 -299 82.5t-191.5 223.5t-64.5 320zM238 610q0 -121 32 -225t92.5 -183.5t156.5 -125t216 -45.5q181 0 329.5 113.5 t231 302t82.5 409.5q0 167 -55.5 297t-169.5 207.5t-272 77.5q-181 0 -329 -112t-231 -301.5t-83 -414.5z" />
<glyph unicode="P" horiz-adv-x="1224" d="M182 31q1 9 8.5 36t10.5 44l221 1237q4 20 6 49t2 30q8 35 37 35h352q192 0 298 -95t106 -257q0 -202 -136 -325t-344 -123h-391l-98 -556q-1 -4 -10 -77q-2 -16 -11.5 -26.5t-23.5 -10.5q-15 0 -23 12q-5 9 -5 19q0 4 1 8zM362 711h386q184 0 301.5 110t117.5 289 q0 139 -92 221t-252 82h-336z" />
<glyph unicode="Q" horiz-adv-x="1576" d="M182 608q0 185 55 348.5t148.5 279.5t223 183.5t274.5 67.5q172 0 298 -83t189.5 -224t63.5 -322q0 -220 -78.5 -409.5t-214.5 -311.5l116 -180q43 -65 73.5 -91t70.5 -26q63 0 74 72q2 12 10 20.5t20 8.5q13 0 21 -11q6 -8 6 -19v-5q-4 -47 -42 -79t-89 -32 q-61 0 -99 30t-88 105l-112 174q-162 -122 -365 -122q-172 0 -299 82.5t-191.5 223.5t-64.5 320zM238 610q0 -121 32 -225t92.5 -183.5t156.5 -125t216 -45.5q195 0 338 116l-90 144q-73 121 -137 121q-77 0 -80 -74q-8 -29 -33 -29q-12 0 -19.5 11t-4.5 24q5 49 41 81 t92 32q58 0 98 -32.5t86 -107.5l88 -139q123 114 193.5 294.5t70.5 383.5q0 167 -55.5 297t-169.5 207.5t-272 77.5q-181 0 -329 -112t-231 -301.5t-83 -414.5z" />
<glyph unicode="R" horiz-adv-x="1273" d="M182 31q1 9 8.5 36t10.5 44l221 1237q4 20 6 49t2 30q8 35 37 35h356q195 0 299.5 -91.5t104.5 -246.5q0 -194 -128.5 -311t-332.5 -117h-18l317 -614q16 -33 43 -33q7 0 17.5 5t17.5 5q31 0 31 -28q0 -16 -15.5 -27.5t-40.5 -11.5q-63 0 -104 78l-322 626h-334 l-104 -590q-1 -4 -10 -77q-2 -16 -11.5 -26.5t-23.5 -10.5q-15 0 -23 12q-5 9 -5 19q0 4 1 8zM369 745h401q178 0 288.5 105t110.5 274q0 135 -92 212t-252 77h-338z" />
<glyph unicode="S" horiz-adv-x="1208" d="M94 326q0 41 33 41q25 0 29 -31q0 -31 4 -43q31 -124 145 -193t258 -69q189 0 305.5 100t116.5 240q0 107 -68 184.5t-237 163.5l-84 43q-279 140 -279 368q0 148 112 251.5t288 103.5q138 0 239.5 -60t135.5 -147q14 -37 14 -49q0 -13 -9.5 -22t-21.5 -9q-8 0 -13 2.5 t-9 9t-5.5 11t-4.5 16.5t-5 18q-29 83 -119.5 132t-203.5 49q-144 0 -243 -85.5t-99 -220.5q0 -100 59 -178t189 -145l94 -47q176 -89 250.5 -176.5t74.5 -210.5q0 -75 -31 -144.5t-89 -125t-150.5 -88.5t-206.5 -33q-164 0 -282.5 74t-169.5 196q-17 42 -17 74z" />
<glyph unicode="T" horiz-adv-x="983" d="M145 1455q11 7 25 7h940q14 0 24 -8q7 -6 8 -14q0 -3 -1 -6q-1 -13 -12 -21t-25 -8q-6 0 -31.5 4t-42.5 4h-358l-234 -1307q-2 -16 -4.5 -44.5t-3.5 -32.5q-3 -16 -13 -26.5t-24 -10.5q-13 0 -21 12t-5 27q1 9 8 36.5t10 43.5l231 1302h-374q-19 0 -45 -4t-31 -4 q-16 0 -25 8q-8 7 -8 20q0 14 12 22z" />
<glyph unicode="U" horiz-adv-x="1474" d="M240 594l133 762q4 19 6 48t2 30q7 36 37 36q13 0 21 -11.5t5 -26.5q-1 -9 -8 -36.5t-10 -43.5l-133 -762q-12 -71 -12 -134q0 -158 76 -268q107 -156 333 -155q187 0 311 124.5t166 360.5l152 838q4 19 6 48t2 30q7 36 37 36q14 0 22 -12q6 -8 6 -18q0 -4 -1 -8 q-1 -9 -8.5 -36t-10.5 -44l-151 -844q-44 -249 -180.5 -387.5t-352.5 -138.5q-245 0 -370 170q-91 123 -91 301q0 66 13 141z" />
<glyph unicode="V" d="M190 1439q0 11 8 21q9 10 23 10q13 0 22 -9t11 -21q1 -4 2 -19t3 -30.5t5 -30.5l252 -1235l12 -68q17 43 29 62l657 1257q9 17 19 42l12 30q13 22 35 22q13 0 21 -9t8 -21t-15 -35q-22 -33 -30 -49l-668 -1268q-8 -16 -19.5 -40t-13.5 -28q-14 -26 -37 -26h-8 q-29 0 -35 33q-2 6 -6.5 33.5t-7.5 39.5l-258 1254q-3 16 -11 44q-10 32 -10 41z" />
<glyph unicode="W" horiz-adv-x="1599" d="M197 1434q0 15 8 25.5t22 10.5q16 0 23.5 -12t7.5 -28q0 -37 2 -70l98 -1170q9 -101 9 -118q6 16 24.5 57t22.5 51l377 789q2 3 12.5 27.5t11.5 25.5q13 25 35 25q27 0 33 -31q1 -5 2.5 -21t3.5 -30l160 -824l12 -65l20 55l529 1239q6 17 12 40t10 32q12 28 33 28 q13 0 22 -9t9 -21q0 -13 -14.5 -39.5t-18.5 -36.5l-551 -1280l-25 -64q-9 -26 -32 -26h-8q-23 0 -29 31l-8 67l-156 807q-3 15 -8 42t-6 34q-14 -41 -23 -62l-399 -833l-27 -62q-14 -24 -33 -24h-10q-10 0 -18 10.5t-8 22.5l-5 67l-108 1260q0 2 -5.5 33t-6.5 47z" />
<glyph unicode="X" horiz-adv-x="1124" d="M-55 23q0 12 12 24l53 59l541 654l-287 594q-7 17 -20 38t-15 25q-6 9 -6 21q0 14 9 23t22 9q18 0 29 -22q3 -7 12.5 -32.5t17.5 -41.5l279 -579l495 604q15 16 27.5 35t13.5 20q13 16 27 16q12 0 21.5 -9t9.5 -21q0 -13 -12 -25l-54 -59l-504 -611l310 -636 q7 -17 20 -39t15 -25q6 -9 6 -20q0 -14 -9 -23.5t-22 -9.5q-18 0 -29 22q-5 7 -15 33t-18 41l-299 623l-534 -648q-13 -16 -25 -34.5t-14 -20.5q-13 -16 -27 -16q-12 0 -21 9.5t-9 21.5z" />
<glyph unicode="Y" horiz-adv-x="1071" d="M176 1440q0 11 8.5 20.5t22.5 9.5q22 0 31 -28q3 -8 10 -33.5t12 -40.5l283 -758l534 774q10 15 22 38.5t13 25.5q14 22 33 22q12 0 20.5 -9t8.5 -21q0 -13 -13 -29l-45 -59l-555 -799l-78 -447q-1 -10 -4.5 -39t-5.5 -38q-2 -16 -11.5 -26.5t-23.5 -10.5q-15 0 -22 11.5 t-4 27.5q1 9 8 36.5t10 43.5l78 444l-297 793q-4 15 -10.5 28.5t-12 23.5t-6.5 13q-6 15 -6 27z" />
<glyph unicode="Z" horiz-adv-x="1077" d="M-31 29q0 17 23 43l1005 1259l68 82h-743q-17 0 -44.5 -5t-33.5 -5q-14 0 -23.5 9t-9.5 22q1 13 13 20.5t26 7.5h848q15 0 25 -8t10 -20q0 -15 -25 -43l-1026 -1289l-43 -53h821q17 0 44.5 5t33.5 5q14 0 23 -8.5t8 -21.5q0 -13 -11.5 -21t-25.5 -8h-930q-15 0 -24 8.5 t-9 20.5z" />
<glyph unicode="[" horiz-adv-x="708" d="M121 -127q13 51 18 78l254 1429q3 17 5.5 43.5t4.5 34.5q2 14 11 24.5t22 10.5h316q32 0 32 -29q-1 -13 -13 -20.5t-26 -7.5q-6 0 -31 5t-42 5h-215l-281 -1563h236q17 0 44 5.5t33 5.5q14 0 23.5 -8t9.5 -21q-3 -29 -39 -29h-333q-13 0 -22 11t-7 26z" />
<glyph unicode="\" horiz-adv-x="942" d="M55 1468q0 12 9 20.5t22 8.5q22 0 35 -29l29 -67l878 -1604q12 -22 35 -55q12 -18 12 -33q0 -11 -9 -19.5t-22 -8.5q-20 0 -34 28l-29 68l-879 1603q-15 32 -34 58q-13 19 -13 30z" />
<glyph unicode="]" horiz-adv-x="708" d="M-14 -135q0 13 11.5 21t27.5 8q5 0 29.5 -5.5t43.5 -5.5h215l279 1563h-234q-19 0 -45.5 -5t-31.5 -5q-33 0 -33 28q0 14 11 21.5t26 7.5h333q15 0 23.5 -11t5.5 -26q-1 -8 -8 -35.5t-10 -42.5l-254 -1429q-4 -20 -6 -48.5t-2 -29.5q-2 -14 -11.5 -24.5t-23.5 -10.5h-314 q-32 0 -32 29z" />
<glyph unicode="^" horiz-adv-x="968" d="M61 723q0 11 11 22l39 43l415 533q8 9 17.5 23.5t13.5 19.5q14 14 29 14q18 0 28 -16q4 -5 11.5 -19.5t11.5 -21.5l272 -520q8 -16 29 -51q10 -12 10 -25q0 -12 -9 -20.5t-21 -8.5q-16 0 -25 15q-6 8 -15 29.5t-12 27.5l-284 549l-435 -559q-4 -6 -14 -23t-16 -24 q-14 -17 -27 -17q-12 0 -20.5 9t-8.5 20z" />
<glyph unicode="_" horiz-adv-x="745" d="M-127 -137q0 24 29 24h737q31 0 31 -24q0 -23 -31 -23h-737q-12 0 -20.5 6.5t-8.5 16.5z" />
<glyph unicode="`" horiz-adv-x="665" d="M168 1458q0 12 9.5 21.5t21.5 9.5q14 0 30 -16l41 -43l179 -164q14 -14 34 -29q15 -11 15 -25q0 -11 -8.5 -18.5t-20.5 -7.5t-25 10l-28 31l-185 166q-10 9 -26.5 21.5t-22.5 17.5q-14 11 -14 26z" />
<glyph unicode="a" horiz-adv-x="1142" d="M150 422q0 84 20.5 167t61.5 157t98 130.5t135.5 89.5t167.5 33t165.5 -43.5t125.5 -115.5l16 96q3 14 12.5 23.5t22.5 9.5q14 0 23 -11q7 -8 7 -19q0 -4 -1 -7q-1 -7 -11.5 -33.5t-13.5 -44.5l-105 -584q-16 -98 -16 -147q0 -15 2 -27q6 -46 39 -45q8 0 16 4t17 4 q12 0 20.5 -9t8.5 -21q0 -15 -13.5 -26t-36.5 -11q-48 0 -75 37t-27 108q-43 -78 -119.5 -116.5t-157.5 -38.5q-175 0 -278.5 125.5t-103.5 314.5zM205 426q0 -174 89 -285.5t243 -111.5q102 0 184.5 70.5t107.5 211.5l84 475q-41 75 -114.5 119.5t-167.5 44.5 q-95 0 -176.5 -45t-135 -119.5t-84 -168t-30.5 -191.5z" />
<glyph unicode="b" horiz-adv-x="1134" d="M166 205l194 1093q7 42 7 70q0 64 -35 64q-8 0 -15.5 -2.5t-15.5 -2.5q-12 0 -21.5 7.5t-9.5 19.5q0 14 12.5 23.5t36.5 9.5q47 0 73 -32t26 -95q0 -18 -6 -66l-90 -479q53 95 135 139.5t168 44.5q115 0 197.5 -59.5t121.5 -153.5t39 -211q0 -119 -34 -225.5t-96 -189 t-157.5 -130.5t-210.5 -48q-93 0 -171.5 36.5t-129.5 102.5q-20 25 -20 60q0 11 2 24zM217 203q-1 -6 -1 -12q0 -26 17 -50q94 -112 254 -112q100 0 184.5 44t140.5 119t87 173.5t31 207.5q0 173 -83.5 275t-230.5 102q-90 0 -174 -59t-135 -176z" />
<glyph unicode="c" horiz-adv-x="1095" d="M150 420q0 155 62.5 287t176.5 212t254 80q248 0 340 -208q8 -20 8 -37q0 -9 -8 -19t-20 -10q-7 0 -12 2.5t-9 9t-6 11t-6 16.5l-6 18q-34 79 -107.5 123.5t-173.5 44.5q-126 0 -227.5 -75t-156 -196t-54.5 -261q0 -170 94 -279.5t256 -109.5q87 0 161.5 36.5 t121.5 104.5q4 6 9.5 15.5t9 14.5t8.5 10.5t9.5 8t10.5 2.5q13 0 20.5 -9t7.5 -22q0 -16 -22 -45q-61 -82 -150 -122.5t-190 -40.5q-123 0 -215.5 60t-139 158.5t-46.5 219.5z" />
<glyph unicode="d" horiz-adv-x="1142" d="M150 422q0 84 20.5 167t61.5 157t98 130.5t135.5 89.5t167.5 33t166 -42.5t125 -114.5l96 532q4 19 6 48t2 30q3 14 12.5 24.5t22.5 10.5q14 0 23 -12q7 -9 7 -19q0 -3 -1 -6q-1 -8 -8.5 -35t-10.5 -43l-199 -1102q-16 -86 -16 -138q0 -46 10 -63q10 -18 31 -18q7 0 15 4 t18 4q12 0 20.5 -9t8.5 -21q0 -15 -13.5 -26t-36.5 -11q-48 0 -75 36.5t-27 108.5q-43 -78 -119.5 -116.5t-157.5 -38.5q-175 0 -278.5 125.5t-103.5 314.5zM205 426q0 -174 89 -285.5t243 -111.5q103 0 180.5 63.5t109.5 198.5l88 497q-43 75 -116.5 118.5t-167.5 43.5 q-95 0 -176.5 -45t-135 -119.5t-84 -168t-30.5 -191.5z" />
<glyph unicode="e" horiz-adv-x="1116" d="M150 438q0 103 37.5 204t103.5 180t163 128t208 49q138 0 223.5 -76t85.5 -184q0 -129 -115.5 -213t-308.5 -84q-167 0 -340 50q-4 -32 -4 -52q0 -192 104.5 -301.5t272.5 -109.5q84 0 157.5 34.5t118.5 98.5q4 6 9.5 15.5t9 14.5t8.5 10.5t9.5 8t10.5 2.5 q12 0 20.5 -9.5t8.5 -21.5q0 -14 -23 -45q-57 -76 -145.5 -115.5t-185.5 -39.5q-86 0 -162.5 29.5t-136 85t-94.5 144t-35 197.5zM213 537q172 -50 330 -50q168 0 271.5 70t103.5 184q0 86 -69.5 147.5t-186.5 61.5q-166 0 -292.5 -120.5t-156.5 -292.5z" />
<glyph unicode="f" horiz-adv-x="614" d="M-119 -422q0 13 9.5 22t21.5 9q7 0 22.5 -6t36.5 -6q51 0 86.5 38.5t46.5 100.5l205 1194h-45q-14 0 -36.5 -2t-28.5 -2q-14 0 -22.5 7t-8.5 19q0 13 10.5 22t24.5 9q4 0 27 -3t38 -3h49l56 319q35 191 198 191q50 0 95 -25q24 -16 24 -35q0 -13 -10 -21.5t-21 -8.5 q-12 0 -26 14q-34 29 -68 29q-49 0 -88.5 -35t-50.5 -109l-55 -319h159q15 0 39 3t29 3q12 0 20.5 -8.5t8.5 -20.5t-9.5 -20t-23.5 -8q-6 0 -29 2t-37 2h-166l-206 -1198q-18 -98 -74 -144.5t-133 -46.5q-68 0 -68 37z" />
<glyph unicode="g" horiz-adv-x="1128" d="M102 -307q0 13 8 22t21 9q21 0 33 -25q27 -50 87.5 -80.5t137.5 -30.5q148 0 246.5 102t134.5 283l29 150q-44 -69 -115 -105t-147 -36q-175 0 -281 125.5t-106 314.5q0 106 33.5 208t94 185t154 133.5t203.5 50.5q90 0 167 -43t126 -116l16 96q3 14 12.5 23.5t22.5 9.5 t22 -11q7 -9 7 -21v-5q-1 -4 -11 -31.5t-14 -46.5l-156 -866q-38 -210 -149 -329.5t-289 -119.5q-173 0 -272 123q-15 15 -15 31zM203 426q0 -173 91 -285t247 -112q102 0 185 70.5t108 211.5l84 475q-41 75 -115 119.5t-168 44.5q-96 0 -178.5 -45.5t-137 -119.5 t-85.5 -167.5t-31 -191.5z" />
<glyph unicode="h" horiz-adv-x="1136" d="M143 31q1 7 8.5 34t10.5 44l213 1189q7 41 7 70q0 64 -36 64q-8 0 -15.5 -2.5t-15.5 -2.5q-12 0 -21 7.5t-9 19.5q0 33 47 33q100 0 100 -127q0 -10 -6 -64l-96 -526q50 99 141 164t199 65q132 0 214.5 -80t82.5 -214q0 -93 -50.5 -281.5t-50.5 -284.5q0 -42 12 -66 t33 -24q8 0 16 3t17 3q12 0 20.5 -7.5t8.5 -20.5q0 -14 -13.5 -24.5t-37.5 -10.5q-49 0 -79 38.5t-30 108.5q0 94 49 282t49 286q0 105 -66.5 174t-180.5 69q-125 0 -230.5 -103.5t-136.5 -277.5l-84 -465q-4 -19 -6 -47.5t-2 -29.5q-3 -14 -12.5 -24.5t-22.5 -10.5 q-14 0 -22 11q-6 8 -6 19q0 4 1 9z" />
<glyph unicode="i" horiz-adv-x="491" d="M158 139q0 50 37 238l96 448q4 21 4 38t-4 31q-8 26 -31 26q-8 0 -16.5 -4.5t-16.5 -4.5q-12 0 -20 7.5t-8 19.5q0 15 13 26t36 11q36 0 62 -21.5t32 -60.5q2 -9 2 -22q0 -23 -6 -58l-94 -451q-35 -169 -35 -223q0 -90 43 -90q8 0 16.5 3t16.5 3q12 0 20 -7t8 -19 q0 -15 -13 -26t-36 -11q-48 0 -77 37.5t-29 109.5zM311 1305q0 23 16.5 39t39.5 16t38 -16t15 -39q0 -22 -15 -38t-38 -16t-39.5 16t-16.5 38z" />
<glyph unicode="j" horiz-adv-x="485" d="M-160 -406q0 11 10 20t23 9q7 0 14.5 -5t14 -11.5t23 -11.5t38.5 -5q52 0 85 36t44 102l189 1058q7 41 7 70q0 64 -36 64q-8 0 -15.5 -3.5t-15.5 -3.5q-12 0 -21.5 8.5t-9.5 18.5q0 16 13 25.5t37 9.5q98 0 98 -127q0 -16 -6 -64l-189 -1058q-33 -189 -188 -189 q-51 0 -83 17t-32 40zM309 1305q0 23 15 39t38 16t39.5 -16t16.5 -39q0 -22 -16.5 -38t-39.5 -16t-38 16t-15 38z" />
<glyph unicode="k" horiz-adv-x="1036" d="M143 31q1 7 8.5 34t10.5 44l213 1189q7 41 7 70q0 64 -36 64q-8 0 -15.5 -2.5t-15.5 -2.5q-12 0 -21 7.5t-9 19.5q0 33 47 33q100 0 100 -127q0 -10 -6 -64l-96 -528q48 99 139 165t199 66q118 0 192 -76.5t74 -191.5q0 -131 -93.5 -223t-228.5 -92q-91 0 -161 45 l245 -326q39 -53 59 -70.5t40 -17.5q6 0 17 4t22 4q12 0 20 -8t8 -20q0 -14 -13 -24.5t-40 -10.5q-37 0 -69.5 22.5t-75.5 81.5l-256 342q-27 42 -27 54q0 30 31 30q12 0 32.5 -15t62 -30.5t103.5 -15.5q107 0 189.5 77.5t81.5 192.5q-2 93 -60 156.5t-162 64.5h-4 q-119 0 -223 -106q-105 -108 -135 -277l-84 -465q-4 -19 -6 -47.5t-2 -29.5q-3 -14 -12.5 -24.5t-22.5 -10.5q-14 0 -22 11q-6 8 -6 19q0 4 1 9z" />
<glyph unicode="l" horiz-adv-x="540" d="M160 139q0 50 37 238l176 997q4 19 6 48t2 30q3 14 12.5 24.5t22.5 10.5q13 1 22 -11q7 -9 7 -19q0 -3 -1 -7q-1 -8 -8 -35.5t-10 -42.5l-180 -1010q-33 -183 -33 -223v-11q0 -79 41 -79q10 0 18 3t15 3q12 0 21 -7t9 -19q0 -15 -13 -26t-36 -11q-49 0 -78.5 37.5 t-29.5 109.5z" />
<glyph unicode="m" horiz-adv-x="1718" d="M137 31q18 71 19 78l120 671q7 42 7 71q0 64 -35 64q-7 0 -15 -3t-16 -3q-12 0 -20.5 8t-8.5 19q0 33 48 33q96 0 96 -125q0 -27 -13 -90q45 104 139.5 174.5t205.5 70.5q112 0 182 -78.5t78 -195.5q40 117 132 195.5t208 78.5q130 0 207 -79.5t77 -214.5q0 -93 -50 -282 t-50 -284q0 -42 12 -66t33 -24q8 0 15.5 3t15.5 3q13 0 21.5 -7.5t8.5 -20.5q0 -14 -13.5 -24.5t-37.5 -10.5q-49 0 -78.5 38.5t-29.5 108.5q0 94 49 282t49 286q0 107 -59 175t-174 68q-122 0 -218.5 -104t-128.5 -277l-84 -465q-4 -19 -6 -47.5t-2 -29.5 q-3 -14 -12.5 -24.5t-22.5 -10.5q-14 0 -21.5 11t-4.5 28q1 8 8 34.5t10 43.5l94 516q8 42 8 80q0 91 -47 155q-66 90 -176 90q-122 0 -227.5 -104.5t-136.5 -278.5l-84 -463q-4 -19 -6 -47.5t-2 -29.5q-8 -35 -37 -35q-14 0 -22 11q-6 8 -6 20q0 4 1 8z" />
<glyph unicode="n" horiz-adv-x="1132" d="M137 31q18 71 19 78l120 671q7 38 7 65q-1 7 -1 14q-2 30 -11 43t-23 13q-7 0 -15 -3t-16 -3q-12 0 -20.5 8t-8.5 19q0 33 48 33q96 0 96 -125q0 -25 -13 -88q48 105 142 174t205 69q132 0 214.5 -80t82.5 -214q0 -93 -50.5 -281.5t-50.5 -284.5q0 -42 12 -66t33 -24 q8 0 16.5 3t16.5 3q13 0 22 -7.5t9 -20.5q0 -14 -13.5 -24.5t-37.5 -10.5q-49 0 -80 38.5t-31 108.5q0 94 49 282t49 286q0 105 -66.5 174t-181.5 69q-124 0 -229.5 -103.5t-136.5 -277.5l-84 -465q-4 -19 -6 -47.5t-2 -29.5q-8 -35 -37 -35q-14 0 -22 11q-6 8 -6 20 q0 4 1 8z" />
<glyph unicode="o" horiz-adv-x="1185" d="M150 416q0 80 19.5 162t61 157.5t98.5 134t138 94t174 35.5q185 0 289 -125t104 -309q0 -81 -19.5 -162.5t-60.5 -157.5t-98 -134.5t-138 -93.5t-175 -35q-124 0 -214.5 60t-134.5 157t-44 217zM205 414q0 -107 36.5 -192.5t115 -139t188.5 -53.5q95 0 178 45.5 t138.5 121t87.5 171t32 196.5q0 167 -89 277t-255 110q-94 0 -176 -45.5t-137.5 -120.5t-87 -171.5t-31.5 -198.5z" />
<glyph unicode="p" horiz-adv-x="1148" d="M55 -459q1 7 8.5 34t10.5 44l194 1086q15 80 15 128q0 76 -37 76q-8 0 -16.5 -4t-16.5 -4q-12 0 -21.5 9.5t-9.5 21.5q0 15 13 25t36 10q101 0 101 -144v-2q45 86 128.5 132t166.5 46q171 0 270.5 -118t99.5 -318q0 -147 -58 -279t-168 -217t-245 -85q-92 0 -173.5 41 t-131.5 112l-94 -518q-3 -15 -5 -30.5t-3 -30.5t-2 -19q-2 -14 -12 -23.5t-23 -9.5q-14 0 -22 11q-6 8 -6 18q0 4 1 8zM229 188q42 -72 122 -115.5t175 -43.5q91 0 171 47.5t133 123.5t83.5 170.5t30.5 190.5q0 183 -85 286t-234 103q-44 0 -86.5 -13t-85 -41t-77 -80.5 t-54.5 -123.5z" />
<glyph unicode="q" horiz-adv-x="1091" d="M133 406q0 118 34 224.5t95.5 189t157.5 131t211 48.5q93 0 171 -37t130 -104q21 -26 21 -64q0 -9 -1 -18l-188 -1048q-7 -41 -7 -70q0 -64 36 -64q8 0 15 2.5t15 2.5q12 0 21.5 -7.5t9.5 -19.5q0 -33 -47 -33q-100 0 -100 127q0 30 8 70l80 426q-53 -95 -133.5 -137.5 t-167.5 -42.5q-116 0 -199.5 59t-122.5 153.5t-39 211.5zM188 408q0 -173 83.5 -276t228.5 -103q91 0 174.5 59t134.5 176l90 514q2 8 2 16q0 24 -18 44q-91 112 -254 112q-100 0 -184 -43.5t-139.5 -118t-86.5 -173t-31 -207.5z" />
<glyph unicode="r" horiz-adv-x="669" d="M137 31q18 71 19 78l120 671q7 42 7 71q0 64 -35 64q-7 0 -15 -3t-16 -3q-12 0 -20.5 8t-8.5 19q0 33 48 33q96 0 96 -125q0 -9 -2.5 -32t-3.5 -30q47 90 123.5 153.5t160.5 63.5q30 0 47 -11.5t17 -29.5q0 -16 -10.5 -25t-26.5 -9q-13 0 -27 8t-30 8q-21 0 -37 -8 q-76 -26 -150.5 -123.5t-95.5 -210.5l-88 -494q-4 -19 -6 -47.5t-2 -29.5q-8 -35 -37 -35q-14 0 -22 11q-6 8 -6 20q0 4 1 8z" />
<glyph unicode="s" horiz-adv-x="899" d="M72 233q0 15 8 25t22 10q6 0 10.5 -1.5t7.5 -5t5 -7t4 -10t3 -10t2.5 -12t2.5 -11.5q21 -84 101 -134t180 -50q114 0 195 57.5t81 155.5q0 66 -45 118t-155 103l-58 28q-215 97 -215 263q0 108 85 176.5t206 68.5q95 0 167 -40.5t107 -114.5q11 -18 11 -33 q0 -12 -8.5 -21.5t-20.5 -9.5q-20 0 -32 28q-1 1 -7 17q-20 59 -78.5 93t-142.5 34q-94 0 -164 -53.5t-70 -142.5q0 -134 189 -219l57 -27q123 -56 176.5 -119t53.5 -149q0 -111 -93 -185.5t-243 -74.5q-111 0 -201.5 53t-126.5 147q-14 40 -14 53z" />
<glyph unicode="t" horiz-adv-x="626" d="M141 952q0 13 10 22t23 9q5 0 29 -3t39 -3h45l30 168q3 15 4.5 30t2.5 29t2 19q7 34 34 34q14 0 22 -10.5t5 -25.5q-1 -8 -8 -34.5t-10 -43.5l-31 -166h166q14 0 36.5 3t28.5 3q13 0 22 -8.5t9 -20.5t-10.5 -20t-24.5 -8q-4 0 -27 2t-38 2h-170l-129 -733q-3 -19 -3 -36 q0 -51 28 -84q37 -42 98 -42h6q72 3 110 47q10 20 31 20q12 0 20.5 -9t8.5 -21q0 -18 -21 -33q-63 -55 -149 -55q-102 0 -148 62q-35 48 -35 112q0 20 3 41l129 731h-41q-15 0 -38.5 -2t-27.5 -2q-14 0 -22.5 7t-8.5 19z" />
<glyph unicode="u" horiz-adv-x="1130" d="M162 934q0 14 13.5 24.5t37.5 10.5q49 0 79 -38.5t30 -109.5q0 -92 -47.5 -270t-47.5 -275q0 -107 69.5 -177t195.5 -70q55 0 108 20.5t99.5 60t81.5 104.5t50 148l91 494q4 20 6 48.5t2 29.5q2 15 12 25t23 10t21 -11q5 -8 6 -19q0 -4 -1 -9q-1 -6 -8 -32t-10 -44 l-105 -580q-16 -85 -16 -138q0 -85 41 -85q7 0 15 4t16 4q12 0 21 -9t9 -21q0 -15 -13 -26t-36 -11q-47 0 -74.5 37t-27.5 110q0 25 2 35q-44 -86 -131.5 -139t-186.5 -53q-143 0 -229 79.5t-86 214.5q0 96 48 273t48 274q0 42 -12 66t-33 24q-7 0 -15 -4t-18 -4 q-12 0 -20 8.5t-8 20.5z" />
<glyph unicode="v" horiz-adv-x="886" d="M80 941q0 13 8 23q9 11 23 11q27 0 30 -31q2 -6 6.5 -33t8.5 -45l172 -716q10 -44 18 -97q31 51 55 86l246 348q77 108 112.5 183t35.5 141q0 59 -28.5 94t-64.5 35q-6 0 -17 -5t-19 -5q-12 0 -21.5 8t-9.5 20q0 33 47 33q67 0 115.5 -47.5t48.5 -130.5 q0 -73 -39.5 -157.5t-118.5 -196.5l-266 -371l-37 -61q-17 -33 -41 -33h-10q-14 0 -21 9t-12 28l-12 67l-185 760l-14 49q-2 6 -6 16q-4 13 -4 18z" />
<glyph unicode="w" horiz-adv-x="1259" d="M94 938v5q0 12 7 21q9 11 22 11q26 0 33 -33q2 -7 3.5 -34.5t4.5 -45.5l117 -721q9 -77 10 -86q4 12 17.5 40.5t19.5 43.5l252 541l18 47q14 35 41 35q29 0 33 -35l6 -55l92 -516l12 -97q6 11 26 43t30 50l194 327q74 127 103.5 202.5t29.5 139.5q0 59 -27 89t-63 30 q-5 0 -17 -5t-20 -5q-12 0 -21 8t-9 20q0 33 47 33q68 0 115 -43.5t47 -126.5q0 -133 -144 -370l-223 -365l-35 -63q-15 -29 -39 -29h-6q-26 0 -29 37l-10 71l-92 519l-10 71q-18 -49 -29 -71l-246 -527l-32 -71q-7 -17 -15 -23t-22 -6h-6q-26 0 -29 37q0 2 -4 33t-4 34 l-127 756q-6 32 -15 57z" />
<glyph unicode="x" horiz-adv-x="950" d="M-10 23q0 16 20 30q5 6 20 20t23 23l391 412l-194 364q-31 56 -51 56q-5 0 -14 -3t-17 -3q-12 0 -20.5 8t-8.5 20q0 14 12 22.5t31 8.5q69 0 109 -76l192 -366l344 364l41 51q16 19 31 19q13 0 22 -8.5t9 -20.5q0 -15 -21 -33q-3 -3 -11.5 -11t-16.5 -16t-15 -16 l-358 -374l213 -394q30 -55 51 -55q6 0 15 3t18 3q11 0 18.5 -8t7.5 -20q0 -31 -45 -31q-36 0 -60 17.5t-46 58.5l-211 393l-377 -398l-41 -51q-15 -20 -31 -20q-13 0 -21.5 9.5t-8.5 21.5z" />
<glyph unicode="y" horiz-adv-x="1124" d="M90 -307q0 13 8.5 22t22.5 9q19 0 31 -25q27 -50 88.5 -80.5t138.5 -30.5q149 0 247 101.5t134 283.5l35 189q-43 -83 -124.5 -131.5t-181.5 -48.5q-145 0 -230 79.5t-85 214.5q0 96 47 273t47 274q0 90 -43 90q-8 0 -16 -4t-16 -4q-12 0 -21.5 8.5t-9.5 20.5 q0 14 13.5 24.5t37.5 10.5q49 0 79 -38.5t30 -109.5q0 -92 -47.5 -270t-47.5 -275q0 -107 70.5 -177t196.5 -70q55 0 107.5 20.5t99.5 60.5t82 107t51 152l88 487q4 20 6 48.5t2 29.5q7 35 37 35q13 0 21 -11q6 -8 6 -19q0 -4 -1 -9q-11 -40 -18 -76l-160 -866 q-38 -210 -148.5 -329.5t-287.5 -119.5q-171 0 -275 123q-14 18 -14 31z" />
<glyph unicode="z" horiz-adv-x="962" d="M29 33q0 21 28 51l748 770q12 13 61 57q-55 -22 -137 -22q-62 0 -182.5 26.5t-173.5 26.5q-67 0 -106.5 -21t-39.5 -57q0 -14 11.5 -26t11.5 -21q0 -11 -9 -20t-22 -9q-19 0 -33 21t-14 45q0 64 53.5 99.5t145.5 35.5q48 0 176 -26.5t182 -26.5q66 0 110 16.5t52 16.5 q17 0 28 -9t11 -24q0 -20 -29 -51l-747 -770q-17 -20 -58 -56q68 21 140 21q66 0 191 -26.5t181 -26.5q66 0 105 21t39 56q0 13 -10.5 26t-10.5 22q0 11 9 19.5t22 8.5q19 0 33 -20.5t14 -44.5q0 -64 -54.5 -101t-144.5 -37q-49 0 -183 28t-191 28q-65 0 -113 -16.5 t-57 -16.5q-17 0 -27 9t-10 24z" />
<glyph unicode="{" horiz-adv-x="657" d="M82 655q1 12 11 19.5t22 5.5q10 0 24 -2t23 -2q65 -1 123.5 53.5t70.5 124.5q9 47 34.5 241.5t33.5 243.5q11 71 62.5 113t136.5 41q81 -3 133 -33q28 -12 28 -33q-1 -12 -10.5 -19t-21.5 -7q-6 0 -11 3t-11.5 9t-12.5 10q-44 25 -103 25q-61 0 -96 -32t-43 -85 q-11 -61 -36 -255t-31 -228q-13 -77 -72 -135t-133 -70q68 -26 104.5 -92t24.5 -139q-3 -19 -51.5 -225t-49.5 -261q-2 -51 33 -83.5t107 -32.5q45 0 69 14q4 1 11 5t13.5 6t12.5 1q12 0 19.5 -8.5t5.5 -20.5q0 -16 -27 -28q-48 -18 -108 -15q-96 1 -143.5 44t-45.5 112 q2 66 54 284t53 232q2 68 -40 124.5t-102 62.5q-16 0 -32 2q-29 4 -29 30z" />
<glyph unicode="|" horiz-adv-x="538" d="M70 -414q1 8 8 35.5t10 42.5l330 1849q4 20 6 48.5t2 29.5q2 14 11.5 24.5t23.5 10.5t21.5 -11t4.5 -26q-1 -8 -8 -35.5t-10 -42.5l-330 -1849q-2 -16 -4.5 -45t-3.5 -33q-3 -14 -12.5 -24.5t-22.5 -10.5q-14 0 -21.5 11t-4.5 26z" />
<glyph unicode="}" horiz-adv-x="657" d="M-115 -164q1 12 11 19.5t22 7.5q6 0 11 -3.5t11.5 -9.5t12.5 -10q42 -24 102 -24q62 0 97 32t43 84q11 61 36 255.5t31 228.5q13 76 71 133t132 69q-68 26 -104 93.5t-23 140.5q3 18 51 224t49 261q2 51 -32.5 84t-106.5 33q-45 0 -70 -14q-1 0 -14.5 -7t-21.5 -6 q-12 0 -19.5 8.5t-5.5 20.5q0 17 27 29q46 17 108 14q96 -1 143.5 -44t45.5 -112q-2 -66 -54 -284t-53 -232q-2 -68 39.5 -124t101.5 -62q17 0 33 -2q29 -4 29 -31q-1 -12 -11 -19t-22 -5q-10 0 -24 2t-23 2q-65 1 -124 -53.5t-71 -124.5q-9 -46 -34 -241t-33 -245 q-11 -71 -62.5 -112.5t-136.5 -40.5q-82 3 -133 32q-29 13 -29 33z" />
<glyph unicode="~" horiz-adv-x="806" d="M78 707q3 25 20 45q52 71 152 71q71 0 156 -45l69 -39q78 -41 141 -41q84 0 103 68q11 31 35 31q12 0 19 -9t7 -22q-4 -29 -20 -45q-53 -72 -152 -72q-73 0 -153 45l-70 37q-82 43 -141 43q-83 0 -105 -67q-8 -31 -35 -31q-12 0 -19 9t-7 22z" />
<glyph unicode="&#xa1;" horiz-adv-x="505" d="M84 -125q1 7 9 38t11 50l162 922q2 18 3.5 38.5t2.5 26.5q6 31 33 31q25 0 25 -29q0 -11 -7 -33.5t-10 -37.5l-149 -924q-3 -18 -5.5 -47.5t-4.5 -38.5q-9 -35 -37 -35q-18 0 -26.5 11.5t-6.5 27.5zM287 1247q0 24 17.5 41t41.5 17q22 0 36.5 -14t14.5 -36q0 -25 -17 -42 t-42 -17q-22 0 -36.5 14.5t-14.5 36.5z" />
<glyph unicode="&#xa2;" horiz-adv-x="1099" d="M156 446q0 127 40.5 240t108 192t158 126t188.5 49l17 80q4 20 6 49t2 30q2 14 11 23.5t22 9.5q14 0 21.5 -11t4.5 -26q-1 -8 -8 -34.5t-10 -43.5l-15 -79q219 -14 304 -197q10 -35 10 -43q0 -11 -9 -20t-22 -9q-11 0 -18 7.5t-9 14.5t-8 27q-26 76 -94 121.5t-164 51.5 l-166 -965q14 -2 47 -2q88 0 166 36.5t121 104.5q4 6 8.5 16t7 15t6.5 10.5t9 7.5t12 2q13 0 21 -8.5t8 -19.5q0 -21 -19 -45q-118 -166 -342 -166q-21 0 -53 4l-14 -82q-2 -17 -4.5 -46t-3.5 -34q-2 -14 -11 -23.5t-22 -9.5q-14 0 -22 11t-5 26q1 7 8.5 34t10.5 44l14 86 q-143 34 -228 155t-85 291zM209 444q0 -151 73.5 -257.5t196.5 -137.5l164 957q-86 -4 -166 -50t-139 -120t-94 -176.5t-35 -215.5z" />
<glyph unicode="&#xa3;" horiz-adv-x="1030" d="M14 29q0 11 2.5 19.5t11 18t11 12.5t17.5 14l14 11q120 98 193.5 248.5t76.5 313.5h-88q-16 0 -36 -3.5t-26 -3.5q-12 0 -20 7.5t-8 19.5q0 13 9.5 22t23.5 9q5 0 25 -3t36 -3h84q-3 49 -20 162t-17 176q0 91 29.5 162.5t79 114.5t109.5 65t126 22q183 0 279 -137 q22 -35 22 -53q0 -12 -8.5 -21.5t-21.5 -9.5q-6 0 -10 2t-8 7.5t-6.5 10.5t-7.5 16t-9 19q-30 53 -89 85t-143 32q-56 0 -106.5 -18t-92.5 -54t-67 -97t-25 -140q0 -61 16.5 -175.5t18.5 -168.5h334q16 0 35.5 3t25.5 3q12 0 21.5 -8.5t9.5 -20.5t-10.5 -20.5t-24.5 -8.5 q-6 0 -25.5 3.5t-35.5 3.5h-328q-3 -156 -77 -317t-208 -273q-15 -15 -30 -27h741q19 0 42.5 5t29.5 5q14 0 24.5 -8t10.5 -20q-1 -14 -13 -22.5t-26 -8.5h-840q-13 0 -22 8.5t-9 20.5z" />
<glyph unicode="&#xa4;" horiz-adv-x="1200" d="M174 758q0 198 131 329l-57 70q-8 10 -24 27t-21 24q-15 15 -15 31q0 11 8.5 20t20.5 9q18 0 33 -21q19 -34 39 -59l55 -68q118 88 272 88q160 0 277 -90l55 70q24 30 39 57q15 21 33 21q12 0 20.5 -8.5t8.5 -20.5q0 -16 -15 -31q-3 -4 -19.5 -22t-25.5 -29l-59 -72 q129 -126 129 -325q0 -101 -36.5 -188t-102.5 -148l67 -82q9 -11 25.5 -29t19.5 -22q17 -17 17 -31q0 -12 -9 -20.5t-20 -8.5q-21 0 -33 21q-38 53 -41 57l-65 82q-113 -80 -265 -80q-151 0 -264 80l-57 -72l-39 -57q-14 -20 -33 -20q-12 0 -20 8t-8 20q0 10 14 31 q5 6 21.5 22.5t25.5 26.5l57 72q-139 130 -139 338zM227 758q0 -173 110 -287.5t279 -114.5q171 0 281.5 114.5t110.5 287.5t-110.5 288t-281.5 115q-169 0 -279 -115t-110 -288z" />
<glyph unicode="&#xa5;" horiz-adv-x="1030" d="M170 784q0 12 10.5 20.5t24.5 8.5q4 0 23 -2t36 -2h117l-174 467q-6 19 -17 40.5t-12 24.5q-6 12 -6 25q0 12 8.5 21.5t22.5 9.5q20 0 30 -29q2 -5 9 -30t14 -42l264 -714l504 731q10 14 21.5 34.5t15.5 26.5q14 23 31 23q12 0 20 -9.5t8 -21.5q0 -14 -10 -29 q-35 -41 -45 -57l-328 -471h131q15 0 35 2t25 2q14 0 23.5 -7.5t9.5 -19.5q0 -13 -11 -20.5t-26 -7.5q-5 0 -25 2t-35 2h-159l-103 -150h119q17 0 36 2t23 2q14 0 23.5 -7t9.5 -19q0 -13 -10.5 -21t-24.5 -8q-5 0 -24.5 2t-34.5 2h-150l-28 -41l-76 -418q-2 -16 -5 -46.5 t-3 -32.5q-8 -35 -35 -35q-15 0 -22.5 12t-4.5 27q1 7 8.5 34t10.5 44l73 417l-14 39h-137q-15 0 -35 -2t-25 -2q-30 0 -30 29q0 10 10.5 18t24.5 8q4 0 24 -2t35 -2h115l-56 150h-139q-15 0 -34.5 -2t-24.5 -2q-31 0 -31 26z" />
<glyph unicode="&#xa6;" horiz-adv-x="538" d="M72 -389q1 8 8 35.5t10 42.5l131 731q4 19 6 48t2 30q8 34 35 34q13 0 21.5 -11t5.5 -25q-1 -8 -8.5 -35t-10.5 -43l-131 -731q-2 -16 -4.5 -45t-3.5 -33q-2 -14 -11.5 -24.5t-23.5 -10.5t-21.5 11t-4.5 26zM260 705q18 73 19 77l133 731q4 20 6 48.5t2 29.5 q2 14 11.5 24.5t23.5 10.5t21.5 -11t4.5 -26q-1 -8 -8 -35.5t-10 -42.5l-131 -731q-3 -14 -5.5 -42.5t-4.5 -35.5q-2 -15 -11 -24.5t-22 -9.5t-22 11t-7 26z" />
<glyph unicode="&#xa7;" horiz-adv-x="1024" d="M92 238q0 13 8.5 22.5t22.5 9.5q4 0 8 -1t6.5 -3.5t5 -4t4 -6t3 -7t2.5 -8.5t1.5 -8t1.5 -8.5t1 -8.5q23 -85 101.5 -134.5t178.5 -49.5q118 0 198.5 57.5t80.5 151.5q0 69 -50 124t-163 109l-58 27q-103 48 -153.5 118t-50.5 150q0 94 64.5 161.5t164.5 86.5 q-119 83 -119 207q0 113 83.5 182.5t207.5 69.5q193 0 270 -148q15 -23 15 -41q0 -11 -9 -20t-22 -9q-22 0 -37 46q-20 59 -78 91.5t-143 32.5q-97 0 -165.5 -54.5t-68.5 -149.5q0 -130 183 -211l57 -27q125 -59 179.5 -121t54.5 -147q0 -96 -68.5 -164.5t-181.5 -87.5 q73 -47 107 -100t34 -119q0 -118 -96 -191t-238 -73q-108 0 -196.5 50.5t-128.5 141.5q-17 43 -17 64zM291 768q0 -65 44.5 -123.5t137.5 -99.5l94 -47q110 6 183 63.5t73 149.5q0 68 -48 122t-161 107l-57 27q-14 5 -33 16q-92 -3 -162.5 -63t-70.5 -152z" />
<glyph unicode="&#xa8;" horiz-adv-x="778" d="M168 1296q0 25 17 42.5t42 17.5q22 0 37 -14.5t15 -36.5q0 -24 -18 -41t-42 -17q-22 0 -36.5 13.5t-14.5 35.5zM500 1296q0 25 17 42.5t42 17.5q22 0 35.5 -14.5t13.5 -36.5q0 -25 -17 -41.5t-42 -16.5q-22 0 -35.5 13.5t-13.5 35.5z" />
<glyph unicode="&#xa9;" horiz-adv-x="1648" d="M156 659q0 160 57.5 307t157.5 257t245.5 175.5t311.5 65.5q130 0 249.5 -48t210.5 -132.5t145 -209.5t54 -271q0 -151 -44 -283.5t-119 -227.5t-173 -163.5t-209 -102.5t-225 -34q-129 0 -248.5 48.5t-211 133.5t-146.5 211.5t-55 273.5zM201 657q0 -138 50.5 -256.5 t135.5 -198t198 -124.5t236 -45q104 0 207 31.5t195.5 95.5t163.5 154t113 216t42 271q0 138 -50 256t-134 198t-195.5 125t-234.5 45q-202 0 -369 -101t-262.5 -277t-95.5 -390zM551 655q0 119 43.5 219.5t126.5 162t188 61.5q97 0 165.5 -40.5t96.5 -105.5q7 -21 7 -30 q0 -25 -29 -25q-21 0 -31 39q-18 51 -73.5 83t-133.5 32q-141 0 -224 -114.5t-83 -281.5q0 -118 62.5 -193t183.5 -75q65 0 121 24.5t80 67.5q2 3 8 15.5t13 18t18 5.5q26 0 26 -26q0 -11 -12 -35q-34 -52 -109 -84.5t-147 -32.5q-134 0 -215.5 89t-81.5 226z" />
<glyph unicode="&#xaa;" horiz-adv-x="757" d="M127 1098q0 95 36.5 180t110 141t166.5 56q57 0 106 -26.5t81 -70.5l8 47q7 29 29 29q12 0 19 -8.5t5 -20.5q-1 -5 -7.5 -24.5t-8.5 -30.5l-66 -371q-13 -77 -9.5 -105t24.5 -28q3 0 9 3t13 3q9 0 16 -6.5t7 -15.5q0 -13 -10.5 -22t-28.5 -9q-33 0 -52.5 24t-19.5 70 q-28 -51 -77 -76.5t-103 -25.5q-114 0 -181 81.5t-67 205.5zM172 1100q0 -108 56 -178t151 -70q66 0 118 45.5t68 136.5l53 297q-27 47 -73 75t-103 28q-119 0 -194.5 -101t-75.5 -233z" />
<glyph unicode="&#xab;" horiz-adv-x="962" d="M88 553q0 13 23 31q33 19 41 26l313 242q14 10 37 33q13 8 24 8t19 -7.5t8 -19.5q0 -15 -21 -28q-8 -6 -23 -15l-20 -12l-344 -260l258 -254q36 -30 39 -33q15 -11 15 -26q0 -12 -8 -20.5t-19 -8.5q-12 0 -27 12l-34 39l-230 236q-10 10 -35 30q-16 13 -16 27zM395 545 q0 13 21 30q7 5 21 13t22 14l338 242l37 33q11 8 22 8q12 0 20.5 -7.5t8.5 -19.5q0 -16 -23 -31l-41 -24l-370 -260l278 -248l39 -33q14 -14 14 -26t-8.5 -20.5t-19.5 -8.5q-13 0 -25 12q-5 5 -35 39l-250 229q-19 19 -34 31t-15 27z" />
<glyph unicode="&#xac;" horiz-adv-x="995" d="M98 803q3 28 39 28h690q32 0 25 -36l-16 -72l-29 -158q-2 -16 -4.5 -45t-3.5 -33q-8 -34 -35 -34q-13 0 -21.5 11t-5.5 25q1 8 8.5 35t10.5 43l37 215h-584q-17 0 -44 -5t-34 -5q-14 0 -23.5 9t-9.5 22z" />
<glyph unicode="&#xad;" horiz-adv-x="788" d="M121 551q0 13 11.5 21t25.5 8q6 0 27 -2.5t38 -2.5h344q19 0 40.5 2.5t27.5 2.5q14 0 23.5 -8t9.5 -21q0 -14 -11 -22.5t-26 -8.5q-6 0 -27.5 3t-38.5 3h-346q-18 0 -39 -3t-26 -3q-33 0 -33 31z" />
<glyph unicode="&#xae;" horiz-adv-x="1632" d="M156 659q0 160 57.5 307t157.5 257t245.5 175.5t311.5 65.5q130 0 249.5 -48t210.5 -132.5t145 -209.5t54 -271q0 -151 -44 -283t-119 -227t-173 -163.5t-209 -102t-225 -33.5q-129 0 -248.5 48t-211 132.5t-146.5 211t-55 273.5zM201 657q0 -138 50.5 -256.5t135.5 -198 t198 -124.5t236 -45q104 0 207 31.5t195.5 95.5t163.5 154t113 216t42 271q0 138 -50 256.5t-134 198t-195.5 124.5t-234.5 45q-202 0 -369 -101t-262.5 -277t-95.5 -390zM586 393q1 9 8 34.5t10 43.5l94 522q1 3 9 70q3 33 34 33h207q97 0 150 -54.5t53 -138.5 q0 -98 -63 -160t-179 -75l119 -230q11 -18 19 -18q4 0 11.5 4t12.5 4q12 0 20.5 -7.5t8.5 -17.5q0 -17 -12.5 -26.5t-30.5 -9.5q-50 0 -78 57l-125 242h-164l-35 -197q-3 -13 -4.5 -28.5t-2 -30.5t-1.5 -21q-3 -13 -12.5 -23t-22.5 -10t-20.5 11t-5.5 26zM698 711h158 q117 0 180.5 51t63.5 143q0 64 -39.5 104t-118.5 40h-182z" />
<glyph unicode="&#xaf;" horiz-adv-x="827" d="M170 1307q0 12 10 20t23 8q6 0 27 -3t38 -3h293q17 0 38.5 3t27.5 3q14 0 23 -8t9 -20q-3 -29 -36 -29q-6 0 -26.5 2t-37.5 2h-295q-18 0 -38 -2t-25 -2q-15 0 -23.5 7.5t-7.5 21.5z" />
<glyph unicode="&#xb0;" horiz-adv-x="561" d="M174 1219q3 96 69 167.5t163 71.5q86 0 141 -59.5t53 -143.5q-1 -96 -70.5 -166.5t-162.5 -70.5q-85 0 -140 59t-53 142zM217 1221q-2 -69 41.5 -116.5t112.5 -47.5q75 0 130.5 58.5t55.5 139.5q2 70 -42 118t-112 48q-75 0 -129.5 -61t-56.5 -139z" />
<glyph unicode="&#xb1;" horiz-adv-x="948" d="M78 29q0 13 11 21.5t26 8.5q6 0 27 -3t40 -3h451q19 0 41 3t28 3q14 0 24.5 -8.5t10.5 -21.5q-1 -14 -13 -22.5t-28 -8.5q-6 0 -27 2t-40 2h-451q-17 0 -39 -2t-28 -2q-16 0 -25 8t-8 23zM166 627q1 13 12.5 21.5t26.5 8.5q6 0 27 -3t40 -3h189l39 215q4 20 6 48.5 t2 29.5q3 14 12.5 24.5t22.5 10.5q14 0 21.5 -11t4.5 -26q-1 -8 -8 -35.5t-10 -42.5l-39 -213h207q17 0 39 3t28 3q15 0 25 -8.5t10 -21.5q0 -14 -11.5 -22.5t-27.5 -8.5q-6 0 -27 2t-40 2h-213l-41 -233q-2 -16 -4.5 -45t-3.5 -33q-2 -14 -11.5 -24.5t-23.5 -10.5 q-13 0 -21.5 12t-5.5 27q1 6 8.5 33t10.5 45l41 229h-183q-19 0 -41 -2t-28 -2q-14 0 -23.5 8.5t-9.5 22.5z" />
<glyph unicode="&#xb2;" horiz-adv-x="708" d="M135 623q0 132 65 224.5t201 166.5l78 41q99 53 146 102.5t47 110.5q0 74 -57.5 120t-143.5 44q-149 0 -197 -117q0 -1 -1 -4q-10 -31 -22 -36l-9 -1q-10 0 -17.5 6t-7.5 16q0 25 21 54q70 125 235 125q104 0 176 -56t72 -147q0 -79 -56 -138.5t-169 -119.5l-76 -41 q-124 -67 -181.5 -147t-58.5 -201h418q13 0 28.5 3t20.5 3q11 0 19 -6.5t8 -16.5q0 -12 -9 -19t-22 -7h-475q-33 0 -33 41z" />
<glyph unicode="&#xb3;" horiz-adv-x="735" d="M94 748q0 10 7 17t18 7q20 0 26 -22q13 -53 78 -96.5t152 -43.5q119 0 198.5 75.5t79.5 193.5q0 96 -65.5 153.5t-171.5 57.5q-13 0 -24 -2.5t-17 -2.5q-23 0 -23 21q0 13 15 24q6 6 25 21.5t24 22.5l198 204l45 41h-346q-11 0 -27.5 -4t-21.5 -4q-24 0 -24 25 q0 10 8.5 16t19.5 6h410q31 0 31 -26q-3 -20 -29 -43l-236 -240l-30 -27q123 5 204.5 -62t81.5 -183q0 -131 -90.5 -219.5t-234.5 -88.5q-90 0 -160 41t-102 99q-19 29 -19 39z" />
<glyph unicode="&#xb4;" horiz-adv-x="665" d="M168 1212q0 14 14 25q4 4 16.5 14t18.5 15l178 166q6 6 13 13.5t11.5 11.5t9 8.5l7.5 7.5q14 16 31 16q12 0 21.5 -9.5t9.5 -21.5t-15 -24q-7 -7 -24 -19.5t-25 -19.5l-184 -168l-29 -29q-10 -10 -24 -10q-12 0 -20.5 7.5t-8.5 16.5z" />
<glyph unicode="&#xb5;" horiz-adv-x="1177" d="M55 -422l230 1288q4 20 6 48.5t2 29.5q3 14 12.5 24.5t22.5 10.5q14 0 22.5 -11t5.5 -26q-1 -8 -8 -35.5t-10 -42.5l-92 -506q-25 -144 38 -235.5t193 -91.5q207 0 361 182l116 653q3 15 4.5 30t2.5 29t2 19q8 35 34 35q13 0 22 -11t7 -26q-1 -5 -5 -19t-8 -29.5 t-7 -29.5l-134 -758q-2 -15 -2.5 -44t-1.5 -35q-7 -35 -34 -35q-15 0 -22.5 11.5t-4.5 25.5l20 118q-69 -74 -161 -119.5t-193 -45.5q-104 0 -173 50.5t-89 143.5l-88 -520q-4 -19 -5 -48t-1 -32q-7 -35 -35 -35q-15 0 -22.5 11.5t-4.5 25.5z" />
<glyph unicode="&#xb6;" horiz-adv-x="1212" d="M184 1040q0 184 130.5 303t347.5 119h636q14 0 23.5 -7.5t9.5 -20.5q-1 -14 -13 -22.5t-26 -8.5q-7 0 -31 5t-42 5h-58l-231 -1307q-2 -16 -4.5 -44.5t-3.5 -32.5q-3 -16 -13 -26.5t-24 -10.5q-13 0 -21.5 12t-5.5 27q1 9 8.5 36t10.5 44l231 1302h-123l-231 -1307 q-2 -16 -5.5 -45.5t-3.5 -31.5q-7 -37 -36 -37q-13 0 -21.5 12t-5.5 27q1 9 8 36.5t10 43.5l99 555h-217q-182 0 -290 104t-108 270zM240 1040q2 -147 94.5 -236t253.5 -89h221l123 698h-279q-178 0 -295.5 -102t-117.5 -271z" />
<glyph unicode="&#xb7;" horiz-adv-x="380" d="M141 549q0 25 16.5 41t41.5 16q23 0 37 -13.5t14 -35.5q0 -24 -18 -40.5t-42 -16.5q-22 0 -35.5 13.5t-13.5 35.5z" />
<glyph unicode="&#xb8;" horiz-adv-x="772" d="M168 -379q0 10 8 19.5t21 9.5q16 0 28 -21q33 -75 154 -75q67 0 121.5 43.5t54.5 119.5q0 60 -43 92.5t-104 32.5q-28 0 -47 -6t-27 -6q-12 0 -19.5 7t-7.5 18q0 18 29 30q39 19 60 49.5t36 79.5l41 -14q-23 -80 -80 -121q15 3 39 0q73 -3 122.5 -48.5t49.5 -113.5 q0 -93 -65 -151t-160 -58q-127 0 -197 84q-14 14 -14 29z" />
<glyph unicode="&#xb9;" horiz-adv-x="413" d="M182 1354q0 11 9 17.5t20 6.5q6 0 12.5 -3t7.5 -3q11 0 35 19l70 57q28 22 43 22q27 0 27 -26q-1 -5 -7 -23.5t-8 -31.5l-129 -734q-1 -8 -2 -26.5t-2 -24.5q-6 -26 -31 -26q-10 0 -17 8t-7 20q1 6 6.5 24t7.5 27l121 693q9 50 16 67l-67 -55q-43 -31 -72 -31 q-14 0 -23.5 6.5t-9.5 16.5z" />
<glyph unicode="&#xba;" horiz-adv-x="800" d="M127 1096q0 53 13 106.5t40.5 102.5t65 87t90 60.5t113.5 22.5q121 0 189.5 -82t68.5 -203q0 -67 -21.5 -133t-60.5 -121.5t-102 -90t-138 -34.5q-121 0 -189.5 82t-68.5 203zM172 1094q0 -104 56 -173t159 -69q78 0 141.5 49t97 125.5t33.5 163.5q0 106 -55.5 175 t-159.5 69q-78 0 -141.5 -49t-97 -126.5t-33.5 -164.5z" />
<glyph unicode="&#xbb;" horiz-adv-x="962" d="M80 246q0 18 20 30q7 6 23.5 15.5t19.5 11.5l367 258l-277 250l-38 33q-13 13 -13 26q0 12 8 19.5t19 7.5q14 0 24 -10q5 -5 35 -39l250 -230l35 -32q16 -10 16 -25q0 -16 -22 -31q-7 -5 -20.5 -12.5t-22.5 -13.5l-336 -242l-39 -33q-8 -8 -23 -8q-12 0 -19 7t-7 18z M410 238q0 18 20 30q6 4 21 13t22 14l344 260l-256 252q-6 6 -21 18t-20 17q-14 10 -14 26q0 12 8.5 19.5t20.5 7.5q11 0 24 -10l35 -39l229 -236l35 -32q16 -10 16 -25q0 -16 -22 -31q-6 -4 -19 -12t-22 -14l-313 -242q-4 -4 -17 -16t-20 -17q-13 -10 -25 -10q-10 0 -18 8 t-8 19z" />
<glyph unicode="&#xbc;" horiz-adv-x="1308" d="M123 18q0 12 12 27q3 6 13.5 18.5t17.5 24.5l854 1309q5 9 12.5 27t11.5 24q16 25 33 25q11 0 18 -7.5t7 -17.5q0 -11 -12 -29q-2 -4 -12 -17t-17 -24l-854 -1310q-7 -10 -15 -27.5t-12 -22.5q-13 -26 -33 -26q-10 0 -17 7.5t-7 18.5zM178 1354q0 11 9 17.5t20 6.5 q6 0 12.5 -3t7.5 -3q11 0 35 19l70 57q28 22 43 22q26 0 26 -26q-1 -5 -6.5 -23.5t-7.5 -31.5l-129 -734q-1 -8 -2 -26.5t-2 -24.5q-6 -26 -31 -26q-10 0 -17 8t-7 20q1 6 6.5 24t7.5 27l121 693q9 50 16 67l-67 -55q-43 -31 -72 -31q-14 0 -23.5 6.5t-9.5 16.5zM672 305 l2 14q1 6 4.5 11.5t6 8.5t10 11.5t10.5 11.5l444 474q5 5 14.5 15.5t13.5 14.5t11.5 7.5t15.5 3.5h21q25 0 22 -29q-1 -3 -5 -22t-5 -29l-88 -478h43q11 0 28 2.5t23 2.5q11 0 18 -6.5t7 -16.5q-1 -11 -10.5 -18t-20.5 -7h-94l-35 -202l-6 -51q-1 -12 -9.5 -19.5t-19.5 -7.5 t-18 8.5t-4 20.5q0 6 4.5 24t5.5 27l35 200h-402q-12 0 -18 8.5t-4 20.5zM721 319h383l92 510z" />
<glyph unicode="&#xbd;" horiz-adv-x="1423" d="M123 18q0 12 12 27q3 6 13.5 18.5t17.5 24.5l854 1309q5 9 12.5 27t11.5 24q16 25 33 25q11 0 18 -7.5t7 -17.5q0 -11 -12 -29q-2 -4 -12 -17t-17 -24l-854 -1310q-7 -10 -15 -27.5t-12 -22.5q-13 -26 -33 -26q-10 0 -17 7.5t-7 18.5zM178 1354q0 11 9 17.5t20 6.5 q6 0 12.5 -3t7.5 -3q11 0 35 19l70 57q28 22 43 22q26 0 26 -26q-1 -5 -6.5 -23.5t-7.5 -31.5l-129 -734q-1 -8 -2 -26.5t-2 -24.5q-6 -26 -31 -26q-10 0 -17 8t-7 20q1 6 6.5 24t7.5 27l121 693q9 50 16 67l-67 -55q-43 -31 -72 -31q-14 0 -23.5 6.5t-9.5 16.5zM788 41 q0 132 65.5 224.5t201.5 166.5l78 41q99 53 145.5 102.5t46.5 110.5q0 74 -57.5 120t-143.5 44q-148 0 -196 -117q-7 -23 -13 -32t-20 -9q-10 0 -17.5 6.5t-7.5 16.5q0 24 21 53q70 125 235 125q104 0 176 -56t72 -147q0 -79 -56 -138.5t-169 -119.5l-76 -41 q-124 -66 -181 -146.5t-58 -201.5h417q13 0 28.5 3t20.5 3q11 0 19 -6t8 -16q0 -12 -9.5 -19.5t-21.5 -7.5h-475q-33 0 -33 41z" />
<glyph unicode="&#xbe;" horiz-adv-x="1585" d="M41 748q0 10 7 17t18 7q20 0 26 -22q13 -53 78 -96.5t152 -43.5q119 0 198.5 75.5t79.5 193.5q0 96 -65.5 153.5t-172.5 57.5q-13 0 -23.5 -2.5t-16.5 -2.5q-23 0 -23 21q0 14 14 24q6 6 25 21.5t24 22.5l199 204l45 41h-346q-11 0 -27.5 -4t-21.5 -4q-25 0 -25 25 q0 10 9 16t20 6h410q30 0 30 -26q-3 -21 -28 -43l-236 -240l-31 -27q123 5 205 -62t82 -183q0 -131 -90.5 -219.5t-234.5 -88.5q-90 0 -160.5 41t-102.5 99q-18 27 -18 39zM399 18q0 11 13 27q3 6 13 18.5t17 24.5l854 1309q5 8 13 26.5t12 24.5q16 25 33 25q10 0 17 -7 t7 -18t-12 -29q-2 -4 -12 -17t-17 -24l-854 -1310q-7 -10 -15 -27.5t-11 -22.5q-13 -26 -33 -26q-10 0 -17.5 7.5t-7.5 18.5zM946 305l2 14q1 6 4.5 11.5t6 8.5t10 11.5t10.5 11.5l444 474q5 5 14.5 15.5t14 14t12 7.5t15.5 4h20q26 0 23 -29q-1 -4 -5.5 -22.5t-5.5 -28.5 l-88 -478h43q11 0 28.5 2.5t23.5 2.5q24 0 24 -23q-1 -11 -10.5 -18t-20.5 -7h-94l-35 -202l-6 -51q-1 -12 -9 -19.5t-19 -7.5t-18.5 8.5t-4.5 20.5q0 6 4.5 24t5.5 27l35 200h-401q-12 0 -18.5 8.5t-4.5 20.5zM995 319h383l92 510z" />
<glyph unicode="&#xbf;" horiz-adv-x="927" d="M-12 150q0 247 319 407q138 69 188 130.5t50 137.5q0 32 -7.5 50t-14.5 26.5t-7 16.5q0 13 9.5 21.5t21.5 8.5q23 0 39 -29.5t16 -78.5q0 -98 -57.5 -174t-208.5 -152q-149 -74 -222 -162.5t-73 -199.5q0 -127 90 -209t254 -82q145 0 249.5 83t104.5 193q0 10 -2 20.5 t-2 14.5q0 15 8.5 24t20.5 9q33 0 33 -51q0 -64 -31.5 -126t-85 -109.5t-132 -77t-165.5 -29.5q-186 0 -290.5 97t-104.5 241zM512 1245q0 25 17 41.5t42 16.5q22 0 36 -14t14 -36q0 -25 -17 -42t-43 -17q-22 0 -35.5 14.5t-13.5 36.5z" />
<glyph unicode="&#xc0;" horiz-adv-x="1263" d="M8 23q0 10 17 36l30 47l668 1270q6 12 16.5 35t14.5 31q14 28 41 28h6q29 0 37 -32q2 -9 5.5 -34.5t6.5 -41.5l258 -1253q3 -16 11 -44t9 -38q2 -14 -7.5 -24.5t-22.5 -10.5t-22 10t-11 23q-1 4 -2 17.5t-3 29t-5 30.5l-58 285h-737l-158 -301q-8 -16 -17.5 -40.5 t-12.5 -31.5q-13 -22 -33 -22q-13 0 -22 9.5t-9 21.5zM285 436h702l-184 903q-2 11 -6.5 36t-5.5 36q-28 -64 -29 -65zM602 1831q-7 23 6 33q6 12 25 12q8 -3 33 -21l43 -34l114 -88q30 -22 35 -33q9 -14 -2 -25q-3 -13 -22 -10q-9 3 -21 12q-4 2 -11.5 7t-15.5 11t-10 7 q-5 2 -69.5 47.5t-65.5 46.5q-31 24 -39 35z" />
<glyph unicode="&#xc1;" horiz-adv-x="1263" d="M8 23q0 10 17 36l30 47l668 1270q6 12 16.5 35t14.5 31q14 28 41 28h6q29 0 37 -32q2 -9 5.5 -34.5t6.5 -41.5l258 -1253q3 -16 11 -44t9 -38q2 -14 -7.5 -24.5t-22.5 -10.5t-22 10t-11 23q-1 4 -2 17.5t-3 29t-5 30.5l-58 285h-737l-158 -301q-8 -16 -17.5 -40.5 t-12.5 -31.5q-13 -22 -33 -22q-13 0 -22 9.5t-9 21.5zM285 436h702l-184 903q-2 11 -6.5 36t-5.5 36q-28 -64 -29 -65zM811 1688q0 15 18 26t37 25l121 92q11 8 25.5 20.5t19.5 16.5q10 10 25 10q11 0 20.5 -9t9.5 -22q0 -19 -20 -32l-49 -29l-127 -90l-33 -25q-8 -8 -20 -8 q-23 0 -27 25z" />
<glyph unicode="&#xc2;" horiz-adv-x="1263" d="M8 23q0 10 17 36l30 47l668 1270q6 12 16.5 35t14.5 31q14 28 41 28h6q29 0 37 -32q2 -9 5.5 -34.5t6.5 -41.5l258 -1253q3 -16 11 -44t9 -38q2 -14 -7.5 -24.5t-22.5 -10.5t-22 10t-11 23q-1 4 -2 17.5t-3 29t-5 30.5l-58 285h-737l-158 -301q-8 -16 -17.5 -40.5 t-12.5 -31.5q-13 -22 -33 -22q-13 0 -22 9.5t-9 21.5zM285 436h702l-184 903q-2 11 -6.5 36t-5.5 36q-28 -64 -29 -65zM635 1692q0 16 16 28q5 4 21.5 16.5t27.5 22.5l115 109q6 5 31 30q19 19 33 19q13 0 26 -19l23 -40l63 -99q26 -39 27 -41q12 -16 12 -26 q0 -12 -10 -21.5t-23 -9.5q-15 0 -26 22q-21 42 -27 52l-72 129l-137 -140q-6 -5 -39 -45q-13 -16 -32 -16q-10 0 -19.5 9t-9.5 20z" />
<glyph unicode="&#xc3;" horiz-adv-x="1263" d="M8 23q0 10 17 36l30 47l668 1270q6 12 16.5 35t14.5 31q14 28 41 28h6q29 0 37 -32q2 -9 5.5 -34.5t6.5 -41.5l258 -1253q3 -16 11 -44t9 -38q2 -14 -7.5 -24.5t-22.5 -10.5t-22 10t-11 23q-1 4 -2 17.5t-3 29t-5 30.5l-58 285h-737l-158 -301q-8 -16 -17.5 -40.5 t-12.5 -31.5q-13 -22 -33 -22q-13 0 -22 9.5t-9 21.5zM285 436h702l-184 903q-2 11 -6.5 36t-5.5 36q-28 -64 -29 -65zM586 1755q5 48 43.5 80.5t97.5 32.5q67 0 147 -60q47 -34 73.5 -46.5t56.5 -12.5t50.5 14.5t22.5 36.5q1 5 -1.5 13.5t-2.5 13.5q2 11 11.5 19.5 t23.5 8.5q29 0 29 -36q-5 -48 -43.5 -80.5t-98.5 -32.5q-67 0 -149 59q-49 37 -73 48.5t-54 11.5q-31 0 -52 -15t-22 -38q-1 -4 1.5 -11.5t2.5 -13.5q-2 -11 -11.5 -20t-23.5 -9t-21.5 10t-6.5 27z" />
<glyph unicode="&#xc4;" horiz-adv-x="1263" d="M8 23q0 10 17 36l30 47l668 1270q6 12 16.5 35t14.5 31q14 28 41 28h6q29 0 37 -32q2 -9 5.5 -34.5t6.5 -41.5l258 -1253q3 -16 11 -44t9 -38q2 -14 -7.5 -24.5t-22.5 -10.5t-22 10t-11 23q-1 4 -2 17.5t-3 29t-5 30.5l-58 285h-737l-158 -301q-8 -16 -17.5 -40.5 t-12.5 -31.5q-13 -22 -33 -22q-13 0 -22 9.5t-9 21.5zM285 436h702l-184 903q-2 11 -6.5 36t-5.5 36q-28 -64 -29 -65zM645 1794q0 25 17.5 42t42.5 17q22 0 35.5 -14.5t13.5 -36.5q0 -24 -17 -40.5t-41 -16.5q-22 0 -36.5 13.5t-14.5 35.5zM975 1794q0 25 17 42t42 17 q22 0 35.5 -14.5t13.5 -36.5q0 -25 -17 -41t-42 -16q-22 0 -35.5 13.5t-13.5 35.5z" />
<glyph unicode="&#xc5;" horiz-adv-x="1263" d="M10 23q0 14 17 36l28 47l668 1270l31 60q-60 12 -96.5 61.5t-36.5 116.5q0 89 63 153t152 64q76 0 126 -53.5t50 -132.5q0 -83 -50 -141t-124 -72l12 -70l258 -1253q3 -14 11.5 -42.5t8.5 -39.5q2 -14 -6.5 -24.5t-23.5 -10.5q-11 0 -20.5 10t-12.5 23q-1 4 -2 17.5 t-3 29t-5 30.5l-58 285h-737l-156 -301q-8 -15 -17.5 -40t-14.5 -32q-9 -22 -33 -22q-13 0 -21 9t-8 22zM287 436h700l-184 903l-12 72q-11 -32 -29 -65zM666 1610q0 -59 39 -99.5t98 -40.5q67 0 115.5 50t48.5 125q0 62 -39 102.5t-97 40.5q-68 0 -116.5 -51t-48.5 -127z " />
<glyph unicode="&#xc6;" horiz-adv-x="1781" d="M-51 20q0 9 8 25q3 4 19 22t24 31l920 1270l43 66q22 28 57 28h727q33 0 33 -28q0 -14 -11 -22.5t-26 -8.5q-6 0 -31.5 5t-42.5 5h-606l-107 -602h453q15 0 39 2t29 2q13 0 21.5 -8.5t8.5 -22.5q0 -12 -11 -20t-26 -8q-5 0 -28 2t-39 2h-457l-127 -711h664q17 0 44.5 5 t33.5 5q13 0 21.5 -8.5t8.5 -21.5t-11.5 -21t-25.5 -8h-766q-15 0 -23 12t-5 27q1 8 8 34.5t10 43.5l47 270h-553l-223 -311q-36 -58 -39 -62q-16 -22 -33 -22q-12 0 -20 8.5t-8 19.5zM307 436h529l176 987q-17 -29 -76 -112z" />
<glyph unicode="&#xc7;" horiz-adv-x="1394" d="M186 608q0 186 55 350t149 279.5t223 182.5t272 67q151 0 266.5 -61.5t177.5 -172.5q23 -41 23 -57q0 -11 -9 -21t-22 -10q-11 0 -18 7.5t-16 29.5t-13 31q-54 97 -156.5 151t-232.5 54q-181 0 -329.5 -112t-231 -300.5t-82.5 -409.5q0 -167 56 -297.5t170.5 -208 t272.5 -77.5q139 0 260 65.5t183 180.5l9 18t9 16t7.5 10.5t9.5 8.5t12 2q12 0 20.5 -9.5t8.5 -21.5q0 -19 -25 -55q-71 -118 -195.5 -188t-277.5 -76q-22 -71 -76 -111q15 3 39 0q73 -3 122.5 -48.5t49.5 -113.5q0 -93 -65 -151t-160 -58q-127 0 -197 84q-14 14 -14 29 q0 10 8 19.5t20 9.5q17 0 29 -21q34 -76 154 -76q67 0 121.5 44t54.5 120q0 60 -43.5 92.5t-104.5 32.5q-28 0 -46.5 -6t-26.5 -6q-12 0 -19.5 6.5t-7.5 17.5q0 19 29 31q58 28 88 103q-161 5 -282.5 86.5t-185 221t-63.5 318.5z" />
<glyph unicode="&#xc8;" d="M186 39q1 7 8.5 34t10.5 44l219 1231q4 20 6 49t2 30q8 35 37 35h705q14 0 22.5 -7.5t7.5 -20.5q0 -14 -11 -22.5t-26 -8.5q-6 0 -31 5t-42 5h-605l-106 -600h451q16 0 40 2t29 2q13 0 22 -8.5t9 -20.5q-1 -13 -12 -21.5t-25 -8.5q-5 0 -29 2t-39 2h-456l-127 -713h661 q19 0 46 5t32 5q14 0 23.5 -8.5t9.5 -21.5q-1 -13 -13 -21t-26 -8h-764q-17 0 -24.5 11.5t-4.5 27.5zM621 1831q-7 23 6 33q6 12 24 12q8 -3 33 -21l43 -34l115 -88q30 -22 35 -33q8 -14 -3 -25q-3 -13 -22 -10q-9 3 -21 12q-4 2 -11.5 7t-15 11t-9.5 7q-5 2 -70 47.5 t-66 46.5q-29 22 -38 35z" />
<glyph unicode="&#xc9;" d="M186 39q1 7 8.5 34t10.5 44l219 1231q4 20 6 49t2 30q8 35 37 35h705q14 0 22.5 -7.5t7.5 -20.5q0 -14 -11 -22.5t-26 -8.5q-6 0 -31 5t-42 5h-605l-106 -600h451q16 0 40 2t29 2q13 0 22 -8.5t9 -20.5q-1 -13 -12 -21.5t-25 -8.5q-5 0 -29 2t-39 2h-456l-127 -713h661 q19 0 46 5t32 5q14 0 23.5 -8.5t9.5 -21.5q-1 -13 -13 -21t-26 -8h-764q-17 0 -24.5 11.5t-4.5 27.5zM831 1688q0 15 19 26q18 11 37 25l121 92q11 8 25.5 20.5t19.5 16.5q10 10 24 10q11 0 21 -9t10 -22q0 -18 -21 -32l-49 -29l-127 -90l-32 -25q-8 -8 -21 -8q-23 0 -27 25 z" />
<glyph unicode="&#xca;" d="M186 39q1 7 8.5 34t10.5 44l219 1231q4 20 6 49t2 30q8 35 37 35h705q14 0 22.5 -7.5t7.5 -20.5q0 -14 -11 -22.5t-26 -8.5q-6 0 -31 5t-42 5h-605l-106 -600h451q16 0 40 2t29 2q13 0 22 -8.5t9 -20.5q-1 -13 -12 -21.5t-25 -8.5q-5 0 -29 2t-39 2h-456l-127 -713h661 q19 0 46 5t32 5q14 0 23.5 -8.5t9.5 -21.5q-1 -13 -13 -21t-26 -8h-764q-17 0 -24.5 11.5t-4.5 27.5zM655 1692q0 15 17 28q5 4 21.5 16.5t27.5 22.5l115 109q5 4 10.5 9.5t11.5 12t8 8.5q19 19 33 19t27 -19l22 -40l64 -99q22 -33 26 -41q13 -17 13 -26q0 -12 -10 -21.5 t-23 -9.5q-16 0 -27 22q-2 3 -6.5 13t-9.5 20t-10 19l-72 129l-137 -140q-6 -5 -39 -45q-13 -16 -33 -16q-10 0 -19.5 9t-9.5 20z" />
<glyph unicode="&#xcb;" d="M186 39q1 7 8.5 34t10.5 44l219 1231q4 20 6 49t2 30q8 35 37 35h705q14 0 22.5 -7.5t7.5 -20.5q0 -14 -11 -22.5t-26 -8.5q-6 0 -31 5t-42 5h-605l-106 -600h451q16 0 40 2t29 2q13 0 22 -8.5t9 -20.5q-1 -13 -12 -21.5t-25 -8.5q-5 0 -29 2t-39 2h-456l-127 -713h661 q19 0 46 5t32 5q14 0 23.5 -8.5t9.5 -21.5q-1 -13 -13 -21t-26 -8h-764q-17 0 -24.5 11.5t-4.5 27.5zM664 1794q0 25 17 42t42 17q22 0 35.5 -14.5t13.5 -36.5q0 -24 -16.5 -40.5t-40.5 -16.5q-22 0 -36.5 13.5t-14.5 35.5zM993 1794q0 25 17.5 42t42.5 17q22 0 35.5 -14.5 t13.5 -36.5q0 -24 -17.5 -40.5t-42.5 -16.5q-22 0 -35.5 13.5t-13.5 35.5z" />
<glyph unicode="&#xcc;" horiz-adv-x="634" d="M201 31q1 9 8 36.5t10 43.5l223 1245q3 14 4.5 29.5t2.5 29.5t2 19q7 36 34 36q15 0 23 -11t6 -27q-1 -5 -4.5 -20l-7 -30t-6.5 -30l-224 -1246q-2 -16 -4.5 -44.5t-3.5 -32.5q-3 -16 -13 -26.5t-24 -10.5q-13 0 -21 12t-5 27zM287 1831q-7 23 6 33q6 12 24 12 q8 -3 33 -21l43 -34l115 -88q30 -22 35 -33q9 -14 -2 -25q-3 -13 -23 -10q-7 2 -20 12q-4 2 -11.5 7t-15.5 11t-10 7q-5 2 -69.5 47.5t-65.5 46.5q-31 24 -39 35z" />
<glyph unicode="&#xcd;" horiz-adv-x="634" d="M201 31q1 9 8 36.5t10 43.5l223 1245q3 14 4.5 29.5t2.5 29.5t2 19q7 36 34 36q15 0 23 -11t6 -27q-1 -5 -4.5 -20l-7 -30t-6.5 -30l-224 -1246q-2 -16 -4.5 -44.5t-3.5 -32.5q-3 -16 -13 -26.5t-24 -10.5q-13 0 -21 12t-5 27zM496 1688q0 15 18 26t37 25l121 92 q11 8 25.5 20.5t19.5 16.5q10 10 24 10q11 0 21 -9t10 -22q0 -19 -20 -32l-50 -29l-127 -90l-32 -25q-8 -8 -21 -8q-22 0 -26 25z" />
<glyph unicode="&#xce;" horiz-adv-x="634" d="M201 31q1 9 8 36.5t10 43.5l223 1245q3 14 4.5 29.5t2.5 29.5t2 19q7 36 34 36q15 0 23 -11t6 -27q-1 -5 -4.5 -20l-7 -30t-6.5 -30l-224 -1246q-2 -16 -4.5 -44.5t-3.5 -32.5q-3 -16 -13 -26.5t-24 -10.5q-13 0 -21 12t-5 27zM319 1692q0 15 17 28q5 4 21.5 16.5 t27.5 22.5l115 109q5 4 10.5 9.5t11.5 12t8 8.5q19 19 33 19t27 -19l22 -40l64 -99q22 -33 26 -41q13 -17 13 -26q0 -12 -10 -21.5t-23 -9.5q-16 0 -27 22q-2 3 -6.5 13t-9.5 20t-10 19l-72 129l-137 -140q-6 -5 -39 -45q-13 -16 -33 -16q-10 0 -19.5 9t-9.5 20z" />
<glyph unicode="&#xcf;" horiz-adv-x="634" d="M201 31q1 9 8 36.5t10 43.5l223 1245q3 14 4.5 29.5t2.5 29.5t2 19q7 36 34 36q15 0 23 -11t6 -27q-1 -5 -4.5 -20l-7 -30t-6.5 -30l-224 -1246q-2 -16 -4.5 -44.5t-3.5 -32.5q-3 -16 -13 -26.5t-24 -10.5q-13 0 -21 12t-5 27zM319 1794q0 25 17.5 42t42.5 17 q22 0 35.5 -14.5t13.5 -36.5q0 -24 -16.5 -40.5t-40.5 -16.5q-22 0 -37 14t-15 35zM649 1794q0 25 17.5 42t42.5 17q22 0 35.5 -14.5t13.5 -36.5q0 -24 -17.5 -40.5t-42.5 -16.5q-22 0 -35.5 13.5t-13.5 35.5z" />
<glyph unicode="&#xd0;" horiz-adv-x="1482" d="M106 729q1 13 12.5 22t26.5 9q6 0 27.5 -3t40.5 -3h137l107 594q4 20 6 49t2 30q7 35 37 35h307q256 0 395 -151t139 -432q0 -137 -31 -266t-92.5 -240t-146 -194.5t-200 -131t-246.5 -47.5h-379q-17 0 -24.5 11.5t-4.5 27.5q1 7 8.5 34t10.5 44l104 585h-133 q-19 0 -41.5 -2t-28.5 -2q-14 0 -23.5 8.5t-9.5 22.5zM276 49h351q120 0 226 45.5t184.5 125t135.5 184t86 226.5t29 249q0 255 -124 394.5t-351 139.5h-291l-119 -659h193q19 0 40.5 3t27.5 3q15 0 25 -9t9 -22q0 -14 -11.5 -22.5t-27.5 -8.5q-6 0 -27 2t-40 2h-199z" />
<glyph unicode="&#xd1;" horiz-adv-x="1511" d="M186 31q1 9 8.5 36t10.5 44l221 1237q4 20 6 49t2 30q8 35 37 35q26 0 43 -41l549 -1224l49 -117q0 28 16 106l205 1170q1 4 10 78q2 16 11 26t24 10t22.5 -11.5t4.5 -26.5q-1 -9 -8.5 -36t-10.5 -44l-221 -1246l-10 -77q-2 -16 -11.5 -26.5t-23.5 -10.5q-21 0 -30 22 l-33 76l-580 1299q0 -21 -12 -95l-209 -1188q-2 -16 -4.5 -44.5t-3.5 -32.5q-7 -37 -35 -37q-15 0 -22.5 12t-4.5 27zM707 1755q5 48 43.5 80.5t97.5 32.5q67 0 147 -60q47 -35 73 -47t56 -12q31 0 51.5 14.5t22.5 36.5q1 5 -1.5 13.5t-2.5 13.5q2 11 11.5 19.5t23.5 8.5 q28 0 28 -36q-5 -48 -43.5 -80.5t-97.5 -32.5q-67 0 -149 59q-49 37 -73 48.5t-54 11.5q-31 0 -52 -15t-22 -38q-1 -4 1.5 -11.5t2.5 -13.5q-2 -11 -11.5 -20t-23.5 -9t-21.5 10t-6.5 27z" />
<glyph unicode="&#xd2;" horiz-adv-x="1579" d="M186 608q0 185 55 348.5t148.5 279.5t223 183.5t274.5 67.5q172 0 298 -83t189.5 -224t63.5 -322q0 -240 -91 -441t-251.5 -318t-354.5 -117q-172 0 -299 82.5t-191.5 223.5t-64.5 320zM242 610q0 -121 32 -225t92.5 -183.5t156.5 -125t216 -45.5q181 0 329.5 113.5 t231 302t82.5 409.5q0 167 -55.5 297t-169.5 207.5t-272 77.5q-181 0 -329 -112t-231 -301.5t-83 -414.5zM737 1831q-7 23 6 33q6 12 25 12q8 -3 33 -21l43 -34l114 -88q30 -22 35 -33q9 -14 -2 -25q-3 -13 -22 -10q-9 3 -21 12q-4 2 -11.5 7t-15.5 11t-10 7 q-5 2 -69.5 47.5t-65.5 46.5q-31 24 -39 35z" />
<glyph unicode="&#xd3;" horiz-adv-x="1579" d="M186 608q0 185 55 348.5t148.5 279.5t223 183.5t274.5 67.5q172 0 298 -83t189.5 -224t63.5 -322q0 -240 -91 -441t-251.5 -318t-354.5 -117q-172 0 -299 82.5t-191.5 223.5t-64.5 320zM242 610q0 -121 32 -225t92.5 -183.5t156.5 -125t216 -45.5q181 0 329.5 113.5 t231 302t82.5 409.5q0 167 -55.5 297t-169.5 207.5t-272 77.5q-181 0 -329 -112t-231 -301.5t-83 -414.5zM948 1688q0 15 19 26q18 11 37 25l120 92q11 8 25.5 20.5t19.5 16.5q10 10 25 10q11 0 21 -9t10 -22q0 -18 -21 -32l-49 -29l-127 -90l-33 -25q-8 -8 -20 -8 q-23 0 -27 25z" />
<glyph unicode="&#xd4;" horiz-adv-x="1579" d="M186 608q0 185 55 348.5t148.5 279.5t223 183.5t274.5 67.5q172 0 298 -83t189.5 -224t63.5 -322q0 -240 -91 -441t-251.5 -318t-354.5 -117q-172 0 -299 82.5t-191.5 223.5t-64.5 320zM242 610q0 -121 32 -225t92.5 -183.5t156.5 -125t216 -45.5q181 0 329.5 113.5 t231 302t82.5 409.5q0 167 -55.5 297t-169.5 207.5t-272 77.5q-181 0 -329 -112t-231 -301.5t-83 -414.5zM774 1692q0 15 17 28q5 4 21.5 16.5t27.5 22.5l114 109q6 5 31 30q19 19 33 19q13 0 26 -19l23 -40l63 -99q26 -39 27 -41q12 -16 12 -26q0 -12 -9.5 -21.5 t-22.5 -9.5q-16 0 -27 22q-21 42 -27 52l-71 129l-138 -140q-9 -8 -16 -16t-13 -17t-9 -12q-13 -16 -33 -16q-10 0 -19.5 9t-9.5 20z" />
<glyph unicode="&#xd5;" horiz-adv-x="1579" d="M186 608q0 185 55 348.5t148.5 279.5t223 183.5t274.5 67.5q172 0 298 -83t189.5 -224t63.5 -322q0 -240 -91 -441t-251.5 -318t-354.5 -117q-172 0 -299 82.5t-191.5 223.5t-64.5 320zM242 610q0 -121 32 -225t92.5 -183.5t156.5 -125t216 -45.5q181 0 329.5 113.5 t231 302t82.5 409.5q0 167 -55.5 297t-169.5 207.5t-272 77.5q-181 0 -329 -112t-231 -301.5t-83 -414.5zM723 1755q5 48 43.5 80.5t97.5 32.5q68 0 148 -60q47 -35 73 -47t56 -12t50.5 14.5t22.5 36.5q1 5 -1.5 13.5t-2.5 13.5q2 11 11.5 19.5t23.5 8.5q29 0 29 -36 q-5 -48 -43.5 -80.5t-97.5 -32.5q-68 0 -150 59q-49 37 -73 48.5t-54 11.5q-31 0 -52 -15t-22 -38q-1 -4 1.5 -11.5t2.5 -13.5q-2 -12 -11 -20.5t-23 -8.5t-22 10t-7 27z" />
<glyph unicode="&#xd6;" horiz-adv-x="1579" d="M186 608q0 185 55 348.5t148.5 279.5t223 183.5t274.5 67.5q172 0 298 -83t189.5 -224t63.5 -322q0 -240 -91 -441t-251.5 -318t-354.5 -117q-172 0 -299 82.5t-191.5 223.5t-64.5 320zM242 610q0 -121 32 -225t92.5 -183.5t156.5 -125t216 -45.5q181 0 329.5 113.5 t231 302t82.5 409.5q0 167 -55.5 297t-169.5 207.5t-272 77.5q-181 0 -329 -112t-231 -301.5t-83 -414.5zM782 1794q0 25 17.5 42t42.5 17q22 0 35.5 -14.5t13.5 -36.5q0 -24 -16.5 -40.5t-40.5 -16.5q-22 0 -37 14t-15 35zM1112 1794q0 25 17 42t42 17q22 0 36 -14.5 t14 -36.5q0 -24 -17.5 -40.5t-42.5 -16.5q-22 0 -35.5 13.5t-13.5 35.5z" />
<glyph unicode="&#xd7;" horiz-adv-x="948" d="M131 205q0 17 14 31q2 2 21 18.5t31 30.5l252 266l-144 264q-8 15 -21.5 35t-15.5 24q-8 20 -8 23q0 11 9 21t22 10q19 0 28 -19q6 -9 17 -35t16 -36l135 -254l248 268q9 10 18 21.5t17 22t10 13.5q19 19 29 19q12 0 21.5 -8.5t9.5 -20.5q0 -16 -15 -31q-1 -1 -20 -18 t-31 -31l-262 -278l139 -252q11 -20 39 -62q6 -12 6 -22q0 -11 -8 -20t-20 -9q-23 0 -31 19q-3 6 -13.5 29.5t-19.5 39.5l-133 244l-235 -256q-5 -6 -46 -57q-19 -19 -28 -19q-12 0 -21.5 8.5t-9.5 20.5z" />
<glyph unicode="&#xd8;" horiz-adv-x="1583" d="M182 23q0 11 13 24q4 4 23 20.5t32 30.5l76 84q-129 175 -129 428q0 184 54.5 347.5t148.5 279t223 183t274 67.5q141 0 251 -57t183 -160l115 129l41 49q18 22 33 22q12 0 21 -8.5t9 -21.5t-12 -25q-4 -3 -16 -12.5t-21 -18.5t-18 -20l-125 -135q92 -154 92 -371 q0 -241 -91 -441.5t-251.5 -317.5t-355.5 -117q-249 0 -394 161l-73 -80q-6 -7 -19 -23.5t-22 -25.5q-15 -22 -33 -22q-12 0 -20.5 9t-8.5 22zM252 610q0 -242 108 -391l936 1014q-139 205 -403 205q-180 0 -327.5 -112t-230.5 -302t-83 -414zM391 180q136 -149 361 -149 q181 0 329.5 113.5t231 302t82.5 409.5q0 193 -74 332z" />
<glyph unicode="&#xd9;" horiz-adv-x="1474" d="M244 594l133 762q4 19 6 48t2 30q7 36 37 36q14 0 22 -11.5t5 -26.5q-1 -9 -8.5 -36t-10.5 -44l-133 -762q-43 -246 64 -401.5t333 -155.5q187 0 311 124.5t166 360.5l152 838q4 19 6 48t2 30q7 36 37 36q14 0 22 -11.5t5 -26.5q-1 -9 -8.5 -36t-10.5 -44l-151 -844 q-44 -249 -180.5 -387.5t-352.5 -138.5q-245 0 -370 169.5t-78 442.5zM676 1831q-7 23 6 33q6 12 25 12q6 -2 32 -21l43 -34l115 -88q30 -22 35 -33q9 -14 -2 -25q-3 -13 -23 -10q-7 2 -20 12q-4 2 -11.5 7t-15.5 11t-10 7q-5 2 -69.5 47.5t-65.5 46.5q-31 24 -39 35z" />
<glyph unicode="&#xda;" horiz-adv-x="1474" d="M244 594l133 762q4 19 6 48t2 30q7 36 37 36q14 0 22 -11.5t5 -26.5q-1 -9 -8.5 -36t-10.5 -44l-133 -762q-43 -246 64 -401.5t333 -155.5q187 0 311 124.5t166 360.5l152 838q4 19 6 48t2 30q7 36 37 36q14 0 22 -11.5t5 -26.5q-1 -9 -8.5 -36t-10.5 -44l-151 -844 q-44 -249 -180.5 -387.5t-352.5 -138.5q-245 0 -370 169.5t-78 442.5zM885 1688q0 15 18 26t37 25l121 92q11 8 25.5 20.5t19.5 16.5q10 10 24 10q11 0 21 -9t10 -22q0 -19 -20 -32l-49 -29l-127 -90l-33 -25q-8 -8 -21 -8q-22 0 -26 25z" />
<glyph unicode="&#xdb;" horiz-adv-x="1474" d="M244 594l133 762q4 19 6 48t2 30q7 36 37 36q14 0 22 -11.5t5 -26.5q-1 -9 -8.5 -36t-10.5 -44l-133 -762q-43 -246 64 -401.5t333 -155.5q187 0 311 124.5t166 360.5l152 838q4 19 6 48t2 30q7 36 37 36q14 0 22 -11.5t5 -26.5q-1 -9 -8.5 -36t-10.5 -44l-151 -844 q-44 -249 -180.5 -387.5t-352.5 -138.5q-245 0 -370 169.5t-78 442.5zM709 1692q0 16 16 28q5 4 21.5 16.5t27.5 22.5l115 109q6 5 31 30q19 19 32 19q14 0 27 -19l22 -40l64 -99q26 -39 27 -41q12 -16 12 -26q0 -12 -10 -21.5t-23 -9.5q-16 0 -27 22q-2 3 -6.5 13t-9.5 20 t-10 19l-72 129l-137 -140q-6 -5 -39 -45q-13 -16 -33 -16q-10 0 -19 9t-9 20z" />
<glyph unicode="&#xdc;" horiz-adv-x="1474" d="M244 594l133 762q4 19 6 48t2 30q7 36 37 36q14 0 22 -11.5t5 -26.5q-1 -9 -8.5 -36t-10.5 -44l-133 -762q-43 -246 64 -401.5t333 -155.5q187 0 311 124.5t166 360.5l152 838q4 19 6 48t2 30q7 36 37 36q14 0 22 -11.5t5 -26.5q-1 -9 -8.5 -36t-10.5 -44l-151 -844 q-44 -249 -180.5 -387.5t-352.5 -138.5q-245 0 -370 169.5t-78 442.5zM719 1794q0 25 17 42t42 17q22 0 35.5 -14.5t13.5 -36.5q0 -24 -16.5 -40.5t-40.5 -16.5q-22 0 -36.5 13.5t-14.5 35.5zM1049 1794q0 25 17 42t42 17q22 0 35.5 -14.5t13.5 -36.5q0 -25 -17 -41t-42 -16 q-22 0 -35.5 13.5t-13.5 35.5z" />
<glyph unicode="&#xdd;" horiz-adv-x="1071" d="M180 1440q0 11 8.5 20.5t22.5 9.5q22 0 31 -28q3 -8 10 -33.5t12 -40.5l283 -758l534 774q10 15 22 38.5t13 25.5q14 22 33 22q12 0 20.5 -9t8.5 -21q0 -13 -13 -29l-45 -59l-555 -799l-78 -447q-1 -10 -4.5 -39t-5.5 -38q-2 -16 -11.5 -26.5t-23.5 -10.5q-15 0 -22 11.5 t-4 27.5q1 9 8 36.5t10 43.5l78 444l-297 793q-4 15 -10.5 28.5t-12 23.5t-6.5 13q-6 15 -6 27zM711 1688q0 15 18 26t37 25l121 92q11 8 25.5 20.5t19.5 16.5q10 10 24 10q11 0 21 -9t10 -22q0 -19 -20 -32l-49 -29l-127 -90l-33 -25q-8 -8 -21 -8q-22 0 -26 25z" />
<glyph unicode="&#xde;" horiz-adv-x="1257" d="M184 31q1 6 8.5 33t10.5 45l225 1263q3 16 5.5 43t4.5 35q2 14 11.5 24.5t23.5 10.5q13 0 21.5 -12t5.5 -27q-1 -6 -8.5 -33t-10.5 -45l-39 -211h326q193 1 298 -96t105 -262q0 -207 -137.5 -332t-347.5 -125h-389l-43 -238q-2 -16 -4.5 -44.5t-3.5 -32.5 q-3 -14 -12.5 -24.5t-22.5 -10.5t-21.5 12t-5.5 27zM305 391h385q185 0 305.5 113t120.5 295q0 141 -91 225t-251 84h-340z" />
<glyph unicode="&#xdf;" horiz-adv-x="1179" d="M51 -455q1 7 8.5 34t10.5 44l256 1442q33 185 130.5 299.5t258.5 114.5q130 0 214.5 -92t84.5 -226q0 -131 -73.5 -227.5t-174.5 -130.5q121 -32 192.5 -132t71.5 -227q0 -86 -33 -168.5t-91 -147.5t-146 -104.5t-191 -39.5q-117 0 -196 51q-31 21 -31 39q0 11 9 19.5 t22 8.5q8 -1 14 -4.5t14 -11t17 -12.5q55 -41 153 -41q80 0 153 30t129 83t89 131t33 169q0 126 -70.5 214t-177.5 110q-14 3 -25.5 3.5t-24.5 -0.5t-18 -1q-45 0 -45 29q0 12 11.5 19t27.5 7q5 0 15.5 -1.5t21 -1.5t21.5 3q42 10 84 35.5t80 65t62 99.5t24 130 q0 115 -67.5 194t-180.5 79q-136 0 -222 -103t-114 -268l-254 -1438q-3 -13 -5 -28.5t-3 -31.5t-2 -20q-2 -14 -12 -23.5t-23 -9.5q-14 0 -22 11t-5 26z" />
<glyph unicode="&#xe0;" horiz-adv-x="1144" d="M156 422q0 84 20.5 167t61.5 157t98 130.5t135.5 89.5t167.5 33t165.5 -43.5t125.5 -115.5l16 96q3 14 12.5 23.5t22.5 9.5q14 0 23 -11t6 -26q-1 -7 -11.5 -33.5t-13.5 -44.5l-104 -584q-21 -128 -15 -173.5t39 -45.5q8 0 16 4t17 4q12 0 20.5 -9t8.5 -21q0 -15 -13 -26 t-36 -11q-48 0 -75.5 37t-27.5 108q-43 -78 -119 -116.5t-157 -38.5q-175 0 -279 125.5t-104 314.5zM211 426q0 -174 89 -285.5t243 -111.5q102 0 185 70.5t108 211.5l84 475q-41 75 -115 119.5t-168 44.5q-95 0 -176.5 -45t-135 -119.5t-84 -168t-30.5 -191.5zM418 1458 q0 12 9.5 21.5t21.5 9.5q14 0 30 -16l41 -43l178 -164q11 -11 35 -29q15 -11 15 -25q0 -11 -8.5 -18.5t-20.5 -7.5t-25 10l-28 31l-185 166q-10 9 -26.5 21.5t-22.5 17.5q-14 11 -14 26z" />
<glyph unicode="&#xe1;" horiz-adv-x="1144" d="M156 422q0 84 20.5 167t61.5 157t98 130.5t135.5 89.5t167.5 33t165.5 -43.5t125.5 -115.5l16 96q3 14 12.5 23.5t22.5 9.5q14 0 23 -11t6 -26q-1 -7 -11.5 -33.5t-13.5 -44.5l-104 -584q-21 -128 -15 -173.5t39 -45.5q8 0 16 4t17 4q12 0 20.5 -9t8.5 -21q0 -15 -13 -26 t-36 -11q-48 0 -75.5 37t-27.5 108q-43 -78 -119 -116.5t-157 -38.5q-175 0 -279 125.5t-104 314.5zM211 426q0 -174 89 -285.5t243 -111.5q102 0 185 70.5t108 211.5l84 475q-41 75 -115 119.5t-168 44.5q-95 0 -176.5 -45t-135 -119.5t-84 -168t-30.5 -191.5zM686 1212 q0 14 14 25q4 4 16.5 14t18.5 15l178 166q6 6 13 13.5t11.5 11.5t9 8.5l7.5 7.5q14 16 31 16q12 0 21.5 -9.5t9.5 -21.5t-15 -24q-7 -7 -24 -19.5t-25 -19.5l-184 -168l-29 -29q-10 -10 -24 -10q-12 0 -20.5 7.5t-8.5 16.5z" />
<glyph unicode="&#xe2;" horiz-adv-x="1144" d="M156 422q0 84 20.5 167t61.5 157t98 130.5t135.5 89.5t167.5 33t165.5 -43.5t125.5 -115.5l16 96q3 14 12.5 23.5t22.5 9.5q14 0 23 -11t6 -26q-1 -7 -11.5 -33.5t-13.5 -44.5l-104 -584q-21 -128 -15 -173.5t39 -45.5q8 0 16 4t17 4q12 0 20.5 -9t8.5 -21q0 -15 -13 -26 t-36 -11q-48 0 -75.5 37t-27.5 108q-43 -78 -119 -116.5t-157 -38.5q-175 0 -279 125.5t-104 314.5zM211 426q0 -174 89 -285.5t243 -111.5q102 0 185 70.5t108 211.5l84 475q-41 75 -115 119.5t-168 44.5q-95 0 -176.5 -45t-135 -119.5t-84 -168t-30.5 -191.5zM473 1225 q0 12 16 28q39 27 50 39l163 156l31 33q16 16 31 16q17 0 29 -18q4 -6 10.5 -19.5t11.5 -21.5l90 -146q6 -11 15.5 -24.5t11.5 -18.5q12 -16 12 -24q0 -13 -9 -22t-22 -9q-17 0 -28 23l-25 51l-100 174l-187 -185q-3 -3 -38 -45q-18 -18 -33 -18q-10 0 -19.5 9t-9.5 22z" />
<glyph unicode="&#xe3;" horiz-adv-x="1144" d="M156 422q0 84 20.5 167t61.5 157t98 130.5t135.5 89.5t167.5 33t165.5 -43.5t125.5 -115.5l16 96q3 14 12.5 23.5t22.5 9.5q14 0 23 -11t6 -26q-1 -7 -11.5 -33.5t-13.5 -44.5l-104 -584q-21 -128 -15 -173.5t39 -45.5q8 0 16 4t17 4q12 0 20.5 -9t8.5 -21q0 -15 -13 -26 t-36 -11q-48 0 -75.5 37t-27.5 108q-43 -78 -119 -116.5t-157 -38.5q-175 0 -279 125.5t-104 314.5zM211 426q0 -174 89 -285.5t243 -111.5q102 0 185 70.5t108 211.5l84 475q-41 75 -115 119.5t-168 44.5q-95 0 -176.5 -45t-135 -119.5t-84 -168t-30.5 -191.5zM467 1270 q5 48 43.5 81t97.5 33q70 0 148 -61q47 -35 73 -47t56 -12q31 0 51 15t22 38q1 4 -1.5 11t-2.5 13q2 12 11.5 21.5t23.5 9.5q13 0 21 -11t8 -28q-5 -46 -43.5 -79t-97.5 -33q-69 0 -150 61q-47 35 -71.5 46t-55.5 11t-51.5 -14.5t-22.5 -36.5q-1 -5 1.5 -12.5t2.5 -13.5 q-2 -12 -11 -20.5t-23 -8.5q-13 0 -22 11t-7 26z" />
<glyph unicode="&#xe4;" horiz-adv-x="1144" d="M156 422q0 84 20.5 167t61.5 157t98 130.5t135.5 89.5t167.5 33t165.5 -43.5t125.5 -115.5l16 96q3 14 12.5 23.5t22.5 9.5q14 0 23 -11t6 -26q-1 -7 -11.5 -33.5t-13.5 -44.5l-104 -584q-21 -128 -15 -173.5t39 -45.5q8 0 16 4t17 4q12 0 20.5 -9t8.5 -21q0 -15 -13 -26 t-36 -11q-48 0 -75.5 37t-27.5 108q-43 -78 -119 -116.5t-157 -38.5q-175 0 -279 125.5t-104 314.5zM211 426q0 -174 89 -285.5t243 -111.5q102 0 185 70.5t108 211.5l84 475q-41 75 -115 119.5t-168 44.5q-95 0 -176.5 -45t-135 -119.5t-84 -168t-30.5 -191.5zM522 1296 q0 25 17.5 42.5t42.5 17.5q22 0 36.5 -14.5t14.5 -36.5q0 -24 -18 -41t-42 -17q-22 0 -36.5 13.5t-14.5 35.5zM854 1296q0 25 17 42.5t42 17.5q22 0 36 -14.5t14 -36.5q0 -25 -17.5 -41.5t-42.5 -16.5q-22 0 -35.5 13.5t-13.5 35.5z" />
<glyph unicode="&#xe5;" horiz-adv-x="1144" d="M156 422q0 84 20.5 167t61.5 157t98 130.5t135.5 89.5t167.5 33t165.5 -43.5t125.5 -115.5l16 96q3 14 12.5 23.5t22.5 9.5q14 0 23 -11t6 -26q-1 -7 -11.5 -33.5t-13.5 -44.5l-104 -584q-21 -128 -15 -173.5t39 -45.5q8 0 16 4t17 4q12 0 20.5 -9t8.5 -21q0 -15 -13 -26 t-36 -11q-48 0 -75.5 37t-27.5 108q-43 -78 -119 -116.5t-157 -38.5q-175 0 -279 125.5t-104 314.5zM211 426q0 -174 89 -285.5t243 -111.5q102 0 185 70.5t108 211.5l84 475q-41 75 -115 119.5t-168 44.5q-95 0 -176.5 -45t-135 -119.5t-84 -168t-30.5 -191.5zM559 1391 q0 91 63 154t152 63q76 0 126 -53t50 -132q0 -93 -63 -156t-150 -63q-76 0 -127 54t-51 133zM606 1389q0 -60 38.5 -101t96.5 -41q68 0 116 50t48 126q0 61 -38.5 102.5t-96.5 41.5q-67 0 -115.5 -52t-48.5 -126z" />
<glyph unicode="&#xe6;" horiz-adv-x="1630" d="M86 262q0 137 101 219t284 97q134 13 201 51t67 116q0 90 -68 148.5t-177 58.5q-81 0 -140.5 -34.5t-83.5 -90.5q-3 -8 -7 -22t-6.5 -20t-8.5 -11.5t-15 -5.5q-13 0 -21.5 9.5t-8.5 21.5q3 31 22 63q37 65 107.5 101t163.5 36q121 0 200 -62.5t90 -164.5q69 105 171 166 t227 61q140 0 225.5 -77.5t85.5 -186.5q0 -125 -118 -208t-316 -83q-165 0 -322 45q-2 -16 -2 -49q0 -204 98.5 -307.5t268.5 -103.5q84 0 157.5 34.5t118.5 98.5q4 6 9.5 15.5t9 14.5t8.5 10.5t9.5 8t10.5 2.5q13 0 21 -9t8 -22q0 -16 -22 -45q-58 -75 -147 -115t-185 -40 q-101 0 -186.5 37t-141.5 110q-64 -68 -152.5 -107.5t-189.5 -39.5q-156 0 -251 78t-95 202zM141 264q0 -104 81 -169.5t216 -65.5q86 0 168.5 34.5t143.5 102.5q-66 113 -66 272q0 80 25 160q-35 -30 -91 -45t-147 -23q-167 -18 -248.5 -87t-81.5 -179zM745 535 q152 -46 312 -46q171 0 278 70.5t107 177.5q0 88 -69.5 150.5t-186.5 62.5q-166 0 -288.5 -120.5t-152.5 -294.5z" />
<glyph unicode="&#xe7;" horiz-adv-x="1097" d="M156 420q0 155 62.5 287t176.5 212t254 80q248 0 340 -208q8 -20 8 -37q0 -9 -8 -19t-20 -10q-7 0 -12 2.5t-9 9t-6 11t-6 16.5l-6 18q-34 79 -107.5 123.5t-173.5 44.5q-126 0 -227.5 -75t-156 -196t-54.5 -261q0 -170 94 -279.5t256 -109.5q87 0 161.5 36.5 t121.5 104.5q4 6 9.5 15.5t9 14.5t8.5 10.5t9.5 8t10.5 2.5q13 0 21 -9t8 -22q0 -14 -23 -45q-61 -82 -150 -122.5t-190 -40.5h-14q-22 -65 -74 -103q15 3 39 0q73 -3 122.5 -48.5t49.5 -113.5q0 -93 -65 -151t-160 -58q-127 0 -197 84q-14 14 -14 29q0 10 8 19.5t20 9.5 q17 0 29 -21q33 -75 154 -75q67 0 121.5 43.5t54.5 119.5q0 60 -43.5 92.5t-104.5 32.5q-28 0 -46.5 -6t-26.5 -6q-12 0 -19.5 7t-7.5 18q0 18 29 30q61 31 86 101q-159 21 -250.5 142.5t-91.5 291.5z" />
<glyph unicode="&#xe8;" horiz-adv-x="1118" d="M156 438q0 103 37.5 204t103.5 180t163 128t208 49q138 0 223.5 -76t85.5 -184q0 -129 -115.5 -213t-308.5 -84q-167 0 -340 50q-4 -32 -4 -52q0 -192 104.5 -301.5t272.5 -109.5q84 0 157.5 34.5t118.5 98.5q4 6 9.5 15.5t9 14.5t8.5 10.5t9.5 8t10.5 2.5 q12 0 20.5 -9.5t8.5 -21.5q0 -14 -23 -45q-57 -76 -145.5 -115.5t-185.5 -39.5q-86 0 -162.5 29.5t-136 85t-94.5 144t-35 197.5zM219 537q172 -50 330 -50q168 0 271.5 70t103.5 184q0 86 -69.5 147.5t-186.5 61.5q-166 0 -292.5 -120.5t-156.5 -292.5zM424 1458 q0 12 9.5 21.5t21.5 9.5q14 0 30 -16l41 -43l179 -164q14 -14 34 -29q15 -11 15 -25q0 -11 -8.5 -18.5t-20.5 -7.5t-25 10l-28 31l-185 166q-10 9 -26.5 21.5t-22.5 17.5q-14 11 -14 26z" />
<glyph unicode="&#xe9;" horiz-adv-x="1118" d="M156 438q0 103 37.5 204t103.5 180t163 128t208 49q138 0 223.5 -76t85.5 -184q0 -129 -115.5 -213t-308.5 -84q-167 0 -340 50q-4 -32 -4 -52q0 -192 104.5 -301.5t272.5 -109.5q84 0 157.5 34.5t118.5 98.5q4 6 9.5 15.5t9 14.5t8.5 10.5t9.5 8t10.5 2.5 q12 0 20.5 -9.5t8.5 -21.5q0 -14 -23 -45q-57 -76 -145.5 -115.5t-185.5 -39.5q-86 0 -162.5 29.5t-136 85t-94.5 144t-35 197.5zM219 537q172 -50 330 -50q168 0 271.5 70t103.5 184q0 86 -69.5 147.5t-186.5 61.5q-166 0 -292.5 -120.5t-156.5 -292.5zM692 1212 q0 14 15 25q4 4 9 8t12.5 10.5t12.5 10.5l179 166l41 41q14 16 30 16q12 0 21.5 -9.5t9.5 -21.5q0 -13 -14 -24q-7 -7 -24.5 -19.5t-25.5 -19.5l-184 -168l-29 -29q-10 -10 -24 -10q-12 0 -20.5 7.5t-8.5 16.5z" />
<glyph unicode="&#xea;" horiz-adv-x="1118" d="M156 438q0 103 37.5 204t103.5 180t163 128t208 49q138 0 223.5 -76t85.5 -184q0 -129 -115.5 -213t-308.5 -84q-167 0 -340 50q-4 -32 -4 -52q0 -192 104.5 -301.5t272.5 -109.5q84 0 157.5 34.5t118.5 98.5q4 6 9.5 15.5t9 14.5t8.5 10.5t9.5 8t10.5 2.5 q12 0 20.5 -9.5t8.5 -21.5q0 -14 -23 -45q-57 -76 -145.5 -115.5t-185.5 -39.5q-86 0 -162.5 29.5t-136 85t-94.5 144t-35 197.5zM219 537q172 -50 330 -50q168 0 271.5 70t103.5 184q0 86 -69.5 147.5t-186.5 61.5q-166 0 -292.5 -120.5t-156.5 -292.5zM477 1225 q0 11 17 28q35 25 49 39l164 156l30 33q16 16 31 16q17 0 29 -18q4 -6 10.5 -19.5t11.5 -21.5l90 -146q6 -11 15.5 -24.5t11.5 -18.5q12 -16 12 -24q0 -14 -8.5 -22.5t-21.5 -8.5q-18 0 -29 23l-25 51l-100 174l-186 -185q-9 -9 -39 -45q-18 -18 -33 -18q-10 0 -19.5 9 t-9.5 22z" />
<glyph unicode="&#xeb;" horiz-adv-x="1118" d="M156 438q0 103 37.5 204t103.5 180t163 128t208 49q138 0 223.5 -76t85.5 -184q0 -129 -115.5 -213t-308.5 -84q-167 0 -340 50q-4 -32 -4 -52q0 -192 104.5 -301.5t272.5 -109.5q84 0 157.5 34.5t118.5 98.5q4 6 9.5 15.5t9 14.5t8.5 10.5t9.5 8t10.5 2.5 q12 0 20.5 -9.5t8.5 -21.5q0 -14 -23 -45q-57 -76 -145.5 -115.5t-185.5 -39.5q-86 0 -162.5 29.5t-136 85t-94.5 144t-35 197.5zM219 537q172 -50 330 -50q168 0 271.5 70t103.5 184q0 86 -69.5 147.5t-186.5 61.5q-166 0 -292.5 -120.5t-156.5 -292.5zM526 1296 q0 25 17.5 42.5t42.5 17.5q22 0 36.5 -14.5t14.5 -36.5q0 -24 -17.5 -41t-41.5 -17q-22 0 -37 14t-15 35zM858 1296q0 25 17.5 42.5t42.5 17.5q22 0 35.5 -14.5t13.5 -36.5q0 -25 -17.5 -41.5t-42.5 -16.5q-22 0 -35.5 13.5t-13.5 35.5z" />
<glyph unicode="&#xec;" horiz-adv-x="532" d="M92 1458q0 12 9.5 21.5t21.5 9.5q15 0 31 -16l41 -43l178 -164q11 -11 35 -29q14 -11 14 -25q0 -11 -8.5 -18.5t-20.5 -7.5q-11 0 -24 10l-29 31l-184 166q-10 9 -27 21.5t-23 17.5q-14 11 -14 26zM172 139q0 55 39 238l92 442q17 96 -31 96q-7 0 -15 -5t-15 -5 q-12 0 -21.5 8.5t-9.5 18.5q0 16 12.5 26.5t36.5 10.5q37 0 62.5 -21t31.5 -59q6 -35 -2 -80l-92 -447q-37 -164 -37 -223q0 -90 43 -90q10 0 18 3t15 3q13 0 22 -7t9 -19q0 -15 -13 -26t-36 -11q-49 0 -79 37.5t-30 109.5z" />
<glyph unicode="&#xed;" horiz-adv-x="532" d="M172 139q0 55 39 238l92 442q17 96 -31 96q-7 0 -15 -5t-15 -5q-12 0 -21.5 8.5t-9.5 18.5q0 16 12.5 26.5t36.5 10.5q37 0 62.5 -21t31.5 -59q6 -35 -2 -80l-92 -447q-37 -164 -37 -223q0 -90 43 -90q10 0 18 3t15 3q13 0 22 -7t9 -19q0 -15 -13 -26t-36 -11 q-49 0 -79 37.5t-30 109.5zM360 1212q0 14 15 25q4 4 16.5 14t18.5 15l178 166l41 41q14 16 30 16q12 0 21.5 -9.5t9.5 -21.5q0 -13 -14 -24q-7 -7 -24 -19.5t-25 -19.5l-185 -168q-8 -7 -17.5 -17.5t-10.5 -11.5q-10 -10 -25 -10q-12 0 -20.5 7.5t-8.5 16.5z" />
<glyph unicode="&#xee;" horiz-adv-x="532" d="M119 1225q0 12 16 28q35 25 49 39l164 156l31 33q16 16 31 16q16 0 28 -18q4 -6 11 -19.5t12 -21.5l90 -146q6 -11 15.5 -24.5t11.5 -18.5q12 -16 12 -24q0 -13 -9 -22t-22 -9q-17 0 -29 23l-24 51l-100 174l-187 -185q-9 -9 -39 -45q-18 -18 -33 -18q-10 0 -19 9t-9 22z M172 139q0 55 39 238l92 442q17 96 -31 96q-7 0 -15 -5t-15 -5q-12 0 -21.5 8.5t-9.5 18.5q0 16 12.5 26.5t36.5 10.5q37 0 62.5 -21t31.5 -59q6 -35 -2 -80l-92 -447q-37 -164 -37 -223q0 -90 43 -90q10 0 18 3t15 3q13 0 22 -7t9 -19q0 -15 -13 -26t-36 -11 q-49 0 -79 37.5t-30 109.5z" />
<glyph unicode="&#xef;" horiz-adv-x="532" d="M156 1294q0 25 17 42.5t42 17.5q22 0 36.5 -14.5t14.5 -36.5q0 -24 -17.5 -41t-41.5 -17q-22 0 -36.5 13.5t-14.5 35.5zM172 139q0 55 39 238l92 442q17 96 -31 96q-7 0 -15 -5t-15 -5q-12 0 -21.5 8.5t-9.5 18.5q0 16 12.5 26.5t36.5 10.5q37 0 62.5 -21t31.5 -59 q6 -35 -2 -80l-92 -447q-37 -164 -37 -223q0 -90 43 -90q10 0 18 3t15 3q13 0 22 -7t9 -19q0 -15 -13 -26t-36 -11q-49 0 -79 37.5t-30 109.5zM487 1294q0 25 17.5 42.5t42.5 17.5q22 0 35.5 -14.5t13.5 -36.5q0 -25 -17 -41.5t-42 -16.5q-22 0 -36 13.5t-14 35.5z" />
<glyph unicode="&#xf0;" d="M152 418q-1 114 35.5 220t100.5 185.5t156.5 127.5t198.5 48q123 0 218 -58.5t147 -154.5q-3 139 -49 269t-132 227l-110 -57q-15 -7 -34 -19l-19 -12q-15 -6 -23 -6q-11 0 -19 7t-8 17q0 16 23 27q5 2 25 9.5t36 15.5l99 51q-85 79 -187 115q-4 1 -12 3.5t-11 3.5 t-8.5 3.5t-7.5 5t-4 6t-2 8.5q0 12 7.5 19.5t19.5 7.5q15 0 53 -17q115 -53 195 -133l116 58q13 6 29 15.5t23 12.5q15 9 24 9q10 0 17.5 -7t7.5 -18q0 -19 -21 -27q-10 -5 -30.5 -12t-32.5 -12l-103 -53q93 -105 141 -250t48 -303q0 -126 -20.5 -240t-63 -210.5t-102 -167 t-142.5 -110.5t-180 -40q-183 0 -289.5 121t-109.5 315zM207 420q0 -168 90 -279.5t250 -111.5q91 0 167.5 41t129 109t90 157t55.5 183.5t19 189.5v2q-43 104 -138.5 172.5t-226.5 68.5q-126 0 -227.5 -76.5t-155 -197.5t-53.5 -258z" />
<glyph unicode="&#xf1;" horiz-adv-x="1132" d="M139 31q18 71 19 78l121 671q9 49 6.5 79t-12 43t-23.5 13q-7 0 -15 -3t-16 -3q-12 0 -20.5 8t-8.5 19q0 33 48 33q96 0 96 -125q0 -30 -12 -88q48 105 141.5 174t204.5 69q132 0 214.5 -80t82.5 -214q0 -93 -50.5 -281.5t-50.5 -284.5q0 -42 12 -66t33 -24q8 0 16.5 3 t16.5 3q13 0 22 -7.5t9 -20.5q0 -14 -13.5 -24.5t-37.5 -10.5q-49 0 -80 38.5t-31 108.5q0 94 49 282t49 286q0 105 -66 174t-181 69q-124 0 -230 -104t-137 -277l-84 -465q-4 -19 -6 -47.5t-2 -29.5q-8 -35 -37 -35q-13 0 -21.5 11t-5.5 28zM477 1270q5 48 43.5 81t97.5 33 q70 0 148 -61q47 -35 73 -47t56 -12q31 0 52 15t22 38q1 4 -1.5 11t-2.5 13q2 12 11 21.5t23 9.5q13 0 21 -11t8 -28q-5 -46 -43.5 -79t-97.5 -33q-69 0 -150 61q-47 35 -71.5 46t-55.5 11q-30 0 -50.5 -14.5t-22.5 -36.5q-1 -5 1.5 -12.5t2.5 -13.5q-2 -11 -11.5 -20 t-23.5 -9q-13 0 -22 11t-7 26z" />
<glyph unicode="&#xf2;" horiz-adv-x="1187" d="M156 416q0 80 19.5 162t61 157.5t98.5 134t138 94t174 35.5q185 0 289 -125t104 -309q0 -81 -19.5 -162.5t-60.5 -157.5t-98 -134.5t-138 -93.5t-175 -35q-124 0 -214.5 60t-134.5 157t-44 217zM211 414q0 -107 36.5 -192.5t115 -139t188.5 -53.5q95 0 178 45.5 t138.5 121t87.5 171t32 196.5q0 167 -89 277t-255 110q-94 0 -176 -45.5t-137.5 -120.5t-87 -171.5t-31.5 -198.5zM422 1458q0 12 9.5 21.5t21.5 9.5q14 0 30 -16l41 -43l178 -164q11 -11 35 -29q15 -11 15 -25q0 -11 -8.5 -18.5t-20.5 -7.5t-25 10l-28 31l-185 166 q-10 9 -26.5 21.5t-22.5 17.5q-14 11 -14 26z" />
<glyph unicode="&#xf3;" horiz-adv-x="1187" d="M156 416q0 80 19.5 162t61 157.5t98.5 134t138 94t174 35.5q185 0 289 -125t104 -309q0 -81 -19.5 -162.5t-60.5 -157.5t-98 -134.5t-138 -93.5t-175 -35q-124 0 -214.5 60t-134.5 157t-44 217zM211 414q0 -107 36.5 -192.5t115 -139t188.5 -53.5q95 0 178 45.5 t138.5 121t87.5 171t32 196.5q0 167 -89 277t-255 110q-94 0 -176 -45.5t-137.5 -120.5t-87 -171.5t-31.5 -198.5zM692 1212q0 14 15 25q4 4 9 8t12.5 10.5t12.5 10.5l179 166l41 41q14 16 30 16q12 0 21.5 -9.5t9.5 -21.5q0 -13 -14 -24q-7 -7 -24.5 -19.5t-25.5 -19.5 l-184 -168l-29 -29q-10 -10 -24 -10q-12 0 -20.5 7.5t-8.5 16.5z" />
<glyph unicode="&#xf4;" horiz-adv-x="1187" d="M156 416q0 80 19.5 162t61 157.5t98.5 134t138 94t174 35.5q185 0 289 -125t104 -309q0 -81 -19.5 -162.5t-60.5 -157.5t-98 -134.5t-138 -93.5t-175 -35q-124 0 -214.5 60t-134.5 157t-44 217zM211 414q0 -107 36.5 -192.5t115 -139t188.5 -53.5q95 0 178 45.5 t138.5 121t87.5 171t32 196.5q0 167 -89 277t-255 110q-94 0 -176 -45.5t-137.5 -120.5t-87 -171.5t-31.5 -198.5zM477 1225q0 11 17 28q35 25 49 39l164 156l30 33q16 16 31 16q17 0 29 -18q4 -6 10.5 -19.5t11.5 -21.5l90 -146q6 -11 15.5 -24.5t11.5 -18.5q12 -16 12 -24 q0 -14 -8.5 -22.5t-21.5 -8.5q-18 0 -29 23l-25 51l-100 174l-186 -185q-9 -9 -39 -45q-18 -18 -33 -18q-10 0 -19.5 9t-9.5 22z" />
<glyph unicode="&#xf5;" horiz-adv-x="1187" d="M156 416q0 80 19.5 162t61 157.5t98.5 134t138 94t174 35.5q185 0 289 -125t104 -309q0 -81 -19.5 -162.5t-60.5 -157.5t-98 -134.5t-138 -93.5t-175 -35q-124 0 -214.5 60t-134.5 157t-44 217zM211 414q0 -107 36.5 -192.5t115 -139t188.5 -53.5q95 0 178 45.5 t138.5 121t87.5 171t32 196.5q0 167 -89 277t-255 110q-94 0 -176 -45.5t-137.5 -120.5t-87 -171.5t-31.5 -198.5zM473 1270q5 48 43.5 81t97.5 33q70 0 148 -61q47 -35 73 -47t56 -12q31 0 52 15t22 38q1 4 -1.5 11t-2.5 13q2 12 11 21.5t23 9.5q13 0 21 -11t8 -28 q-5 -46 -43.5 -79t-97.5 -33q-69 0 -150 61q-47 35 -71.5 46t-55.5 11t-51.5 -14.5t-22.5 -36.5q-1 -5 2 -12.5t3 -13.5q-2 -11 -11.5 -20t-23.5 -9q-13 0 -22 11t-7 26z" />
<glyph unicode="&#xf6;" horiz-adv-x="1187" d="M156 416q0 80 19.5 162t61 157.5t98.5 134t138 94t174 35.5q185 0 289 -125t104 -309q0 -81 -19.5 -162.5t-60.5 -157.5t-98 -134.5t-138 -93.5t-175 -35q-124 0 -214.5 60t-134.5 157t-44 217zM211 414q0 -107 36.5 -192.5t115 -139t188.5 -53.5q95 0 178 45.5 t138.5 121t87.5 171t32 196.5q0 167 -89 277t-255 110q-94 0 -176 -45.5t-137.5 -120.5t-87 -171.5t-31.5 -198.5zM528 1296q0 25 17.5 42.5t42.5 17.5q22 0 36.5 -14.5t14.5 -36.5q0 -24 -17.5 -41t-41.5 -17q-22 0 -37 14t-15 35zM860 1296q0 25 17.5 42.5t42.5 17.5 q22 0 35.5 -14.5t13.5 -36.5q0 -25 -17.5 -41.5t-42.5 -16.5q-22 0 -35.5 13.5t-13.5 35.5z" />
<glyph unicode="&#xf7;" horiz-adv-x="948" d="M141 555q0 13 11 22t26 9q6 0 27.5 -3t40.5 -3h450q19 0 41.5 3t28.5 3q14 0 24.5 -9t10.5 -22q-1 -14 -13 -22.5t-28 -8.5q-6 0 -27.5 2t-40.5 2h-450q-17 0 -39.5 -2t-28.5 -2q-16 0 -25 8t-8 23zM379 270q0 25 17 42.5t42 17.5q21 0 35 -14t14 -35q0 -26 -16.5 -42 t-40.5 -16q-22 0 -36.5 13t-14.5 34zM463 805q0 25 16 41t41 16q23 0 37 -13.5t14 -35.5q0 -24 -17.5 -40.5t-41.5 -16.5q-22 0 -35.5 13.5t-13.5 35.5z" />
<glyph unicode="&#xf8;" horiz-adv-x="1177" d="M88 23q0 13 18 28q49 42 56 49l53 52q-68 112 -68 264q0 81 19.5 162t60.5 157t98 134.5t138.5 94t175.5 35.5q189 0 299 -139l66 62q10 9 19 19.5t18 22t12 15.5q14 18 32 18q13 0 22 -9t7 -21q0 -11 -16 -27q-56 -49 -58 -51l-71 -70q63 -111 63 -254 q0 -81 -19.5 -162.5t-60.5 -157.5t-98 -134.5t-138 -93.5t-175 -35q-188 0 -295 133l-47 -47q-12 -12 -27 -31t-22 -25q-13 -20 -31 -20q-13 0 -22 9.5t-9 21.5zM201 414q0 -133 53 -228l649 639q-91 125 -270 125q-94 0 -176 -45.5t-137.5 -120.5t-87 -171.5t-31.5 -198.5z M281 147q91 -118 262 -118q94 0 177 46t138 120.5t87 171t32 196.5q0 123 -49 217z" />
<glyph unicode="&#xf9;" horiz-adv-x="1130" d="M168 934q0 14 13.5 24.5t37.5 10.5q49 0 79 -38.5t30 -109.5q0 -92 -47.5 -270t-47.5 -275q0 -107 69.5 -177t195.5 -70q55 0 108 20.5t100 60t82 104.5t50 148l90 494q4 20 6 48.5t2 29.5q2 15 12 25t23 10q14 0 21.5 -11t4.5 -28q-1 -6 -8 -32t-10 -44l-105 -580 q-41 -223 25 -223q7 0 15 4t16 4q12 0 21.5 -9t9.5 -21q0 -15 -13.5 -26t-36.5 -11q-47 0 -74.5 37t-27.5 110q0 25 2 35q-44 -87 -131 -139.5t-186 -52.5q-143 0 -229.5 80t-86.5 214q0 96 48 273t48 274q0 42 -12 66t-33 24q-7 0 -15 -4t-17 -4q-12 0 -20.5 8.5t-8.5 20.5 zM381 1458q0 12 9.5 21.5t21.5 9.5q14 0 30 -16l41 -43l179 -164q14 -14 34 -29q15 -11 15 -25q0 -11 -8.5 -18.5t-20.5 -7.5t-25 10l-28 31l-185 166q-10 9 -26.5 21.5t-22.5 17.5q-14 11 -14 26z" />
<glyph unicode="&#xfa;" horiz-adv-x="1130" d="M168 934q0 14 13.5 24.5t37.5 10.5q49 0 79 -38.5t30 -109.5q0 -92 -47.5 -270t-47.5 -275q0 -107 69.5 -177t195.5 -70q55 0 108 20.5t100 60t82 104.5t50 148l90 494q4 20 6 48.5t2 29.5q2 15 12 25t23 10q14 0 21.5 -11t4.5 -28q-1 -6 -8 -32t-10 -44l-105 -580 q-41 -223 25 -223q7 0 15 4t16 4q12 0 21.5 -9t9.5 -21q0 -15 -13.5 -26t-36.5 -11q-47 0 -74.5 37t-27.5 110q0 25 2 35q-44 -87 -131 -139.5t-186 -52.5q-143 0 -229.5 80t-86.5 214q0 96 48 273t48 274q0 42 -12 66t-33 24q-7 0 -15 -4t-17 -4q-12 0 -20.5 8.5t-8.5 20.5 zM649 1212q0 14 15 25q4 4 9 8t12.5 10.5t12.5 10.5l179 166l41 41q14 16 30 16q12 0 21.5 -9.5t9.5 -21.5q0 -13 -14 -24q-7 -7 -24.5 -19.5t-25.5 -19.5l-184 -168l-29 -29q-10 -10 -24 -10q-12 0 -20.5 7.5t-8.5 16.5z" />
<glyph unicode="&#xfb;" horiz-adv-x="1130" d="M168 934q0 14 13.5 24.5t37.5 10.5q49 0 79 -38.5t30 -109.5q0 -92 -47.5 -270t-47.5 -275q0 -107 69.5 -177t195.5 -70q55 0 108 20.5t100 60t82 104.5t50 148l90 494q4 20 6 48.5t2 29.5q2 15 12 25t23 10q14 0 21.5 -11t4.5 -28q-1 -6 -8 -32t-10 -44l-105 -580 q-41 -223 25 -223q7 0 15 4t16 4q12 0 21.5 -9t9.5 -21q0 -15 -13.5 -26t-36.5 -11q-47 0 -74.5 37t-27.5 110q0 25 2 35q-44 -87 -131 -139.5t-186 -52.5q-143 0 -229.5 80t-86.5 214q0 96 48 273t48 274q0 42 -12 66t-33 24q-7 0 -15 -4t-17 -4q-12 0 -20.5 8.5t-8.5 20.5 zM434 1225q0 11 17 28q35 25 49 39l164 156l30 33q16 16 31 16q17 0 29 -18q4 -6 10.5 -19.5t11.5 -21.5l90 -146q5 -11 14.5 -24.5t12.5 -18.5q12 -16 12 -24q0 -13 -8.5 -22t-22.5 -9q-16 0 -28 23l-25 51l-100 174l-186 -185q-9 -9 -39 -45q-18 -18 -33 -18 q-10 0 -19.5 9t-9.5 22z" />
<glyph unicode="&#xfc;" horiz-adv-x="1130" d="M168 934q0 14 13.5 24.5t37.5 10.5q49 0 79 -38.5t30 -109.5q0 -92 -47.5 -270t-47.5 -275q0 -107 69.5 -177t195.5 -70q55 0 108 20.5t100 60t82 104.5t50 148l90 494q4 20 6 48.5t2 29.5q2 15 12 25t23 10q14 0 21.5 -11t4.5 -28q-1 -6 -8 -32t-10 -44l-105 -580 q-41 -223 25 -223q7 0 15 4t16 4q12 0 21.5 -9t9.5 -21q0 -15 -13.5 -26t-36.5 -11q-47 0 -74.5 37t-27.5 110q0 25 2 35q-44 -87 -131 -139.5t-186 -52.5q-143 0 -229.5 80t-86.5 214q0 96 48 273t48 274q0 42 -12 66t-33 24q-7 0 -15 -4t-17 -4q-12 0 -20.5 8.5t-8.5 20.5 zM485 1296q0 25 17.5 42.5t42.5 17.5q22 0 36.5 -14.5t14.5 -36.5q0 -24 -17.5 -41t-41.5 -17q-22 0 -37 14t-15 35zM817 1296q0 25 17.5 42.5t42.5 17.5q22 0 35.5 -14.5t13.5 -36.5q0 -25 -17.5 -41.5t-42.5 -16.5q-22 0 -35.5 13.5t-13.5 35.5z" />
<glyph unicode="&#xfd;" horiz-adv-x="1124" d="M94 -307q0 13 8.5 22t22.5 9q19 0 31 -25q27 -50 88.5 -80.5t138.5 -30.5q149 0 247 101.5t134 283.5l35 189q-43 -83 -124 -131.5t-181 -48.5q-145 0 -230.5 79.5t-85.5 214.5q0 96 47 273t47 274q0 90 -43 90q-8 0 -16 -4t-16 -4q-12 0 -21.5 8.5t-9.5 20.5 q0 14 13.5 24.5t37.5 10.5q49 0 79 -38.5t30 -109.5q0 -92 -47.5 -270t-47.5 -275q0 -107 70.5 -177t196.5 -70q55 0 107.5 20.5t99.5 60.5t82 107t51 152l88 487q4 20 6 48.5t2 29.5q7 35 37 35q13 0 21 -11t5 -28q-11 -40 -18 -76l-160 -866q-38 -210 -148.5 -329.5 t-287.5 -119.5q-170 0 -274 123q-15 19 -15 31zM643 1212q0 14 14 25q4 4 16.5 14t18.5 15l178 166l41 41q14 16 31 16q12 0 21.5 -9.5t9.5 -21.5t-15 -24q-7 -7 -24 -19.5t-25 -19.5l-184 -168l-29 -29q-10 -10 -24 -10q-12 0 -20.5 7.5t-8.5 16.5z" />
<glyph unicode="&#xfe;" horiz-adv-x="1150" d="M55 -459q1 7 8.5 34t10.5 44l315 1755q4 20 6 48.5t2 29.5q3 14 12.5 24.5t22.5 10.5q14 0 22 -11t5 -26q-1 -8 -8.5 -35t-10.5 -43l-100 -541q48 80 130.5 124t156.5 44q171 0 270.5 -118t99.5 -318q0 -147 -58 -279t-168 -217t-245 -85q-92 0 -173.5 41t-131.5 112 l-94 -518q-3 -17 -5.5 -44.5t-4.5 -35.5q-2 -14 -11.5 -23.5t-23.5 -9.5t-22 11t-5 26zM229 188q44 -72 123 -115.5t174 -43.5q91 0 171 47.5t133 123.5t83.5 170.5t30.5 190.5q0 183 -85 286t-234 103q-43 0 -89.5 -16t-91.5 -48t-80 -88t-47 -128z" />
<glyph unicode="&#xff;" horiz-adv-x="1124" d="M94 -307q0 13 8.5 22t22.5 9q19 0 31 -25q27 -50 88.5 -80.5t138.5 -30.5q149 0 247 101.5t134 283.5l35 189q-43 -83 -124 -131.5t-181 -48.5q-145 0 -230.5 79.5t-85.5 214.5q0 96 47 273t47 274q0 90 -43 90q-8 0 -16 -4t-16 -4q-12 0 -21.5 8.5t-9.5 20.5 q0 14 13.5 24.5t37.5 10.5q49 0 79 -38.5t30 -109.5q0 -92 -47.5 -270t-47.5 -275q0 -107 70.5 -177t196.5 -70q55 0 107.5 20.5t99.5 60.5t82 107t51 152l88 487q4 20 6 48.5t2 29.5q7 35 37 35q13 0 21 -11t5 -28q-11 -40 -18 -76l-160 -866q-38 -210 -148.5 -329.5 t-287.5 -119.5q-170 0 -274 123q-15 19 -15 31zM479 1296q0 25 17.5 42.5t42.5 17.5q22 0 36.5 -14.5t14.5 -36.5q0 -24 -18 -41t-42 -17q-22 0 -36.5 13.5t-14.5 35.5zM811 1296q0 25 17 42.5t42 17.5q22 0 36 -14.5t14 -36.5q0 -25 -17.5 -41.5t-42.5 -16.5 q-22 0 -35.5 13.5t-13.5 35.5z" />
<glyph unicode="&#x152;" horiz-adv-x="1990" d="M182 610q0 184 55 347.5t148 279t222 183t272 67.5q86 0 165 -29q78 4 222 4h690q14 0 23.5 -7.5t9.5 -20.5q-3 -29 -39 -29q-5 0 -29.5 4t-42.5 4h-733q133 -75 205.5 -222t72.5 -337q0 -29 -2 -43h271q16 0 40 2t29 2q13 0 22 -8.5t9 -22.5q-1 -12 -12 -20t-25 -8 q-5 0 -28.5 2t-38.5 2h-269q-20 -244 -135.5 -435t-290.5 -278l723 2q18 0 44.5 4t31.5 4q33 0 33 -28q0 -13 -11.5 -21t-25.5 -8h-692q-47 0 -122.5 1t-90.5 1q-78 -20 -150 -20q-128 0 -233 48t-174 132.5t-106.5 199t-37.5 248.5zM238 610q0 -121 32 -225.5t92 -183.5 t155.5 -124.5t215.5 -45.5q108 0 207 43t176 120t134 179.5t87.5 226.5t30.5 256q0 167 -55.5 297t-168.5 207.5t-270 77.5q-133 0 -251.5 -66t-202.5 -177.5t-133 -264t-49 -320.5z" />
<glyph unicode="&#x153;" horiz-adv-x="1898" d="M152 416q0 81 19.5 162t60.5 157t98 134.5t138 94t175 35.5q155 0 248.5 -93.5t116.5 -243.5q58 149 174 243t274 94q138 0 223.5 -78t85.5 -186q0 -126 -114.5 -208.5t-309.5 -82.5q-165 0 -325 45v-53q0 -199 97 -303t261 -104q85 0 159.5 34.5t117.5 98.5 q4 6 9.5 15.5t9 14.5t8.5 10.5t9.5 8t10.5 2.5q13 0 20.5 -9t7.5 -22q0 -16 -22 -45q-57 -76 -146 -115.5t-186 -39.5q-152 0 -261.5 85t-137.5 257q-53 -153 -165.5 -247.5t-262.5 -94.5q-124 0 -214.5 60t-134.5 157t-44 217zM205 414q0 -166 89 -275.5t253 -109.5 q121 0 219 78t149.5 199.5t51.5 256.5q0 80 -20 148.5t-59 122.5t-103.5 85t-147.5 31q-94 0 -176 -45.5t-137.5 -120.5t-87 -171.5t-31.5 -198.5zM1022 532q156 -43 315 -43q170 0 272.5 70t102.5 178q0 88 -69.5 150.5t-186.5 62.5q-165 0 -286 -121.5t-148 -296.5z" />
<glyph unicode="&#x178;" horiz-adv-x="1071" d="M180 1440q0 11 8.5 20.5t22.5 9.5q22 0 31 -28q3 -8 10 -33.5t12 -40.5l283 -758l534 774q10 15 22 38.5t13 25.5q14 22 33 22q12 0 20.5 -9t8.5 -21q0 -13 -13 -29l-45 -59l-555 -799l-78 -447q-1 -10 -4.5 -39t-5.5 -38q-2 -16 -11.5 -26.5t-23.5 -10.5q-15 0 -22 11.5 t-4 27.5q1 9 8 36.5t10 43.5l78 444l-297 793q-4 15 -10.5 28.5t-12 23.5t-6.5 13q-6 15 -6 27zM543 1794q0 25 17 42t42 17q22 0 35.5 -14.5t13.5 -36.5q0 -24 -16.5 -40.5t-40.5 -16.5q-22 0 -36.5 13.5t-14.5 35.5zM872 1794q0 25 17.5 42t42.5 17q22 0 35.5 -14.5 t13.5 -36.5q0 -25 -17 -41t-42 -16q-22 0 -36 13.5t-14 35.5z" />
<glyph unicode="&#x2c6;" horiz-adv-x="806" d="M168 1225q0 12 16 28q35 25 49 39l164 156l31 33q16 16 31 16q16 0 28 -18q4 -6 11 -19.5t12 -21.5l90 -146q6 -11 15 -24.5t12 -18.5q12 -16 12 -24q0 -13 -8.5 -22t-22.5 -9q-16 0 -28 23l-25 51l-100 174l-187 -185q-9 -9 -39 -45q-18 -18 -32 -18q-10 0 -19.5 9 t-9.5 22z" />
<glyph unicode="&#x2dc;" horiz-adv-x="890" d="M170 1270q5 48 43.5 81t97.5 33q70 0 148 -61q47 -35 73 -47t56 -12q31 0 52 15t22 38q1 4 -2 11t-3 13q2 12 11.5 21.5t23.5 9.5q13 0 21 -11t8 -28q-5 -46 -43.5 -79t-97.5 -33q-69 0 -150 61q-47 35 -71.5 46t-55.5 11t-51.5 -14.5t-22.5 -36.5q-1 -5 1.5 -12.5 t2.5 -13.5q-2 -12 -11 -20.5t-23 -8.5q-13 0 -22 11t-7 26z" />
<glyph unicode="&#x2000;" horiz-adv-x="958" />
<glyph unicode="&#x2001;" horiz-adv-x="1917" />
<glyph unicode="&#x2002;" horiz-adv-x="958" />
<glyph unicode="&#x2003;" horiz-adv-x="1917" />
<glyph unicode="&#x2004;" horiz-adv-x="639" />
<glyph unicode="&#x2005;" horiz-adv-x="479" />
<glyph unicode="&#x2006;" horiz-adv-x="319" />
<glyph unicode="&#x2007;" horiz-adv-x="319" />
<glyph unicode="&#x2008;" horiz-adv-x="239" />
<glyph unicode="&#x2009;" horiz-adv-x="383" />
<glyph unicode="&#x200a;" horiz-adv-x="106" />
<glyph unicode="&#x2010;" horiz-adv-x="788" d="M121 551q0 13 11.5 21t25.5 8q6 0 27 -2.5t38 -2.5h344q19 0 40.5 2.5t27.5 2.5q14 0 23.5 -8t9.5 -21q0 -14 -11 -22.5t-26 -8.5q-6 0 -27.5 3t-38.5 3h-346q-18 0 -39 -3t-26 -3q-33 0 -33 31z" />
<glyph unicode="&#x2011;" horiz-adv-x="788" d="M121 551q0 13 11.5 21t25.5 8q6 0 27 -2.5t38 -2.5h344q19 0 40.5 2.5t27.5 2.5q14 0 23.5 -8t9.5 -21q0 -14 -11 -22.5t-26 -8.5q-6 0 -27.5 3t-38.5 3h-346q-18 0 -39 -3t-26 -3q-33 0 -33 31z" />
<glyph unicode="&#x2012;" horiz-adv-x="788" d="M121 551q0 13 11.5 21t25.5 8q6 0 27 -2.5t38 -2.5h344q19 0 40.5 2.5t27.5 2.5q14 0 23.5 -8t9.5 -21q0 -14 -11 -22.5t-26 -8.5q-6 0 -27.5 3t-38.5 3h-346q-18 0 -39 -3t-26 -3q-33 0 -33 31z" />
<glyph unicode="&#x2013;" horiz-adv-x="1024" d="M121 551q0 13 11.5 22t25.5 9q6 0 27 -3.5t38 -3.5h580q19 0 40 3.5t27 3.5q14 0 23.5 -9t9.5 -22q0 -14 -11 -22.5t-26 -8.5q-6 0 -27 3t-38 3h-582q-18 0 -39 -3t-26 -3q-33 0 -33 31z" />
<glyph unicode="&#x2014;" horiz-adv-x="2048" d="M121 551q0 13 11.5 22t25.5 9q6 0 27 -3.5t38 -3.5h1604q19 0 40 3.5t27 3.5q14 0 23.5 -9t9.5 -22q0 -14 -11 -22.5t-26 -8.5q-6 0 -27 3t-38 3h-1606q-18 0 -39 -3t-26 -3q-33 0 -33 31z" />
<glyph unicode="&#x2018;" horiz-adv-x="425" d="M250 1251q0 47 20 100t54 93q23 26 38 26q11 0 19 -7t8 -19q0 -6 -3.5 -12.5t-6.5 -9.5t-12 -10.5t-13 -10.5q-24 -21 -38.5 -51.5t-14.5 -53.5q0 -8 10 -8q22 0 35.5 -15t13.5 -36q0 -23 -15.5 -39t-37.5 -16q-25 0 -41 18.5t-16 50.5z" />
<glyph unicode="&#x2019;" horiz-adv-x="425" d="M289 1214q0 6 3.5 12.5t6.5 9.5t12 10.5t13 10.5q24 21 38.5 51.5t14.5 53.5q0 8 -10 8q-22 0 -36 15t-14 36q0 23 16 39.5t38 16.5q25 0 41 -19t16 -51q0 -47 -20 -100t-54 -93q-23 -26 -39 -26q-11 0 -18.5 7t-7.5 19z" />
<glyph unicode="&#x201a;" horiz-adv-x="425" d="M96 -158q0 6 3.5 12.5t6.5 9.5t12 10.5t13 10.5q24 21 38.5 51.5t14.5 53.5q0 8 -10 8q-22 0 -35.5 15t-13.5 36q0 23 15.5 39t37.5 16q25 0 41.5 -18.5t16.5 -50.5q0 -47 -20 -100t-54 -93q-23 -26 -39 -26q-11 0 -19 7t-8 19z" />
<glyph unicode="&#x201c;" horiz-adv-x="616" d="M250 1257q0 47 20 100t54 93q24 27 38 27q11 0 19 -7.5t8 -19.5q0 -6 -3.5 -12.5t-6.5 -9.5t-12 -10.5t-13 -10.5q-24 -21 -38.5 -51t-14.5 -53q0 -9 10 -9q22 0 35.5 -15t13.5 -36q0 -23 -15.5 -39t-37.5 -16q-25 0 -41 18.5t-16 50.5zM440 1257q0 47 20 100t54 93 q24 27 39 27q11 0 19 -7.5t8 -19.5q0 -6 -3.5 -12.5t-6.5 -9.5t-12 -10.5t-13 -10.5q-24 -21 -38.5 -51t-14.5 -53q0 -9 10 -9q22 0 35.5 -15t13.5 -36q0 -23 -15.5 -39t-37.5 -16q-25 0 -41.5 18.5t-16.5 50.5z" />
<glyph unicode="&#x201d;" horiz-adv-x="616" d="M289 1214q0 6 3.5 12.5t6.5 9.5t12 10.5t13 10.5q24 21 38.5 51.5t14.5 53.5q0 8 -10 8q-22 0 -36 15t-14 36q0 23 16 39.5t38 16.5q25 0 41 -19t16 -51q0 -47 -20 -100t-54 -93q-23 -26 -39 -26q-11 0 -18.5 7t-7.5 19zM479 1214q0 6 3.5 12.5t6.5 9.5t12 10.5t13 10.5 q24 21 38.5 51.5t14.5 53.5q0 8 -10 8q-22 0 -35.5 15t-13.5 36q0 23 15.5 39.5t37.5 16.5q25 0 41 -19t16 -51q0 -48 -20 -101t-53 -92q-23 -26 -39 -26q-11 0 -19 7t-8 19z" />
<glyph unicode="&#x201e;" horiz-adv-x="616" d="M88 -158q0 6 3.5 12.5t6.5 9.5t12 10.5t13 10.5q24 21 38.5 51.5t14.5 53.5q0 8 -10 8q-22 0 -35.5 15t-13.5 36q0 23 15.5 39t37.5 16q25 0 41 -18.5t16 -50.5q0 -48 -20 -101t-53 -92q-23 -26 -39 -26q-11 0 -19 7t-8 19zM279 -158q0 5 1.5 9.5t5.5 9t7 7.5t10 8.5 t10 8.5q24 21 39 51.5t15 53.5q0 8 -11 8q-22 0 -35.5 15t-13.5 36q0 23 15.5 39t37.5 16q25 0 41.5 -18.5t16.5 -50.5q0 -47 -20 -100t-54 -93q-23 -26 -39 -26q-11 0 -18.5 7t-7.5 19z" />
<glyph unicode="&#x2022;" horiz-adv-x="645" d="M135 553q0 75 55.5 130.5t131.5 55.5q77 0 131.5 -55t54.5 -131q0 -77 -54.5 -132.5t-131.5 -55.5q-76 0 -131.5 55.5t-55.5 132.5z" />
<glyph unicode="&#x2026;" horiz-adv-x="1112" d="M90 45q0 25 17 42t43 17q20 0 34.5 -14.5t14.5 -36.5q0 -24 -18 -40.5t-42 -16.5q-22 0 -35.5 13.5t-13.5 35.5zM457 45q0 25 16.5 42t42.5 17q20 0 34.5 -14.5t14.5 -36.5q0 -24 -17.5 -40.5t-41.5 -16.5q-22 0 -35.5 13.5t-13.5 35.5zM823 45q0 25 17 42t43 17 q20 0 34.5 -14.5t14.5 -36.5q0 -24 -18 -40.5t-42 -16.5q-22 0 -35.5 13.5t-13.5 35.5z" />
<glyph unicode="&#x202f;" horiz-adv-x="383" />
<glyph unicode="&#x2039;" horiz-adv-x="638" d="M76 553q0 13 20 29q6 4 20.5 12t24.5 16l320 236q4 3 11.5 10t14 12t11.5 9q10 10 22 10t20.5 -8t8.5 -19q0 -20 -23 -31q-6 -5 -20.5 -13t-20.5 -13l-352 -252l262 -256l41 -33q13 -13 13 -26q0 -12 -8 -19.5t-19 -7.5q-15 0 -25 10q-7 6 -18.5 20t-16.5 19l-235 238 q-6 6 -18 15.5t-17 14.5q-16 13 -16 27z" />
<glyph unicode="&#x203a;" horiz-adv-x="638" d="M88 248q0 18 21 31q38 21 43 26l350 250l-262 256l-39 35q-15 10 -15 24q0 12 9 20.5t20 8.5q12 0 25 -10q6 -5 16.5 -19t17.5 -20l234 -238q28 -24 37 -30q14 -11 14 -27q0 -15 -18 -29q-6 -4 -20.5 -12t-24.5 -16l-320 -236q-7 -5 -19 -16t-18 -15q-13 -10 -24 -10 t-19 7.5t-8 19.5z" />
<glyph unicode="&#x205f;" horiz-adv-x="479" />
<glyph unicode="&#x20ac;" horiz-adv-x="1345" d="M150 575q-12 15 6 29q24 12 61 12h78q3 73 18 146q-43 -2 -108 -2q-31 0 -35 12q-12 15 6 29q20 10 62 10h84q1 1 2 4.5t2 5.5q63 279 224.5 435.5t364.5 156.5q145 0 239.5 -62t135.5 -173q10 -23 10 -48q0 -10 -9 -18t-21 -8q-8 0 -13 2.5t-9 10t-6 13t-5.5 19.5 l-5.5 22q-27 88 -110.5 140.5t-209.5 52.5q-186 0 -328.5 -145t-205.5 -402h2q-2 -2 -2 -8h248q14 0 80.5 2t70.5 2q31 0 37 -14q8 -11 -8 -27q-18 -12 -62 -12q-1 0 -90 0.5t-182.5 1t-105.5 0.5q-16 -76 -19 -148h217q14 0 74 1t63 1q32 0 37 -12q10 -15 -8 -29 q-20 -10 -61 -10h-322v-18q0 -150 44 -264.5t137 -183t225 -68.5q102 0 193 42t134 115l9.5 19t8.5 15.5t7.5 10t9.5 7.5t12 2q12 0 19.5 -7.5t7.5 -19.5q0 -18 -20 -43q-51 -78 -151 -133t-228 -55q-217 0 -339 151t-122 412v18q-39 -2 -109 -2q-29 0 -34 12z" />
<glyph unicode="&#x2122;" horiz-adv-x="1040" d="M113 1440q0 10 7 16t17 6h393q21 0 21 -22q0 -10 -8.5 -15.5t-18.5 -5.5q-4 0 -19.5 3t-25.5 3h-131l-84 -467q-1 -6 -2 -23.5t-2 -21.5q-3 -26 -27 -26q-9 0 -15 8t-5 18l12 50l82 462h-127q-11 0 -26.5 -3t-20.5 -3q-9 0 -15 6t-5 15zM539 913q0 3 10 48l78 432 q4 16 4 45q7 24 26 24h7q17 0 20 -16q10 -30 10 -35l107 -354q10 -30 10 -43l23 37l241 364q2 2 11.5 16.5t11.5 16.5q8 14 24 14h4q21 0 21 -28l-12 -45l-80 -431l-6 -45q-1 -12 -8.5 -19t-16.5 -7q-10 0 -16.5 7.5t-6.5 18.5l13 48l71 376l13 56l-252 -381q-1 -4 -8 -14 t-7 -11q-7 -14 -24 -14t-23 18q0 2 -2 13t-2 14l-118 385q0 -18 -7 -62l-67 -383q-1 -6 -2 -23.5t-2 -21.5q-3 -26 -27 -26q-9 0 -15 8t-3 18z" />
<glyph unicode="&#x25fc;" horiz-adv-x="983" d="M0 0v983h983v-983h-983z" />
<glyph unicode="&#xfb03;" horiz-adv-x="1728" d="M-115 -422q0 13 9.5 22t21.5 9q7 0 22.5 -6t36.5 -6q51 0 87 38.5t47 100.5l204 1194h-45q-14 0 -36.5 -2t-28.5 -2q-14 0 -22.5 7t-8.5 19q0 13 10.5 22t24.5 9q4 0 27 -3t38 -3h50l55 319q35 191 198 191q50 0 95 -25q24 -16 24 -35q0 -13 -9.5 -21.5t-20.5 -8.5 q-13 0 -27 14q-34 29 -68 29q-49 0 -88.5 -35t-50.5 -109l-55 -319h160q15 0 38.5 3t28.5 3q12 0 20.5 -8.5t8.5 -20.5t-9.5 -20t-23.5 -8q-6 0 -29 2t-37 2h-165l-207 -1198q-18 -98 -74 -144.5t-133 -46.5q-68 0 -68 37zM473 -422q0 13 9.5 22t21.5 9q7 0 22.5 -6t36.5 -6 q51 0 86.5 38.5t46.5 100.5l205 1194h-45q-14 0 -36.5 -2t-28.5 -2q-14 0 -22.5 7t-8.5 19q0 13 10.5 22t24.5 9q4 0 27 -3t38 -3h49l56 319q35 191 198 191q49 0 94 -25q25 -17 25 -35q0 -13 -10 -21.5t-21 -8.5q-12 0 -26 14q-34 29 -68 29q-49 0 -88.5 -35t-50.5 -109 l-55 -319h159q15 0 39 3t29 3q12 0 20.5 -8.5t8.5 -20.5t-9.5 -20t-23.5 -8q-6 0 -29 2t-37 2h-166l-206 -1198q-18 -98 -74 -144.5t-133 -46.5q-68 0 -68 37zM1366 139q0 50 37 238l96 448q8 42 0 68.5t-31 26.5q-8 0 -16 -4.5t-16 -4.5q-12 0 -20.5 7.5t-8.5 19.5 q0 15 13 26t36 11q36 0 62 -21.5t32 -60.5q5 -26 -4 -80l-94 -451q-35 -169 -35 -223q0 -90 43 -90q8 0 16.5 3t16.5 3q12 0 20.5 -7t8.5 -19q0 -15 -13 -26t-36 -11q-48 0 -77.5 37.5t-29.5 109.5zM1520 1305q0 23 16 39t39 16t38 -16t15 -39q0 -22 -15 -38t-38 -16t-39 16 t-16 38z" />
<glyph unicode="&#xfb04;" horiz-adv-x="1726" d="M-115 -422q0 13 9.5 22t21.5 9q7 0 22.5 -6t36.5 -6q51 0 87 38.5t47 100.5l204 1194h-45q-14 0 -36.5 -2t-28.5 -2q-14 0 -22.5 7t-8.5 19q0 13 10.5 22t24.5 9q4 0 27 -3t38 -3h50l55 319q35 191 198 191q50 0 95 -25q24 -16 24 -35q0 -13 -9.5 -21.5t-20.5 -8.5 q-13 0 -27 14q-34 29 -68 29q-49 0 -88.5 -35t-50.5 -109l-55 -319h160q15 0 38.5 3t28.5 3q12 0 20.5 -8.5t8.5 -20.5t-9.5 -20t-23.5 -8q-6 0 -29 2t-37 2h-165l-207 -1198q-18 -98 -74 -144.5t-133 -46.5q-68 0 -68 37zM473 -422q0 13 9.5 22t21.5 9q7 0 22.5 -6t36.5 -6 q51 0 86.5 38.5t46.5 100.5l205 1194h-45q-14 0 -36.5 -2t-28.5 -2q-14 0 -22.5 7t-8.5 19q0 13 10.5 22t24.5 9q4 0 27 -3t38 -3h49l56 319q35 191 198 191q49 0 94 -25q25 -17 25 -35q0 -13 -10 -21.5t-21 -8.5q-12 0 -26 14q-34 29 -68 29q-49 0 -88.5 -35t-50.5 -109 l-55 -319h159q15 0 39 3t29 3q12 0 20.5 -8.5t8.5 -20.5t-9.5 -20t-23.5 -8q-6 0 -29 2t-37 2h-166l-206 -1198q-18 -98 -74 -144.5t-133 -46.5q-68 0 -68 37zM1343 139q0 50 37 238l176 997q3 14 4.5 29.5t2.5 29.5t2 19q8 35 34 35q14 0 23 -12t6 -25q-1 -8 -8 -35.5 t-10 -42.5l-180 -1010q-33 -183 -33 -223q-3 -90 41 -90q10 0 18 3t14 3q13 0 22 -7t9 -19q0 -15 -13 -26t-36 -11q-49 0 -79 37.5t-30 109.5z" />
</font>
</defs>
</svg>
