<?xml version="1.0" standalone="no"?>
<!DOCTYPE svg PUBLIC "-//W3C//DTD SVG 1.1//EN" "http://www.w3.org/Graphics/SVG/1.1/DTD/svg11.dtd" >
<svg xmlns="http://www.w3.org/2000/svg">
<metadata></metadata>
<defs>
<font id="routerbold_italic" horiz-adv-x="1236" >
<font-face units-per-em="2048" ascent="1536" descent="-512" />
<missing-glyph horiz-adv-x="430" />
<glyph unicode="&#xfb01;" horiz-adv-x="1572" d="M-211 -311q0 62 41.5 105.5t103.5 43.5q38 0 73 -18.5t50 -18.5q17 0 32 13t20 43l145 872q-10 -1 -38.5 -3.5t-37.5 -2.5q-52 0 -85 36t-30 87q4 52 44.5 88.5t93.5 36.5q10 0 43.5 -4.5t48.5 -5.5l33 186q27 161 121 251.5t247 90.5q100 0 168.5 -34.5t100.5 -86.5 q24 -40 24 -78q0 -61 -42 -104t-103 -43q-47 0 -86 35q-4 3 -17 14.5t-19 15.5t-17 8.5t-23 4.5q-27 0 -47.5 -21.5t-26.5 -56.5l-31 -182h56q15 0 57 5t55 5q52 0 84 -36t27 -89q-3 -51 -42 -87t-91 -36q-13 0 -53.5 4t-55.5 4h-75l-154 -911q-23 -129 -117.5 -213 t-238.5 -84q-115 0 -176.5 46.5t-61.5 119.5zM965 862q0 65 54.5 109.5t143.5 44.5q88 0 152 -47t90 -131q31 -103 -12 -283l-29 -121q-33 -135 -33 -166q0 -16 12 -16q6 0 18 2t19 2q53 0 87 -35t34 -86q0 -65 -54.5 -109t-143.5 -44q-112 0 -185.5 75.5t-73.5 198.5 q0 86 35 217l45 166q9 32 11.5 56.5t-1 37t-12.5 12.5q-6 0 -18 -2t-19 -2q-53 0 -86.5 35t-33.5 86zM1182 1313q0 69 50.5 117.5t121.5 48.5q72 0 123 -48.5t51 -117.5q0 -70 -51 -119t-123 -49q-71 0 -121.5 49t-50.5 119z" />
<glyph unicode="&#xfb02;" horiz-adv-x="1466" d="M-211 -311q0 62 41.5 105.5t103.5 43.5q38 0 73 -18.5t50 -18.5q17 0 32 13t20 43l145 872q-10 -1 -38.5 -3.5t-37.5 -2.5q-52 0 -85 36t-30 87q4 52 44.5 88.5t93.5 36.5q10 0 43.5 -4.5t48.5 -5.5l33 186q27 161 121 251.5t247 90.5q100 0 168.5 -34.5t100.5 -86.5 q24 -40 24 -78q0 -61 -42 -104t-103 -43q-47 0 -86 35q-4 3 -17 14.5t-19 15.5t-17 8.5t-23 4.5q-27 0 -47.5 -21.5t-26.5 -56.5l-31 -182h56q15 0 57 5t55 5q52 0 84 -36t27 -89q-3 -51 -42 -87t-91 -36q-13 0 -53.5 4t-55.5 4h-75l-154 -911q-23 -129 -117.5 -213 t-238.5 -84q-115 0 -176.5 46.5t-61.5 119.5zM920 274q0 66 16 160l131 758q3 23 8 80t6 67q7 70 57.5 117t116.5 47q67 0 108 -47t36 -117q-1 -23 -16 -77.5t-17 -69.5l-135 -750q-25 -139 -25 -159q0 -31 13 -31q6 0 17.5 2t18.5 2q53 0 87 -35t34 -86q0 -65 -54.5 -109 t-143.5 -44q-116 0 -187 79.5t-71 212.5z" />
<glyph horiz-adv-x="2048" />
<glyph horiz-adv-x="2048" />
<glyph unicode="&#xd;" horiz-adv-x="2048" />
<glyph unicode=" "  horiz-adv-x="430" />
<glyph unicode="&#x09;" horiz-adv-x="430" />
<glyph unicode="&#xa0;" horiz-adv-x="430" />
<glyph unicode="!" horiz-adv-x="681" d="M131 135q0 71 53.5 120.5t120.5 49.5q65 0 108.5 -44.5t43.5 -108.5q0 -71 -53.5 -120.5t-120.5 -49.5q-65 0 -108.5 44.5t-43.5 108.5zM219 535q0 20 13 73t16 76l67 551q1 10 5.5 71t7.5 83q10 65 62 110t116 45q67 0 109 -44t42 -111q0 -15 -6 -43.5t-17.5 -75 t-15.5 -62.5l-122 -546q-6 -24 -10.5 -67.5t-6.5 -55.5q-11 -56 -50 -91.5t-93 -35.5q-52 0 -84.5 35t-32.5 88z" />
<glyph unicode="&#x22;" horiz-adv-x="899" d="M236 1141q2 20 14 58.5t16 57.5l2 13q4 32 5.5 62t1.5 55.5t1 35.5q7 51 47.5 83t94.5 32q58 0 90 -42t20 -99q-1 -10 -16 -58.5t-23 -91.5l-2 -12q-4 -22 -7.5 -62t-6.5 -55q-8 -50 -43 -82t-82 -32q-56 0 -90 39.5t-22 97.5zM604 1141q2 20 14.5 58t16.5 58l2 13 q4 32 5.5 62t1.5 55.5t1 35.5q7 51 47 83t94 32q58 0 90.5 -42t20.5 -99q-1 -10 -16 -58.5t-23 -91.5l-2 -12q-4 -22 -7.5 -62t-6.5 -55q-8 -50 -43 -82t-82 -32q-56 0 -90.5 39.5t-22.5 97.5z" />
<glyph unicode="#" horiz-adv-x="1271" d="M-23 467q5 50 40 83.5t85 33.5q11 0 49 -5.5t52 -5.5h41l88 246h-10q-13 0 -52.5 -4t-50.5 -4q-49 0 -80 33.5t-26 81.5q4 49 40.5 82.5t84.5 33.5q12 0 50.5 -4t51.5 -4h68l61 176q7 20 15 57.5t14 53.5q31 94 123 94q42 0 73 -31t31 -77q0 -22 -8.5 -47t-23.5 -56.5 t-21 -48.5l-43 -121h254l55 158q7 21 15 58t14 53q31 94 123 94q42 0 74 -31.5t32 -77.5q0 -22 -9.5 -47t-24.5 -55.5t-21 -48.5l-37 -103q11 1 39.5 4.5t38.5 3.5q50 0 80 -33.5t26 -82.5q-5 -48 -41.5 -81.5t-85.5 -33.5q-12 0 -49 4t-51 4h-33l-86 -246q15 0 53 5.5 t49 5.5q50 0 80.5 -34t26.5 -83q-5 -48 -41.5 -81.5t-85.5 -33.5q-11 0 -49 3t-51 3h-58l-59 -172q-7 -21 -15 -57.5t-14 -52.5q-31 -94 -123 -94q-42 0 -74 31t-32 77q0 21 9 46t24.5 56.5t21.5 47.5l41 118h-254l-53 -149q-8 -23 -15.5 -60t-11.5 -51q-30 -94 -123 -94 q-44 0 -75 30.5t-31 78.5q0 28 25 84t28 65l33 96q-81 -6 -86 -6q-49 0 -79.5 33.5t-25.5 81.5zM467 573h254l86 246h-254z" />
<glyph unicode="$" horiz-adv-x="1185" d="M53 338q0 76 48 126t126 50q62 0 105 -47.5t39 -120.5q-3 -26 14 -53q22 -33 66 -49l61 354l-27 14q-295 153 -295 412q0 169 127 285.5t326 120.5q2 16 2.5 50.5t3.5 51.5q11 48 46.5 78t82.5 30q50 0 82.5 -31.5t32.5 -76.5q0 -20 -13.5 -68t-15.5 -59 q200 -50 260 -160q27 -46 27 -110q0 -60 -45.5 -105t-116.5 -45q-53 0 -96.5 30.5t-52.5 78.5q-5 26 -37 51l-58 -328l66 -31q287 -137 287 -372q0 -127 -66.5 -226.5t-174 -155t-239.5 -65.5q0 -42 -2 -65q-6 -46 -45 -78.5t-86 -32.5q-52 0 -84 32.5t-32 78.5q0 27 18 86 q-119 30 -202.5 99t-116.5 159q-15 47 -15 92zM485 1038q0 -75 80 -137l49 279q-129 -18 -129 -142zM643 233q73 16 110.5 56.5t37.5 85.5q0 43 -21 74t-78 67z" />
<glyph unicode="%" horiz-adv-x="2179" d="M150 901q0 70 15 141t48 140t80.5 122t118 86t153.5 33q90 0 157 -29.5t104.5 -81t55 -114t17.5 -137.5q0 -56 -12 -120.5t-42 -136.5t-74 -129.5t-115.5 -95.5t-159.5 -38q-73 0 -132.5 20t-98.5 54t-65.5 80.5t-38 98t-11.5 107.5zM371 911q0 -43 10.5 -80t39.5 -66.5 t73 -29.5q52 0 94.5 46.5t65 118.5t22.5 151q0 176 -121 176q-83 0 -133.5 -96t-50.5 -220zM610 84q0 31 29 76q9 14 32 43t36 49l673 1005q16 24 35 60.5t23 42.5q41 59 104 59q43 0 71.5 -28t28.5 -72q0 -33 -26 -76l-70 -92l-672 -1006q-16 -23 -34 -57.5t-25 -44.5 q-39 -61 -102 -61q-44 0 -73.5 29t-29.5 73zM1360 332q0 70 15 141.5t48.5 141t81 122.5t118 86t153.5 33q90 0 157 -29.5t104 -82t54.5 -115t17.5 -137.5q0 -55 -12 -119.5t-42.5 -136.5t-74.5 -129.5t-115.5 -95.5t-158.5 -38q-73 0 -132.5 20t-98.5 54t-65.5 80.5 t-38 97.5t-11.5 107zM1581 342q0 -42 10.5 -79.5t39 -66t71.5 -28.5q80 0 132 96t52 219q0 176 -121 176q-83 0 -133.5 -96.5t-50.5 -220.5z" />
<glyph unicode="&#x26;" horiz-adv-x="1513" d="M98 483q0 154 84.5 266t229.5 160q-105 83 -105 221q0 113 61.5 199.5t156.5 129t206 42.5q124 0 215 -50t131 -114q33 -54 33 -106q0 -49 -37.5 -86t-101.5 -37q-41 0 -70.5 21.5t-44.5 54.5q-21 47 -53 69.5t-86 22.5q-83 0 -130.5 -45.5t-47.5 -106.5q0 -63 34 -100 t74 -47q13 -3 37 -7.5t35 -8.5q67 -26 67 -93q0 -45 -32 -80.5t-99 -35.5q-10 0 -35.5 4t-35.5 4q-70 0 -133.5 -72t-63.5 -176q0 -58 19 -109t58.5 -95t111 -69.5t167.5 -25.5q169 0 272 93.5t103 242.5q0 24 -2 49h-76q-23 0 -36 -8.5t-13 -22.5q0 -13 6.5 -31t6.5 -42 q0 -31 -32 -64t-89 -33q-56 0 -91.5 39.5t-35.5 112.5q0 114 83.5 185t233.5 71h119q31 0 44 5.5t13 23.5q0 9 -4 30.5t-4 34.5q0 45 34 79t89 34q68 0 105.5 -43.5t37.5 -124.5q0 -65 -34.5 -124t-114.5 -91q4 -66 4 -80q0 -258 -179 -421t-468 -163q-148 0 -268 44.5 t-194.5 118t-114.5 165t-40 190.5z" />
<glyph unicode="'" horiz-adv-x="530" d="M236 1141q2 20 14 58.5t16 57.5l2 13q4 32 5.5 62t1.5 55.5t1 35.5q7 51 47.5 83t94.5 32q58 0 90 -42t20 -99q-1 -10 -16 -58.5t-23 -91.5l-2 -12q-4 -22 -7.5 -62t-6.5 -55q-8 -50 -43 -82t-82 -32q-56 0 -90 39.5t-22 97.5z" />
<glyph unicode="(" horiz-adv-x="841" d="M131 461q0 226 67 430t206.5 370.5t334.5 258.5q65 30 119 30q51 0 86 -30t35 -78q0 -100 -139 -146q-92 -31 -175.5 -102.5t-149.5 -175.5t-105 -248t-39 -307q0 -196 62.5 -329.5t176.5 -199.5q92 -53 92 -118q0 -62 -39 -97.5t-92 -35.5q-68 0 -135 53 q-141 107 -223 303t-82 422z" />
<glyph unicode=")" horiz-adv-x="841" d="M-147 -209q0 100 139 146q92 31 175.5 102.5t149.5 175.5t105 248t39 307q0 195 -63 328t-177 200q-92 53 -92 119q0 62 39 97.5t92 35.5q68 0 135 -53q141 -107 223 -303t82 -422t-67 -430t-206.5 -370.5t-334.5 -258.5q-65 -30 -119 -30q-51 0 -85.5 30t-34.5 78z" />
<glyph unicode="*" horiz-adv-x="845" d="M152 1214q4 48 38 75.5t76 27.5q21 0 40 -7.5t41 -19.5t38 -18l39 -15l4 33q2 24 -0.5 62t-1.5 57q5 45 40.5 77t82.5 32t77 -32t25 -77q-1 -22 -10.5 -60t-11.5 -59l-4 -33l43 15q12 4 55 24.5t70 20.5q42 0 72 -28.5t26 -76.5q-3 -33 -26 -58.5t-60 -37.5 q-21 -6 -55 -10.5t-50 -9.5l-34 -13l45 -61q7 -11 22 -29.5t22.5 -29.5t13.5 -29.5t5 -38.5q-3 -43 -35.5 -72.5t-79.5 -29.5q-54 0 -88 51q0 1 -34 80l-35 61l-41 -61q-10 -15 -23 -38.5t-26 -41.5q-40 -51 -101 -51q-47 0 -74 29.5t-24 72.5q3 36 25 61q12 15 63 66l53 61 l-30 13q-16 5 -50 9.5t-53 10.5q-34 12 -53 38.5t-16 59.5z" />
<glyph unicode="+" horiz-adv-x="1067" d="M113 535q3 51 42.5 86.5t92.5 35.5q13 0 58.5 -4t60.5 -4h51l10 58q4 23 7 64t7 60q11 55 48.5 89t89.5 34q54 0 87 -34t33 -86q0 -24 -14 -77t-18 -73l-6 -35h47q15 0 57 4t55 4q52 0 84 -35t29 -87q-5 -51 -44 -87t-91 -36q-13 0 -53.5 4t-55.5 4h-67l-11 -60 q-4 -25 -6.5 -66t-5.5 -58q-7 -54 -46.5 -89.5t-90.5 -35.5t-87 34.5t-36 87.5q0 24 15.5 74.5t19.5 73.5l6 39h-33q-15 0 -62.5 -4t-60.5 -4q-52 0 -84.5 36t-27.5 87z" />
<glyph unicode="," horiz-adv-x="610" d="M102 123q0 62 46 114t118 52q74 0 120 -51.5t46 -147.5q0 -93 -32.5 -181.5t-80.5 -146.5q-56 -65 -108 -65q-48 0 -75 27t-27 65q0 39 45 84l20 20t20 20.5t15 18t12 19.5t4 18q0 18 -16 21q-42 5 -74.5 43t-32.5 90z" />
<glyph unicode="-" horiz-adv-x="792" d="M123 551q3 51 42.5 87t92.5 36q13 0 58.5 -4t60.5 -4h67q15 0 57.5 4t55.5 4q52 0 84 -35.5t29 -87.5q-5 -51 -44 -87t-91 -36q-13 0 -53.5 4t-55.5 4h-68q-15 0 -62 -4t-60 -4q-52 0 -85 36t-28 87z" />
<glyph unicode="." horiz-adv-x="589" d="M86 135q0 71 53.5 120.5t120.5 49.5q65 0 108.5 -44.5t43.5 -108.5q0 -71 -53.5 -120.5t-120.5 -49.5q-65 0 -108.5 44.5t-43.5 108.5z" />
<glyph unicode="/" horiz-adv-x="987" d="M-141 -260q0 45 26 86q7 11 31 43.5t35 52.5l842 1419q15 24 33.5 63.5t25.5 51.5q40 66 106 66q56 0 90.5 -35t34.5 -80t-26 -86q-7 -11 -31 -43.5t-35 -52.5l-841 -1420q-15 -24 -34 -63.5t-26 -50.5q-40 -66 -106 -66q-56 0 -90.5 35t-34.5 80z" />
<glyph unicode="0" horiz-adv-x="1427" d="M156 547q0 128 26.5 252.5t81.5 237.5t132.5 198.5t188 136.5t238.5 51q113 0 203.5 -31.5t151 -85.5t101 -129.5t58 -160.5t17.5 -182q0 -94 -17 -191.5t-50 -196.5t-88 -185.5t-125.5 -154t-168 -106.5t-209.5 -39q-109 0 -199.5 31.5t-153 86t-105 129t-62.5 160 t-20 179.5zM453 561q0 -62 12.5 -118.5t39 -107.5t75.5 -81.5t114 -30.5q100 0 183 81.5t129.5 218.5t46.5 298q0 155 -61.5 246.5t-182.5 91.5q-101 0 -183.5 -83t-127.5 -219.5t-45 -295.5z" />
<glyph unicode="1" horiz-adv-x="800" d="M90 1157q0 49 35.5 88t91.5 39q34 0 58 -11t44 -11q23 0 66 30l102 76q61 47 125 47q83 0 131 -35.5t48 -111.5q0 -16 -5.5 -44t-13 -62.5t-10.5 -49.5l-154 -821q-3 -19 -7 -72t-7 -72q-11 -71 -57 -118t-117 -47q-67 0 -106.5 45.5t-34.5 113.5q1 22 15.5 77.5 t16.5 70.5l115 631q14 76 51 188q-40 -35 -69 -51q-72 -35 -146 -35q-85 0 -128.5 39t-43.5 96z" />
<glyph unicode="2" horiz-adv-x="1206" d="M70 162q0 193 118 352.5t338 255.5l152 66q162 71 162 198q0 57 -47.5 97t-128.5 40q-79 0 -123.5 -34t-71.5 -109q-20 -55 -54.5 -80.5t-90.5 -25.5q-57 0 -95.5 38t-38.5 95q0 89 62 170q61 85 172 136.5t242 51.5q95 0 173.5 -21t132 -56.5t90.5 -82.5t54 -98.5 t17 -105.5q1 -156 -91.5 -266t-267.5 -189l-153 -70q-113 -51 -172 -106.5t-82 -151.5h434q18 0 65.5 8.5t61.5 8.5q63 0 100.5 -40t32.5 -100t-51 -101.5t-109 -41.5h-706q-58 0 -91.5 48.5t-33.5 113.5z" />
<glyph unicode="3" horiz-adv-x="1224" d="M16 281q0 71 43.5 112t104.5 41q53 0 86 -24t69 -80q70 -100 216 -103q119 -1 198.5 75.5t79.5 186.5q0 91 -63.5 141t-169.5 50h-39q-59 0 -93 25t-34 77q0 60 45 99q19 17 60.5 41.5t53.5 33.5l175 129l86 60h-347q-16 0 -60.5 -9.5t-57.5 -9.5q-62 0 -97.5 35.5 t-31.5 95.5q3 56 47.5 94t105.5 38h631q60 0 98.5 -39.5t38.5 -106.5q0 -99 -112 -184l-199 -150q-27 -20 -55 -37q153 -29 232 -129.5t79 -259.5q0 -143 -76.5 -262.5t-206.5 -187.5t-284 -68q-130 0 -262.5 49t-210.5 144q-50 60 -50 123z" />
<glyph unicode="4" horiz-adv-x="1335" d="M72 496l16 92q3 20 7.5 35.5t13 31t14 25t21 26.5t23 25t30.5 30.5t34 33.5l471 462l33.5 33.5t30 29.5t24 21.5t25.5 19t24.5 12t30.5 10t33 4t43 2.5h94q54 0 83.5 -40.5t31.5 -101.5q0 -16 -6 -44.5t-14 -62t-11 -48.5l-88 -480q16 2 58 11.5t55 9.5q65 0 106 -35 t41 -94q0 -62 -41.5 -103t-105.5 -41h-158l-12 -69q-10 -62 -14 -144q-6 -68 -56 -116.5t-116 -48.5q-68 0 -108.5 45.5t-35.5 113.5q1 22 16 77.5t17 70.5l12 71h-506q-57 0 -91.5 38t-24.5 98zM401 612h344l82 430z" />
<glyph unicode="5" horiz-adv-x="1259" d="M29 281q0 72 43.5 113.5t103.5 41.5q53 0 86.5 -24.5t69.5 -81.5q68 -97 217 -97q123 0 212 81t89 214q0 103 -67.5 163.5t-172.5 60.5q-103 0 -178 -43q-26 -14 -40.5 -21.5t-38 -13.5t-48.5 -6q-52 0 -86.5 29.5t-34.5 78.5q0 16 4 35t8.5 31.5t12 32.5l10.5 28l92 279 q11 32 22.5 79t16.5 62q12 35 41.5 50.5t91.5 15.5h564q60 0 97.5 -34t37.5 -89q0 -65 -44 -104.5t-114 -39.5q-14 0 -61 8.5t-64 8.5h-342l-70 -213q92 45 205 45q203 0 330 -123.5t127 -304.5q0 -124 -48 -232.5t-129.5 -184t-193 -118.5t-235.5 -43q-93 0 -188 24 t-167 72q-159 107 -159 220z" />
<glyph unicode="6" horiz-adv-x="1318" d="M125 565q0 180 49.5 337.5t138.5 273t221.5 182.5t290.5 67q103 0 203 -32t156 -86q57 -57 57 -123q0 -64 -45.5 -109t-114.5 -45q-70 0 -120 60q-35 45 -72 59t-107 14q-117 0 -202.5 -83.5t-124.5 -245.5q124 100 290 100q212 0 343 -122.5t131 -307.5 q0 -159 -73.5 -283t-199 -190t-280.5 -66q-164 0 -289.5 86.5t-188.5 221.5t-63 292zM426 553q0 -152 65 -234.5t185 -82.5q97 0 163 72t66 179q0 97 -60.5 163.5t-174.5 66.5q-75 0 -133.5 -25t-110.5 -84v-55z" />
<glyph unicode="7" horiz-adv-x="1067" d="M141 1262q6 60 50.5 97.5t109.5 37.5h696q58 0 91.5 -40t33.5 -93q0 -35 -9 -63.5t-20.5 -47t-39.5 -41t-47 -34.5t-62 -38q-158 -92 -270 -280t-152 -459q-3 -16 -6 -43t-6 -58t-4 -42q-8 -70 -57 -118t-115 -48q-67 0 -108 45.5t-36 114.5q1 22 17 76.5t18 68.5 q41 222 129 409t207 304q82 79 176 133h-331q-17 0 -65 -8.5t-62 -8.5q-65 0 -103.5 38t-34.5 98z" />
<glyph unicode="8" horiz-adv-x="1243" d="M74 387q0 153 84 258t200 137q-48 45 -76 110.5t-28 133.5q0 119 62 211t162.5 139t221.5 47q192 0 306 -103.5t114 -256.5q0 -114 -64 -197.5t-163 -122.5q244 -111 244 -329q0 -88 -39 -170t-108 -145t-172.5 -100.5t-223.5 -37.5q-126 0 -227 35t-164 95t-96 136 t-33 160zM356 428q0 -95 59.5 -151t180.5 -56q104 0 173 56.5t69 134.5q0 58 -43 101t-148 89l-131 57q-75 -25 -117.5 -89.5t-42.5 -141.5zM502 1032q0 -106 145 -164l64 -26q69 24 113 81t44 111q0 76 -50.5 121t-131.5 45q-77 0 -130.5 -49t-53.5 -119z" />
<glyph unicode="9" horiz-adv-x="1296" d="M102 209q0 63 43.5 107t112.5 44q75 0 125 -65q31 -43 67 -56.5t105 -13.5q110 0 203 87.5t137 250.5q-123 -106 -303 -106q-197 0 -319.5 124.5t-122.5 309.5q0 160 72 283.5t193 188t271 64.5q131 0 236.5 -47t172.5 -129t102.5 -190t35.5 -232q0 -253 -90 -450 t-254.5 -305.5t-376.5 -108.5q-77 0 -164.5 19t-150.5 63q-95 67 -95 162zM446 913q0 -99 57 -166t171 -67q80 0 139.5 26.5t116.5 96.5v35q0 152 -69 240.5t-187 88.5q-98 0 -163 -73t-65 -181z" />
<glyph unicode=":" horiz-adv-x="602" d="M86 135q0 71 53.5 120.5t120.5 49.5q65 0 108.5 -44.5t43.5 -108.5q0 -71 -53.5 -120.5t-120.5 -49.5q-65 0 -108.5 44.5t-43.5 108.5zM188 758q0 71 53.5 120.5t120.5 49.5q65 0 108.5 -45t43.5 -109q0 -71 -53.5 -120.5t-120.5 -49.5q-65 0 -108.5 45t-43.5 109z" />
<glyph unicode=";" horiz-adv-x="630" d="M102 123q0 62 46 114t118 52q74 0 120 -51.5t46 -147.5q0 -93 -32.5 -181.5t-80.5 -146.5q-56 -65 -108 -65q-48 0 -75 27t-27 65q0 39 45 84l20 20t20 20.5t15 18t12 19.5t4 18q0 18 -16 21q-42 5 -74.5 43t-32.5 90zM217 758q0 71 53.5 120.5t120.5 49.5 q65 0 108.5 -45t43.5 -109q0 -71 -53.5 -120.5t-120.5 -49.5q-65 0 -108.5 45t-43.5 109z" />
<glyph unicode="&#x3c;" horiz-adv-x="995" d="M139 645q0 46 49 82q8 7 68 43l412 283q15 9 34 25.5t31 23.5q39 24 80 24q45 0 79 -32t34 -72q0 -61 -49 -100q-16 -13 -32.5 -22.5t-35.5 -18.5t-29 -15l-364 -239l246 -248q13 -13 36.5 -32t30.5 -25q37 -37 37 -86q0 -50 -35.5 -85.5t-87.5 -35.5q-49 0 -88 39 q-10 10 -29.5 34t-25.5 31l-287 311q-7 8 -23.5 22.5t-23.5 22.5q-27 30 -27 70z" />
<glyph unicode="=" horiz-adv-x="1067" d="M80 338q3 51 42.5 87t92.5 36q13 0 58.5 -4t60.5 -4h342q15 0 57 4t55 4q52 0 84 -35.5t29 -87.5q-5 -51 -44 -87t-91 -36q-13 0 -53.5 4t-55.5 4h-342q-15 0 -62 -4t-60 -4q-52 0 -85 36t-28 87zM141 711q3 51 42.5 87t92.5 36q13 0 58.5 -4.5t60.5 -4.5h342 q15 0 57.5 4.5t55.5 4.5q52 0 84 -35.5t29 -87.5q-5 -51 -44.5 -87t-91.5 -36q-13 0 -53 4t-55 4h-342q-15 0 -62.5 -4t-60.5 -4q-52 0 -85 36t-28 87z" />
<glyph unicode="&#x3e;" horiz-adv-x="995" d="M111 219q0 61 49 100q16 13 32 22.5t35 18.5t29 15l365 239l-246 248q-13 13 -37 32.5t-31 25.5q-37 37 -37 86q0 50 35.5 85t87.5 35q49 0 88 -39q8 -8 17 -18.5t20.5 -24.5t18.5 -22l286 -311q7 -8 23.5 -22.5t23.5 -22.5q27 -30 27 -70q0 -46 -49 -82q-8 -7 -68 -43 l-411 -283q-15 -9 -34.5 -25.5t-31.5 -23.5q-39 -24 -80 -24q-45 0 -78.5 32t-33.5 72z" />
<glyph unicode="?" horiz-adv-x="1036" d="M135 1106q0 159 135.5 278t333.5 119q108 0 195 -32t140.5 -85t81.5 -118t28 -135q0 -135 -84 -241.5t-228 -172.5q-48 -22 -66 -31t-42 -25t-31.5 -30.5t-7.5 -34.5q0 -7 3 -27t3 -34q0 -55 -44.5 -97.5t-105.5 -42.5q-70 0 -108.5 47.5t-38.5 118.5q0 113 72 198 t221 157q98 46 133 89t35 109q0 58 -46.5 99.5t-125.5 41.5t-129.5 -40t-50.5 -95q0 -10 3 -27.5t3 -29.5q0 -61 -40.5 -101t-99.5 -40q-60 0 -99.5 51.5t-39.5 130.5zM252 135q0 71 53.5 120.5t120.5 49.5q65 0 108.5 -44.5t43.5 -108.5q0 -71 -54 -120.5t-121 -49.5 q-65 0 -108 44.5t-43 108.5z" />
<glyph unicode="@" horiz-adv-x="1533" d="M94 434q0 171 60 316t160 240.5t230 148.5t271 53t261 -44t201.5 -120t127 -180t45.5 -223q0 -134 -42.5 -241.5t-131 -173t-209.5 -65.5q-115 0 -174 78q-41 -45 -99 -64.5t-106 -19.5q-115 0 -196.5 90t-81.5 224q0 104 41.5 196t119.5 150.5t174 58.5q53 0 96 -24.5 t68 -63.5q31 45 92 45q46 0 75.5 -28t29.5 -72q0 -14 -15 -58.5t-18 -62.5l-37 -207q-5 -33 -3.5 -63.5t25 -52t64.5 -21.5q95 0 162.5 104.5t67.5 266.5q0 206 -147.5 345.5t-393.5 139.5q-116 0 -226 -45.5t-198 -128t-141 -210t-53 -278.5q0 -159 67 -287t198.5 -204.5 t305.5 -77.5q196 0 358 111q16 11 24 17.5t16.5 15t15.5 14.5q28 24 53 24q21 0 38 -13.5t17 -37.5q0 -27 -22.5 -49t-85.5 -57q-201 -115 -435 -115q-144 0 -266.5 51t-206 138.5t-130 206.5t-46.5 253zM616 465q0 -64 33 -109t84 -45q38 0 67 25t34 55l40 240 q-13 25 -41.5 39t-62.5 14q-60 0 -107 -61.5t-47 -157.5z" />
<glyph unicode="A" horiz-adv-x="1349" d="M-23 141q0 46 31 99q9 17 34.5 53.5t35.5 56.5l510 955q9 16 47 94q45 90 182 90h21q77 0 114.5 -27.5t48.5 -87.5q16 -96 19 -108l194 -932q7 -34 18 -72.5t17 -66t6 -56.5q0 -67 -45.5 -112t-111.5 -45q-64 0 -108.5 42t-51.5 113q-2 21 -4.5 53.5t-5 58t-6.5 52.5 l-2 10h-539l-35 -71q-28 -57 -42 -96t-23 -58q-20 -46 -61.5 -73t-90.5 -27q-63 0 -107.5 43t-44.5 112zM496 551h383l-70 407q-1 4 -31 205q-30 -84 -86 -202z" />
<glyph unicode="B" horiz-adv-x="1306" d="M98 166q1 24 17 80.5t18 72.5l143 826q14 97 17 149q6 71 56.5 119.5t119.5 48.5h303q192 0 305 -102t113 -268q0 -103 -47.5 -181.5t-128.5 -128.5q76 -48 120 -125t44 -178q0 -121 -49 -215t-131.5 -150.5t-183 -85t-212.5 -28.5h-356q-69 0 -111 48q-38 43 -38 103 q0 8 1 15zM424 272h207q118 0 183 54.5t65 146.5q0 75 -48 113.5t-139 38.5h-207zM532 883h164q85 0 141 49t56 127q0 135 -166 135h-139z" />
<glyph unicode="C" horiz-adv-x="1406" d="M127 623q0 178 55.5 340t151.5 281t231.5 189t288.5 70q158 0 297.5 -58.5t218.5 -184.5q43 -64 43 -138q0 -63 -41.5 -109t-124.5 -46q-56 0 -95.5 35.5t-51.5 80.5q-17 68 -83.5 109t-162.5 41q-97 0 -178 -53.5t-132 -140t-79.5 -192t-28.5 -214.5q0 -184 82.5 -290.5 t231.5 -106.5q188 0 262 124q32 54 66.5 79.5t82.5 25.5q75 0 116.5 -46.5t41.5 -107.5q0 -50 -35 -100q-79 -111 -216 -180.5t-327 -69.5q-195 0 -334.5 84.5t-209.5 232.5t-70 345z" />
<glyph unicode="D" horiz-adv-x="1415" d="M98 166q1 24 17 80.5t18 72.5l143 826q14 97 17 149q6 71 56.5 119.5t119.5 48.5h303q265 0 425.5 -162.5t160.5 -425.5q0 -183 -54 -342t-154 -277.5t-253.5 -186.5t-341.5 -68h-311q-68 0 -110 48q-37 43 -37 103q0 7 1 15zM432 279h158q94 0 177 41.5t145 116 t98.5 187t36.5 246.5q0 156 -83 239t-225 83h-149z" />
<glyph unicode="E" horiz-adv-x="1208" d="M98 166q1 24 17 80.5t18 72.5l143 826q14 97 17 149q6 71 56.5 119.5t119.5 48.5h610q63 0 101 -42q32 -37 33 -88q0 -8 -1 -17q-5 -62 -50 -103t-109 -41q-15 0 -62 9.5t-65 9.5h-336l-55 -295h204q18 0 65 4t62 4q63 0 103 -40q37 -37 37 -91v-8q-6 -60 -51 -97.5 t-109 -37.5q-15 0 -62 3t-65 3h-227l-64 -363h381q18 0 67 9.5t64 9.5q64 0 102 -41q35 -38 35 -94v-9q-6 -62 -53 -104.5t-111 -42.5h-669q-68 0 -110 48q-37 43 -37 103q0 7 1 15z" />
<glyph unicode="F" horiz-adv-x="1185" d="M98 145q1 23 17 79t18 73l148 848q13 86 16 149q6 71 56.5 119.5t119.5 48.5h610q64 0 102 -42q33 -37 33 -88q0 -8 -1 -17q-3 -61 -49 -102.5t-111 -41.5q-15 0 -62 9.5t-65 9.5h-336l-55 -309h204q18 0 65 4t62 4q63 0 103 -40q36 -36 36 -86q0 -6 -1 -13 q-6 -60 -51.5 -99t-108.5 -39q-15 0 -62 4.5t-65 4.5h-227l-56 -320q-13 -86 -16 -149q-6 -71 -57.5 -120.5t-118.5 -49.5q-70 0 -112 46q-37 41 -37 102q0 7 1 15z" />
<glyph unicode="G" horiz-adv-x="1456" d="M127 625q0 178 55.5 340t151.5 281t231.5 189t288.5 70q158 0 297.5 -58.5t218.5 -184.5q43 -64 43 -138q0 -63 -41.5 -109t-124.5 -46q-56 0 -95.5 35.5t-51.5 80.5q-17 68 -83.5 109t-162.5 41q-97 0 -178 -53.5t-132 -140t-79.5 -192t-28.5 -214.5q0 -184 83 -290.5 t235 -106.5q117 0 201.5 68.5t95.5 166.5h-45q-18 0 -65.5 -4t-61.5 -4q-61 0 -99 36t-37 105q2 59 48.5 101.5t109.5 42.5q15 0 63 -4.5t66 -4.5h223q54 0 94 -39q33 -32 33 -77q0 -10 -2 -21l-12 -88q-11 -82 -39 -158t-80 -149t-123 -126.5t-175.5 -86.5t-229.5 -33 q-271 0 -431.5 183t-160.5 479z" />
<glyph unicode="H" horiz-adv-x="1482" d="M98 145q1 23 17 79t18 73l150 872q13 86 16 150q6 71 57.5 120.5t118.5 49.5q69 -1 111 -47q37 -42 38 -102q0 -7 -1 -15q-1 -23 -17 -78.5t-18 -72.5l-51 -293h534l51 288q14 96 17 150q6 71 57.5 120.5t118.5 49.5q70 -1 111 -47q37 -41 37 -102q0 -7 -1 -15 q-1 -23 -17 -78.5t-18 -72.5l-149 -873q-13 -86 -16 -149q-6 -71 -58 -120.5t-119 -49.5q-70 0 -111 46q-37 41 -37 102q0 7 1 15q1 23 17 79t18 73l55 326h-534l-56 -322q-13 -86 -16 -149q-6 -71 -57.5 -120.5t-118.5 -49.5q-70 0 -112 46q-37 41 -37 102q0 7 1 15z" />
<glyph unicode="I" horiz-adv-x="673" d="M109 145q1 23 16.5 79.5t17.5 72.5l150 872q13 86 16 150q6 71 57.5 120.5t118.5 49.5q69 -1 111 -47q37 -42 38 -102q0 -7 -1 -15q-1 -23 -17 -78.5t-18 -72.5l-149 -873q-14 -97 -17 -149q-6 -71 -57.5 -120.5t-118.5 -49.5q-70 0 -111 46q-37 41 -37 102q0 7 1 15z " />
<glyph unicode="J" horiz-adv-x="1202" d="M-6 328q0 66 44.5 115t104.5 49q127 0 154 -134q13 -62 54 -94.5t132 -32.5q113 0 176 77t91 243l106 618q13 86 16 150q6 71 58 120.5t119 49.5q70 0 111 -47q37 -41 37 -102q0 -7 -1 -15q-1 -23 -17 -78.5t-18 -72.5l-110 -648q-17 -97 -43.5 -176.5t-72 -153 t-106 -123.5t-149.5 -80t-199 -30q-153 0 -271.5 58.5t-174.5 160.5q-41 77 -41 146z" />
<glyph unicode="K" horiz-adv-x="1378" d="M98 145q1 23 17 79t18 73l150 872q13 86 16 150q6 71 57.5 120.5t118.5 49.5q69 -1 111 -47q37 -42 38 -102q0 -7 -1 -15q-1 -23 -17 -78.5t-18 -72.5l-17 -97q-2 -12 -17 -75.5t-24 -106.5q124 116 224 203l280 248q19 17 51 53t50 51q45 39 110 39q64 0 107 -43.5 t43 -108.5q0 -44 -17.5 -75.5t-56.5 -63.5q-17 -15 -51.5 -38.5t-55.5 -41.5l-311 -268l254 -492q12 -24 42 -74t42 -73q19 -38 19 -70q0 -71 -45.5 -115t-112.5 -44q-42 0 -80 22.5t-59 61.5q-10 18 -31 69.5t-27 63.5l-237 477l-191 -148q-5 -31 -15 -87l-24 -142 q-12 -85 -16 -147q-6 -71 -57.5 -120.5t-118.5 -49.5q-70 0 -112 46q-37 41 -37 102q0 7 1 15z" />
<glyph unicode="L" horiz-adv-x="1187" d="M98 166q1 24 17 80.5t18 72.5l146 850q13 86 16 150q6 71 57.5 120.5t118.5 49.5q70 -1 111 -47q37 -41 37 -102q0 -7 -1 -15q-1 -23 -16.5 -78.5t-17.5 -72.5l-156 -902h381q18 0 67 9.5t64 9.5q64 0 103 -41q35 -36 35 -89q0 -7 -1 -14q-5 -62 -52.5 -104.5 t-111.5 -42.5h-669q-68 0 -110 48q-37 43 -37 103q0 7 1 15z" />
<glyph unicode="M" horiz-adv-x="1699" d="M98 145q1 23 18 81t19 75l146 844q13 86 16 149q6 71 56.5 119.5t119.5 48.5h23q54 0 88 -37t47 -98l18 -70l166 -589l41 -154q7 12 38 65t50 83l387 628l39 70q29 50 65.5 76t92.5 26h14q66 0 104 -48q33 -42 34 -102q0 -8 -1 -16q-1 -24 -16.5 -80.5t-17.5 -72.5 l-146 -842q-11 -56 -16 -151q-6 -71 -56.5 -119.5t-119.5 -48.5q-67 0 -107 46q-35 41 -36 101q0 8 1 16q1 24 17 85.5t18 70.5l66 354q1 6 28 144l-284 -447q-54 -83 -60 -92q-23 -31 -52 -45t-79 -14q-107 0 -135 86q0 1 -27 92l-147 536q-13 -160 -31 -286l-45 -328 q-16 -107 -18 -151q-6 -71 -55.5 -119.5t-118.5 -48.5q-68 0 -108 46q-36 41 -37 102q0 7 1 15z" />
<glyph unicode="N" horiz-adv-x="1476" d="M98 145q1 23 17 79t18 73l148 848q13 86 16 149q6 71 56.5 119.5t119.5 48.5q64 0 95 -33t71 -122l274 -592q21 -47 47.5 -107.5t43 -99.5t18.5 -43q19 178 31 252l63 452q14 96 17 150q6 71 57.5 120.5t118.5 49.5q70 -1 111 -47q37 -41 37 -102q0 -7 -1 -15 q-1 -23 -17 -78.5t-18 -72.5l-149 -873q-14 -96 -17 -151q-6 -71 -56.5 -119.5t-119.5 -48.5q-94 0 -137 69q-13 21 -31.5 68t-27.5 67l-355 740q-22 -203 -32 -258l-62 -367q-13 -86 -16 -149q-6 -71 -55.5 -120.5t-116.5 -49.5q-70 0 -112 46q-37 41 -37 102q0 7 1 15z " />
<glyph unicode="O" horiz-adv-x="1554" d="M127 612q0 196 59.5 364t161 282t238.5 178.5t291 64.5q282 0 444 -178.5t162 -468.5q0 -198 -56.5 -365.5t-154.5 -283t-233 -180t-289 -64.5q-281 0 -452 182t-171 469zM438 610q0 -164 84 -269t230 -105q116 0 211.5 77.5t151.5 221t56 323.5q0 164 -85.5 269.5 t-231.5 105.5q-177 0 -296.5 -175t-119.5 -448z" />
<glyph unicode="P" horiz-adv-x="1257" d="M98 145q1 23 17 79t18 73l148 848q13 86 16 149q6 71 56.5 119.5t119.5 48.5h328q202 0 336.5 -122.5t134.5 -295.5q0 -149 -80 -265t-207.5 -175t-277.5 -59h-226l-43 -244q-13 -86 -16 -149q-6 -71 -57.5 -120.5t-118.5 -49.5q-70 0 -112 46q-37 41 -37 102q0 7 1 15z M526 815h213q99 0 162.5 56.5t63.5 158.5q0 70 -47.5 115t-131.5 45h-192z" />
<glyph unicode="Q" horiz-adv-x="1558" d="M127 612q0 158 38 298t107 247t161.5 185t204.5 118.5t234 40.5q188 0 327.5 -84t211.5 -230.5t72 -336.5q0 -205 -65.5 -376.5t-178.5 -293.5l78 -141q41 -78 82 -78q24 0 47 10q33 11 47 11q60 0 98 -42q34 -36 34 -87q0 -6 -1 -13q-6 -72 -70.5 -118t-160.5 -46 q-90 0 -177.5 63.5t-136.5 156.5l-65 120q-129 -55 -269 -55q-188 0 -329 84t-215 231t-74 336zM434 610q0 -164 84 -269t230 -105q76 0 143 30l-21 53q-32 76 -61 76q-13 0 -41 -8q-24 -8 -45 -8q-60 0 -93 42q-29 36 -29 86q0 9 1 19q6 67 65 111.5t148 44.5q92 0 157 -52 t115 -153q80 167 80 381q0 164 -85.5 269.5t-231.5 105.5q-177 0 -296.5 -175t-119.5 -448z" />
<glyph unicode="R" horiz-adv-x="1351" d="M98 145q1 23 17 79t18 73l146 848q13 86 16 149q6 71 56.5 119.5t119.5 48.5h338q201 0 330 -116t129 -291q0 -174 -101 -294.5t-260 -170.5l109 -240q22 -47 34 -61.5t29 -14.5q9 0 30.5 6.5t37.5 6.5q59 0 95 -42q35 -40 34 -92v-6q-2 -71 -61.5 -117t-155.5 -46 q-98 0 -169 60.5t-114 160.5l-155 354h-140l-43 -258q-13 -86 -16 -149q-6 -71 -57.5 -120.5t-118.5 -49.5q-70 0 -112 46q-37 41 -37 102q0 7 1 15zM526 829h213q102 0 163 54t61 153q0 68 -47.5 111t-131.5 43h-192z" />
<glyph unicode="S" horiz-adv-x="1216" d="M55 356q0 79 46.5 130t127.5 51q67 0 113 -50q46 -49 45 -119q0 -35 14 -57q51 -78 189 -78q106 0 166.5 46.5t60.5 107.5q0 63 -47.5 108.5t-185.5 116.5l-60 31q-307 158 -307 436q0 181 135.5 303.5t349.5 122.5q145 0 260.5 -53t174.5 -133q49 -67 49 -133 q0 -71 -45.5 -119.5t-120.5 -48.5q-53 0 -98 31.5t-54 80.5q-20 107 -161 107q-75 0 -128 -41t-53 -106q0 -60 46.5 -107t181.5 -117l77 -41q306 -160 306 -401q0 -142 -76 -248.5t-200.5 -159.5t-276.5 -53q-191 0 -328 83.5t-182 209.5q-19 52 -19 100z" />
<glyph unicode="T" horiz-adv-x="1187" d="M119 1319q6 62 52 102.5t110 40.5h907q64 0 102 -40q32 -35 32 -86q0 -8 -1 -17q-4 -61 -48.5 -100t-109.5 -39q-15 0 -62 8t-65 8h-180l-156 -895q-13 -86 -16 -149q-6 -71 -57.5 -120.5t-118.5 -49.5q-70 0 -112 46q-37 41 -37 102q0 7 1 15q1 23 17 79t18 73l156 899 h-162q-18 0 -68 -8t-65 -8q-65 0 -103 39q-34 35 -34 89v11z" />
<glyph unicode="U" horiz-adv-x="1439" d="M152 633l88 536q13 86 16 150q6 71 57.5 120.5t118.5 49.5q68 0 108 -46q35 -41 36 -102q0 -8 -1 -16q-1 -23 -16.5 -78.5t-17.5 -72.5l-95 -568q-8 -49 -8 -92q0 -100 44 -171q62 -101 206 -101q122 0 203 83t106 232l105 612q13 86 16 150q6 70 59 120t121 50 q70 -1 112 -47q37 -42 37 -102q0 -7 -1 -15q-1 -23 -17 -78.5t-18 -72.5l-111 -646q-20 -119 -68 -219.5t-123 -179t-184.5 -122.5t-242.5 -44q-129 0 -237.5 48t-181.5 134t-104 213q-17 72 -17 150q0 60 10 125z" />
<glyph unicode="V" horiz-adv-x="1316" d="M147 1331q0 67 46 112.5t112 45.5q64 0 108.5 -42.5t51.5 -113.5q2 -21 4.5 -53.5t5 -58t6.5 -52.5l113 -657q19 -118 29 -205q7 16 24 57.5t33 79t31 66.5l346 721q28 57 42 96t23 57q20 46 61.5 73.5t90.5 27.5q63 0 107 -43.5t44 -112.5q0 -40 -24 -86 q-11 -21 -37.5 -61.5t-38.5 -61.5l-510 -954q-5 -9 -21.5 -42.5t-29.5 -55.5q-28 -48 -68 -67t-102 -19h-29q-76 0 -114.5 30t-49.5 90q-16 94 -18 103l-195 932q-7 34 -18 72.5t-17 65.5t-6 56z" />
<glyph unicode="W" horiz-adv-x="1705" d="M156 1319q1 84 47 128t119 44q64 0 102 -43.5t43 -108.5q2 -24 2.5 -79.5t1.5 -69.5l41 -539q6 -79 6 -192q9 19 27 59t32.5 72.5t26.5 56.5l127 275q12 25 23.5 55t23.5 51q49 86 152 86q57 0 95.5 -32t49.5 -81q4 -22 6 -52.5t6 -57.5l33 -254l21 -176q21 59 63 162 l266 630q7 16 24 69.5t24 70.5q21 43 59.5 69.5t83.5 26.5q70 0 113 -45t43 -111q0 -25 -10 -51t-32.5 -67t-33.5 -66l-443 -965l-36 -96q-25 -62 -57 -84t-97 -22h-39q-52 0 -84.5 31.5t-38.5 84.5l-8 90l-43 330q-19 156 -23 180l-79 -178l-175 -368l-43 -89 q-23 -46 -54.5 -63.5t-86.5 -17.5h-33q-62 0 -91 33t-34 100l-6 98l-92 950q-2 17 -12 76t-10 80z" />
<glyph unicode="X" horiz-adv-x="1310" d="M-43 131v8q0 61 45 111q14 16 51.5 53.5l48.5 48.5l412 445l-174 319q-10 19 -41 65.5t-39 61.5q-20 40 -20 86v12q4 63 53 105.5t115 42.5q41 0 78.5 -23.5t60.5 -64.5q9 -18 31.5 -68.5t31.5 -68.5l133 -265l275 322q12 14 43.5 58t44.5 57q49 55 117 55 q63 0 110.5 -41t50.5 -109v-7q0 -60 -45 -111q-14 -16 -52 -54t-48 -49l-356 -383l215 -383q10 -18 41 -65t39 -62q20 -40 20 -86v-12q-4 -63 -53 -105t-115 -42q-41 0 -78.5 23.5t-60.5 64.5q-9 18 -32 68.5t-32 68.5l-172 325l-331 -380q-12 -14 -43.5 -58t-44.5 -57 q-49 -55 -117 -55q-63 0 -111 40.5t-51 108.5z" />
<glyph unicode="Y" horiz-adv-x="1185" d="M147 1325q0 71 43.5 117.5t112.5 46.5q48 0 89.5 -28t60.5 -83q9 -28 16 -71t10 -56l121 -475l348 531q6 11 26.5 48t33.5 56q53 78 133 78q71 0 112 -44.5t41 -103.5q0 -55 -47 -112q-50 -63 -78 -103l-471 -673l-22 -152q-14 -97 -17 -149q-6 -71 -57.5 -120.5 t-118.5 -49.5q-70 0 -111 46q-37 41 -37 102q0 7 1 15q1 23 17 79t18 73l32 205l-204 647q-3 9 -29 80q-23 59 -23 96z" />
<glyph unicode="Z" horiz-adv-x="1196" d="M2 133q4 55 45 107l676 845l94 113h-387q-25 0 -68.5 -7t-62.5 -7q-65 0 -103 36q-35 33 -34 87v12q6 63 53 103t107 40h749q69 0 105 -36q33 -32 32 -85v-12q-3 -46 -51 -108l-661 -832q-39 -49 -103 -121h447q23 0 68 8.5t65 8.5q61 -1 99 -39q34 -35 34 -88v-11 q-6 -64 -53 -105.5t-107 -41.5h-807q-68 0 -104 36q-33 33 -33 88v9z" />
<glyph unicode="[" horiz-adv-x="862" d="M47 -160q1 19 13.5 66.5t13.5 54.5l223 1278q6 33 12 121q6 58 44 95.5t93 37.5h424q58 0 91.5 -34.5t29.5 -90.5q-4 -55 -44 -87t-97 -32q-18 0 -55 9.5t-60 9.5h-194l-230 -1336h232q23 0 62 9.5t57 9.5q57 0 90.5 -32.5t29.5 -88.5q-4 -55 -45 -89t-98 -34h-475 q-55 0 -88.5 38t-28.5 95z" />
<glyph unicode="\" horiz-adv-x="1355" d="M154 1407q0 45 34.5 80t90.5 35q66 0 106 -66q7 -12 25.5 -51.5t33.5 -63.5l842 -1419q11 -20 35 -52.5t31 -43.5q26 -41 26 -86t-34.5 -80t-90.5 -35q-66 0 -106 66q-7 11 -26 50.5t-34 63.5l-841 1420q-11 20 -35 52.5t-31 43.5q-26 41 -26 86z" />
<glyph unicode="]" horiz-adv-x="862" d="M-113 -168q4 55 44.5 87t97.5 32q17 0 54 -9.5t60 -9.5h195l229 1336h-190q-23 0 -62.5 -9.5t-56.5 -9.5q-57 0 -91 32.5t-30 88.5q4 54 45.5 88.5t98.5 34.5h434q55 0 88 -38t28 -95q-1 -20 -13 -68t-13 -53l-223 -1278q-8 -40 -13 -121q-6 -58 -44 -95.5t-93 -37.5 h-424q-58 0 -91.5 34.5t-29.5 90.5z" />
<glyph unicode="^" horiz-adv-x="1146" d="M86 741q0 52 33 97q9 13 36 37t40 38l346 398l25 30t23.5 28t20 22t21.5 20q34 27 80 27q63 0 90 -35q11 -13 19.5 -29.5t19.5 -46t16 -41.5l168 -385q7 -17 23 -45.5t22 -42.5q14 -35 14 -68q0 -53 -35.5 -90t-86.5 -37q-77 0 -117 62q-10 17 -17.5 35t-15 43t-12.5 39 l-129 319l-291 -356q-7 -10 -18.5 -29t-22 -34t-21.5 -27q-45 -52 -108 -52q-46 0 -84.5 33t-38.5 90z" />
<glyph unicode="_" horiz-adv-x="780" d="M-188 -209q3 51 41 83t92 32h678q53 0 86 -31.5t30 -83.5q-4 -50 -43 -82.5t-92 -32.5h-678q-53 0 -85.5 32.5t-28.5 82.5z" />
<glyph unicode="`" horiz-adv-x="811" d="M164 1421q0 50 37 87.5t90 37.5q35 0 71 -20q20 -13 55 -40t48 -36l67 -41q65 -42 74 -49q41 -37 41 -82q0 -48 -35 -82.5t-77 -34.5q-41 0 -80 25q-50 36 -52 37l-81 47q-20 13 -54.5 28t-42.5 19q-61 37 -61 104z" />
<glyph unicode="a" d="M90 416q0 129 43 242t115 190.5t167 122.5t197 45q69 0 129.5 -26t98.5 -68q50 63 123 63q66 0 106 -46q36 -41 36 -96q0 -7 -1 -14q-1 -27 -20.5 -80.5t-22.5 -74.5l-60 -344q-6 -31 -6 -50q0 -28 13 -28q4 0 14.5 2t21.5 2q55 0 88 -35.5t33 -87.5q0 -65 -56 -108 t-146 -43q-69 0 -123.5 31t-83.5 91q-43 -62 -119.5 -101.5t-167.5 -39.5q-163 0 -271 123.5t-108 329.5zM387 410q0 -97 40 -146t103 -49q65 0 117 46t66 134l55 326q-45 57 -129 57q-102 0 -177 -108.5t-75 -259.5z" />
<glyph unicode="b" horiz-adv-x="1163" d="M88 1352q0 65 56.5 108t146.5 43q114 0 182 -82t68 -219q0 -54 -15 -137l-22 -127q85 78 198 78q172 0 271.5 -127.5t99.5 -325.5q0 -164 -67 -300.5t-192 -218t-284 -81.5q-123 0 -229.5 56.5t-159.5 142.5q-32 52 -32 126q0 32 6 68l137 799q6 32 6 51q0 27 -12 27 q-4 0 -15 -2t-22 -2q-55 0 -88 35.5t-33 87.5zM403 338q-2 -14 -2 -26q0 -45 31 -70q40 -29 96 -29q103 0 174.5 106.5t71.5 249.5q0 96 -38.5 145.5t-104.5 49.5q-65 0 -117.5 -48.5t-64.5 -117.5z" />
<glyph unicode="c" horiz-adv-x="1107" d="M90 446q0 110 36.5 212t103.5 182t169.5 128t225.5 48q112 0 216.5 -47.5t153.5 -141.5q23 -44 23 -84q0 -59 -41.5 -98t-106.5 -39q-39 0 -71 21.5t-49 62.5q-30 78 -140 78q-101 0 -165 -89t-64 -228q0 -47 9 -86t28 -73t54.5 -53.5t84.5 -19.5q91 0 135 68 q46 73 129 73q53 0 93 -36.5t40 -92.5q0 -51 -32 -96q-48 -71 -145 -121.5t-226 -50.5q-204 0 -332.5 128t-128.5 355z" />
<glyph unicode="d" horiz-adv-x="1245" d="M90 416q0 129 41.5 242t111 190.5t162.5 122.5t195 45q129 0 211 -70l43 246q3 23 8 80t6 67q8 71 56 117.5t114 46.5q67 0 108 -47q37 -42 37 -102q0 -7 -1 -15q-1 -23 -16 -77.5t-17 -69.5l-148 -862q-6 -31 -6 -50q0 -28 13 -28q4 0 14.5 2t21.5 2q55 0 88 -35.5 t33 -87.5q0 -65 -56 -108t-146 -43q-69 0 -123.5 31t-83.5 91q-43 -62 -119.5 -101.5t-167.5 -39.5q-163 0 -271 123.5t-108 329.5zM387 408q0 -97 40 -145t103 -48q66 0 119.5 46t67.5 134l55 322q-46 61 -133 61q-103 0 -177.5 -109t-74.5 -261z" />
<glyph unicode="e" horiz-adv-x="1099" d="M90 446q0 110 36.5 212t103.5 182t169.5 128t225.5 48q163 0 274 -91.5t111 -222.5q0 -142 -118 -231.5t-329 -89.5q-105 0 -198 20q9 -96 60 -150t134 -54q90 0 137 61q47 64 123 64q58 0 96.5 -37.5t38.5 -89.5q0 -66 -63 -129q-47 -44 -133 -73.5t-193 -29.5 q-136 0 -242 55t-169.5 166t-63.5 262zM383 590q92 -15 143 -15q102 0 151.5 33t49.5 84q0 43 -36 71t-87 28q-71 0 -132.5 -55t-88.5 -146z" />
<glyph unicode="f" horiz-adv-x="929" d="M-211 -311q0 62 41.5 105.5t103.5 43.5q38 0 73 -18.5t50 -18.5q17 0 32 13t20 43l145 872q-10 -1 -38.5 -3.5t-37.5 -2.5q-52 0 -85 36q-30 33 -30 79v8q4 52 44.5 88.5t93.5 36.5q10 0 43.5 -4.5t48.5 -5.5l33 186q27 161 121 251.5t247 90.5q100 0 168.5 -34.5 t100.5 -86.5q24 -40 24 -78q0 -61 -42 -104t-103 -43q-47 0 -86 35q-4 3 -17 14.5t-19 15.5t-17 8.5t-23 4.5q-27 0 -47.5 -21.5t-26.5 -56.5l-31 -182h56q15 0 57 5t55 5q52 0 84 -36q28 -31 28 -75q0 -7 -1 -14q-3 -51 -42 -87t-91 -36q-13 0 -53.5 4t-55.5 4h-75 l-154 -911q-23 -129 -117.5 -213t-238.5 -84q-115 0 -176.5 46.5t-61.5 119.5z" />
<glyph unicode="g" horiz-adv-x="1224" d="M29 -207q0 67 39 108.5t100 41.5q52 0 87 -28t48 -67q14 -41 54.5 -63.5t86.5 -22.5q166 0 209 244l9 41q-72 -59 -193 -59q-157 0 -268 121t-111 317q0 128 43 239.5t115 187.5t167 119.5t197 43.5q66 0 126 -25.5t100 -70.5q49 65 125 65q66 0 106 -46q36 -41 36 -96 q0 -7 -1 -14q-1 -27 -20.5 -80.5t-22.5 -74.5l-115 -680q-78 -468 -502 -473h-10q-112 0 -216 44q-110 46 -161 134q-28 51 -28 94zM387 420q0 -86 42.5 -134t109.5 -48q64 0 113.5 42t62.5 121l53 318q-43 55 -133 55q-101 0 -174.5 -102.5t-73.5 -251.5z" />
<glyph unicode="h" horiz-adv-x="1234" d="M119 145q1 23 16 78t17 70l145 862q6 32 6 51q0 27 -12 27q-4 0 -15 -2t-22 -2q-55 0 -88 35.5t-33 87.5q0 65 56.5 108t146.5 43q114 0 182 -82t68 -219q0 -54 -15 -137l-24 -139q93 90 207 90q159 0 249.5 -100.5t90.5 -241.5q0 -67 -22 -145.5t-44 -147.5 q-21 -66 -20 -109q0 -20 12 -20q6 0 18 2t19 2q53 0 87 -35t34 -86q0 -65 -55 -109t-144 -44q-112 0 -185 75.5t-73 198.5q0 83 36 203.5t36 189.5q0 54 -33.5 88.5t-83.5 34.5q-73 0 -117.5 -60t-66.5 -182l-41 -237q-4 -23 -9 -83t-6 -65q-7 -70 -57.5 -116.5 t-116.5 -46.5q-68 0 -108 46q-36 41 -36 102q0 7 1 15z" />
<glyph unicode="i" horiz-adv-x="673" d="M66 862q0 65 54.5 109.5t143.5 44.5q88 0 152 -47t90 -131q13 -43 13 -100q0 -79 -25 -183l-29 -121q-33 -135 -33 -166q0 -16 12 -16q6 0 18 2t19 2q53 0 87 -35t34 -86q0 -65 -55 -109t-144 -44q-112 0 -185 75.5t-73 198.5q0 86 35 217l45 166q9 32 11.5 56.5t-1 37 t-12.5 12.5q-6 0 -18 -2t-19 -2q-53 0 -86.5 35t-33.5 86zM283 1313q0 69 50.5 117.5t121.5 48.5q72 0 123 -48.5t51 -117.5q0 -70 -51 -119t-123 -49q-71 0 -121.5 49t-50.5 119z" />
<glyph unicode="j" horiz-adv-x="643" d="M-225 -311q0 62 41.5 105.5t103.5 43.5q38 0 73 -18.5t50 -18.5q37 0 47 56l137 768q7 38 10 61t2.5 36.5t-3.5 18t-9 4.5t-18 -2t-19 -2q-53 0 -86.5 35t-33.5 86q0 65 54.5 109.5t143.5 44.5q116 0 187 -80t71 -213q0 -66 -16 -160l-129 -743q-23 -128 -120 -212.5 t-241 -84.5q-116 0 -180.5 47t-64.5 119zM289 1311q0 69 50.5 117.5t121.5 48.5q72 0 123 -48.5t51 -117.5q0 -70 -51 -119t-123 -49q-71 0 -121.5 49t-50.5 119z" />
<glyph unicode="k" horiz-adv-x="1226" d="M117 145q1 23 16 78t17 70l145 862q6 32 6 51q0 27 -12 27q-4 0 -15 -2t-22 -2q-55 0 -88 35.5t-33 87.5q0 65 56.5 108t146.5 43q114 0 182 -82t68 -219q0 -58 -11 -119l-30 -172q99 107 254 107q141 0 228 -87t87 -222q0 -115 -70 -202t-200 -108l67 -100 q12 -18 27.5 -30.5t26.5 -12.5q15 0 37 6t44 6q54 0 89.5 -40t35.5 -93q0 -72 -57.5 -112.5t-140.5 -40.5q-139 0 -230 133l-112 161q-80 113 -80 179q0 48 29 82t67 34q13 0 34 -4t32 -4q65 0 98 35.5t33 81.5q0 47 -33.5 80t-91.5 33q-79 0 -141.5 -59t-81.5 -173 l-45 -268q-4 -23 -9 -83t-6 -65q-7 -70 -57.5 -116.5t-116.5 -46.5q-68 0 -108 46q-36 41 -36 102q0 7 1 15z" />
<glyph unicode="l" horiz-adv-x="690" d="M143 274q0 60 17 160l131 758q3 23 8 80t6 67q7 70 57.5 117t116.5 47q67 0 108 -47q37 -42 37 -102q0 -7 -1 -15q-1 -23 -16 -77.5t-17 -69.5l-135 -750q-25 -139 -25 -159q0 -31 12 -31q6 0 18 2t19 2q53 0 87 -35t34 -86q0 -65 -55 -109t-144 -44q-116 0 -187 79.5 t-71 212.5z" />
<glyph unicode="m" horiz-adv-x="1769" d="M45 834q0 65 56.5 108t146.5 43q74 0 126.5 -37.5t76.5 -103.5q46 79 120 125.5t166 46.5t163 -49t110 -129q46 82 122.5 130t172.5 48q101 0 176.5 -49.5t111 -126t35.5 -166.5q0 -67 -21.5 -145.5t-43 -147.5t-21.5 -113q0 -16 12 -16q6 0 18 2t19 2q53 0 87 -35 t34 -86q0 -65 -55 -109t-144 -44q-112 0 -185 75.5t-73 198.5q0 83 36 203.5t36 189.5q0 55 -28.5 89t-77.5 34q-126 0 -170 -242l-41 -237q-3 -22 -17 -148q-7 -70 -56.5 -116.5t-115.5 -46.5q-67 0 -107 46q-36 41 -37 102q0 7 1 15q1 23 16 78t17 70l55 317q4 23 4 43 q0 45 -19 75q-27 44 -87 44q-69 0 -111 -59.5t-64 -182.5l-40 -237q-3 -22 -17 -148q-7 -70 -56.5 -116.5t-115.5 -46.5q-68 0 -108 46q-36 41 -36 102q0 7 1 15q1 23 16 78t17 70l59 344q6 32 6 51q0 27 -12 27q-1 0 -12 -2t-25 -2q-55 0 -88 35.5t-33 87.5z" />
<glyph unicode="n" horiz-adv-x="1232" d="M45 834q0 65 56.5 108t146.5 43q75 0 127 -38.5t76 -104.5q47 79 127 126.5t174 47.5q159 0 249.5 -100.5t90.5 -241.5q0 -67 -21.5 -145.5t-43 -147.5t-21.5 -113q0 -16 12 -16q6 0 18 2t19 2q53 0 87 -35t34 -86q0 -65 -55 -109t-144 -44q-112 0 -185 75.5t-73 198.5 q0 83 36 203.5t36 189.5q0 54 -33.5 88.5t-83.5 34.5q-141 0 -185 -242l-40 -237q-3 -22 -17 -148q-7 -70 -56.5 -116.5t-115.5 -46.5q-68 0 -108 46q-36 41 -36 102q0 7 1 15q1 23 16 78t17 70l59 344q6 32 6 51q0 27 -12 27q-1 0 -12 -2t-25 -2q-55 0 -88 35.5t-33 87.5z " />
<glyph unicode="o" horiz-adv-x="1165" d="M90 430q0 129 43 239.5t116.5 186t172 118t207.5 42.5q201 0 323.5 -132t122.5 -331q0 -132 -42 -243.5t-114.5 -187t-170 -117.5t-207.5 -42q-132 0 -236 63.5t-159.5 169.5t-55.5 234zM381 432q0 -89 44 -151t128 -62q99 0 165 90t66 238q0 55 -15.5 103t-56 83 t-100.5 35q-101 0 -166 -89.5t-65 -246.5z" />
<glyph unicode="p" horiz-adv-x="1212" d="M39 -317q1 23 16 77.5t17 69.5l137 807q6 32 6 51q0 27 -12 27q-4 0 -15 -2t-22 -2q-55 0 -88 35.5t-33 87.5q0 65 56.5 108t146.5 43q67 0 120.5 -30.5t82.5 -88.5q44 65 121.5 107.5t170.5 42.5q163 0 271 -123.5t108 -329.5q0 -129 -42 -242t-111.5 -190.5 t-161.5 -122.5t-191 -45q-132 0 -215 70l-34 -203q-4 -23 -9.5 -82.5t-5.5 -64.5q-8 -71 -56 -117.5t-114 -46.5q-67 0 -108 47q-36 42 -36 102q0 7 1 15zM440 266q45 -57 133 -57q106 0 179 101t73 261q0 98 -40.5 148.5t-102.5 50.5q-65 0 -118.5 -48.5t-67.5 -137.5z" />
<glyph unicode="q" horiz-adv-x="1171" d="M90 416q0 164 67 300.5t192 218t284 81.5q123 0 229.5 -56.5t159.5 -142.5q33 -53 33 -127q0 -32 -6 -67l-131 -752q-6 -32 -6 -51q0 -27 12 -27q4 0 15 2t22 2q55 0 87.5 -35.5t32.5 -87.5q0 -65 -56 -108t-146 -43q-113 0 -181.5 80t-68.5 209q0 64 26 196l4 17 q-82 -62 -200 -62q-166 0 -267.5 126.5t-101.5 326.5zM389 414q0 -96 38.5 -144.5t104.5 -48.5q65 0 118 48t65 116l47 272q2 10 2 19q0 40 -33 65q-40 29 -96 29q-103 0 -174.5 -106.5t-71.5 -249.5z" />
<glyph unicode="r" horiz-adv-x="974" d="M45 834q0 65 56.5 108t146.5 43q149 0 198 -154q46 84 129 134.5t179 50.5q81 0 130.5 -41t49.5 -107q0 -61 -41.5 -107t-104.5 -46q-37 0 -74 15t-57 15q-33 0 -51 -10q-91 -54 -117 -205l-40 -237q-3 -22 -17 -148q-7 -70 -56.5 -116.5t-115.5 -46.5q-68 0 -108 46 q-36 41 -36 102q0 7 1 15q1 23 16 78t17 70l59 344q6 32 6 51q0 27 -12 27q-1 0 -12 -2t-25 -2q-55 0 -88 35.5t-33 87.5z" />
<glyph unicode="s" horiz-adv-x="997" d="M57 242q0 60 39.5 98.5t100.5 38.5q53 0 87.5 -29.5t43.5 -79.5q7 -39 45 -61.5t92 -22.5q55 0 84 22t29 56q0 28 -23 51.5t-86 51.5l-59 26q-122 55 -178 134.5t-56 168.5q0 136 108 229t279 93q111 0 198 -39.5t132 -106.5q29 -45 29 -86q0 -62 -36.5 -101.5 t-105.5 -39.5q-42 0 -78.5 24t-50.5 68q-8 24 -38 44t-70 20q-43 0 -70 -23.5t-27 -50.5q0 -33 25 -56.5t92 -54.5l74 -34q227 -109 227 -295q0 -138 -110.5 -231t-288.5 -93q-123 0 -222 45.5t-151 122.5q-35 59 -35 111z" />
<glyph unicode="t" horiz-adv-x="903" d="M29 846q4 52 44 88.5t93 36.5q9 0 26 -2.5t39 -6t33 -4.5l15 80q3 19 6 73.5t6 72.5q10 64 58 106.5t108 42.5q62 0 100.5 -41t38.5 -104q0 -16 -17.5 -84t-21.5 -92l-10 -51h49q15 0 57.5 5t55.5 5q51 0 83 -36q27 -31 28 -75q0 -7 -1 -14q-3 -51 -42 -87t-91 -36 q-13 0 -53 4t-55 4h-70l-68 -389q-2 -10 -2 -20q0 -26 14 -46q19 -26 48 -26q33 0 65 22q45 31 84 30q61 0 95 -35.5t34 -86.5q0 -64 -53 -117q-36 -36 -96.5 -58.5t-136.5 -22.5q-175 0 -267 116q-67 84 -67 199q0 44 10 92l57 342q-62 -8 -82 -8q-53 -1 -85 35 q-30 32 -29 79v9z" />
<glyph unicode="u" d="M31 831q0 65 54.5 109.5t143.5 44.5q112 0 185 -75.5t73 -198.5q0 -83 -31.5 -197.5t-31.5 -183.5q0 -54 33.5 -88.5t83.5 -34.5q73 0 115.5 54.5t64.5 174.5l41 238q0 2 16 147q7 70 56.5 117t115.5 47q67 0 108 -47q37 -42 37 -102q0 -7 -1 -15q-1 -23 -16 -77.5 t-17 -69.5l-60 -344q-6 -32 -6 -50q0 -28 13 -28q1 0 11.5 2t24.5 2q55 0 88 -35.5t33 -87.5q0 -65 -56 -108t-146 -43q-140 0 -197 124q-51 -67 -132 -105t-171 -38q-159 0 -249.5 100.5t-90.5 241.5q0 85 40 215t40 178q0 17 -15 17q-6 0 -17.5 -2t-18.5 -2q-53 0 -87 35 t-34 85z" />
<glyph unicode="v" horiz-adv-x="1060" d="M29 827q-1 7 -1 13q0 56 38 98q42 47 116 47q71 0 114.5 -44.5t51.5 -117.5q0 -3 3.5 -48t8.5 -68l48 -252q27 -157 28 -166q33 56 76 114l150 213q35 49 45 69.5t10 41.5q0 7 -4.5 12.5t-10.5 5.5q-3 0 -14 -2t-24 -2q-55 0 -88 35.5t-33 87.5q0 65 53.5 108.5 t136.5 43.5q115 0 183.5 -68t68.5 -188q0 -144 -147 -334l-234 -311q-43 -59 -65 -80q-53 -47 -144 -47h-20q-54 0 -98 31t-58 77q-7 26 -16 75.5t-15 70.5l-112 422l-29 81q-18 56 -18 82z" />
<glyph unicode="w" horiz-adv-x="1476" d="M43 825v11q1 62 41 104q44 46 115 45q69 0 109 -42t48 -114l11 -122l28 -222q1 -11 6.5 -52.5t6.5 -59.5q7 15 27 59.5t32 69.5l63 141l39 92q16 42 54.5 69t95.5 27q64 0 103.5 -34.5t47.5 -85.5l17 -95l22 -135l27 -162q8 12 24 37t27 45l127 209q45 77 45 109 q0 26 -22 26q-3 0 -14.5 -2t-24.5 -2q-55 0 -90 36t-35 87q0 65 55.5 108.5t138.5 43.5q109 0 181.5 -69t72.5 -187q0 -130 -135 -334l-209 -303q-48 -69 -65 -86q-52 -49 -109 -49h-33q-101 0 -118 116l-17 91l-24 157q-27 164 -27 166q-16 -42 -68 -153l-86 -191l-38 -86 q-21 -46 -57.5 -73t-82.5 -27h-35q-44 0 -77 30.5t-43 87.5l-29 156l-82 389q-9 45 -29 103q-14 44 -14 71z" />
<glyph unicode="x" horiz-adv-x="1187" d="M31 123q0 62 51 113q12 12 51.5 42t61.5 50l217 202l-88 150q-28 51 -52 51q-8 0 -22.5 -3t-30.5 -3q-55 0 -88 35.5t-33 87.5q0 61 52.5 104t140.5 43q82 0 147.5 -45t122.5 -147l68 -123l157 154q16 15 46 50.5t42 47.5q50 53 115 53q63 0 103.5 -39.5t40.5 -101.5 q0 -61 -52 -113q-12 -12 -51 -42t-61 -50l-205 -190l92 -152q28 -51 51 -51q8 0 23 3t31 3q55 0 87.5 -35.5t32.5 -87.5q0 -61 -52.5 -104t-139.5 -43q-79 0 -148.5 49.5t-122.5 142.5l-71 125l-170 -166q-16 -15 -46 -50.5t-42 -47.5q-50 -53 -115 -53q-63 0 -103 39.5 t-40 101.5z" />
<glyph unicode="y" horiz-adv-x="1212" d="M33 -207q0 67 39 108.5t100 41.5q52 0 87 -28t48 -67q14 -41 55 -63.5t87 -22.5q84 0 135 60t73 184l7 35q-83 -53 -193 -53q-159 0 -249.5 100.5t-90.5 241.5q0 67 19 136t38 128.5t19 103.5q0 17 -14 17q-6 0 -18 -2t-19 -2q-53 0 -87 35t-34 85q0 65 54.5 109.5 t143.5 44.5q112 0 185.5 -75.5t73.5 -198.5q0 -83 -30 -185.5t-30 -171.5q0 -54 33.5 -88.5t83.5 -34.5q74 0 114 48t62 167l41 228q0 2 16 147q7 70 56.5 117t115.5 47q67 0 108 -47q37 -42 37 -102q0 -7 -1 -15q-1 -23 -16 -77.5t-17 -69.5l-115 -680q-78 -468 -501 -473 h-10q-112 0 -217 44q-110 46 -161 134q-28 51 -28 94z" />
<glyph unicode="z" horiz-adv-x="1116" d="M45 96q0 85 90 172l402 385q41 38 108 88q-53 0 -142 17.5t-122 17.5q-39 0 -39 -16q0 -4 2 -16.5t2 -16.5q0 -46 -36.5 -78.5t-82.5 -32.5q-60 0 -100.5 43t-40.5 109q0 104 79 173t220 69q65 0 172.5 -21.5t138.5 -21.5q51 0 110 17t97 17q56 0 91.5 -38.5t35.5 -92.5 q0 -91 -96 -174l-410 -397q-35 -32 -90 -74h6q54 0 148 -17.5t127 -17.5q39 0 39 17q0 4 -2 16.5t-2 16.5q0 46 38 78t84 32q60 0 101 -43t41 -108q0 -103 -77.5 -172.5t-209.5 -69.5q-73 0 -195.5 21.5t-152.5 21.5q-51 0 -105 -17.5t-92 -17.5q-57 0 -97 39t-40 92z" />
<glyph unicode="{" horiz-adv-x="907" d="M111 655q0 56 39 94.5t98 38.5q15 0 36 -5t33 -5q25 0 44.5 17t27.5 45q27 104 43 297t23 231q19 107 110 166t207 59q143 0 213 -61q45 -39 45 -92t-28 -88t-91 -35q-33 0 -65 18q-3 2 -19.5 11.5t-23 12.5t-21.5 7t-30 4q-33 0 -49.5 -12t-20.5 -41q-8 -45 -19 -228 t-36 -266q-39 -125 -138 -184q64 -70 64 -176q0 -73 -17 -154t-44.5 -179.5t-38.5 -154.5q-18 -86 63 -86q24 0 66 17q40 16 63 16q59 0 83 -33.5t24 -72.5q0 -72 -70 -113q-67 -39 -164 -39q-128 0 -220.5 66.5t-92.5 177.5q0 67 55 261.5t64 291.5q3 32 -14.5 55t-51.5 23 q-7 0 -22 -1t-23 -1q-42 0 -72 35.5t-30 82.5z" />
<glyph unicode="|" horiz-adv-x="581" d="M8 -397q1 19 13.5 66.5t13.5 54.5l291 1673q8 65 12 121q6 58 44 95.5t93 37.5t88.5 -38t30.5 -95q-1 -19 -14 -65.5t-15 -55.5l-289 -1673q-4 -18 -8.5 -66t-5.5 -55q-6 -58 -44 -95.5t-93 -37.5t-88.5 38t-28.5 95z" />
<glyph unicode="}" horiz-adv-x="907" d="M-106 -190q0 53 27.5 87.5t90.5 34.5q34 0 66 -18q3 -2 19.5 -11.5t23 -12.5t21.5 -7t30 -4q33 0 49.5 12t20.5 41q8 45 19 228t36 266q40 124 137 182q-63 66 -63 178q0 73 17 154t44.5 179.5t38.5 154.5q18 86 -63 86q-24 0 -66 -17q-40 -16 -63 -16q-41 0 -66.5 19.5 t-33 41.5t-7.5 46q0 71 70 112q67 39 164 39q128 0 220.5 -66.5t92.5 -177.5q0 -67 -55 -261.5t-64 -291.5q-3 -32 14.5 -54.5t51.5 -22.5q7 0 22 1t23 1q42 0 72 -36t30 -83q0 -56 -39 -94.5t-98 -38.5q-15 0 -36.5 5t-33.5 5q-25 0 -44.5 -16.5t-26.5 -44.5 q-27 -104 -43 -297t-23 -232q-19 -107 -110 -166t-207 -59q-143 0 -213 61q-45 39 -45 93z" />
<glyph unicode="~" horiz-adv-x="974" d="M70 700q6 91 84 156q80 64 180 64q88 0 203 -70l41 -25q67 -37 86 -37q7 0 12 2.5t9.5 8.5t8 11t9.5 17t10 19q13 23 40.5 39t63.5 16q56 0 91 -36.5t30 -84.5q-6 -90 -84 -155q-80 -64 -180 -64q-88 0 -203 70l-41 24q-67 37 -86 37q-7 0 -12 -2t-10 -8.5t-7.5 -11 t-9 -16.5t-10.5 -19q-13 -23 -41 -39t-64 -16q-56 0 -90.5 36t-29.5 84z" />
<glyph unicode="&#xa1;" horiz-adv-x="661" d="M68 -100q0 15 5.5 42.5t17.5 76.5t15 61l123 547q6 24 10.5 67.5t6.5 55.5q11 56 50 91.5t93 35.5q52 0 84.5 -35t32.5 -88q0 -20 -13 -73.5t-16 -76.5l-67 -551q-1 -10 -5 -70.5t-8 -82.5q-10 -66 -62.5 -111t-115.5 -45q-67 0 -109 44.5t-42 111.5zM268 1137 q0 71 53.5 120.5t120.5 49.5q65 0 108.5 -45t43.5 -109q0 -71 -53.5 -120.5t-120.5 -49.5q-65 0 -108.5 45t-43.5 109z" />
<glyph unicode="&#xa2;" horiz-adv-x="1148" d="M94 455q0 247 138.5 417.5t357.5 198.5q2 14 3.5 50.5t4.5 54.5q8 44 42 75t77 31q49 0 76.5 -28t25.5 -74q0 -16 -3 -33.5t-11 -49t-10 -38.5q84 -21 149.5 -63.5t95.5 -98.5q29 -56 29 -84q0 -65 -42 -105t-103 -40q-46 0 -80 24t-49 58q-21 49 -54 69l-102 -606 q61 14 90 61q26 43 54.5 60.5t72.5 17.5q63 0 101 -39t38 -98t-51 -113q-57 -62 -147 -99t-189 -38q-5 -72 -6 -76q-8 -46 -41.5 -76t-77.5 -30q-47 0 -74.5 27t-27.5 73q0 27 22 113q-148 52 -228.5 174.5t-80.5 284.5zM375 469q0 -154 82 -221l98 573 q-81 -36 -130.5 -126.5t-49.5 -225.5z" />
<glyph unicode="&#xa3;" horiz-adv-x="1099" d="M8 127q3 51 23.5 84.5t70.5 83.5q3 3 26.5 26t40 42t41 49.5t45 66.5t34.5 74q-11 -1 -28 -2.5t-29.5 -2.5t-18.5 -1q-52 0 -83 35.5t-28 85.5q3 47 42.5 82.5t88.5 35.5q7 0 19.5 -1t29.5 -2.5t27 -2.5q-4 24 -26.5 107t-22.5 137q0 124 60.5 216.5t157.5 138.5t214 46 q131 0 231.5 -52.5t145.5 -133.5q31 -60 31 -100q0 -66 -42 -104t-100 -38q-84 0 -124 90q-22 48 -57.5 75.5t-100.5 27.5q-68 0 -109 -44.5t-41 -131.5q0 -53 23.5 -139.5t25.5 -96.5h164q14 0 54.5 4t52.5 4q51 0 81 -34.5t27 -83.5q-5 -50 -42 -85.5t-87 -35.5 q-12 0 -50 4t-52 4h-158q-40 -128 -135 -238q-29 -32 -68 -57h396q17 0 65 10.5t62 10.5q64 0 102 -39t33 -99q-6 -62 -52 -102.5t-110 -40.5h-711q-71 0 -107.5 34.5t-31.5 92.5z" />
<glyph unicode="&#xa4;" horiz-adv-x="1282" d="M152 276q0 43 26 76q9 12 39.5 43t38.5 41l4 6q-100 138 -100 301q0 162 104 301l-4 7q-8 10 -38.5 41t-39.5 43q-26 33 -26 75q0 50 37.5 86.5t85.5 36.5q63 0 102 -51q10 -13 28 -44t25 -42q113 61 238 61q128 0 239 -57q6 9 24 39t28 43q39 51 102 51q48 0 85.5 -36.5 t37.5 -86.5q0 -40 -27 -75q-9 -12 -39.5 -43t-38.5 -41q99 -136 99 -308q0 -158 -101 -299l6 -8q8 -10 38.5 -41t39.5 -43q27 -34 27 -76q0 -50 -37.5 -86t-85.5 -36q-63 0 -102 51q-10 13 -29.5 45t-28.5 43q-118 -64 -237 -64q-128 0 -240 64q-9 -13 -27.5 -44t-27.5 -44 q-39 -51 -103 -51q-48 0 -85 36t-37 86zM426 743q0 -103 69.5 -176t176.5 -73t176.5 73t69.5 176q0 106 -69.5 181t-176.5 75t-176.5 -75t-69.5 -181z" />
<glyph unicode="&#xa5;" horiz-adv-x="1216" d="M20 846q4 50 43 84.5t89 34.5q14 0 55 -4.5t55 -4.5l-43 131q-24 69 -26 74q-23 56 -23 94q0 69 42.5 114.5t109.5 45.5q46 0 86 -27t59 -81q9 -26 17 -68.5t10 -52.5l108 -445l326 498q9 15 27 49.5t30 52.5q51 74 131 74q68 0 109 -43.5t41 -99.5q0 -49 -47 -111 q-24 -29 -74 -96l-80 -109q15 0 52 4.5t48 4.5q52 0 82 -34t27 -85q-5 -50 -41.5 -84.5t-87.5 -34.5q-13 0 -52.5 4t-54.5 4h-135l-98 -133h2q15 0 54 4t54 4q50 0 81.5 -35t27.5 -86q-5 -50 -43 -84t-90 -34q-12 0 -50.5 4t-52.5 4h-98l-12 -88q-12 -80 -16 -144 q-6 -68 -56 -116.5t-114 -48.5q-70 0 -110.5 45.5t-35.5 113.5q1 22 16 76.5t17 69.5l16 92h-28q-14 0 -60.5 -4t-58.5 -4q-49 0 -81.5 35t-27.5 83q5 51 42.5 86t88.5 35q12 0 54 -4t57 -4l-45 133h-88q-14 0 -59.5 -4t-57.5 -4q-51 0 -83.5 34.5t-27.5 84.5z" />
<glyph unicode="&#xa6;" horiz-adv-x="561" d="M-4 -399q1 19 13.5 66t13.5 54l92 527q8 65 12 121q6 58 44 95.5t93 37.5t88.5 -38t30.5 -95q-1 -19 -14 -65.5t-15 -55.5l-90 -527q-4 -18 -8.5 -65.5t-5.5 -54.5q-6 -58 -44 -95.5t-93 -37.5t-88.5 38t-28.5 95zM201 778q1 20 13 68t13 53l88 498q10 81 13 121 q6 58 44 95.5t93 37.5t88.5 -38t30.5 -95q-1 -19 -14 -65.5t-15 -55.5l-86 -498q-4 -18 -8.5 -66t-5.5 -55q-6 -58 -44.5 -95.5t-93.5 -37.5t-88 38t-28 95z" />
<glyph unicode="&#xa7;" horiz-adv-x="1011" d="M12 219q0 59 40 99t100 40q105 0 133 -112q20 -82 133 -82q52 0 86.5 21.5t34.5 58.5q0 29 -23 53.5t-82 52.5l-51 25q-124 60 -195 146.5t-71 187.5q0 107 53.5 182.5t148.5 109.5q-63 82 -63 183q0 61 25.5 117.5t71.5 101t118.5 71.5t159.5 27q110 0 205 -39t139 -110 q24 -40 24 -82q0 -67 -38.5 -104.5t-100.5 -37.5q-47 0 -84.5 26t-50.5 73q-8 25 -40.5 42t-74.5 17t-69 -23t-27 -57q0 -62 113 -114l39 -19q282 -123 282 -317q0 -105 -58 -183.5t-157 -117.5q86 -86 86 -191q0 -136 -111.5 -228.5t-293.5 -92.5q-121 0 -221.5 45.5 t-147.5 120.5q-33 50 -33 110zM381 739q0 -82 129 -143l31 -16q51 12 89 48.5t38 88.5q0 78 -125 133l-39 16q-2 0 -10 4q-49 -9 -81 -47t-32 -84z" />
<glyph unicode="&#xa8;" horiz-adv-x="1064" d="M164 1307q0 71 53.5 120.5t120.5 49.5q65 0 108 -45t43 -109q0 -71 -53.5 -120.5t-120.5 -49.5q-65 0 -108 45t-43 109zM575 1307q0 71 54 120.5t121 49.5q65 0 108 -45t43 -109q0 -71 -53.5 -120.5t-120.5 -49.5q-65 0 -108.5 45t-43.5 109z" />
<glyph unicode="&#xa9;" horiz-adv-x="1624" d="M104 641q0 168 60 322t163.5 268.5t252.5 183t319 68.5q194 0 347 -93t235 -249t82 -344q0 -168 -58.5 -321.5t-161 -268.5t-252.5 -183.5t-323 -68.5q-194 0 -347 93t-235 249t-82 344zM193 639q0 -167 70.5 -302.5t205.5 -215.5t311 -80q194 0 354 101t250.5 275 t90.5 382q0 167 -71 303.5t-206 217.5t-311 81q-194 0 -353.5 -102t-250 -276.5t-90.5 -383.5zM457 678q0 138 60.5 249t161 171.5t220.5 60.5q92 0 173 -38t122 -103q29 -52 29 -82q0 -51 -34 -83t-85 -32q-61 0 -94 60q-1 2 -10.5 19.5t-12.5 21.5t-13.5 16.5t-20.5 16 t-26.5 8t-37.5 4.5q-81 0 -144 -74t-63 -211q0 -73 41 -129.5t121 -56.5q29 0 53 10t35 20.5t29 30.5q50 59 100 59q55 0 84 -31t29 -75q0 -50 -52 -102q-43 -45 -118 -75t-164 -30q-175 0 -279 104.5t-104 270.5z" />
<glyph unicode="&#xaa;" horiz-adv-x="909" d="M141 1083q0 87 30 162t79 124.5t111.5 77.5t127.5 28q42 0 83.5 -16t62.5 -40q35 35 84 35q51 0 81.5 -35t28.5 -84q-1 -22 -14.5 -60t-15.5 -52l-29 -174q-8 -41 6 -41h23q42 0 66 -28.5t24 -66.5q0 -50 -44 -83t-112 -33q-108 0 -153 82q-26 -41 -77.5 -68t-113.5 -27 q-103 0 -175.5 81t-72.5 218zM377 1075q0 -94 65 -94q31 0 58.5 21t31.5 55l39 217q-21 16 -59 16q-50 0 -92.5 -60.5t-42.5 -154.5z" />
<glyph unicode="&#xab;" horiz-adv-x="1392" d="M96 518q0 48 51 88q10 8 33 23.5t33 23.5l254 209q13 9 37 34.5t37 33.5q43 26 80 26q45 0 78.5 -32t33.5 -72q0 -61 -49 -100q-12 -10 -102 -72l-213 -172l176 -160q13 -13 36.5 -32t30.5 -25q37 -37 37 -86q0 -50 -35.5 -85.5t-87.5 -35.5q-49 0 -88 39 q-10 10 -29.5 34t-25.5 31l-190 199l-60 53q-37 37 -37 78zM616 492q0 43 48 79q34 24 69 45l297 226q15 9 38.5 31t35.5 30q44 27 80 27q45 0 78.5 -33t33.5 -74q0 -61 -49 -100q-24 -20 -100 -64l-254 -180l164 -135q13 -13 39 -34t32 -27q37 -37 37 -86 q0 -50 -35.5 -85.5t-87.5 -35.5q-49 0 -88 39q-11 11 -32.5 37t-26.5 32l-182 176q-7 8 -22.5 23t-22.5 23q-52 59 -52 86z" />
<glyph unicode="&#xac;" horiz-adv-x="1103" d="M104 780q6 61 50.5 98t107.5 37h590q67 0 107.5 -46.5t35.5 -116.5q-1 -12 -5.5 -32t-12 -48.5t-10.5 -44.5l-13 -60q0 -2 -16 -147q-8 -71 -53.5 -117.5t-112.5 -46.5t-106.5 46t-34.5 116q1 23 18 78t19 71l20 101h-321q-26 0 -68.5 -10.5t-60.5 -10.5 q-63 0 -100.5 36.5t-33.5 96.5z" />
<glyph unicode="&#xad;" horiz-adv-x="792" d="M123 551q3 51 42.5 87t92.5 36q13 0 58.5 -4t60.5 -4h67q15 0 57.5 4t55.5 4q52 0 84 -35.5t29 -87.5q-5 -51 -44 -87t-91 -36q-13 0 -53.5 4t-55.5 4h-68q-15 0 -62 -4t-60 -4q-52 0 -85 36t-28 87z" />
<glyph unicode="&#xae;" horiz-adv-x="1624" d="M104 641q0 168 60 322t163.5 268.5t252.5 183t319 68.5q194 0 347 -93t235 -249t82 -344q0 -168 -58.5 -321.5t-161 -268.5t-252.5 -183.5t-323 -68.5q-194 0 -347 93t-235 249t-82 344zM193 639q0 -167 70.5 -302.5t205.5 -215.5t311 -80q194 0 354 101t250.5 275 t90.5 382q0 167 -71 303.5t-206 217.5t-311 81q-194 0 -353.5 -102t-250 -276.5t-90.5 -383.5zM469 440q0 12 14 61.5t17 67.5l61 351q2 11 4.5 52t5.5 56q7 49 44 79t87 30h236q108 0 168.5 -71t60.5 -169q0 -86 -45 -150.5t-127 -93.5l35 -82q13 -29 20 -39t17 -10 q5 0 20 4t23 4q40 0 64.5 -28.5t21.5 -67.5q-5 -50 -43.5 -81t-99.5 -31q-135 0 -189 139l-69 170h-58l-14 -82q-2 -13 -4 -54t-4 -55q-9 -46 -47.5 -80t-85.5 -34t-80 34t-33 80zM770 795h88q49 0 73.5 27t24.5 61q0 30 -17.5 48.5t-53.5 18.5h-88z" />
<glyph unicode="&#xaf;" horiz-adv-x="962" d="M166 1319q3 47 40.5 80t88.5 33q12 0 55.5 -4.5t57.5 -4.5h174q15 0 55 4.5t53 4.5q49 0 79.5 -32.5t27.5 -80.5q-5 -47 -42.5 -80t-86.5 -33q-12 0 -50.5 4t-52.5 4h-176q-13 0 -58 -4t-59 -4q-49 0 -80 33t-26 80z" />
<glyph unicode="&#xb0;" horiz-adv-x="696" d="M211 1221q0 109 79 191.5t195 82.5q99 0 166.5 -72.5t67.5 -169.5q0 -108 -81.5 -191t-197.5 -83q-99 0 -164 72t-65 170zM367 1231q0 -40 25 -68t65 -28q39 0 70.5 33t31.5 75q0 39 -25 67t-65 29q-39 0 -70.5 -33t-31.5 -75z" />
<glyph unicode="&#xb1;" horiz-adv-x="1067" d="M70 117q3 51 42.5 87t92.5 36q13 0 58.5 -4.5t60.5 -4.5h342q15 0 57 4.5t55 4.5q52 0 84 -35.5t29 -87.5q-5 -51 -44 -87t-91 -36q-13 0 -53.5 4t-55.5 4h-342q-15 0 -62.5 -4t-60.5 -4q-52 0 -84.5 36t-27.5 87zM139 717q3 51 42.5 87t92.5 36q13 0 58.5 -4.5 t60.5 -4.5h51l11 58q4 23 7 64.5t7 60.5q11 55 48 89t89 34q54 0 87.5 -34.5t33.5 -86.5q0 -24 -14.5 -76.5t-18.5 -73.5l-6 -35h47q15 0 57.5 4.5t55.5 4.5q52 0 84 -35.5t29 -87.5q-5 -51 -44.5 -87t-91.5 -36q-13 0 -53 4t-55 4h-68l-10 -59q-4 -25 -6.5 -66.5 t-5.5 -58.5q-7 -54 -47 -89.5t-91 -35.5q-50 0 -86 35t-36 88q0 24 15 74t19 73l7 39h-33q-15 0 -62.5 -4t-60.5 -4q-52 0 -85 36t-28 87z" />
<glyph unicode="&#xb2;" horiz-adv-x="833" d="M137 705q0 119 79.5 222.5t225.5 162.5l88 36q86 33 86 109q0 24 -23.5 44.5t-64.5 20.5q-39 0 -59.5 -16t-42.5 -63q-18 -40 -43.5 -58t-69.5 -18q-43 0 -71.5 29t-28.5 73q0 74 45 131q39 50 113 80.5t159 30.5q84 0 148.5 -22.5t100 -59t52.5 -77.5t17 -85 q0 -216 -238 -309l-94 -35q-34 -12 -47 -17.5t-36 -18.5t-36 -30.5t-22 -41.5h231q8 0 43.5 5t44.5 5q49 0 79.5 -32.5t25.5 -78.5q-4 -47 -40.5 -78.5t-84.5 -31.5h-447q-43 -1 -66.5 37t-23.5 86z" />
<glyph unicode="&#xb3;" horiz-adv-x="854" d="M125 766q0 50 32.5 79t75.5 29q39 0 63 -16.5t54 -58.5q29 -42 105 -45q66 -1 114.5 38t48.5 93q0 49 -31.5 76t-88.5 30h-23q-96 0 -96 74q0 42 33 72q8 8 21.5 16t31 17.5t24.5 13.5l93 59l55 35h-197q-8 0 -41 -6t-41 -6q-44 0 -70.5 26.5t-23.5 69.5q3 40 36.5 68 t78.5 28h401q42 0 70.5 -28t28.5 -78q0 -79 -80 -133l-101 -68l-39 -25q85 -30 132 -91t47 -148q0 -136 -111.5 -233t-263.5 -97q-186 0 -291 111q-47 50 -47 98z" />
<glyph unicode="&#xb4;" horiz-adv-x="811" d="M164 1278q0 45 41 82q9 7 74 49l67 41q13 9 48 36t55 40q36 20 71 20q53 0 90 -37.5t37 -87.5q0 -67 -61 -104q-8 -4 -42.5 -19t-54.5 -28l-81 -47q-2 -1 -52 -37q-39 -25 -80 -25q-42 0 -77 34.5t-35 82.5z" />
<glyph unicode="&#xb5;" horiz-adv-x="1214" d="M31 -309l170 983q3 23 8 80t6 67q7 70 57.5 117t116.5 47q67 0 107.5 -47t35.5 -117q-1 -23 -15.5 -78t-16.5 -69l-51 -299q-7 -42 5.5 -84.5t48 -72.5t85.5 -30q70 0 121 48l75 438q4 23 9 82.5t6 64.5q7 70 57.5 117t116.5 47q67 0 107.5 -47t35.5 -117 q-1 -23 -16 -77.5t-17 -69.5l-65 -375q-3 -21 -2.5 -86.5t-7.5 -95.5q-14 -60 -61 -97.5t-111 -37.5q-42 0 -73.5 21.5t-47.5 57.5q-40 -48 -97 -74t-116 -26q-82 0 -129 51l-29 -207q-2 -21 -3 -74.5t-7 -88.5q-9 -60 -52 -94.5t-108 -34.5q-70 0 -112.5 53t-30.5 125z" />
<glyph unicode="&#xb6;" horiz-adv-x="1650" d="M78 969q0 148 67 261t183 172.5t262 59.5h1069q66 0 104.5 -42t32.5 -105q-4 -61 -48.5 -97t-111.5 -36q-15 0 -63 9t-66 9h-55l-166 -919q-3 -17 -6 -44t-6 -57t-4 -41q-8 -70 -50 -113.5t-106 -43.5q-65 0 -102.5 43.5t-32.5 111.5q1 22 16 75.5t17 68.5l166 919h-144 l-162 -917q-3 -17 -6 -44t-6 -57t-4 -41q-8 -70 -51 -113.5t-107 -43.5t-101 43.5t-32 111.5q1 23 16 82.5t15 61.5l47 258h-160q-177 0 -291 125t-114 303zM383 979q0 -78 43.5 -131t116.5 -53h145l72 405h-174q-90 0 -146.5 -61t-56.5 -160z" />
<glyph unicode="&#xb7;" horiz-adv-x="589" d="M125 522q0 71 53.5 120.5t120.5 49.5q65 0 108.5 -44.5t43.5 -108.5q0 -71 -54 -120.5t-121 -49.5q-65 0 -108 44.5t-43 108.5z" />
<glyph unicode="&#xb8;" horiz-adv-x="907" d="M164 -426q0 41 28 74t76 33q55 0 92 -54q34 -49 93 -49q42 0 69 26t27 62q0 29 -20 51.5t-52 22.5q-15 0 -40 -7t-50 -7q-28 0 -51 19.5t-23 51.5q0 57 76 99q45 23 45 137l174 -56q-11 -67 -41 -108l29 -8q74 -24 110.5 -77t36.5 -122q0 -121 -87.5 -194.5t-213.5 -73.5 q-64 0 -124.5 19.5t-100.5 56.5q-53 49 -53 104z" />
<glyph unicode="&#xb9;" horiz-adv-x="649" d="M139 1309q0 37 26 68.5t68 31.5q30 0 47 -9t33 -9q14 0 47 22l60 43q39 31 92 31q145 0 145 -119q0 -18 -18 -111l-86 -450q-12 -75 -12 -102q-1 -55 -43.5 -96.5t-96.5 -41.5q-56 0 -87 35.5t-29 91.5q0 18 11.5 58t12.5 47l58 307q3 16 9.5 39t16.5 55t13 43 q-16 -18 -44 -29q-30 -12 -86 -12q-70 0 -103.5 31.5t-33.5 75.5z" />
<glyph unicode="&#xba;" horiz-adv-x="839" d="M172 1096q0 90 30 163.5t81 119.5t114.5 71t132.5 25q133 0 217 -88t84 -220q0 -93 -29.5 -167.5t-79.5 -120.5t-112.5 -70.5t-132.5 -24.5q-132 0 -218.5 90.5t-86.5 221.5zM399 1098q0 -46 21.5 -79.5t64.5 -33.5q50 0 83.5 45.5t33.5 132.5q0 45 -20.5 81t-67.5 36 q-51 0 -83 -44.5t-32 -137.5z" />
<glyph unicode="&#xbb;" horiz-adv-x="1402" d="M96 209q0 61 49 100q22 18 101 64l252 178l-162 137q-13 13 -39.5 35t-32.5 27q-37 37 -37 86q0 50 35.5 85t87.5 35q50 0 88 -38q11 -11 33.5 -38t26.5 -32l182 -176q7 -8 22.5 -22.5t22.5 -22.5q51 -57 51 -86q0 -45 -47 -80q-28 -19 -70 -45l-297 -226q-15 -9 -38 -31 t-35 -30q-44 -27 -80 -27q-45 0 -79 33t-34 74zM659 180q0 61 50 101q16 13 33.5 25.5t39 26t29.5 19.5l211 170l-174 162q-13 13 -37 32t-31 25q-37 37 -37 86q0 50 35.5 85.5t87.5 35.5q49 0 88 -39q8 -8 17 -18.5t20.5 -24.5t18.5 -22l190 -199l60 -53q36 -36 36 -78 q0 -48 -51 -88q-10 -8 -32.5 -23.5t-32.5 -23.5l-254 -209q-13 -9 -37 -34.5t-37 -33.5q-43 -26 -80 -26q-45 0 -79 32t-34 72z" />
<glyph unicode="&#xbc;" horiz-adv-x="1888" d="M139 1309q0 37 26 68.5t68 31.5q30 0 47 -9t33 -9q14 0 47 22l60 43q39 31 92 31q145 0 145 -119q0 -18 -18 -111l-86 -450q-12 -75 -12 -102q-1 -55 -43.5 -96.5t-96.5 -41.5q-56 0 -87 35.5t-29 91.5q0 18 11.5 58t12.5 47l58 307q3 16 9.5 39t16.5 55t13 43 q-16 -18 -44 -29q-30 -12 -86 -12q-70 0 -103.5 31.5t-33.5 75.5zM332 88q0 36 28 80q10 16 34.5 46.5t37.5 49.5l709 1059q16 24 35.5 61.5t25.5 47.5q41 63 109 63q46 0 76 -30t30 -76q0 -36 -28 -80q-10 -16 -34.5 -47.5t-37.5 -49.5l-709 -1058q-16 -24 -35.5 -61.5 t-25.5 -47.5q-41 -63 -109 -63q-46 0 -76 30t-30 76zM1014 315l12 70q2 12 5 23t6 19t10 18t10.5 15.5t15 17l16.5 16.5t22 20.5t24 22.5l272 254q8 8 27 26t24 21.5t18.5 14t20.5 12.5t21 6.5t28.5 5t34.5 0.5h64q37 0 57 -29.5t22 -71.5q0 -13 -3.5 -32t-9 -44.5 t-7.5 -33.5l-49 -256q12 1 35.5 5.5t29.5 4.5q50 0 81 -25.5t32 -70.5q2 -45 -29 -76t-80 -31h-104v-6l-12 -98q-3 -52 -39.5 -88.5t-87.5 -36.5q-53 0 -82 32t-25 84q1 16 11.5 54t11.5 47l2 12h-299q-41 0 -67 27.5t-19 70.5zM1266 408h174l39 202z" />
<glyph unicode="&#xbd;" horiz-adv-x="1865" d="M139 1309q0 37 26 68.5t68 31.5q30 0 47 -9t33 -9q14 0 47 22l60 43q39 31 92 31q145 0 145 -119q0 -18 -18 -111l-86 -450q-12 -75 -12 -102q-1 -55 -43.5 -96.5t-96.5 -41.5q-56 0 -87 35.5t-29 91.5q0 18 11.5 58t12.5 47l58 307q3 16 9.5 39t16.5 55t13 43 q-16 -18 -44 -29q-30 -12 -86 -12q-70 0 -103.5 31.5t-33.5 75.5zM332 88q0 36 28 80q10 16 34.5 46.5t37.5 49.5l709 1059q16 24 35.5 61.5t25.5 47.5q41 63 109 63q46 0 76 -30t30 -76q0 -36 -28 -80q-10 -16 -34.5 -47.5t-37.5 -49.5l-709 -1058q-16 -24 -35.5 -61.5 t-25.5 -47.5q-41 -63 -109 -63q-46 0 -76 30t-30 76zM1090 123q0 119 79.5 222.5t225.5 162.5l88 37q86 33 86 108q0 25 -23.5 45.5t-64.5 20.5q-39 0 -60 -16.5t-43 -63.5q-18 -40 -43 -58t-69 -18q-43 0 -72 29.5t-29 73.5q0 74 45 131q38 50 112.5 80t160.5 30 q84 0 148 -22t99.5 -59t52.5 -77.5t17 -84.5q0 -218 -237 -310l-95 -35q-34 -12 -47 -17.5t-36 -18.5t-36 -30.5t-22 -41.5h232q8 0 43.5 5t44.5 5q49 0 79 -32t25 -78q-4 -47 -40.5 -79t-84.5 -32h-446q-43 -1 -66.5 37t-23.5 86z" />
<glyph unicode="&#xbe;" horiz-adv-x="2107" d="M125 766q0 50 32.5 79t75.5 29q39 0 63 -16.5t54 -58.5q29 -42 105 -45q66 -1 114.5 38t48.5 93q0 49 -31.5 76t-88.5 30h-23q-96 0 -96 74q0 42 33 72q8 8 21.5 16t31 17.5t24.5 13.5l93 59l55 35h-197q-8 0 -41 -6t-41 -6q-44 0 -70.5 26.5t-23.5 69.5q3 40 36.5 68 t78.5 28h401q42 0 70.5 -28t28.5 -78q0 -79 -80 -133l-101 -68l-39 -25q85 -30 132 -91t47 -148q0 -136 -111.5 -233t-263.5 -97q-186 0 -291 111q-47 50 -47 98zM547 88q0 36 28 80q10 16 34.5 46.5t37.5 49.5l709 1059q16 24 35.5 61.5t25.5 47.5q41 63 109 63 q46 0 76 -30t30 -76q0 -36 -28 -80q-10 -16 -34.5 -47.5t-37.5 -49.5l-709 -1058q-16 -24 -35.5 -61.5t-25.5 -47.5q-41 -63 -109 -63q-46 0 -76 30t-30 76zM1233 315l12 70q2 12 5 23t6 19t10 18t10.5 15.5t15 17l16.5 16.5t22 20.5t24 22.5l272 254q8 8 27 26t24 21.5 t18.5 14t20.5 12.5t21 6.5t28.5 5t34.5 0.5h64q37 0 57.5 -29.5t22.5 -71.5q0 -13 -3.5 -32.5t-9.5 -44t-8 -33.5l-49 -256q12 1 35.5 5.5t29.5 4.5q50 0 81 -25.5t32 -70.5q2 -45 -28.5 -76t-79.5 -31h-105v-6l-12 -98q-3 -52 -40 -88.5t-87 -36.5q-53 0 -82 32t-25 84 q1 16 11.5 54t11.5 47l2 12h-299q-41 0 -67 27.5t-19 70.5zM1485 408h174l39 202z" />
<glyph unicode="&#xbf;" horiz-adv-x="1036" d="M-4 154q0 135 83.5 241t227.5 172q98 45 121 65q27 24 27 56q0 7 -3 27.5t-3 34.5q0 55 44 97t105 42q70 0 108.5 -47.5t38.5 -118.5q0 -113 -71.5 -197.5t-220.5 -156.5q-97 -46 -132.5 -89.5t-35.5 -109.5q0 -58 46.5 -99.5t125.5 -41.5t129.5 40t50.5 95q0 10 -3 27.5 t-3 29.5q0 61 40 101t99 40q60 0 99.5 -51.5t39.5 -130.5q0 -159 -135.5 -278t-333.5 -119q-108 0 -195 32t-140 85.5t-81 118.5t-28 135zM467 1135q0 71 53.5 120.5t120.5 49.5q65 0 108.5 -45t43.5 -109q0 -71 -54 -120.5t-121 -49.5q-65 0 -108 45t-43 109z" />
<glyph unicode="&#xc0;" horiz-adv-x="1349" d="M-23 141q0 46 31 99q9 17 34.5 53.5t35.5 56.5l510 955q9 16 47 94q45 90 182 90h21q77 0 114.5 -27.5t48.5 -87.5q16 -96 19 -108l194 -932q7 -34 18 -72.5t17 -66t6 -56.5q0 -67 -45.5 -112t-111.5 -45q-64 0 -108.5 42t-51.5 113q-2 21 -4.5 53.5t-5 58t-6.5 52.5 l-2 10h-539l-35 -71q-28 -57 -42 -96t-23 -58q-20 -46 -61.5 -73t-90.5 -27q-63 0 -107.5 43t-44.5 112zM496 551h383l-70 407q-1 4 -31 205q-30 -84 -86 -202zM530 1862q0 52 35.5 89.5t91.5 37.5q35 0 72 -21q22 -11 58.5 -40.5t48.5 -37.5l34 -22q66 -38 78 -49 q41 -37 41 -82q1 -49 -33 -84t-77 -35q-45 0 -82 24q-6 5 -15.5 12t-21 14.5t-15.5 10.5l-53 29q-20 13 -55 28t-43 19q-64 39 -64 107z" />
<glyph unicode="&#xc1;" horiz-adv-x="1349" d="M-23 141q0 46 31 99q9 17 34.5 53.5t35.5 56.5l510 955q9 16 47 94q45 90 182 90h21q77 0 114.5 -27.5t48.5 -87.5q16 -96 19 -108l194 -932q7 -34 18 -72.5t17 -66t6 -56.5q0 -67 -45.5 -112t-111.5 -45q-64 0 -108.5 42t-51.5 113q-2 21 -4.5 53.5t-5 58t-6.5 52.5 l-2 10h-539l-35 -71q-28 -57 -42 -96t-23 -58q-20 -46 -61.5 -73t-90.5 -27q-63 0 -107.5 43t-44.5 112zM496 551h383l-70 407q-1 4 -31 205q-30 -84 -86 -202zM760 1737q0 45 41 82q12 11 78 49l34 22q12 8 48.5 37.5t58.5 40.5q38 21 72 21q56 0 91.5 -37.5t35.5 -89.5 q0 -68 -64 -107q-8 -4 -43 -19t-55 -28l-53 -29q-4 -3 -15.5 -10.5t-21 -14.5t-15.5 -12q-38 -24 -82 -24q-43 0 -77 35t-33 84z" />
<glyph unicode="&#xc2;" horiz-adv-x="1349" d="M-23 141q0 46 31 99q9 17 34.5 53.5t35.5 56.5l510 955q9 16 47 94q45 90 182 90h21q77 0 114.5 -27.5t48.5 -87.5q16 -96 19 -108l194 -932q7 -34 18 -72.5t17 -66t6 -56.5q0 -67 -45.5 -112t-111.5 -45q-64 0 -108.5 42t-51.5 113q-2 21 -4.5 53.5t-5 58t-6.5 52.5 l-2 10h-539l-35 -71q-28 -57 -42 -96t-23 -58q-20 -46 -61.5 -73t-90.5 -27q-63 0 -107.5 43t-44.5 112zM496 551h383l-70 407q-1 4 -31 205q-30 -84 -86 -202zM606 1714q0 56 62 105q50 35 67 51l21 18q15 12 31.5 31t27.5 29q22 22 41.5 32.5t48.5 10.5t48 -9.5 t26.5 -19.5t19.5 -31q23 -41 25 -45l16 -26q8 -15 26.5 -40.5t25.5 -37.5q22 -36 22 -70q0 -41 -30.5 -67.5t-71.5 -26.5q-56 0 -80 43q-2 4 -35 78l-14 28l-41 -49q-45 -57 -60 -69q-33 -31 -82 -31q-32 0 -63 26.5t-31 69.5z" />
<glyph unicode="&#xc3;" horiz-adv-x="1349" d="M-23 141q0 46 31 99q9 17 34.5 53.5t35.5 56.5l510 955q9 16 47 94q45 90 182 90h21q77 0 114.5 -27.5t48.5 -87.5q16 -96 19 -108l194 -932q7 -34 18 -72.5t17 -66t6 -56.5q0 -67 -45.5 -112t-111.5 -45q-64 0 -108.5 42t-51.5 113q-2 21 -4.5 53.5t-5 58t-6.5 52.5 l-2 10h-539l-35 -71q-28 -57 -42 -96t-23 -58q-20 -46 -61.5 -73t-90.5 -27q-63 0 -107.5 43t-44.5 112zM496 551h383l-70 407q-1 4 -31 205q-30 -84 -86 -202zM569 1786q6 74 66.5 121t138.5 47q63 0 139 -37q13 -6 34 -18.5t34.5 -19.5t22.5 -7q16 0 24 24q10 26 25 41 q27 27 67 27q53 0 85 -34.5t28 -88.5q-6 -74 -66.5 -121t-138.5 -47q-63 0 -139 37q-14 7 -34 19t-33.5 19t-22.5 7q-17 0 -25 -24q-10 -27 -24 -41q-27 -27 -68 -27q-53 0 -85 34.5t-28 88.5z" />
<glyph unicode="&#xc4;" horiz-adv-x="1349" d="M-23 141q0 46 31 99q9 17 34.5 53.5t35.5 56.5l510 955q9 16 47 94q45 90 182 90h21q77 0 114.5 -27.5t48.5 -87.5q16 -96 19 -108l194 -932q7 -34 18 -72.5t17 -66t6 -56.5q0 -67 -45.5 -112t-111.5 -45q-64 0 -108.5 42t-51.5 113q-2 21 -4.5 53.5t-5 58t-6.5 52.5 l-2 10h-539l-35 -71q-28 -57 -42 -96t-23 -58q-20 -46 -61.5 -73t-90.5 -27q-63 0 -107.5 43t-44.5 112zM496 551h383l-70 407q-1 4 -31 205q-30 -84 -86 -202zM532 1798q0 71 54 120.5t121 49.5q65 0 108 -44.5t43 -108.5q0 -71 -53.5 -120.5t-120.5 -49.5 q-65 0 -108.5 44.5t-43.5 108.5zM942 1798q0 71 53.5 120.5t120.5 49.5q65 0 108.5 -44.5t43.5 -108.5q0 -71 -53.5 -120.5t-120.5 -49.5q-65 0 -108.5 44.5t-43.5 108.5z" />
<glyph unicode="&#xc5;" horiz-adv-x="1349" d="M-23 141q0 46 31 99q9 17 34.5 53.5t35.5 56.5l510 955l55 100q-65 71 -65 172q0 119 87.5 202t200.5 83q109 0 180.5 -71.5t71.5 -176.5q0 -73 -33.5 -133.5t-89.5 -100.5q2 -15 6 -34t10 -43t9 -37l194 -932q7 -34 18 -72.5t17 -66t6 -56.5q0 -67 -45.5 -112 t-111.5 -45q-64 0 -108.5 42t-51.5 113q-2 21 -4.5 53.5t-5 58t-6.5 52.5l-2 10h-539l-35 -71q-28 -57 -42 -96t-23 -58q-20 -46 -61.5 -73t-90.5 -27q-63 0 -107.5 43t-44.5 112zM496 551h383l-70 407q-1 4 -31 205q-30 -84 -86 -202zM745 1585q0 -42 25 -69t70 -27 q40 0 74 32.5t34 84.5q0 42 -24.5 69.5t-69.5 28.5q-40 0 -74.5 -33.5t-34.5 -85.5z" />
<glyph unicode="&#xc6;" horiz-adv-x="1939" d="M-53 113q0 73 51 127q82 87 100 112l668 905q51 68 78 113q35 56 76 74t112 18h778q64 0 102 -42.5t32 -104.5q-5 -62 -50.5 -103t-109.5 -41q-15 0 -62 9.5t-65 9.5h-336l-51 -285h205q18 0 65 4t62 4q62 0 101 -42t34 -101q-4 -60 -50.5 -100.5t-109.5 -40.5 q-15 0 -62 3t-65 3h-227l-64 -363h381q18 0 67 9.5t64 9.5q64 0 102 -41t35 -103q-6 -62 -52.5 -104.5t-110.5 -42.5h-670q-68 0 -109.5 48t-36.5 118q1 17 6.5 41t14.5 54t12 44h-450l-111 -162q-3 -5 -36 -58t-50 -71q-48 -51 -121 -51q-60 0 -103 43t-44 107zM563 528 h338l119 684q-31 -63 -78 -133z" />
<glyph unicode="&#xc7;" horiz-adv-x="1402" d="M123 623q0 178 55.5 340t151.5 281t231.5 189t288.5 70q158 0 297.5 -58.5t218.5 -184.5q43 -64 43 -138q0 -63 -41.5 -109t-124.5 -46q-56 0 -95.5 35.5t-51.5 80.5q-17 68 -83.5 109t-162.5 41q-97 0 -178 -53.5t-132 -140t-79.5 -192t-28.5 -214.5q0 -184 82 -290.5 t231 -106.5q189 0 263 124q32 54 66.5 79.5t82.5 25.5q75 0 116.5 -46.5t41.5 -107.5q0 -50 -35 -100q-75 -105 -202 -173t-302 -75q-7 -48 -39 -94l29 -8q74 -24 110.5 -77t36.5 -122q0 -121 -87.5 -194.5t-213.5 -73.5q-64 0 -124.5 19.5t-100.5 56.5q-53 49 -53 104 q0 41 28 74t76 33q55 0 92 -54q34 -49 93 -49q42 0 69 26t27 62q0 29 -20 51.5t-52 22.5q-15 0 -40 -7t-50 -7q-28 0 -51 19.5t-23 51.5q0 57 76 99q35 19 41 77q-228 39 -352.5 213.5t-124.5 436.5z" />
<glyph unicode="&#xc8;" horiz-adv-x="1208" d="M98 166q1 24 17 80.5t18 72.5l143 826q14 97 17 149q6 71 56.5 119.5t119.5 48.5h610q64 0 101.5 -42.5t31.5 -104.5q-5 -62 -50 -103t-109 -41q-15 0 -62 9.5t-65 9.5h-336l-55 -295h204q18 0 65 4t62 4q63 0 103 -40t37 -99q-6 -60 -51 -97.5t-109 -37.5q-15 0 -62 3 t-65 3h-227l-64 -363h381q18 0 67 9.5t64 9.5q64 0 102 -41t35 -103q-6 -62 -53 -104.5t-111 -42.5h-669q-68 0 -109.5 48t-36.5 118zM475 1862q0 52 35.5 89.5t91.5 37.5q34 0 72 -21q22 -11 57.5 -40t48.5 -38l35 -22q66 -38 78 -49q41 -37 41 -82q1 -49 -33.5 -84 t-77.5 -35q-45 0 -82 24q-4 3 -51 37l-53 29q-20 13 -55 28t-43 19q-64 39 -64 107z" />
<glyph unicode="&#xc9;" horiz-adv-x="1208" d="M98 166q1 24 17 80.5t18 72.5l143 826q14 97 17 149q6 71 56.5 119.5t119.5 48.5h610q64 0 101.5 -42.5t31.5 -104.5q-5 -62 -50 -103t-109 -41q-15 0 -62 9.5t-65 9.5h-336l-55 -295h204q18 0 65 4t62 4q63 0 103 -40t37 -99q-6 -60 -51 -97.5t-109 -37.5q-15 0 -62 3 t-65 3h-227l-64 -363h381q18 0 67 9.5t64 9.5q64 0 102 -41t35 -103q-6 -62 -53 -104.5t-111 -42.5h-669q-68 0 -109.5 48t-36.5 118zM705 1737q0 46 40 82q12 11 78 49l35 22q12 8 48.5 37.5t58.5 40.5q38 21 71 21q56 0 91.5 -37.5t35.5 -89.5q0 -69 -63 -107 q-9 -5 -44 -19.5t-55 -27.5l-53 -29q-47 -34 -51 -37q-38 -24 -82 -24q-43 0 -77 35t-33 84z" />
<glyph unicode="&#xca;" horiz-adv-x="1208" d="M98 166q1 24 17 80.5t18 72.5l143 826q14 97 17 149q6 71 56.5 119.5t119.5 48.5h610q64 0 101.5 -42.5t31.5 -104.5q-5 -62 -50 -103t-109 -41q-15 0 -62 9.5t-65 9.5h-336l-55 -295h204q18 0 65 4t62 4q63 0 103 -40t37 -99q-6 -60 -51 -97.5t-109 -37.5q-15 0 -62 3 t-65 3h-227l-64 -363h381q18 0 67 9.5t64 9.5q64 0 102 -41t35 -103q-6 -62 -53 -104.5t-111 -42.5h-669q-68 0 -109.5 48t-36.5 118zM567 1714q0 56 62 105q50 35 67 51l21 18q15 12 31.5 31t27.5 29q22 22 41.5 32.5t48.5 10.5t48 -9t27.5 -19.5t19.5 -31.5q7 -13 11 -22 t13 -23l16 -26q8 -15 26.5 -40.5t25.5 -37.5q22 -36 22 -70q0 -41 -30.5 -67.5t-71.5 -26.5q-56 0 -80 43q-2 4 -35 78l-14 28l-41 -49q-45 -57 -60 -69q-33 -31 -81 -31q-32 0 -63.5 26.5t-31.5 69.5z" />
<glyph unicode="&#xcb;" horiz-adv-x="1208" d="M98 166q1 24 17 80.5t18 72.5l143 826q14 97 17 149q6 71 56.5 119.5t119.5 48.5h610q64 0 101.5 -42.5t31.5 -104.5q-5 -62 -50 -103t-109 -41q-15 0 -62 9.5t-65 9.5h-336l-55 -295h204q18 0 65 4t62 4q63 0 103 -40t37 -99q-6 -60 -51 -97.5t-109 -37.5q-15 0 -62 3 t-65 3h-227l-64 -363h381q18 0 67 9.5t64 9.5q64 0 102 -41t35 -103q-6 -62 -53 -104.5t-111 -42.5h-669q-68 0 -109.5 48t-36.5 118zM479 1798q0 71 53.5 120.5t120.5 49.5q65 0 108.5 -44.5t43.5 -108.5q0 -71 -53.5 -120.5t-120.5 -49.5q-65 0 -108.5 44.5t-43.5 108.5z M889 1798q0 71 53.5 120.5t120.5 49.5q65 0 108 -44.5t43 -108.5q0 -71 -53.5 -120.5t-120.5 -49.5q-65 0 -108 44.5t-43 108.5z" />
<glyph unicode="&#xcc;" horiz-adv-x="684" d="M119 145q1 23 17 79t18 73l149 872q13 86 16 150q6 71 58 120.5t119 49.5q70 0 111 -46.5t36 -117.5q-1 -23 -17 -78.5t-18 -72.5l-149 -873q-14 -97 -17 -149q-6 -71 -57.5 -120.5t-118.5 -49.5q-70 0 -111 46t-36 117zM201 1862q0 52 35.5 89.5t91.5 37.5q34 0 71 -21 q22 -11 58.5 -40.5t48.5 -37.5l35 -22q63 -37 77 -49q41 -37 41 -82q1 -49 -33 -84t-77 -35q-45 0 -82 24q-4 3 -51 37l-54 29q-20 13 -55 28t-43 19q-63 38 -63 107z" />
<glyph unicode="&#xcd;" horiz-adv-x="684" d="M119 145q1 23 17 79t18 73l149 872q13 86 16 150q6 71 58 120.5t119 49.5q70 0 111 -46.5t36 -117.5q-1 -23 -17 -78.5t-18 -72.5l-149 -873q-14 -97 -17 -149q-6 -71 -57.5 -120.5t-118.5 -49.5q-70 0 -111 46t-36 117zM430 1737q0 45 41 82q12 11 78 49l35 22 q13 9 48.5 38t57.5 40q38 21 72 21q56 0 91.5 -37.5t35.5 -89.5q0 -68 -64 -107q-8 -4 -43 -19t-55 -28l-53 -29q-47 -34 -51 -37q-37 -24 -82 -24q-43 0 -77.5 35t-33.5 84z" />
<glyph unicode="&#xce;" horiz-adv-x="684" d="M119 145q1 23 17 79t18 73l149 872q13 86 16 150q6 71 58 120.5t119 49.5q70 0 111 -46.5t36 -117.5q-1 -23 -17 -78.5t-18 -72.5l-149 -873q-14 -97 -17 -149q-6 -71 -57.5 -120.5t-118.5 -49.5q-70 0 -111 46t-36 117zM293 1714q0 57 61 105q54 37 68 51l20 18 q15 12 32 31t28 29q22 22 41.5 32.5t48.5 10.5t48 -9.5t26.5 -19.5t19.5 -31q22 -41 25 -45l16 -26q8 -15 26 -41t25 -37q23 -38 23 -70q0 -41 -31 -67.5t-72 -26.5q-56 0 -80 43q-7 13 -19 42.5t-15 35.5l-15 28l-41 -49q-4 -5 -13 -17.5t-15 -19.5t-14.5 -16.5 t-16.5 -15.5q-33 -31 -82 -31q-32 0 -63 26.5t-31 69.5z" />
<glyph unicode="&#xcf;" horiz-adv-x="684" d="M119 145q1 23 17 79t18 73l149 872q13 86 16 150q6 71 58 120.5t119 49.5q70 0 111 -46.5t36 -117.5q-1 -23 -17 -78.5t-18 -72.5l-149 -873q-14 -97 -17 -149q-6 -71 -57.5 -120.5t-118.5 -49.5q-70 0 -111 46t-36 117zM203 1798q0 71 53.5 120.5t120.5 49.5 q65 0 108 -44.5t43 -108.5q0 -71 -53.5 -120.5t-120.5 -49.5q-65 0 -108 44.5t-43 108.5zM612 1798q0 71 53.5 120.5t120.5 49.5q65 0 108.5 -44.5t43.5 -108.5q0 -71 -53.5 -120.5t-120.5 -49.5q-65 0 -108.5 44.5t-43.5 108.5z" />
<glyph unicode="&#xd0;" horiz-adv-x="1458" d="M35 723q5 51 44 88t91 37q13 0 58.5 -5t60.5 -5h8l53 307q14 97 17 149q6 71 56.5 119.5t119.5 48.5h303q265 0 425.5 -162.5t160.5 -425.5q0 -183 -54 -342t-154 -277.5t-253.5 -186.5t-341.5 -68h-312q-68 0 -109 48t-36 118q1 24 17 80.5t18 72.5l49 289 q-14 -1 -55 -5.5t-54 -4.5q-52 0 -83.5 36.5t-28.5 88.5zM506 279h158q94 0 177 41.5t145 116t98 187t36 246.5q0 156 -82.5 239t-224.5 83h-149l-62 -354h49q15 0 57.5 5t55.5 5q52 0 84 -36.5t29 -88.5q-5 -51 -44.5 -88t-91.5 -37q-13 0 -53 5t-55 5h-70z" />
<glyph unicode="&#xd1;" horiz-adv-x="1476" d="M98 145q1 23 17 79t18 73l148 848q13 86 16 149q6 71 56.5 119.5t119.5 48.5q64 0 95 -33t71 -122l274 -592l109 -250q19 178 31 252l63 452q14 96 17 150q6 71 57.5 120.5t118.5 49.5q70 0 111 -46.5t36 -117.5q-1 -23 -17 -78.5t-18 -72.5l-149 -873q-14 -96 -17 -151 q-6 -71 -56.5 -119.5t-119.5 -48.5q-94 0 -137 69q-13 21 -31.5 68t-27.5 67l-355 740q-22 -203 -32 -258l-62 -367q-13 -86 -16 -149q-6 -71 -55.5 -120.5t-116.5 -49.5q-70 0 -111.5 46t-36.5 117zM612 1786q6 74 66.5 121t138.5 47q63 0 139 -37q13 -6 34 -18.5 t34.5 -19.5t22.5 -7q16 0 24 24q10 26 25 41q27 27 67 27q53 0 85 -34.5t28 -88.5q-6 -74 -66.5 -121t-138.5 -47q-63 0 -139 37q-14 7 -34 19t-33.5 19t-22.5 7q-17 0 -25 -24q-10 -27 -24 -41q-27 -27 -68 -27q-53 0 -85 34.5t-28 88.5z" />
<glyph unicode="&#xd2;" horiz-adv-x="1554" d="M127 612q0 196 59.5 364t161 282t238.5 178.5t291 64.5q282 0 444 -178.5t162 -468.5q0 -198 -56.5 -365.5t-154.5 -283t-233 -180t-289 -64.5q-281 0 -452 182t-171 469zM438 610q0 -164 84 -269t230 -105q116 0 211.5 77.5t151.5 221t56 323.5q0 164 -85.5 269.5 t-231.5 105.5q-177 0 -296.5 -175t-119.5 -448zM625 1862q0 52 35.5 89.5t91.5 37.5q34 0 71 -21q22 -11 58.5 -40.5t48.5 -37.5l35 -22q63 -37 77 -49q41 -37 41 -82q1 -49 -33 -84t-77 -35q-45 0 -82 24q-4 3 -51 37l-54 29q-20 13 -55 28t-43 19q-63 38 -63 107z" />
<glyph unicode="&#xd3;" horiz-adv-x="1554" d="M127 612q0 196 59.5 364t161 282t238.5 178.5t291 64.5q282 0 444 -178.5t162 -468.5q0 -198 -56.5 -365.5t-154.5 -283t-233 -180t-289 -64.5q-281 0 -452 182t-171 469zM438 610q0 -164 84 -269t230 -105q116 0 211.5 77.5t151.5 221t56 323.5q0 164 -85.5 269.5 t-231.5 105.5q-177 0 -296.5 -175t-119.5 -448zM854 1737q0 45 41 82q12 11 78 49l35 22q13 9 48.5 38t57.5 40q38 21 72 21q56 0 91.5 -37.5t35.5 -89.5q0 -68 -64 -107q-8 -4 -43 -19t-55 -28l-53 -29q-47 -34 -51 -37q-37 -24 -82 -24q-43 0 -77.5 35t-33.5 84z" />
<glyph unicode="&#xd4;" horiz-adv-x="1554" d="M127 612q0 196 59.5 364t161 282t238.5 178.5t291 64.5q282 0 444 -178.5t162 -468.5q0 -198 -56.5 -365.5t-154.5 -283t-233 -180t-289 -64.5q-281 0 -452 182t-171 469zM438 610q0 -164 84 -269t230 -105q116 0 211.5 77.5t151.5 221t56 323.5q0 164 -85.5 269.5 t-231.5 105.5q-177 0 -296.5 -175t-119.5 -448zM717 1714q0 57 61 105q54 37 68 51l20 18q15 12 32 31t28 29q22 22 41.5 32.5t48.5 10.5t48 -9.5t26.5 -19.5t19.5 -31q22 -41 25 -45l16 -26q8 -15 26 -41t25 -37q23 -38 23 -70q0 -41 -31 -67.5t-72 -26.5q-56 0 -80 43 q-7 13 -19 42.5t-15 35.5l-15 28l-41 -49q-4 -5 -13 -17.5t-15 -19.5t-14.5 -16.5t-16.5 -15.5q-33 -31 -82 -31q-32 0 -63 26.5t-31 69.5z" />
<glyph unicode="&#xd5;" horiz-adv-x="1554" d="M127 612q0 196 59.5 364t161 282t238.5 178.5t291 64.5q282 0 444 -178.5t162 -468.5q0 -198 -56.5 -365.5t-154.5 -283t-233 -180t-289 -64.5q-281 0 -452 182t-171 469zM438 610q0 -164 84 -269t230 -105q116 0 211.5 77.5t151.5 221t56 323.5q0 164 -85.5 269.5 t-231.5 105.5q-177 0 -296.5 -175t-119.5 -448zM664 1786q6 74 66 121t138 47q64 0 140 -37q14 -7 34 -19t33.5 -19t22.5 -7q16 0 24 24q10 26 25 41q27 27 67 27q53 0 85 -34.5t28 -88.5q-6 -74 -66.5 -121t-138.5 -47q-63 0 -139 37q-14 7 -34 19t-33.5 19t-22.5 7 q-17 0 -25 -24q-10 -27 -24 -41q-27 -27 -68 -27q-53 0 -84.5 34.5t-27.5 88.5z" />
<glyph unicode="&#xd6;" horiz-adv-x="1554" d="M127 612q0 196 59.5 364t161 282t238.5 178.5t291 64.5q282 0 444 -178.5t162 -468.5q0 -198 -56.5 -365.5t-154.5 -283t-233 -180t-289 -64.5q-281 0 -452 182t-171 469zM438 610q0 -164 84 -269t230 -105q116 0 211.5 77.5t151.5 221t56 323.5q0 164 -85.5 269.5 t-231.5 105.5q-177 0 -296.5 -175t-119.5 -448zM629 1798q0 71 53.5 120.5t120.5 49.5q65 0 108 -44.5t43 -108.5q0 -71 -53.5 -120.5t-120.5 -49.5q-65 0 -108 44.5t-43 108.5zM1038 1798q0 71 53.5 120.5t120.5 49.5q65 0 108.5 -44.5t43.5 -108.5q0 -71 -53.5 -120.5 t-120.5 -49.5q-65 0 -108.5 44.5t-43.5 108.5z" />
<glyph unicode="&#xd7;" horiz-adv-x="1067" d="M86 272q0 54 43 95q15 14 52.5 39t54.5 40l147 123l-61 80q-5 7 -38.5 42.5t-45.5 56.5q-19 34 -19 65q0 50 40 85.5t93 35.5q58 0 90 -37q12 -15 33 -49.5t33 -50.5l67 -95l144 123q16 13 42 41.5t44 40.5q44 27 80 27q46 0 79 -35t33 -78q0 -53 -43 -94 q-15 -14 -52 -40t-54 -40l-141 -117l71 -86q4 -5 38 -42t46 -58q19 -34 19 -65q0 -50 -40 -85.5t-93 -35.5q-59 0 -91 37q-12 14 -32 49.5t-33 52.5l-74 98l-153 -127q-16 -13 -42 -41.5t-44 -40.5q-43 -26 -80 -26q-46 0 -79.5 34.5t-33.5 77.5z" />
<glyph unicode="&#xd8;" horiz-adv-x="1564" d="M57 111q0 47 27 82q11 16 51 48.5t49 41.5l17 18q-74 148 -74 309q0 197 58.5 365t159 282.5t236 179t287.5 64.5q234 0 392 -133l51 70q39 51 108 51q53 0 90 -37.5t37 -95.5q0 -49 -26 -82q-12 -16 -50.5 -50t-44.5 -40l-12 -13q70 -143 70 -319q0 -197 -58.5 -365 t-159 -282.5t-236.5 -179t-288 -64.5q-237 0 -393 137l-55 -69q-40 -52 -105 -52q-54 0 -92.5 38.5t-38.5 95.5zM424 606q0 -50 6 -94l635 635q-89 86 -217 86q-116 0 -212.5 -79t-154 -223.5t-57.5 -324.5zM532 309q82 -73 213 -73q178 0 301 177t123 449q0 37 -6 78z" />
<glyph unicode="&#xd9;" horiz-adv-x="1439" d="M152 633l88 536q13 86 16 150q6 71 57.5 120.5t118.5 49.5q69 0 108.5 -46t34.5 -118q-1 -23 -16.5 -78.5t-17.5 -72.5l-95 -568q-27 -162 35.5 -263t206.5 -101q122 0 203 83t106 232l105 612q13 86 16 150q6 70 59 120t121 50q70 0 111.5 -46.5t36.5 -117.5 q-1 -23 -17 -78.5t-18 -72.5l-111 -646q-20 -119 -68 -219.5t-123 -179t-184.5 -122.5t-242.5 -44q-129 0 -237.5 48t-181.5 134t-104 213t-7 275zM557 1862q0 52 35.5 89.5t91.5 37.5q34 0 72 -21q22 -11 57.5 -40t48.5 -38l35 -22q66 -38 78 -49q41 -37 41 -82 q1 -49 -33.5 -84t-77.5 -35q-45 0 -82 24q-4 3 -51 37l-53 29q-20 13 -55 28t-43 19q-64 39 -64 107z" />
<glyph unicode="&#xda;" horiz-adv-x="1439" d="M152 633l88 536q13 86 16 150q6 71 57.5 120.5t118.5 49.5q69 0 108.5 -46t34.5 -118q-1 -23 -16.5 -78.5t-17.5 -72.5l-95 -568q-27 -162 35.5 -263t206.5 -101q122 0 203 83t106 232l105 612q13 86 16 150q6 70 59 120t121 50q70 0 111.5 -46.5t36.5 -117.5 q-1 -23 -17 -78.5t-18 -72.5l-111 -646q-20 -119 -68 -219.5t-123 -179t-184.5 -122.5t-242.5 -44q-129 0 -237.5 48t-181.5 134t-104 213t-7 275zM786 1737q0 45 41 82q12 11 78 49l35 22q12 8 48.5 37.5t58.5 40.5q38 21 71 21q56 0 91.5 -37.5t35.5 -89.5q0 -69 -63 -107 q-9 -5 -44 -19.5t-55 -27.5l-53 -29q-47 -34 -51 -37q-37 -24 -82 -24q-43 0 -77.5 35t-33.5 84z" />
<glyph unicode="&#xdb;" horiz-adv-x="1439" d="M152 633l88 536q13 86 16 150q6 71 57.5 120.5t118.5 49.5q69 0 108.5 -46t34.5 -118q-1 -23 -16.5 -78.5t-17.5 -72.5l-95 -568q-27 -162 35.5 -263t206.5 -101q122 0 203 83t106 232l105 612q13 86 16 150q6 70 59 120t121 50q70 0 111.5 -46.5t36.5 -117.5 q-1 -23 -17 -78.5t-18 -72.5l-111 -646q-20 -119 -68 -219.5t-123 -179t-184.5 -122.5t-242.5 -44q-129 0 -237.5 48t-181.5 134t-104 213t-7 275zM649 1714q0 56 62 105q50 35 67 51l21 18q15 12 31.5 31t27.5 29q22 22 41.5 32.5t48.5 10.5t48 -9.5t26.5 -19.5t19.5 -31 q22 -41 25 -45l16 -26q8 -15 26.5 -40.5t25.5 -37.5q22 -36 22 -70q0 -41 -30.5 -67.5t-71.5 -26.5q-56 0 -80 43q-2 4 -35 78l-14 28l-41 -49q-45 -57 -60 -69q-33 -31 -82 -31q-32 0 -63 26.5t-31 69.5z" />
<glyph unicode="&#xdc;" horiz-adv-x="1439" d="M152 633l88 536q13 86 16 150q6 71 57.5 120.5t118.5 49.5q69 0 108.5 -46t34.5 -118q-1 -23 -16.5 -78.5t-17.5 -72.5l-95 -568q-27 -162 35.5 -263t206.5 -101q122 0 203 83t106 232l105 612q13 86 16 150q6 70 59 120t121 50q70 0 111.5 -46.5t36.5 -117.5 q-1 -23 -17 -78.5t-18 -72.5l-111 -646q-20 -119 -68 -219.5t-123 -179t-184.5 -122.5t-242.5 -44q-129 0 -237.5 48t-181.5 134t-104 213t-7 275zM561 1798q0 71 53.5 120.5t120.5 49.5q65 0 108.5 -44.5t43.5 -108.5q0 -71 -53.5 -120.5t-120.5 -49.5q-65 0 -108.5 44.5 t-43.5 108.5zM971 1798q0 71 53.5 120.5t120.5 49.5q65 0 108 -44.5t43 -108.5q0 -71 -53.5 -120.5t-120.5 -49.5q-65 0 -108 44.5t-43 108.5z" />
<glyph unicode="&#xdd;" horiz-adv-x="1185" d="M147 1325q0 71 43.5 117.5t112.5 46.5q48 0 89.5 -28t60.5 -83q9 -28 16 -71t10 -56l121 -475l348 531q6 11 26.5 48t33.5 56q53 78 133 78q71 0 112 -44.5t41 -103.5q0 -55 -47 -112q-50 -63 -78 -103l-471 -673l-22 -152q-14 -97 -17 -149q-6 -71 -57.5 -120.5 t-118.5 -49.5q-70 0 -111 46t-36 117q1 23 17 79t18 73l32 205l-204 647q-3 9 -29 80q-23 59 -23 96zM645 1737q0 45 41 82q12 11 78 49l35 22q13 9 48.5 38t57.5 40q37 21 72 21q56 0 91.5 -37.5t35.5 -89.5q0 -68 -64 -107q-8 -4 -43 -19t-55 -28l-53 -29q-47 -34 -51 -37 q-37 -24 -82 -24q-43 0 -77.5 35t-33.5 84z" />
<glyph unicode="&#xde;" horiz-adv-x="1228" d="M98 145q1 23 17 79t18 73l152 870q13 86 16 150q6 71 57.5 120.5t118.5 49.5q70 0 111.5 -46.5t36.5 -117.5q-1 -16 -6.5 -39.5t-16 -62t-12.5 -47.5h155q100 0 185.5 -34t142.5 -90.5t89 -129t32 -150.5q0 -227 -144.5 -360.5t-371.5 -133.5h-244q-7 -49 -12 -124 q-6 -71 -57.5 -120.5t-118.5 -49.5q-70 0 -111.5 46t-36.5 117zM481 561h213q93 0 149 57t56 142q0 68 -50 111.5t-128 43.5h-176z" />
<glyph unicode="&#xdf;" horiz-adv-x="1325" d="M29 -305q1 23 15.5 79t16.5 70l205 1164q43 241 176.5 371t335.5 130q121 0 210.5 -55.5t132 -140.5t42.5 -185t-43 -177.5t-125 -121.5q78 -20 133 -76.5t80 -130.5t25 -159q0 -140 -69 -257.5t-181.5 -184t-239.5 -66.5q-92 0 -155 29q-82 40 -82 125q0 59 32.5 94 t86.5 35q43 0 75 -25q26 -20 72 -20q27 0 58.5 15.5t63 46t52.5 88t21 130.5q0 97 -51 159t-136 62q-13 0 -23.5 -2t-21.5 -2q-48 0 -80 24t-32 72q0 53 32 85t86 32h31q47 0 90 51t43 131q0 77 -40 119.5t-109 42.5q-76 0 -131 -62t-74 -171l-199 -1170q0 -2 -16 -147 q-8 -71 -53.5 -117.5t-112.5 -46.5t-106.5 46t-34.5 116z" />
<glyph unicode="&#xe0;" d="M90 416q0 129 43 242t115 190.5t167 122.5t197 45q69 0 129.5 -26t98.5 -68q50 63 123 63q66 0 106 -46t35 -110q-1 -27 -20.5 -80.5t-22.5 -74.5l-60 -344q-14 -78 7 -78q4 0 14.5 2t21.5 2q55 0 88 -35.5t33 -87.5q0 -65 -56 -108t-146 -43q-69 0 -123.5 31t-83.5 91 q-43 -62 -119.5 -101.5t-167.5 -39.5q-163 0 -271 123.5t-108 329.5zM319 1421q0 50 37 87.5t90 37.5q36 0 72 -20q20 -13 55 -40t48 -36l67 -41q65 -42 74 -49q41 -37 41 -82q0 -48 -35.5 -82.5t-77.5 -34.5q-41 0 -80 25q-2 1 -22 16t-29 21l-82 47q-20 13 -54.5 28 t-41.5 19q-62 38 -62 104zM387 410q0 -97 40 -146t103 -49q65 0 117 46t66 134l55 326q-45 57 -129 57q-102 0 -177 -108.5t-75 -259.5z" />
<glyph unicode="&#xe1;" d="M90 416q0 129 43 242t115 190.5t167 122.5t197 45q69 0 129.5 -26t98.5 -68q50 63 123 63q66 0 106 -46t35 -110q-1 -27 -20.5 -80.5t-22.5 -74.5l-60 -344q-14 -78 7 -78q4 0 14.5 2t21.5 2q55 0 88 -35.5t33 -87.5q0 -65 -56 -108t-146 -43q-69 0 -123.5 31t-83.5 91 q-43 -62 -119.5 -101.5t-167.5 -39.5q-163 0 -271 123.5t-108 329.5zM387 410q0 -97 40 -146t103 -49q65 0 117 46t66 134l55 326q-45 57 -129 57q-102 0 -177 -108.5t-75 -259.5zM571 1278q0 45 41 82q9 7 74 49l68 41q13 10 47.5 36.5t54.5 39.5q36 20 72 20 q53 0 90 -37.5t37 -87.5q0 -66 -62 -104q-7 -4 -41.5 -19t-54.5 -28l-82 -47q-9 -6 -29 -21t-22 -16q-39 -25 -80 -25q-42 0 -77.5 34.5t-35.5 82.5z" />
<glyph unicode="&#xe2;" d="M90 416q0 129 43 242t115 190.5t167 122.5t197 45q69 0 129.5 -26t98.5 -68q50 63 123 63q66 0 106 -46t35 -110q-1 -27 -20.5 -80.5t-22.5 -74.5l-60 -344q-14 -78 7 -78q4 0 14.5 2t21.5 2q55 0 88 -35.5t33 -87.5q0 -65 -56 -108t-146 -43q-69 0 -123.5 31t-83.5 91 q-43 -62 -119.5 -101.5t-167.5 -39.5q-163 0 -271 123.5t-108 329.5zM387 410q0 -97 40 -146t103 -49q65 0 117 46t66 134l55 326q-45 57 -129 57q-102 0 -177 -108.5t-75 -259.5zM397 1245q0 36 16 60.5t50 50.5q3 2 69 53l27 21q14 10 22.5 18t18.5 19.5t18 19.5 q17 16 27.5 23.5t28.5 14.5t39 7q43 0 61 -14.5t35 -47.5q27 -46 35 -57l20 -31q32 -45 41 -61q27 -39 27 -76q0 -42 -30.5 -71t-72.5 -29q-28 0 -53.5 13t-38.5 36q-8 13 -19 40t-16 38l-12 26l-45 -45q-5 -5 -28.5 -34t-38.5 -41q-39 -31 -84 -31q-33 0 -65 26.5t-32 71.5 z" />
<glyph unicode="&#xe3;" d="M90 416q0 129 43 242t115 190.5t167 122.5t197 45q69 0 129.5 -26t98.5 -68q50 63 123 63q66 0 106 -46t35 -110q-1 -27 -20.5 -80.5t-22.5 -74.5l-60 -344q-14 -78 7 -78q4 0 14.5 2t21.5 2q55 0 88 -35.5t33 -87.5q0 -65 -56 -108t-146 -43q-69 0 -123.5 31t-83.5 91 q-43 -62 -119.5 -101.5t-167.5 -39.5q-163 0 -271 123.5t-108 329.5zM377 1317q6 74 66.5 121t138.5 47q63 0 139 -37q14 -7 34 -19t33.5 -19t22.5 -7q17 0 25 24q10 27 24 41q27 27 68 27q53 0 84.5 -34.5t27.5 -88.5q-6 -74 -66 -121t-138 -47q-64 0 -140 37q-14 7 -34 19 t-33.5 19t-22.5 7q-16 0 -24 -24q-10 -26 -25 -41q-27 -27 -68 -27q-53 0 -84.5 34.5t-27.5 88.5zM387 410q0 -97 40 -146t103 -49q65 0 117 46t66 134l55 326q-45 57 -129 57q-102 0 -177 -108.5t-75 -259.5z" />
<glyph unicode="&#xe4;" d="M90 416q0 129 43 242t115 190.5t167 122.5t197 45q69 0 129.5 -26t98.5 -68q50 63 123 63q66 0 106 -46t35 -110q-1 -27 -20.5 -80.5t-22.5 -74.5l-60 -344q-14 -78 7 -78q4 0 14.5 2t21.5 2q55 0 88 -35.5t33 -87.5q0 -65 -56 -108t-146 -43q-69 0 -123.5 31t-83.5 91 q-43 -62 -119.5 -101.5t-167.5 -39.5q-163 0 -271 123.5t-108 329.5zM340 1307q0 71 53.5 120.5t120.5 49.5q65 0 108.5 -45t43.5 -109q0 -71 -53.5 -120.5t-120.5 -49.5q-65 0 -108.5 45t-43.5 109zM387 410q0 -97 40 -146t103 -49q65 0 117 46t66 134l55 326 q-45 57 -129 57q-102 0 -177 -108.5t-75 -259.5zM752 1307q0 71 53.5 120.5t120.5 49.5q65 0 108 -45t43 -109q0 -71 -53.5 -120.5t-120.5 -49.5q-65 0 -108 45t-43 109z" />
<glyph unicode="&#xe5;" d="M90 416q0 129 43 242t115 190.5t167 122.5t197 45q69 0 129.5 -26t98.5 -68q50 63 123 63q66 0 106 -46t35 -110q-1 -27 -20.5 -80.5t-22.5 -74.5l-60 -344q-14 -78 7 -78q4 0 14.5 2t21.5 2q55 0 88 -35.5t33 -87.5q0 -65 -56 -108t-146 -43q-69 0 -123.5 31t-83.5 91 q-43 -62 -119.5 -101.5t-167.5 -39.5q-163 0 -271 123.5t-108 329.5zM387 410q0 -97 40 -146t103 -49q65 0 117 46t66 134l55 326q-45 57 -129 57q-102 0 -177 -108.5t-75 -259.5zM451 1397q0 119 87.5 201.5t200.5 82.5q109 0 180.5 -71t71.5 -176q0 -121 -86 -203 t-200 -82q-110 0 -182 70.5t-72 177.5zM618 1405q0 -42 25 -69t70 -27q40 0 74 32t34 84q0 43 -24.5 70.5t-69.5 28.5q-40 0 -74.5 -33.5t-34.5 -85.5z" />
<glyph unicode="&#xe6;" horiz-adv-x="1638" d="M72 254q0 149 115 240t333 106q156 12 156 92q3 107 -115 107q-85 0 -104 -49q-21 -51 -61 -80t-93 -29q-63 0 -94 37.5t-31 81.5q0 60 58 127q50 57 134.5 93t200.5 36q198 0 277 -109q128 109 315 109q163 0 274 -91.5t111 -222.5q0 -142 -118.5 -231.5t-329.5 -89.5 q-102 0 -195 18q15 -198 197 -198q87 0 131 57q47 64 123 64q58 0 96.5 -37.5t38.5 -89.5q0 -65 -64 -129q-48 -44 -132 -73.5t-197 -29.5q-204 0 -322 121q-138 -121 -342 -121q-166 0 -264 82.5t-98 208.5zM371 281q0 -43 33.5 -67t95.5 -24q48 0 97 18.5t77 49.5 q-24 76 -27 178q-65 -32 -149 -37q-58 -4 -92.5 -38.5t-34.5 -79.5zM918 592q83 -17 145 -17q103 0 154 32t51 83q0 43 -39 72t-90 29q-75 0 -136 -53.5t-85 -145.5z" />
<glyph unicode="&#xe7;" horiz-adv-x="1107" d="M90 446q0 110 36.5 212t103.5 182t169.5 128t225.5 48q112 0 216.5 -47.5t153.5 -141.5q23 -44 23 -84q0 -59 -41.5 -98t-106.5 -39q-39 0 -71 21.5t-49 62.5q-30 78 -140 78q-101 0 -165 -89t-64 -228q0 -47 9 -86t28 -73t54.5 -53.5t84.5 -19.5q91 0 135 68 q46 73 129 73q53 0 93 -36.5t40 -92.5q0 -51 -32 -96q-43 -62 -122.5 -109.5t-185.5 -58.5q-8 -55 -39 -98l29 -8q74 -24 111 -77t37 -122q0 -121 -87.5 -194.5t-213.5 -73.5q-64 0 -125 19.5t-101 56.5q-53 49 -53 104q0 41 28 74t76 33q56 0 93 -54q34 -49 92 -49 q42 0 69 26t27 62q0 29 -20 51.5t-52 22.5q-15 0 -40 -7t-50 -7q-28 0 -50.5 19.5t-22.5 51.5q0 58 75 99q35 19 41 79q-159 32 -253.5 154.5t-94.5 316.5z" />
<glyph unicode="&#xe8;" horiz-adv-x="1099" d="M90 446q0 110 36.5 212t103.5 182t169.5 128t225.5 48q163 0 274 -91.5t111 -222.5q0 -142 -118 -231.5t-329 -89.5q-105 0 -198 20q9 -96 60 -150t134 -54q90 0 137 61q47 64 123 64q58 0 96.5 -37.5t38.5 -89.5q0 -66 -63 -129q-47 -44 -133 -73.5t-193 -29.5 q-136 0 -242 55t-169.5 166t-63.5 262zM311 1421q0 50 37 87.5t90 37.5q36 0 72 -20q20 -13 54.5 -39.5t47.5 -36.5l68 -41q65 -42 74 -49q41 -37 41 -82q0 -48 -35.5 -82.5t-77.5 -34.5q-41 0 -80 25q-2 1 -22 16t-29 21l-82 47q-20 13 -54.5 28t-41.5 19q-62 38 -62 104z M383 590q92 -15 143 -15q102 0 151.5 33t49.5 84q0 43 -36 71t-87 28q-71 0 -132.5 -55t-88.5 -146z" />
<glyph unicode="&#xe9;" horiz-adv-x="1099" d="M90 446q0 110 36.5 212t103.5 182t169.5 128t225.5 48q163 0 274 -91.5t111 -222.5q0 -142 -118 -231.5t-329 -89.5q-105 0 -198 20q9 -96 60 -150t134 -54q90 0 137 61q47 64 123 64q58 0 96.5 -37.5t38.5 -89.5q0 -66 -63 -129q-47 -44 -133 -73.5t-193 -29.5 q-136 0 -242 55t-169.5 166t-63.5 262zM383 590q92 -15 143 -15q102 0 151.5 33t49.5 84q0 43 -36 71t-87 28q-71 0 -132.5 -55t-88.5 -146zM563 1278q0 45 41 82q9 7 74 49l67 41q13 9 48 36t55 40q36 20 72 20q53 0 90 -37.5t37 -87.5q0 -66 -62 -104q-7 -4 -41.5 -19 t-54.5 -28l-82 -47q-9 -6 -29 -21t-22 -16q-39 -25 -80 -25q-42 0 -77.5 34.5t-35.5 82.5z" />
<glyph unicode="&#xea;" horiz-adv-x="1099" d="M90 446q0 110 36.5 212t103.5 182t169.5 128t225.5 48q163 0 274 -91.5t111 -222.5q0 -142 -118 -231.5t-329 -89.5q-105 0 -198 20q9 -96 60 -150t134 -54q90 0 137 61q47 64 123 64q58 0 96.5 -37.5t38.5 -89.5q0 -66 -63 -129q-47 -44 -133 -73.5t-193 -29.5 q-136 0 -242 55t-169.5 166t-63.5 262zM383 590q92 -15 143 -15q102 0 151.5 33t49.5 84q0 43 -36 71t-87 28q-71 0 -132.5 -55t-88.5 -146zM389 1245q0 36 16 60.5t50 50.5q3 2 69 53l27 21q14 10 22.5 18t18.5 19.5t18 19.5q17 16 27.5 23.5t28.5 14.5t39 7q43 0 61 -14.5 t35 -47.5q27 -46 35 -57l20 -31q32 -45 41 -61q27 -39 27 -76q0 -42 -30.5 -71t-72.5 -29q-28 0 -53.5 13t-38.5 36q-8 13 -19 40t-16 38l-12 26l-45 -45q-3 -3 -28 -33t-40 -42q-39 -31 -84 -31q-33 0 -64.5 26.5t-31.5 71.5z" />
<glyph unicode="&#xeb;" horiz-adv-x="1099" d="M90 446q0 110 36.5 212t103.5 182t169.5 128t225.5 48q163 0 274 -91.5t111 -222.5q0 -142 -118 -231.5t-329 -89.5q-105 0 -198 20q9 -96 60 -150t134 -54q90 0 137 61q47 64 123 64q58 0 96.5 -37.5t38.5 -89.5q0 -66 -63 -129q-47 -44 -133 -73.5t-193 -29.5 q-136 0 -242 55t-169.5 166t-63.5 262zM332 1307q0 71 53.5 120.5t120.5 49.5q65 0 108 -45t43 -109q0 -71 -53.5 -120.5t-120.5 -49.5q-65 0 -108 45t-43 109zM383 590q92 -15 143 -15q102 0 151.5 33t49.5 84q0 43 -36 71t-87 28q-71 0 -132.5 -55t-88.5 -146zM743 1307 q0 71 54 120.5t121 49.5q65 0 108 -45t43 -109q0 -71 -53.5 -120.5t-120.5 -49.5q-65 0 -108.5 45t-43.5 109z" />
<glyph unicode="&#xec;" horiz-adv-x="684" d="M29 1421q0 50 37 87.5t90 37.5q35 0 71 -20q20 -13 55 -40t48 -36l67 -41q65 -42 74 -49q41 -37 41 -82q0 -48 -35.5 -82.5t-77.5 -34.5q-41 0 -80 25q-2 1 -21.5 16t-29.5 21l-82 47q-20 13 -54.5 28t-41.5 19q-61 37 -61 104zM66 862q0 65 54.5 109.5t143.5 44.5 q88 0 152 -47t90 -131q31 -103 -12 -283l-29 -121q-33 -135 -33 -166q0 -16 12 -16q6 0 18 2t19 2q53 0 87 -35t34 -86q0 -65 -55 -109t-144 -44q-112 0 -185 75.5t-73 198.5q0 86 35 217l45 166q9 32 11.5 56.5t-1 37t-12.5 12.5q-6 0 -18 -2t-19 -2q-53 0 -86.5 35 t-33.5 86z" />
<glyph unicode="&#xed;" horiz-adv-x="684" d="M66 862q0 65 54.5 109.5t143.5 44.5q88 0 152 -47t90 -131q31 -103 -12 -283l-29 -121q-33 -135 -33 -166q0 -16 12 -16q6 0 18 2t19 2q53 0 87 -35t34 -86q0 -65 -55 -109t-144 -44q-112 0 -185 75.5t-73 198.5q0 86 35 217l45 166q9 32 11.5 56.5t-1 37t-12.5 12.5 q-6 0 -18 -2t-19 -2q-53 0 -86.5 35t-33.5 86zM279 1278q0 46 40 82q9 7 74 49l68 41q13 10 47.5 36.5t54.5 39.5q36 20 72 20q53 0 90 -37.5t37 -87.5q0 -66 -62 -104q-7 -4 -41.5 -19t-54.5 -28l-82 -47q-10 -6 -29.5 -21t-21.5 -16q-39 -25 -80 -25q-42 0 -77 34.5 t-35 82.5z" />
<glyph unicode="&#xee;" horiz-adv-x="684" d="M66 862q0 65 54.5 109.5t143.5 44.5q88 0 152 -47t90 -131q31 -103 -12 -283l-29 -121q-33 -135 -33 -166q0 -16 12 -16q6 0 18 2t19 2q53 0 87 -35t34 -86q0 -65 -55 -109t-144 -44q-112 0 -185 75.5t-73 198.5q0 86 35 217l45 166q9 32 11.5 56.5t-1 37t-12.5 12.5 q-6 0 -18 -2t-19 -2q-53 0 -86.5 35t-33.5 86zM104 1245q0 36 16 60.5t50 50.5q14 10 70 53l26 21q14 10 22.5 18t19 19.5t18.5 19.5q17 16 27 23.5t28 14.5t39 7q43 0 61 -14.5t35 -47.5q27 -46 35 -57l20 -31q32 -45 41 -61q27 -39 27 -76q0 -42 -30 -71t-72 -29 q-28 0 -54 13t-39 36q-8 13 -18 39.5t-16 38.5l-13 26l-45 -45q-5 -5 -28.5 -34t-38.5 -41q-39 -31 -84 -31q-33 0 -65 26.5t-32 71.5z" />
<glyph unicode="&#xef;" horiz-adv-x="684" d="M47 1307q0 71 53.5 120.5t120.5 49.5q65 0 108.5 -45t43.5 -109q0 -71 -53.5 -120.5t-120.5 -49.5q-65 0 -108.5 45t-43.5 109zM66 862q0 65 54.5 109.5t143.5 44.5q88 0 152 -47t90 -131q31 -103 -12 -283l-29 -121q-33 -135 -33 -166q0 -16 12 -16q6 0 18 2t19 2 q53 0 87 -35t34 -86q0 -65 -55 -109t-144 -44q-112 0 -185 75.5t-73 198.5q0 86 35 217l45 166q9 32 11.5 56.5t-1 37t-12.5 12.5q-6 0 -18 -2t-19 -2q-53 0 -86.5 35t-33.5 86zM459 1307q0 71 53.5 120.5t120.5 49.5q65 0 108 -45t43 -109q0 -71 -53.5 -120.5t-120.5 -49.5 q-65 0 -108 45t-43 109z" />
<glyph unicode="&#xf0;" horiz-adv-x="1202" d="M90 428q0 161 67.5 295.5t190 213.5t273.5 79q112 0 186 -55q-11 50 -31 102q-12 31 -31 59l-26 -8q-9 -3 -29.5 -13.5t-27.5 -13.5q-28 -14 -52 -14q-39 0 -64.5 26.5t-25.5 63.5q0 51 49 78q15 7 66 19q-60 60 -60 116q0 60 42.5 103t105.5 43q57 0 90 -24t88 -99 l25 -37l32 12q9 3 30.5 13.5t27.5 13.5q28 14 53 14q39 0 65.5 -26.5t26.5 -65.5q0 -54 -51 -80q-16 -8 -51 -16.5t-47 -12.5q24 -50 39 -86q69 -175 69 -370q0 -192 -45.5 -346t-124.5 -250.5t-181.5 -147.5t-219.5 -51q-111 0 -200.5 38t-145 103t-84.5 148t-29 176z M383 432q0 -99 44.5 -156t127.5 -57q72 0 126 44.5t83.5 119t44 153t16.5 164.5q-66 84 -174 84q-120 0 -194 -93.5t-74 -258.5z" />
<glyph unicode="&#xf1;" horiz-adv-x="1232" d="M45 834q0 65 56.5 108t146.5 43q75 0 127 -38.5t76 -104.5q47 79 127 126.5t174 47.5q159 0 249.5 -100.5t90.5 -241.5q0 -67 -21.5 -145.5t-43 -147.5t-21.5 -113q0 -16 12 -16q6 0 18 2t19 2q53 0 87 -35t34 -86q0 -65 -55 -109t-144 -44q-112 0 -185 75.5t-73 198.5 q0 83 36 203.5t36 189.5q0 54 -33.5 88.5t-83.5 34.5q-141 0 -185 -242l-40 -237q-3 -22 -17 -148q-7 -70 -56.5 -116.5t-115.5 -46.5q-67 0 -107.5 46.5t-35.5 116.5q1 23 16 78t17 70l59 344q15 78 -6 78q-1 0 -12 -2t-25 -2q-55 0 -88 35.5t-33 87.5zM428 1317 q6 74 66.5 121t138.5 47q63 0 139 -37q14 -7 34 -19t33.5 -19t22.5 -7q17 0 25 24q10 27 24 41q27 27 68 27q53 0 85 -34.5t28 -88.5q-6 -74 -66.5 -121t-138.5 -47q-63 0 -139 37q-13 6 -34 18.5t-34.5 19.5t-22.5 7q-16 0 -24 -24q-10 -26 -25 -41q-27 -27 -67 -27 q-53 0 -85 34.5t-28 88.5z" />
<glyph unicode="&#xf2;" horiz-adv-x="1165" d="M90 430q0 129 43 239.5t116.5 186t172 118t207.5 42.5q201 0 323.5 -132t122.5 -331q0 -132 -42 -243.5t-114.5 -187t-170 -117.5t-207.5 -42q-132 0 -236 63.5t-159.5 169.5t-55.5 234zM344 1421q0 50 37 87.5t90 37.5q36 0 72 -20q20 -13 54.5 -39.5t47.5 -36.5l68 -41 q59 -38 73 -49q41 -37 41 -82q0 -48 -35 -82.5t-77 -34.5q-41 0 -80 25q-2 1 -21.5 16t-29.5 21l-82 47q-20 13 -54.5 28t-41.5 19q-62 38 -62 104zM381 432q0 -89 44 -151t128 -62q99 0 165 90t66 238q0 55 -15.5 103t-56 83t-100.5 35q-101 0 -166 -89.5t-65 -246.5z" />
<glyph unicode="&#xf3;" horiz-adv-x="1165" d="M90 430q0 129 43 239.5t116.5 186t172 118t207.5 42.5q201 0 323.5 -132t122.5 -331q0 -132 -42 -243.5t-114.5 -187t-170 -117.5t-207.5 -42q-132 0 -236 63.5t-159.5 169.5t-55.5 234zM381 432q0 -89 44 -151t128 -62q99 0 165 90t66 238q0 55 -15.5 103t-56 83 t-100.5 35q-101 0 -166 -89.5t-65 -246.5zM596 1278q0 45 41 82q9 7 74 49l67 41q13 9 48 36t55 40q36 20 71 20q53 0 90 -37.5t37 -87.5q0 -67 -61 -104q-7 -4 -41.5 -19t-54.5 -28l-82 -47q-2 -1 -52 -37q-39 -25 -79 -25q-42 0 -77.5 34.5t-35.5 82.5z" />
<glyph unicode="&#xf4;" horiz-adv-x="1165" d="M90 430q0 129 43 239.5t116.5 186t172 118t207.5 42.5q201 0 323.5 -132t122.5 -331q0 -132 -42 -243.5t-114.5 -187t-170 -117.5t-207.5 -42q-132 0 -236 63.5t-159.5 169.5t-55.5 234zM381 432q0 -89 44 -151t128 -62q99 0 165 90t66 238q0 55 -15.5 103t-56 83 t-100.5 35q-101 0 -166 -89.5t-65 -246.5zM422 1245q0 36 16 61t49 50q14 10 70 53l27 21q14 10 22.5 18t18.5 19.5t18 19.5q17 16 27 23.5t28 14.5t39 7q30 0 49.5 -9t28 -20t19.5 -33q30 -52 34 -57l21 -31q32 -45 41 -61q26 -37 26 -76q0 -42 -30 -71t-72 -29 q-28 0 -53.5 13t-38.5 36q-8 13 -19 40t-16 38l-12 26l-45 -45q-3 -3 -28 -33t-40 -42q-39 -31 -84 -31q-33 0 -64.5 26.5t-31.5 71.5z" />
<glyph unicode="&#xf5;" horiz-adv-x="1165" d="M90 430q0 129 43 239.5t116.5 186t172 118t207.5 42.5q201 0 323.5 -132t122.5 -331q0 -132 -42 -243.5t-114.5 -187t-170 -117.5t-207.5 -42q-132 0 -236 63.5t-159.5 169.5t-55.5 234zM381 432q0 -89 44 -151t128 -62q99 0 165 90t66 238q0 55 -15.5 103t-56 83 t-100.5 35q-101 0 -166 -89.5t-65 -246.5zM401 1317q6 74 66.5 121t138.5 47q63 0 139 -37q13 -6 34 -18.5t34.5 -19.5t22.5 -7q16 0 24 24q10 26 25 41q27 27 67 27q53 0 85 -34.5t28 -88.5q-6 -74 -66.5 -121t-138.5 -47q-63 0 -139 37q-14 7 -34 19t-33.5 19t-22.5 7 q-17 0 -25 -24q-10 -27 -24 -41q-27 -27 -68 -27q-53 0 -85 34.5t-28 88.5z" />
<glyph unicode="&#xf6;" horiz-adv-x="1165" d="M90 430q0 129 43 239.5t116.5 186t172 118t207.5 42.5q201 0 323.5 -132t122.5 -331q0 -132 -42 -243.5t-114.5 -187t-170 -117.5t-207.5 -42q-132 0 -236 63.5t-159.5 169.5t-55.5 234zM365 1307q0 71 53.5 120.5t120.5 49.5q65 0 108 -45t43 -109q0 -71 -53.5 -120.5 t-120.5 -49.5q-65 0 -108 45t-43 109zM381 432q0 -89 44 -151t128 -62q99 0 165 90t66 238q0 55 -15.5 103t-56 83t-100.5 35q-101 0 -166 -89.5t-65 -246.5zM776 1307q0 71 53.5 120.5t120.5 49.5q65 0 108.5 -45t43.5 -109q0 -71 -53.5 -120.5t-120.5 -49.5 q-65 0 -108.5 45t-43.5 109z" />
<glyph unicode="&#xf7;" horiz-adv-x="1067" d="M111 539q3 51 42.5 87t92.5 36q13 0 58.5 -4.5t60.5 -4.5h342q15 0 57 4.5t55 4.5q52 0 84 -35.5t29 -87.5q-5 -51 -44 -87t-91 -36q-13 0 -53.5 4t-55.5 4h-342q-15 0 -62.5 -4t-60.5 -4q-52 0 -84.5 36t-27.5 87zM291 154q0 71 53.5 120.5t120.5 49.5q65 0 108 -45 t43 -109q0 -71 -53.5 -120.5t-120.5 -49.5q-65 0 -108 45t-43 109zM430 903q0 71 53.5 120.5t120.5 49.5q65 0 108.5 -44.5t43.5 -108.5q0 -71 -53.5 -120.5t-120.5 -49.5q-65 0 -108.5 44.5t-43.5 108.5z" />
<glyph unicode="&#xf8;" horiz-adv-x="1280" d="M41 102q0 42 25 78q11 15 51 45.5t49 40.5q-33 87 -33 168q0 129 43 239t116.5 184.5t172 116.5t207.5 42q163 0 278 -105l47 52q21 24 50.5 38.5t58.5 14.5q50 0 85.5 -36t35.5 -91q0 -41 -29 -78q-10 -15 -52 -46.5t-50 -39.5l-11 -8q33 -87 33 -172q0 -129 -43 -239 t-116 -184.5t-171.5 -116.5t-207.5 -42q-167 0 -285 103q-17 -17 -29 -33q-18 -24 -47 -38.5t-57 -14.5q-52 0 -86.5 34.5t-34.5 87.5zM399 428l375 303q-50 53 -125 53q-108 0 -179 -96t-71 -260zM473 242q42 -39 113 -39q103 0 171 87.5t74 241.5z" />
<glyph unicode="&#xf9;" d="M31 831q0 65 54.5 109.5t143.5 44.5q112 0 185 -75.5t73 -198.5q0 -83 -31.5 -197.5t-31.5 -183.5q0 -54 33.5 -88.5t83.5 -34.5q73 0 115.5 54.5t64.5 174.5l41 238q0 2 16 147q7 70 56.5 117t115.5 47q67 0 108 -47t36 -117q-1 -23 -16 -77.5t-17 -69.5l-60 -344 q-15 -78 7 -78q1 0 11.5 2t24.5 2q55 0 88 -35.5t33 -87.5q0 -65 -56 -108t-146 -43q-140 0 -197 124q-51 -67 -132 -105t-171 -38q-159 0 -249.5 100.5t-90.5 241.5q0 85 40 215t40 178q0 17 -15 17q-6 0 -17.5 -2t-18.5 -2q-53 0 -87 35t-34 85zM362 1421q0 50 37 87.5 t90 37.5q36 0 72 -20q20 -13 55 -40t48 -36l67 -41q65 -42 74 -49q41 -37 41 -82q0 -48 -35.5 -82.5t-77.5 -34.5q-41 0 -80 25q-2 1 -21.5 16t-29.5 21l-82 47q-20 13 -54.5 28t-41.5 19q-62 38 -62 104z" />
<glyph unicode="&#xfa;" d="M31 831q0 65 54.5 109.5t143.5 44.5q112 0 185 -75.5t73 -198.5q0 -83 -31.5 -197.5t-31.5 -183.5q0 -54 33.5 -88.5t83.5 -34.5q73 0 115.5 54.5t64.5 174.5l41 238q0 2 16 147q7 70 56.5 117t115.5 47q67 0 108 -47t36 -117q-1 -23 -16 -77.5t-17 -69.5l-60 -344 q-15 -78 7 -78q1 0 11.5 2t24.5 2q55 0 88 -35.5t33 -87.5q0 -65 -56 -108t-146 -43q-140 0 -197 124q-51 -67 -132 -105t-171 -38q-159 0 -249.5 100.5t-90.5 241.5q0 85 40 215t40 178q0 17 -15 17q-6 0 -17.5 -2t-18.5 -2q-53 0 -87 35t-34 85zM614 1278q0 45 41 82 q9 7 74 49l68 41q13 10 47.5 36.5t54.5 39.5q36 20 72 20q53 0 90 -37.5t37 -87.5q0 -66 -62 -104q-7 -4 -41.5 -19t-54.5 -28l-82 -47q-10 -6 -29.5 -21t-21.5 -16q-39 -25 -80 -25q-42 0 -77.5 34.5t-35.5 82.5z" />
<glyph unicode="&#xfb;" d="M31 831q0 65 54.5 109.5t143.5 44.5q112 0 185 -75.5t73 -198.5q0 -83 -31.5 -197.5t-31.5 -183.5q0 -54 33.5 -88.5t83.5 -34.5q73 0 115.5 54.5t64.5 174.5l41 238q0 2 16 147q7 70 56.5 117t115.5 47q67 0 108 -47t36 -117q-1 -23 -16 -77.5t-17 -69.5l-60 -344 q-15 -78 7 -78q1 0 11.5 2t24.5 2q55 0 88 -35.5t33 -87.5q0 -65 -56 -108t-146 -43q-140 0 -197 124q-51 -67 -132 -105t-171 -38q-159 0 -249.5 100.5t-90.5 241.5q0 85 40 215t40 178q0 17 -15 17q-6 0 -17.5 -2t-18.5 -2q-53 0 -87 35t-34 85zM440 1245q0 36 16 60.5 t50 50.5q3 2 69 53l27 21q14 10 22.5 18t19 19.5t18.5 19.5q17 16 27 23.5t28 14.5t39 7q43 0 61 -14.5t35 -47.5q27 -46 35 -57l20 -31q32 -45 41 -61q27 -39 27 -76q0 -42 -30.5 -71t-72.5 -29q-28 0 -53.5 13t-38.5 36q-8 13 -19 40t-16 38l-12 26l-45 -45 q-5 -5 -28.5 -34t-38.5 -41q-39 -31 -84 -31q-33 0 -65 26.5t-32 71.5z" />
<glyph unicode="&#xfc;" d="M31 831q0 65 54.5 109.5t143.5 44.5q112 0 185 -75.5t73 -198.5q0 -83 -31.5 -197.5t-31.5 -183.5q0 -54 33.5 -88.5t83.5 -34.5q73 0 115.5 54.5t64.5 174.5l41 238q0 2 16 147q7 70 56.5 117t115.5 47q67 0 108 -47t36 -117q-1 -23 -16 -77.5t-17 -69.5l-60 -344 q-15 -78 7 -78q1 0 11.5 2t24.5 2q55 0 88 -35.5t33 -87.5q0 -65 -56 -108t-146 -43q-140 0 -197 124q-51 -67 -132 -105t-171 -38q-159 0 -249.5 100.5t-90.5 241.5q0 85 40 215t40 178q0 17 -15 17q-6 0 -17.5 -2t-18.5 -2q-53 0 -87 35t-34 85zM383 1307q0 71 53.5 120.5 t120.5 49.5q65 0 108.5 -45t43.5 -109q0 -71 -53.5 -120.5t-120.5 -49.5q-65 0 -108.5 45t-43.5 109zM795 1307q0 71 53.5 120.5t120.5 49.5q65 0 108 -45t43 -109q0 -71 -53.5 -120.5t-120.5 -49.5q-65 0 -108 45t-43 109z" />
<glyph unicode="&#xfd;" horiz-adv-x="1212" d="M33 -207q0 67 39 108.5t100 41.5q52 0 87 -28t48 -67q14 -41 55 -63.5t87 -22.5q84 0 135 60t73 184l7 35q-83 -53 -193 -53q-159 0 -249.5 100.5t-90.5 241.5q0 67 19 136t38 128.5t19 103.5q0 17 -14 17q-6 0 -18 -2t-19 -2q-53 0 -87 35t-34 85q0 65 54.5 109.5 t143.5 44.5q112 0 185.5 -75.5t73.5 -198.5q0 -83 -30 -185.5t-30 -171.5q0 -54 33.5 -88.5t83.5 -34.5q74 0 114 48t62 167l41 228q0 2 16 147q7 70 56.5 117t115.5 47q67 0 108 -47t36 -117q-1 -23 -16 -77.5t-17 -69.5l-115 -680q-78 -468 -501 -473q-117 -2 -227 44 t-161 134q-28 51 -28 94zM584 1278q0 45 41 82q14 11 73 49l68 41q13 10 47.5 36.5t54.5 39.5q36 20 72 20q53 0 90 -37.5t37 -87.5q0 -67 -61 -104q-8 -4 -42.5 -19t-54.5 -28l-82 -47q-9 -6 -29 -21t-22 -16q-39 -25 -80 -25q-42 0 -77 34.5t-35 82.5z" />
<glyph unicode="&#xfe;" horiz-adv-x="1202" d="M20 -360q1 23 16 77.5t17 69.5l232 1391q3 23 8 80t6 67q7 70 57.5 117t116.5 47q67 0 107.5 -47t35.5 -117q-1 -23 -15.5 -78t-16.5 -69l-41 -228q80 66 190 66q163 0 271 -123.5t108 -329.5q0 -128 -44.5 -241.5t-118.5 -191t-170.5 -122.5t-198.5 -45q-113 0 -187 64 l-41 -240q-3 -23 -8 -80t-6 -67q-7 -70 -57.5 -117t-116.5 -47q-67 0 -108 47t-36 117zM434 262q43 -55 129 -55q103 0 177.5 106.5t74.5 257.5q0 98 -40.5 148.5t-102.5 50.5q-64 0 -116.5 -48.5t-66.5 -137.5z" />
<glyph unicode="&#xff;" horiz-adv-x="1212" d="M33 -207q0 67 39 108.5t100 41.5q52 0 87 -28t48 -67q14 -41 55 -63.5t87 -22.5q84 0 135 60t73 184l7 35q-83 -53 -193 -53q-159 0 -249.5 100.5t-90.5 241.5q0 67 19 136t38 128.5t19 103.5q0 17 -14 17q-6 0 -18 -2t-19 -2q-53 0 -87 35t-34 85q0 65 54.5 109.5 t143.5 44.5q112 0 185.5 -75.5t73.5 -198.5q0 -83 -30 -185.5t-30 -171.5q0 -54 33.5 -88.5t83.5 -34.5q74 0 114 48t62 167l41 228q0 2 16 147q7 70 56.5 117t115.5 47q67 0 108 -47t36 -117q-1 -23 -16 -77.5t-17 -69.5l-115 -680q-78 -468 -501 -473q-117 -2 -227 44 t-161 134q-28 51 -28 94zM352 1307q0 71 53.5 120.5t120.5 49.5q65 0 108.5 -45t43.5 -109q0 -71 -53.5 -120.5t-120.5 -49.5q-65 0 -108.5 45t-43.5 109zM764 1307q0 71 53.5 120.5t120.5 49.5q65 0 108.5 -45t43.5 -109q0 -71 -54 -120.5t-121 -49.5q-65 0 -108 45 t-43 109z" />
<glyph unicode="&#x152;" horiz-adv-x="2019" d="M127 610q0 197 58.5 365t159 282.5t236 179t287.5 64.5q130 0 236 -45q240 6 278 6h508q64 0 101.5 -42.5t31.5 -104.5q-5 -62 -50 -103t-109 -41q-15 0 -62 9.5t-65 9.5h-355q70 -136 78 -289h125q18 0 65 4t62 4q62 0 100 -41t35 -100q-6 -60 -51 -99.5t-108 -39.5 q-15 0 -62 3t-65 3h-119q-40 -211 -152 -363h361q18 0 67 9.5t64 9.5q64 0 102 -41t35 -103q-6 -62 -53 -104.5t-111 -42.5h-489q-170 0 -299 6q-109 -45 -226 -45q-188 0 -328 83.5t-213 229.5t-73 336zM434 606q0 -163 85 -266.5t231 -103.5q177 0 297 176.5t120 449.5 q0 164 -84.5 267.5t-230.5 103.5q-177 0 -297.5 -177t-120.5 -450z" />
<glyph unicode="&#x153;" horiz-adv-x="1771" d="M90 434q0 129 43 239t116.5 184.5t172 116.5t207.5 42q102 0 183.5 -42t135.5 -116q63 81 147.5 119.5t200.5 38.5q163 0 274 -91.5t111 -222.5q0 -142 -117.5 -231.5t-328.5 -89.5q-100 0 -193 18q6 -102 53 -150t140 -48q82 0 131 63q47 64 123 64q58 0 96.5 -37.5 t38.5 -89.5q0 -66 -63 -129q-49 -46 -133.5 -77.5t-196.5 -31.5q-224 0 -346 150q-126 -150 -348 -150q-133 0 -236 63.5t-157 170.5t-54 237zM373 430q0 -51 15.5 -96.5t56 -80t100.5 -34.5q101 0 164 90t63 248q0 37 -9 72t-27 67.5t-52.5 52t-79.5 19.5 q-101 0 -166 -90.5t-65 -247.5zM1061 590q68 -15 137 -15q102 0 151.5 33t49.5 84q0 43 -38 71t-89 28q-72 0 -129 -54.5t-82 -146.5z" />
<glyph unicode="&#x178;" horiz-adv-x="1185" d="M147 1325q0 71 43.5 117.5t112.5 46.5q48 0 89.5 -28t60.5 -83q9 -28 16 -71t10 -56l121 -475l348 531q6 11 26.5 48t33.5 56q53 78 133 78q71 0 112 -44.5t41 -103.5q0 -55 -47 -112q-50 -63 -78 -103l-471 -673l-22 -152q-14 -97 -17 -149q-6 -71 -57.5 -120.5 t-118.5 -49.5q-70 0 -111 46t-36 117q1 23 17 79t18 73l32 205l-204 647q-3 9 -29 80q-23 59 -23 96zM420 1798q0 71 53.5 120.5t120.5 49.5q65 0 108 -44.5t43 -108.5q0 -71 -53.5 -120.5t-120.5 -49.5q-65 0 -108 44.5t-43 108.5zM829 1798q0 71 54 120.5t121 49.5 q65 0 108 -44.5t43 -108.5q0 -71 -53.5 -120.5t-120.5 -49.5q-65 0 -108.5 44.5t-43.5 108.5z" />
<glyph unicode="&#x2c6;" horiz-adv-x="923" d="M188 1245q0 36 16 60.5t50 50.5q14 10 70 53l26 21q14 10 22.5 18t19 19.5t18.5 19.5q17 16 27 23.5t28 14.5t39 7q43 0 61 -14.5t35 -47.5q27 -46 35 -57l20 -31q32 -45 41 -61q27 -39 27 -76q0 -42 -30 -71t-72 -29q-28 0 -54 13t-39 36q-8 13 -18 39.5t-16 38.5 l-13 26l-45 -45q-5 -5 -28.5 -34t-38.5 -41q-39 -31 -84 -31q-33 0 -65 26.5t-32 71.5z" />
<glyph unicode="&#x2dc;" horiz-adv-x="995" d="M166 1317q6 74 66.5 121t138.5 47q63 0 139 -37q14 -7 34 -19t33.5 -19t22.5 -7q17 0 25 24q10 27 24 41q27 27 68 27q53 0 84.5 -34.5t27.5 -88.5q-6 -74 -66 -121t-138 -47q-64 0 -140 37q-14 7 -34 19t-33.5 19t-22.5 7q-16 0 -24 -24q-10 -26 -25 -41 q-27 -27 -67 -27q-53 0 -85 34.5t-28 88.5z" />
<glyph unicode="&#x2000;" horiz-adv-x="995" />
<glyph unicode="&#x2001;" horiz-adv-x="1991" />
<glyph unicode="&#x2002;" horiz-adv-x="995" />
<glyph unicode="&#x2003;" horiz-adv-x="1991" />
<glyph unicode="&#x2004;" horiz-adv-x="663" />
<glyph unicode="&#x2005;" horiz-adv-x="497" />
<glyph unicode="&#x2006;" horiz-adv-x="331" />
<glyph unicode="&#x2007;" horiz-adv-x="331" />
<glyph unicode="&#x2008;" horiz-adv-x="248" />
<glyph unicode="&#x2009;" horiz-adv-x="398" />
<glyph unicode="&#x200a;" horiz-adv-x="110" />
<glyph unicode="&#x2010;" horiz-adv-x="792" d="M123 551q3 51 42.5 87t92.5 36q13 0 58.5 -4t60.5 -4h67q15 0 57.5 4t55.5 4q52 0 84 -35.5t29 -87.5q-5 -51 -44 -87t-91 -36q-13 0 -53.5 4t-55.5 4h-68q-15 0 -62 -4t-60 -4q-52 0 -85 36t-28 87z" />
<glyph unicode="&#x2011;" horiz-adv-x="792" d="M123 551q3 51 42.5 87t92.5 36q13 0 58.5 -4t60.5 -4h67q15 0 57.5 4t55.5 4q52 0 84 -35.5t29 -87.5q-5 -51 -44 -87t-91 -36q-13 0 -53.5 4t-55.5 4h-68q-15 0 -62 -4t-60 -4q-52 0 -85 36t-28 87z" />
<glyph unicode="&#x2012;" horiz-adv-x="792" d="M123 551q3 51 42.5 87t92.5 36q13 0 58.5 -4t60.5 -4h67q15 0 57.5 4t55.5 4q52 0 84 -35.5t29 -87.5q-5 -51 -44 -87t-91 -36q-13 0 -53.5 4t-55.5 4h-68q-15 0 -62 -4t-60 -4q-52 0 -85 36t-28 87z" />
<glyph unicode="&#x2013;" horiz-adv-x="1028" d="M123 551q3 51 42.5 87t92.5 36q13 0 58.5 -4t60.5 -4h303q15 0 57.5 4t55.5 4q52 0 83.5 -35.5t28.5 -87.5q-5 -51 -44 -87t-91 -36q-13 0 -53 4t-55 4h-304q-15 0 -62 -4t-60 -4q-52 0 -85 36t-28 87z" />
<glyph unicode="&#x2014;" horiz-adv-x="2052" d="M123 551q3 51 42.5 87t92.5 36q13 0 58.5 -4t60.5 -4h1327q15 0 57.5 4t55.5 4q52 0 83.5 -35.5t28.5 -87.5q-5 -51 -44 -87t-91 -36q-13 0 -53 4t-55 4h-1328q-15 0 -62 -4t-60 -4q-52 0 -85 36t-28 87z" />
<glyph unicode="&#x2018;" horiz-adv-x="612" d="M242 1176q0 93 32 181t80 146q57 66 109 66q48 0 75 -27t27 -65q0 -39 -45 -84q-6 -7 -19.5 -20t-20.5 -20.5t-15.5 -18.5t-12 -20t-3.5 -18q0 -17 16 -20q42 -5 74 -43t32 -90q0 -62 -45.5 -114t-117.5 -52q-74 0 -120 51.5t-46 147.5z" />
<glyph unicode="&#x2019;" horiz-adv-x="610" d="M266 1389q0 62 46 113.5t118 51.5q74 0 120 -51t46 -147q0 -93 -32.5 -181.5t-80.5 -146.5q-56 -65 -108 -65q-48 0 -75.5 27t-27.5 65q0 39 45 84l24.5 24.5t25 26t15 21.5t7.5 24q0 17 -16 20q-42 5 -74.5 43.5t-32.5 90.5z" />
<glyph unicode="&#x201a;" horiz-adv-x="610" d="M102 123q0 62 46 114t118 52q74 0 120 -51.5t46 -147.5q0 -93 -32.5 -181.5t-80.5 -146.5q-56 -65 -108 -65q-48 0 -75 27t-27 65q0 39 45 84l20 20t20 20.5t15 18t12 19.5t4 18q0 18 -16 21q-42 5 -74.5 43t-32.5 90z" />
<glyph unicode="&#x201c;" horiz-adv-x="1040" d="M242 1176q0 93 32 181t80 146q57 66 109 66q48 0 75 -27t27 -65q0 -39 -45 -84q-6 -7 -19.5 -20t-20.5 -20.5t-15.5 -18.5t-12 -20t-3.5 -18q0 -17 16 -20q42 -5 74 -43t32 -90q0 -62 -45.5 -114t-117.5 -52q-74 0 -120 51.5t-46 147.5zM670 1176q0 93 32 181t80 146 q57 66 109 66q48 0 75 -27t27 -65q0 -39 -45 -84q-6 -7 -19.5 -20t-20.5 -20.5t-15.5 -18.5t-12 -20t-3.5 -18q0 -17 16 -20q42 -5 74 -43t32 -90q0 -62 -45.5 -114t-117.5 -52q-74 0 -120 51.5t-46 147.5z" />
<glyph unicode="&#x201d;" horiz-adv-x="1038" d="M266 1389q0 62 46 113.5t118 51.5q74 0 120 -51t46 -147q0 -93 -32.5 -181.5t-80.5 -146.5q-56 -65 -108 -65q-48 0 -75.5 27t-27.5 65q0 39 45 84l24.5 24.5t25 26t15 21.5t7.5 24q0 17 -16 20q-42 5 -74.5 43.5t-32.5 90.5zM694 1389q0 62 46 113.5t118 51.5 q74 0 120 -51t46 -147q0 -93 -32.5 -181.5t-80.5 -146.5q-56 -65 -108 -65q-48 0 -75.5 27t-27.5 65q0 39 45 84l24.5 24.5t25 26t15 21.5t7.5 24q0 17 -16 20q-42 5 -74.5 43.5t-32.5 90.5z" />
<glyph unicode="&#x201e;" horiz-adv-x="1038" d="M102 123q0 62 46 114t118 52q74 0 120 -51.5t46 -147.5q0 -93 -32.5 -181.5t-80.5 -146.5q-56 -65 -108 -65q-48 0 -75 27t-27 65q0 39 45 84l20 20t20 20.5t15 18t12 19.5t4 18q0 18 -16 21q-42 5 -74.5 43t-32.5 90zM530 123q0 62 46 114t118 52q74 0 120 -51.5 t46 -147.5q0 -93 -32 -181.5t-80 -146.5q-56 -65 -109 -65q-48 0 -75 27t-27 65q0 39 45 84l20 20t20 20.5t15 18t12 19.5t4 18q0 18 -16 21q-42 5 -74.5 43t-32.5 90z" />
<glyph unicode="&#x2022;" horiz-adv-x="796" d="M111 532q0 119 83.5 204t202.5 85q121 0 205 -85t84 -204q0 -120 -84 -205t-205 -85q-120 0 -203 85t-83 205z" />
<glyph unicode="&#x2026;" horiz-adv-x="1519" d="M86 135q0 71 53.5 120.5t120.5 49.5q65 0 108.5 -44.5t43.5 -108.5q0 -71 -53.5 -120.5t-120.5 -49.5q-65 0 -108.5 44.5t-43.5 108.5zM551 135q0 71 53.5 120.5t120.5 49.5q65 0 108.5 -44.5t43.5 -108.5q0 -71 -54 -120.5t-121 -49.5q-65 0 -108 44.5t-43 108.5z M1016 135q0 71 53.5 120.5t120.5 49.5q65 0 108 -44.5t43 -108.5q0 -71 -53.5 -120.5t-120.5 -49.5q-65 0 -108 44.5t-43 108.5z" />
<glyph unicode="&#x202f;" horiz-adv-x="398" />
<glyph unicode="&#x2039;" horiz-adv-x="870" d="M68 539q0 41 45 77q55 38 71 48l291 198q15 9 34.5 26.5t31.5 24.5q44 27 80 27q45 0 78.5 -32t33.5 -72q0 -62 -49 -101q-16 -13 -31.5 -22t-34 -18t-28.5 -15l-246 -158l150 -151q14 -14 40 -36.5t27 -23.5q37 -37 37 -84q0 -50 -35.5 -85.5t-87.5 -35.5q-49 0 -88 39 q-10 10 -29 34t-26 32l-191 213q-7 8 -23.5 23.5t-23.5 23.5q-26 26 -26 68z" />
<glyph unicode="&#x203a;" horiz-adv-x="880" d="M109 211q0 61 49 100q16 13 31.5 22.5t34 18.5t28.5 15l246 155l-150 154q-14 13 -38.5 34t-28.5 25q-37 37 -37 84q0 50 35.5 85.5t87.5 35.5q49 0 88 -39q10 -10 29.5 -34t25.5 -31l190 -213q7 -8 24 -24t24 -24q26 -26 26 -67q0 -42 -45 -78q-36 -25 -72 -47 l-290 -199q-15 -9 -34.5 -26.5t-31.5 -24.5q-44 -27 -80 -27q-45 0 -78.5 32.5t-33.5 72.5z" />
<glyph unicode="&#x205f;" horiz-adv-x="497" />
<glyph unicode="&#x20ac;" horiz-adv-x="1351" d="M53 489q0 51 35 86t86 35q8 0 21 -1t30.5 -2.5t28.5 -2.5q4 86 8 127q-54 -4 -67 -4q-51 0 -87 35t-36 84q0 51 36 85t87 34q12 0 55 -4.5t57 -4.5q70 217 219 341t353 124q172 0 280.5 -57t163.5 -143q47 -73 47 -146q0 -61 -42.5 -105t-123.5 -44q-66 0 -101 36.5 t-44 90.5q-18 114 -185 114t-249 -211h174q16 0 55.5 4.5t52.5 4.5q51 0 85 -34.5t34 -84.5t-34 -84.5t-85 -34.5q-13 0 -52 4t-54 4h-232q-8 -57 -8 -133h131q13 0 53 4t54 4q51 0 85 -35t34 -86q0 -50 -34 -84t-85 -34q-12 0 -52.5 4t-54.5 4h-112q48 -143 221 -143 q74 0 114 30t74 88q52 80 144 80q69 0 105 -42.5t36 -102.5q0 -68 -55 -135q-62 -79 -172 -133t-240 -54q-223 0 -362.5 108.5t-178.5 301.5q-11 -1 -31.5 -2.5t-36 -2.5t-24.5 -1q-50 0 -85.5 35t-35.5 83z" />
<glyph unicode="&#x2122;" horiz-adv-x="1406" d="M176 1364q4 39 32.5 63.5t67.5 24.5h357q39 0 63 -24.5t21 -63.5q-3 -37 -31.5 -60.5t-67.5 -23.5q-10 0 -32 6t-39 6h-17l-38 -233q-3 -13 -9 -86q-5 -44 -34 -74.5t-72 -30.5q-42 0 -68 29t-24 72q1 15 11 47.5t11 40.5l39 235h-12q-17 0 -41 -6t-33 -6q-40 0 -63 23 t-21 61zM694 963q0 19 9 49t12 47l33 211q2 10 3.5 42.5t4.5 45.5q9 43 38.5 68.5t67.5 25.5h23q46 0 73 -45q5 -8 23 -80l23 -98l28 -131q9 17 39.5 67t36.5 62l72 123q33 58 59 82q23 20 68 20h24q43 0 63 -37t9 -82q-1 -11 -10 -43.5t-11 -42.5l-34 -184q-2 -9 -3 -24.5 t-2 -34.5t-2 -27q-5 -45 -35 -76t-73 -31q-42 0 -65 29t-21 74q1 14 10 46t10 40l11 51l14 66l-64 -115l-24 -45q-19 -33 -38.5 -48.5t-51.5 -15.5q-39 0 -56 16t-24 48l-12 57l-19 94l-6 -57q-6 -36 -6 -49l-6 -84q-5 -49 -31.5 -79t-69.5 -30q-42 0 -67 28t-23 67z" />
<glyph unicode="&#x25fc;" horiz-adv-x="993" d="M0 0v993h993v-993h-993z" />
<glyph unicode="&#xfb03;" horiz-adv-x="2451" d="M-211 -311q0 62 41.5 105.5t103.5 43.5q38 0 73 -18.5t50 -18.5q17 0 32 13t20 43l145 872q-10 -1 -38.5 -3.5t-37.5 -2.5q-52 0 -85 36t-30 87q4 52 44.5 88.5t93.5 36.5q10 0 43.5 -4.5t48.5 -5.5l33 186q27 161 121 251.5t247 90.5q100 0 168.5 -34.5t100.5 -86.5 q24 -40 24 -78q0 -61 -42 -104t-103 -43q-47 0 -86 35q-4 3 -17 14.5t-19 15.5t-17 8.5t-23 4.5q-27 0 -47.5 -21.5t-26.5 -56.5l-31 -182h56q15 0 57 5t55 5q52 0 84 -36t27 -89q-3 -51 -42 -87t-91 -36q-13 0 -53.5 4t-55.5 4h-75l-154 -911q-23 -129 -117.5 -213 t-238.5 -84q-115 0 -176.5 46.5t-61.5 119.5zM678 -311q0 62 41.5 105.5t103.5 43.5q38 0 73 -18.5t50 -18.5q41 0 51 56l146 872q-10 -1 -38.5 -3.5t-37.5 -2.5q-52 0 -85 36t-30 87q4 52 44.5 88.5t93.5 36.5q10 0 43.5 -4.5t48.5 -5.5l32 186q27 161 121.5 251.5 t247.5 90.5q100 0 167.5 -34t100.5 -87q25 -42 25 -78q0 -61 -42 -104t-103 -43q-47 0 -86 35q-4 3 -17 14.5t-19 15.5t-17 8.5t-23 4.5q-27 0 -47.5 -21.5t-26.5 -56.5l-31 -182h56q15 0 57 5t55 5q52 0 84 -36t27 -89q-3 -51 -42 -87t-91 -36q-13 0 -53.5 4t-55.5 4h-76 l-153 -911q-23 -129 -118 -213t-239 -84q-115 0 -176 46.5t-61 119.5zM1843 862q0 65 55 109.5t144 44.5q88 0 152 -47t90 -131q31 -101 -13 -283l-28 -121q-33 -135 -33 -166q0 -16 12 -16q6 0 18 2t19 2q53 0 87 -35t34 -86q0 -65 -55 -109t-144 -44q-112 0 -185 75.5 t-73 198.5q0 86 35 217l45 166q9 32 11.5 56.5t-1 37t-12.5 12.5q-6 0 -18 -2t-19 -2q-53 0 -87 35t-34 86zM2060 1313q0 69 50.5 117.5t121.5 48.5q72 0 123 -48.5t51 -117.5q0 -70 -51 -119t-123 -49q-71 0 -121.5 49t-50.5 119z" />
<glyph unicode="&#xfb04;" horiz-adv-x="2355" d="M-211 -311q0 62 41.5 105.5t103.5 43.5q38 0 73 -18.5t50 -18.5q17 0 32 13t20 43l145 872q-10 -1 -38.5 -3.5t-37.5 -2.5q-52 0 -85 36t-30 87q4 52 44.5 88.5t93.5 36.5q10 0 43.5 -4.5t48.5 -5.5l33 186q27 161 121 251.5t247 90.5q100 0 168.5 -34.5t100.5 -86.5 q24 -40 24 -78q0 -61 -42 -104t-103 -43q-47 0 -86 35q-4 3 -17 14.5t-19 15.5t-17 8.5t-23 4.5q-27 0 -47.5 -21.5t-26.5 -56.5l-31 -182h56q15 0 57 5t55 5q52 0 84 -36t27 -89q-3 -51 -42 -87t-91 -36q-13 0 -53.5 4t-55.5 4h-75l-154 -911q-23 -129 -117.5 -213 t-238.5 -84q-115 0 -176.5 46.5t-61.5 119.5zM678 -311q0 62 41.5 105.5t103.5 43.5q38 0 73 -18.5t50 -18.5q41 0 51 56l146 872q-10 -1 -38.5 -3.5t-37.5 -2.5q-52 0 -85 36t-30 87q4 52 44.5 88.5t93.5 36.5q10 0 43.5 -4.5t48.5 -5.5l32 186q27 161 121.5 251.5 t247.5 90.5q100 0 167.5 -34t100.5 -87q25 -42 25 -78q0 -61 -42 -104t-103 -43q-47 0 -86 35q-4 3 -17 14.5t-19 15.5t-17 8.5t-23 4.5q-27 0 -47.5 -21.5t-26.5 -56.5l-31 -182h56q15 0 57 5t55 5q52 0 84 -36t27 -89q-3 -51 -42 -87t-91 -36q-13 0 -53.5 4t-55.5 4h-76 l-153 -911q-23 -129 -118 -213t-239 -84q-115 0 -176 46.5t-61 119.5zM1808 274q0 60 17 160l131 758q3 23 8 80t6 67q7 70 57.5 117t116.5 47q67 0 108 -47t36 -117q-1 -23 -16 -77.5t-17 -69.5l-135 -750q-25 -139 -25 -159q0 -31 12 -31q6 0 18 2t19 2q53 0 87 -35 t34 -86q0 -65 -55 -109t-144 -44q-116 0 -187 79.5t-71 212.5z" />
</font>
</defs>
</svg>
