<?xml version="1.0" standalone="no"?>
<!DOCTYPE svg PUBLIC "-//W3C//DTD SVG 1.1//EN" "http://www.w3.org/Graphics/SVG/1.1/DTD/svg11.dtd" >
<svg xmlns="http://www.w3.org/2000/svg">
<metadata></metadata>
<defs>
<font id="routerlight" horiz-adv-x="1161" >
<font-face units-per-em="2048" ascent="1536" descent="-512" />
<missing-glyph horiz-adv-x="430" />
<glyph unicode="&#xfb01;" horiz-adv-x="1230" d="M84 936q0 22 14.5 35.5t36.5 13.5q11 0 37 -3t43 -3h27v281q0 113 61 171t156 58q103 0 162 -53q28 -21 28 -52q0 -24 -14.5 -37.5t-34.5 -13.5q-25 0 -49 27q-23 23 -43.5 33t-54.5 10q-48 0 -81.5 -30t-33.5 -93v-301h149q13 0 41.5 3t36.5 3q22 0 36.5 -13.5 t14.5 -35.5t-14.5 -35.5t-36.5 -13.5q-8 0 -36.5 3t-41.5 3h-149v-750q0 -19 4 -52.5t4 -41.5q0 -26 -16 -42.5t-41 -16.5t-40.5 16.5t-15.5 42.5q0 8 4.5 41.5t4.5 52.5v752h-27q-17 0 -43 -4t-37 -4q-22 0 -36.5 13.5t-14.5 35.5zM879 1303q0 31 22.5 53t54.5 22 q31 0 53.5 -22t22.5 -53q0 -32 -22.5 -54t-53.5 -22q-32 0 -54.5 22t-22.5 54zM899 47q0 14 3 46t3 50v680q0 18 -3 50.5t-3 46.5q0 24 16.5 40.5t40.5 16.5t40 -16.5t16 -40.5q0 -14 -3 -46.5t-3 -50.5v-680q0 -18 3 -50t3 -46q0 -24 -16 -40.5t-40 -16.5t-40.5 16.5 t-16.5 40.5z" />
<glyph unicode="&#xfb02;" horiz-adv-x="1179" d="M84 936q0 22 14.5 35.5t36.5 13.5q11 0 37 -3t43 -3h27v281q0 113 61 171t156 58q103 0 162 -53q28 -21 28 -52q0 -24 -14.5 -37.5t-34.5 -13.5q-25 0 -49 27q-23 23 -43.5 33t-54.5 10q-48 0 -81.5 -30t-33.5 -93v-301h149q13 0 41.5 3t36.5 3q22 0 36.5 -13.5 t14.5 -35.5t-14.5 -35.5t-36.5 -13.5q-8 0 -36.5 3t-41.5 3h-149v-750q0 -19 4 -52.5t4 -41.5q0 -26 -16 -42.5t-41 -16.5t-40.5 16.5t-15.5 42.5q0 8 4.5 41.5t4.5 52.5v752h-27q-17 0 -43 -4t-37 -4q-22 0 -36.5 13.5t-14.5 35.5zM868 47q0 14 4.5 46t4.5 50v1194 q0 17 -4.5 49.5t-4.5 45.5q0 25 16.5 41t41.5 16t40 -16t15 -41q0 -13 -3 -45.5t-3 -49.5v-1194q0 -18 3 -50t3 -46q0 -24 -15.5 -40.5t-39.5 -16.5t-41 17t-17 40z" />
<glyph horiz-adv-x="2048" />
<glyph horiz-adv-x="2048" />
<glyph unicode="&#xd;" horiz-adv-x="2048" />
<glyph unicode=" "  horiz-adv-x="430" />
<glyph unicode="&#x09;" horiz-adv-x="430" />
<glyph unicode="&#xa0;" horiz-adv-x="430" />
<glyph unicode="!" horiz-adv-x="411" d="M129 68q0 32 22.5 53.5t55.5 21.5q31 0 53.5 -21.5t22.5 -53.5q0 -31 -22.5 -53.5t-53.5 -22.5q-32 0 -55 22.5t-23 53.5zM143 1425q0 27 17 46.5t45 19.5q29 0 45 -19t16 -47q0 -10 -3 -44t-3 -54l-8 -864q0 -21 2 -47t2 -39q0 -23 -14 -38t-35 -15q-23 0 -37 15t-14 38 q0 13 3 39t3 47l-12 864q0 20 -3.5 54t-3.5 44z" />
<glyph unicode="&#x22;" horiz-adv-x="569" d="M121 1411q0 26 16 44t43 18t43.5 -18t16.5 -44q0 -8 -6.5 -53t-6.5 -66v-55q0 -17 2 -44.5t2 -33.5q0 -26 -14 -41.5t-37 -15.5t-36 15.5t-13 41.5q0 6 2 32.5t2 45.5l-2 55q0 21 -6 66t-6 53zM340 1411q0 26 15 44t42 18t43.5 -18t16.5 -44q0 -8 -6.5 -53t-6.5 -66v-55 q0 -17 2.5 -44.5t2.5 -33.5q0 -26 -13.5 -41.5t-36.5 -15.5t-37 15.5t-14 41.5q0 6 2 32.5t2 45.5l-2 55q0 21 -5 66t-5 53z" />
<glyph unicode="#" horiz-adv-x="1206" d="M53 463q0 22 15 36.5t38 14.5q7 0 39.5 -4t49.5 -4h77l70 393h-74q-17 0 -48 -3t-38 -3q-25 0 -39 14t-14 37q0 22 14.5 35.5t38.5 13.5q7 0 38 -3t48 -3h88l50 268q2 15 4 46t4 45q10 51 55 51q23 0 36 -17t13 -43q0 -16 -9.5 -48.5t-12.5 -51.5l-45 -250h393l49 268 q3 17 5.5 49t4.5 42q10 51 53 51q24 0 38 -17t14 -43q-1 -15 -10 -47t-13 -53l-45 -250h78q17 0 49 3t39 3q23 0 38 -13.5t15 -35.5q0 -23 -15 -37t-38 -14q-7 0 -39 3t-49 3h-94l-70 -393h90q17 0 48 4t38 4q24 0 38.5 -14.5t14.5 -36.5t-14.5 -36.5t-38.5 -14.5 q-7 0 -38 4t-48 4h-104l-52 -287q-3 -17 -5.5 -48.5t-4.5 -41.5q-10 -51 -55 -51q-23 0 -36 16.5t-13 42.5q1 16 9.5 48.5t12.5 52.5l47 268h-393l-51 -287q-3 -15 -5 -45.5t-5 -44.5q-3 -23 -17 -37t-36 -14q-24 0 -38 17t-12 42q0 16 10 49t13 52l47 268h-61 q-17 0 -49.5 -4t-39.5 -4q-23 0 -38 14.5t-15 36.5zM365 506h395l69 393h-395z" />
<glyph unicode="$" horiz-adv-x="1110" d="M88 305q0 24 14.5 37.5t38.5 13.5t38 -18t16 -47q17 -95 104.5 -156t214.5 -69v622l-14 6q-336 124 -336 383q0 139 96.5 231.5t251.5 104.5l-2 49q0 18 -3 50t-3 44q0 22 16 38t39 16t38 -17t15 -39q0 -13 -3 -44t-3 -48v-49q111 -10 194 -60t126 -126q18 -29 18 -60 q0 -23 -13.5 -38t-37.5 -15q-35 0 -57 55q-25 65 -86 105t-148 49v-557l16 -6q198 -72 289.5 -173.5t91.5 -240.5q0 -89 -43 -166.5t-134 -133t-216 -66.5v-46q0 -17 3 -47.5t3 -42.5q0 -25 -15.5 -40.5t-39.5 -14.5q-23 0 -38 16t-15 39q0 13 4 43.5t4 46.5v43 q-152 7 -260 80t-150 181q-14 35 -14 67zM262 1079q0 -95 57 -166t195 -122v534q-114 -10 -183 -78t-69 -168zM602 68q140 17 218.5 96.5t78.5 187.5q0 103 -73 178t-224 129v-591z" />
<glyph unicode="%" horiz-adv-x="1857" d="M98 985q0 189 87 311.5t241 122.5q152 0 239 -122.5t87 -311.5q0 -190 -86.5 -311t-239.5 -121q-154 0 -241 121t-87 311zM184 985q0 -162 66 -257t176 -95q108 0 175 95.5t67 256.5t-67 256.5t-175 95.5q-110 0 -176 -95t-66 -257zM551 41q0 22 10 35q7 14 20.5 34.5 t18.5 30.5l580 1168q5 13 14 40.5t16 41.5q18 34 50 34q23 0 37.5 -14.5t13.5 -36.5q0 -13 -11 -35q-6 -13 -19 -33t-19 -32l-582 -1168q-5 -12 -14.5 -39.5t-16.5 -41.5q-15 -35 -49 -35q-22 0 -36 14.5t-13 36.5zM1112 416q0 191 86 312.5t240 121.5q153 0 239 -121 t86 -311q0 -191 -85.5 -311.5t-239.5 -120.5t-240 120.5t-86 309.5zM1196 418q0 -162 66.5 -258.5t175.5 -96.5q108 0 174.5 96.5t66.5 258.5q0 160 -66.5 256t-174.5 96q-109 0 -175.5 -95.5t-66.5 -256.5z" />
<glyph unicode="&#x26;" horiz-adv-x="1406" d="M109 395q0 130 76.5 237.5t209.5 184.5l37 21q-182 194 -182 356q0 130 81 213.5t218 83.5q131 0 214 -84.5t83 -214.5q0 -211 -256 -361l-19 -12l488 -500q44 80 47 148v41q0 19 15 34t36 15q19 0 35 -17t16 -46q0 -75 -51 -175q-2 -4 -7.5 -14t-13.5 -25t-14 -26 l105 -104q15 -15 38.5 -34t30.5 -26q19 -19 19 -39q0 -22 -14.5 -37.5t-36.5 -15.5q-25 0 -47 22q-36 48 -56 68l-90 92q-172 -207 -471 -207q-226 0 -358.5 121t-132.5 301zM207 397q0 -140 106.5 -239t284.5 -99q270 0 412 185l-516 530l-45 -24q-242 -144 -242 -353z M340 1198q0 -136 172 -317l31 18q213 125 213 289q0 91 -55.5 158t-151.5 67q-99 0 -154 -64t-55 -151z" />
<glyph unicode="'" horiz-adv-x="352" d="M115 1411q0 26 15 44t42 18t44 -18t17 -44q0 -8 -7 -53t-7 -66v-55q0 -17 3 -44.5t3 -33.5q0 -26 -14 -41.5t-37 -15.5t-37 15.5t-14 41.5q0 6 2 32.5t2 45.5l-2 55q0 21 -5 66t-5 53z" />
<glyph unicode="(" horiz-adv-x="671" d="M137 637q0 285 115 511t293 335q42 24 61 24q17 0 30 -11.5t13 -33.5t-15 -36.5t-50 -30.5q-150 -75 -253.5 -285.5t-103.5 -472.5q0 -261 103.5 -471t253.5 -285q35 -16 50 -30.5t15 -36.5t-13 -33.5t-30 -11.5q-19 0 -61 24q-178 109 -293 334.5t-115 509.5z" />
<glyph unicode=")" horiz-adv-x="671" d="M10 -186q0 22 15.5 36.5t50.5 30.5q150 74 253 284.5t103 471.5q0 262 -103 473t-253 285q-35 16 -50.5 30.5t-15.5 36.5t13 33.5t30 11.5q20 0 62 -24q178 -109 292.5 -335t114.5 -511q0 -284 -114.5 -509.5t-292.5 -334.5q-42 -24 -62 -24q-17 0 -30 11.5t-13 33.5z " />
<glyph unicode="*" horiz-adv-x="753" d="M66 1229q0 21 15 35t34 14q6 0 22 -4q5 -2 29.5 -14.5t42.5 -18.5l125 -41v125q0 19 -5 52.5t-5 41.5q0 24 15 40t38 16t38 -16t15 -40q0 -8 -4 -41.5t-4 -52.5v-125l123 41q17 6 41.5 18.5t31.5 14.5q16 4 21 4q20 0 35.5 -14t15.5 -35q0 -38 -41 -51q-6 -2 -36 -7 t-50 -12l-121 -41l90 -123q12 -15 31.5 -34t24.5 -27q12 -15 12 -33q0 -21 -14 -35t-35 -14q-26 0 -45 25q-1 1 -16 30t-29 47l-84 117l-84 -117q-10 -15 -24.5 -42t-20.5 -35q-19 -25 -45 -25q-21 0 -35 14t-14 35q0 18 12 33q4 6 24 25.5t31 35.5l88 123l-119 41 q-19 7 -49.5 12t-36.5 7q-38 12 -38 51z" />
<glyph unicode="+" horiz-adv-x="962" d="M133 553q0 25 15.5 40t41.5 15q8 0 40.5 -3t50.5 -3h151v166q0 18 -3 52t-3 42q0 25 15.5 41.5t39.5 16.5q25 0 40.5 -16.5t15.5 -41.5q0 -8 -3.5 -42t-3.5 -52v-166h152q18 0 50 3t40 3q26 0 41.5 -15t15.5 -40q0 -24 -15.5 -39.5t-41.5 -15.5q-8 0 -40 4t-50 4h-152 v-178q0 -19 3.5 -53t3.5 -42q0 -26 -15.5 -42.5t-40.5 -16.5t-40 16.5t-15 42.5q0 8 3 42t3 53v178h-151q-18 0 -50.5 -4t-40.5 -4q-26 0 -41.5 15.5t-15.5 39.5z" />
<glyph unicode="," horiz-adv-x="430" d="M129 68q0 32 22.5 53.5t55.5 21.5q40 0 65.5 -32t26.5 -88q3 -124 -68 -216q-21 -30 -53 -30q-18 0 -30.5 12.5t-12.5 30.5q0 21 35 53q49 46 49 107q0 12 -12 12q-33 0 -55.5 22.5t-22.5 53.5z" />
<glyph unicode="-" horiz-adv-x="788" d="M121 551q0 22 15.5 37.5t39.5 15.5q7 0 37 -3t47 -3h268q17 0 47 3t37 3q24 0 40 -15.5t16 -37.5t-16 -37.5t-40 -15.5q-7 0 -37 3t-47 3h-268q-17 0 -47 -3t-37 -3q-24 0 -39.5 15.5t-15.5 37.5z" />
<glyph unicode="." horiz-adv-x="411" d="M129 68q0 32 22.5 53.5t55.5 21.5q31 0 53.5 -21.5t22.5 -53.5q0 -31 -22.5 -53.5t-53.5 -22.5q-32 0 -55 22.5t-23 53.5z" />
<glyph unicode="/" horiz-adv-x="833" d="M-53 -268q0 18 10 35q6 12 20 33t21 36l727 1540q6 14 15.5 42t15.5 42q15 35 51 35q25 0 40 -15t13 -38q0 -18 -10 -35q-6 -12 -20 -33.5t-21 -36.5l-727 -1538q-5 -12 -14.5 -41t-16.5 -43q-15 -37 -51 -37q-24 0 -39 15.5t-14 38.5z" />
<glyph unicode="0" horiz-adv-x="1320" d="M129 694q0 210 63 372.5t184.5 255.5t285.5 93q163 0 284 -93t183.5 -255t62.5 -371t-62.5 -371t-183.5 -255t-284 -93q-164 0 -285.5 92.5t-184.5 254.5t-63 370zM225 696q0 -291 120.5 -460.5t316.5 -169.5q193 0 313.5 169.5t120.5 458.5q0 291 -120.5 463t-313.5 172 q-196 0 -316.5 -171.5t-120.5 -461.5z" />
<glyph unicode="1" horiz-adv-x="622" d="M45 1192q0 22 13.5 36.5t35.5 14.5q9 0 23 -5t22 -5q16 0 45 29l101 102q29 29 42 37t35 8q24 0 41 -16.5t17 -40.5q0 -13 -4 -43t-4 -47v-1115q0 -19 4 -53.5t4 -42.5q0 -27 -16.5 -44t-41.5 -17t-40 16.5t-15 44.5q0 8 2 42.5t2 53.5v1020q0 73 6 117q-42 -53 -69 -80 q-67 -67 -133 -67q-31 0 -50.5 14.5t-19.5 40.5z" />
<glyph unicode="2" horiz-adv-x="1067" d="M86 84q0 215 93 363t296 255l146 78q123 62 177 135t54 160q0 110 -86 180t-227 70q-127 0 -210.5 -57t-101.5 -162q-6 -72 -53 -72q-21 0 -37 15.5t-16 40.5q0 32 22 96q46 111 150.5 167t245.5 56q185 0 298 -94t113 -244q0 -114 -71 -205.5t-226 -173.5l-147 -80 q-176 -93 -248 -214t-74 -306h662q22 0 50 5t38 5q22 0 37.5 -14.5t15.5 -36.5q0 -23 -15.5 -37t-37.5 -14h-770q-33 0 -55.5 21t-22.5 63z" />
<glyph unicode="3" horiz-adv-x="1093" d="M53 276q0 22 13 36t36 14q37 0 54 -54q35 -100 127.5 -155t222.5 -54q169 0 284 114.5t115 283.5q0 161 -100 251.5t-273 90.5q-32 0 -50 -3t-29 -3q-20 0 -32.5 11.5t-12.5 29.5q0 20 22 39q6 7 37.5 34.5t40.5 38.5l260 285l70 68h-510q-21 0 -48.5 -5.5t-39.5 -5.5 q-23 0 -38.5 13t-15.5 34q0 23 15.5 36.5t38.5 13.5h651q26 0 40.5 -14t14.5 -38q0 -37 -43 -80l-309 -335q-17 -20 -51 -50q127 6 229.5 -39.5t163.5 -141.5t61 -226q0 -211 -138 -349.5t-355 -138.5q-140 0 -247.5 58.5t-170.5 163.5q-33 44 -33 77z" />
<glyph unicode="4" horiz-adv-x="1058" d="M51 475v27q0 14 4 26t8.5 18.5t16 21t16.5 22.5l527 706q6 8 19 27.5t19 27t17 19t21.5 15.5t23.5 4h65q23 0 35.5 -16t12.5 -42q0 -7 -2.5 -39.5t-2.5 -50.5v-737h41q22 0 50.5 6t40.5 6q23 0 39 -13t16 -34q0 -23 -16 -37t-39 -14h-132v-275q0 -19 3.5 -52.5t3.5 -41.5 q0 -26 -15.5 -42.5t-40.5 -16.5q-24 0 -38.5 16t-14.5 43q0 8 3 41.5t3 52.5v275h-633q-23 0 -37 15.5t-14 41.5zM143 504h592v801z" />
<glyph unicode="5" horiz-adv-x="1124" d="M80 276q0 22 14.5 36t36.5 14q21 0 31.5 -13t21.5 -41q35 -99 129 -154.5t224 -54.5q176 0 293.5 121t117.5 295q0 163 -101 267t-278 104q-184 0 -309 -115q-26 -26 -55 -26q-24 0 -37.5 14t-13.5 35q0 15 6 38.5t8 37.5l70 411q2 18 3.5 46t2.5 34q3 64 59 64h582 q22 0 38.5 -14.5t16.5 -35.5t-16.5 -35t-38.5 -14q-11 0 -38 6.5t-50 6.5h-469l-76 -486q61 55 145.5 85t173.5 30q217 0 344 -128.5t127 -324.5q0 -136 -62.5 -250t-179.5 -183t-265 -69q-140 0 -249 59t-171 165q-35 51 -35 75z" />
<glyph unicode="6" horiz-adv-x="1208" d="M115 637q0 184 44 333t121 245.5t179.5 148t222.5 51.5q107 0 190.5 -34.5t131.5 -84.5q32 -29 32 -55q0 -21 -15 -36t-36 -15q-16 0 -27 8.5t-28 26.5q-39 47 -106 76.5t-152 29.5q-202 0 -329 -177.5t-136 -475.5q63 108 182.5 180t255.5 72q108 0 198 -37 t148.5 -100.5t90.5 -146t32 -175.5q0 -137 -58 -248.5t-169 -178.5t-256 -67q-147 0 -264 80.5t-184.5 231.5t-67.5 348zM207 582q12 -239 129.5 -377.5t294.5 -138.5q176 0 282.5 116t106.5 289q0 162 -103 270.5t-280 108.5q-139 0 -251 -73t-179 -195z" />
<glyph unicode="7" horiz-adv-x="940" d="M37 1339q0 22 15 36t38 14h764q26 0 42.5 -13.5t16.5 -40.5q0 -22 -11 -38t-42 -40q-481 -360 -487 -1112q0 -18 4 -52.5t4 -41.5q0 -28 -15.5 -44.5t-41.5 -16.5q-25 0 -40.5 16.5t-15.5 44.5q0 7 3 41.5t3 52.5q5 334 105 607.5t303 451.5q32 34 109 96h-617 q-16 0 -45.5 -6t-38.5 -6q-23 0 -38 14t-15 37z" />
<glyph unicode="8" horiz-adv-x="1163" d="M98 403q0 135 82 242t217 152q-90 47 -141 125t-51 168q0 137 100 232t268 95q176 0 282 -97t106 -239q0 -98 -54.5 -181.5t-154.5 -133.5q313 -126 313 -379q0 -177 -130.5 -293.5t-346.5 -116.5q-112 0 -206 35.5t-155.5 95t-95 136t-33.5 159.5zM193 410 q0 -143 109.5 -243.5t285.5 -100.5q166 0 274.5 89t108.5 228q0 120 -87.5 204.5t-277.5 137.5l-133 39q-129 -44 -204.5 -139t-75.5 -215zM295 1092q0 -97 72 -165.5t196 -101.5q11 -6 111 -30q101 46 147.5 123t46.5 161q0 110 -80.5 182t-212.5 72q-131 0 -205.5 -68.5 t-74.5 -172.5z" />
<glyph unicode="9" horiz-adv-x="1204" d="M94 924q0 209 134.5 350t349.5 141q229 0 370.5 -178t141.5 -475q-1 -189 -44 -339t-118.5 -247t-177.5 -148t-222 -51q-200 0 -327 121q-33 33 -33 56t15.5 38t37.5 15q25 0 53 -39q82 -105 258 -105q200 0 323 166t138 453q-67 -98 -182.5 -160.5t-245.5 -62.5 q-107 0 -197 39t-149 103.5t-92 148.5t-33 174zM186 924q0 -158 105.5 -269.5t281.5 -111.5q131 0 244.5 67t177.5 172q-6 256 -120 402.5t-297 146.5q-174 0 -283 -117.5t-109 -289.5z" />
<glyph unicode=":" horiz-adv-x="411" d="M129 68q0 32 22.5 53.5t55.5 21.5q31 0 53.5 -21.5t22.5 -53.5q0 -31 -22.5 -53.5t-53.5 -22.5q-32 0 -55 22.5t-23 53.5zM129 774q0 31 23 53.5t55 22.5q31 0 53.5 -22.5t22.5 -53.5q0 -32 -22.5 -55t-53.5 -23q-32 0 -55 23t-23 55z" />
<glyph unicode=";" horiz-adv-x="430" d="M129 68q0 32 22.5 53.5t55.5 21.5q40 0 65.5 -32t26.5 -88q3 -124 -68 -216q-21 -30 -53 -30q-18 0 -30.5 12.5t-12.5 30.5q0 21 35 53q49 46 49 107q0 12 -12 12q-33 0 -55.5 22.5t-22.5 53.5zM139 774q0 31 22.5 53.5t53.5 22.5t53.5 -22.5t22.5 -53.5q0 -32 -22.5 -55 t-53.5 -23t-53.5 23t-22.5 55z" />
<glyph unicode="&#x3c;" horiz-adv-x="960" d="M150 557q0 27 30 53l47 33l365 293l59 49q12 12 35 12q21 0 34 -13t13 -34q0 -24 -20 -41q-10 -9 -30 -22.5t-30 -20.5l-397 -309l397 -311q10 -8 30 -21t30 -22q20 -17 20 -41q0 -21 -13 -34t-34 -13q-23 0 -35 12l-59 49l-363 295l-51 37q-28 19 -28 49z" />
<glyph unicode="=" horiz-adv-x="962" d="M127 422q0 24 15.5 39.5t41.5 15.5q8 0 40 -4t50 -4h414q18 0 50 4t40 4q26 0 42 -15.5t16 -39.5q0 -25 -16 -40t-42 -15q-8 0 -40 3t-50 3h-414q-18 0 -50 -3t-40 -3q-26 0 -41.5 15t-15.5 40zM127 662q0 25 15.5 40t41.5 15q8 0 40 -3t50 -3h414q18 0 50 3t40 3 q26 0 42 -15t16 -40q0 -24 -16 -40t-42 -16q-8 0 -40 4t-50 4h-414q-18 0 -50 -4t-40 -4q-26 0 -41.5 16t-15.5 40z" />
<glyph unicode="&#x3e;" horiz-adv-x="960" d="M225 162q0 24 21 41q5 4 61 43l395 311l-395 309q-56 39 -61 43q-21 17 -21 41q0 21 13 34t36 13q21 0 33 -12l60 -49l364 -293l47 -33q31 -24 31 -53t-27 -49q-7 -5 -25 -17t-28 -20l-362 -295l-60 -49q-12 -12 -33 -12q-23 0 -36 13t-13 34z" />
<glyph unicode="?" horiz-adv-x="980" d="M57 1141q0 65 30.5 127t84 111.5t133.5 79.5t172 30q99 0 181 -30.5t133.5 -82t79.5 -115.5t28 -133q0 -106 -52.5 -190.5t-170.5 -165.5q-102 -69 -148.5 -119.5t-56.5 -109.5q-7 -46 2 -88q1 -7 11 -24t10 -30q0 -25 -15.5 -40t-40.5 -15q-32 0 -55 35.5t-23 95.5 q0 102 55 187t195 176q95 62 143 129.5t48 160.5q0 110 -85 189.5t-239 79.5q-144 0 -230.5 -76.5t-86.5 -171.5q0 -19 7 -40t7 -34q0 -21 -14 -35t-33 -14q-70 0 -70 113zM369 68q0 32 22.5 53.5t54.5 21.5q31 0 53.5 -21.5t22.5 -53.5q0 -31 -22.5 -53.5t-53.5 -22.5 q-32 0 -54.5 22.5t-22.5 53.5z" />
<glyph unicode="@" horiz-adv-x="1599" d="M150 485q0 147 51.5 276t140 219.5t210 143t257.5 52.5q190 0 338 -80.5t229.5 -223.5t81.5 -325q0 -162 -78.5 -263.5t-201.5 -101.5q-111 0 -160 68q-79 -107 -219 -107q-139 0 -227.5 100.5t-88.5 248.5q0 140 91 237.5t223 97.5q108 0 182 -84v13q0 19 11.5 33 t33.5 14t34.5 -14t12.5 -33q0 -9 -4 -34.5t-4 -41.5v-291q0 -66 29.5 -102.5t83.5 -36.5q85 0 149 77.5t64 221.5q0 249 -161 406t-421 157q-161 0 -294.5 -78t-212.5 -222.5t-79 -326.5q0 -127 44 -241.5t122 -199t191.5 -134t246.5 -49.5q129 0 237 37.5t181 97.5 q9 6 22 21t25 24.5t27 9.5q18 0 30.5 -10.5t12.5 -28.5q0 -16 -9.5 -30t-37.5 -33q-101 -73 -227 -113.5t-261 -40.5q-190 0 -344.5 90.5t-242.5 248.5t-88 351zM573 492q0 -120 63 -196.5t163 -76.5q137 0 190 92q-10 42 -10 80v271q-66 94 -184 94q-93 0 -157.5 -73 t-64.5 -191z" />
<glyph unicode="A" horiz-adv-x="1280" d="M55 43q0 19 6 31q2 5 15 35t20 49l436 1175l27 88q20 52 74 52h14q55 0 72 -52q17 -58 29 -88l436 -1175q6 -20 20 -51t15 -33q6 -12 6 -31q0 -22 -16.5 -37.5t-39.5 -15.5q-41 0 -55 43q-2 8 -10 41t-14 51l-93 252h-716l-91 -252q-6 -18 -14 -51t-10 -41 q-17 -43 -55 -43q-23 0 -39.5 15.5t-16.5 37.5zM313 465h652l-295 811q-27 78 -33 100q-17 -61 -31 -100z" />
<glyph unicode="B" horiz-adv-x="1277" d="M225 61q0 10 4 44.5t4 54.5v1143q0 20 -4 54t-4 44q0 27 16.5 44t45.5 17h331q209 0 322 -98t113 -268q0 -57 -22 -116t-70 -113t-113 -81q143 -29 227 -127.5t84 -236.5q0 -189 -129 -305.5t-336 -116.5h-405q-29 0 -46.5 17t-17.5 44zM334 90h358q169 0 267 92t98 240 q0 139 -95 222t-253 83h-375v-637zM334 815h342q122 0 200 83t78 200q0 134 -85 204t-253 70h-282v-557z" />
<glyph unicode="C" horiz-adv-x="1458" d="M154 733q0 217 76.5 388t220.5 269.5t333 98.5q151 0 274.5 -63t192.5 -175q35 -54 35 -86q0 -23 -15 -39t-40 -16q-38 0 -60 61q-45 106 -149.5 167t-237.5 61q-159 0 -280.5 -91t-183.5 -241t-62 -334q0 -138 37 -258.5t104 -210.5t167.5 -142t221.5 -52q149 0 261 73 t161 207q23 62 60 62q25 0 39 -17t14 -39q0 -21 -25 -73q-72 -147 -207 -227.5t-305 -80.5q-190 0 -334.5 99t-221 270.5t-76.5 388.5z" />
<glyph unicode="D" horiz-adv-x="1421" d="M225 61q0 10 4 44.5t4 54.5v1143q0 20 -4 54t-4 44q0 27 16.5 44t45.5 17h358q292 0 454.5 -184t162.5 -526q0 -230 -71.5 -398t-214.5 -261t-345 -93h-342q-29 0 -46.5 17t-17.5 44zM334 90h297q247 0 387.5 175t140.5 487q0 299 -131.5 459.5t-374.5 160.5h-319v-1282z " />
<glyph unicode="E" d="M225 61q0 10 4 44.5t4 54.5v1143q0 20 -4 54t-4 44q0 27 17.5 44t46.5 17h688q24 0 39.5 -14.5t15.5 -38.5q0 -21 -16.5 -36t-38.5 -15q-11 0 -40 6t-52 6h-551v-539h401q17 0 48 4.5t38 4.5q23 0 38 -16t15 -38q0 -23 -15 -38t-38 -15q-7 0 -38 3t-48 3h-401v-647h600 q22 0 51 6t41 6q22 0 38.5 -15t16.5 -36q0 -24 -15.5 -38.5t-39.5 -14.5h-737q-29 0 -46.5 17t-17.5 44z" />
<glyph unicode="F" horiz-adv-x="1083" d="M225 51q0 10 4 45.5t4 55.5v1151q0 20 -4 54t-4 44q0 27 17.5 44t46.5 17h684q23 0 39 -15t16 -38q0 -21 -16.5 -36t-38.5 -15q-11 0 -40 6t-52 6h-547v-559h407q17 0 48 4t38 4q23 0 38.5 -15.5t15.5 -37.5q0 -23 -15.5 -38t-38.5 -15q-7 0 -38 3t-48 3h-407v-567 q0 -20 3 -55.5t3 -45.5q0 -27 -15.5 -44t-41.5 -17q-25 0 -41.5 17.5t-16.5 43.5z" />
<glyph unicode="G" horiz-adv-x="1476" d="M154 733q0 216 77.5 388t223.5 271q145 97 332 97h4q159 0 287 -69.5t194 -192.5q20 -40 20 -58q0 -23 -15 -39t-40 -16q-23 0 -36 14.5t-23 42.5q-43 100 -145.5 165t-241.5 65q-124 0 -225.5 -53t-168 -144t-103 -212.5t-36.5 -258.5q0 -138 36.5 -259t103 -211 t166.5 -142.5t220 -52.5q107 0 194.5 37t143 101t85.5 146.5t30 175.5v39h-276q-18 0 -50.5 -3t-40.5 -3q-24 0 -39.5 14.5t-15.5 36.5q0 24 15.5 39t39.5 15q8 0 40.5 -4.5t50.5 -4.5h309q67 0 67 -71v-47q0 -113 -36.5 -214.5t-104.5 -179.5t-174.5 -124t-237.5 -46 q-190 0 -334 99t-220 270.5t-76 388.5z" />
<glyph unicode="H" horiz-adv-x="1492" d="M225 51q0 10 4 45.5t4 55.5v1159q0 20 -4 55t-4 45q0 26 16.5 44t41.5 18q26 0 41.5 -17.5t15.5 -44.5q0 -10 -3 -45t-3 -55v-475h825v475q0 20 -3 55t-3 45q0 27 15.5 44.5t41.5 17.5q25 0 41.5 -18t16.5 -44q0 -10 -4 -45t-4 -55v-1159q0 -20 4 -55.5t4 -45.5 q0 -26 -16.5 -43.5t-41.5 -17.5q-26 0 -41.5 17t-15.5 44q0 10 3 45.5t3 55.5v593h-825v-593q0 -20 3 -55.5t3 -45.5q0 -27 -15.5 -44t-41.5 -17q-25 0 -41.5 17.5t-16.5 43.5z" />
<glyph unicode="I" horiz-adv-x="606" d="M246 51q0 10 3 45.5t3 55.5v1159q0 20 -3 55t-3 45q0 27 15.5 44.5t41.5 17.5q25 0 41 -18t16 -44q0 -10 -3 -45t-3 -55v-1159q0 -20 3 -55.5t3 -45.5q0 -26 -16 -43.5t-41 -17.5q-26 0 -41.5 17t-15.5 44z" />
<glyph unicode="J" d="M55 297q0 23 15 39t39 16q11 0 20.5 -5t14.5 -9t11.5 -17.5t8 -18t8.5 -23.5q36 -103 122 -158t202 -55q181 0 267.5 110t86.5 301v834q0 20 -3 55t-3 45q0 27 15.5 44.5t41.5 17.5q25 0 41 -18t16 -44q0 -10 -3 -45t-3 -55v-828q0 -111 -25 -200.5t-77.5 -160t-142 -109 t-211.5 -38.5q-136 0 -244.5 62.5t-167.5 179.5q-29 48 -29 80z" />
<glyph unicode="K" horiz-adv-x="1241" d="M225 51q0 10 4 45.5t4 55.5v1159q0 20 -4 55t-4 45q0 26 16.5 44t41.5 18q26 0 41.5 -17.5t15.5 -44.5q0 -10 -3 -45t-3 -55v-291q0 -227 -2 -299q193 202 327 350l283 309q10 11 49 66q24 27 51 27q22 0 37 -15t15 -35q0 -25 -19 -47q-8 -8 -30.5 -28t-34.5 -33 l-412 -445l508 -712q8 -11 31 -37.5t32 -40.5q15 -18 15 -37q0 -20 -15.5 -36.5t-42.5 -16.5q-30 0 -49 26q-4 6 -21 36t-30 46l-494 707l-198 -207v-446q0 -20 3 -55.5t3 -45.5q0 -27 -15.5 -44t-41.5 -17q-25 0 -41.5 17.5t-16.5 43.5z" />
<glyph unicode="L" horiz-adv-x="1153" d="M225 61q0 10 4 44.5t4 54.5v1151q0 20 -4 55t-4 45q0 26 16.5 44t41.5 18q26 0 41.5 -17.5t15.5 -44.5q0 -10 -3 -45t-3 -55v-1215h627q22 0 50 6.5t40 6.5q23 0 39 -16t16 -38q0 -24 -15.5 -39.5t-39.5 -15.5h-762q-29 0 -46.5 17t-17.5 44z" />
<glyph unicode="M" horiz-adv-x="1695" d="M225 51q0 8 4 44t4 55v1153q0 19 -4 53.5t-4 44.5q0 26 17 43.5t43 17.5h10q46 0 63 -43q4 -7 14 -32t15 -35l428 -930q27 -59 33 -86q4 11 37 88l424 928l28 67q19 43 64 43h10q26 0 42.5 -17.5t16.5 -43.5q0 -10 -3 -44.5t-3 -53.5v-1153q0 -19 3 -55t3 -44 q0 -28 -15 -44.5t-40 -16.5q-26 0 -41.5 16.5t-15.5 44.5q0 8 3 44t3 55l4 1001q0 63 8 137l-438 -954q-31 -71 -35 -76q-15 -27 -53 -27q-40 0 -55 27q-4 5 -9 15.5t-12 28t-14 32.5l-441 954q9 -83 9 -137l4 -1001q0 -19 3 -55t3 -44q0 -28 -15 -44.5t-40 -16.5 q-26 0 -42 16.5t-16 44.5z" />
<glyph unicode="N" horiz-adv-x="1511" d="M225 51q0 10 4 45.5t4 55.5v1151q0 19 -4 53.5t-4 44.5q0 26 17 43.5t43 17.5q25 0 38.5 -8t28.5 -31l713 -1073q86 -128 123 -196q-6 117 -6 170l-4 987q0 20 -3.5 55t-3.5 45q0 27 16 44.5t42 17.5t41.5 -17.5t15.5 -44.5q0 -10 -3 -45t-3 -55v-1159q0 -20 3 -55.5 t3 -45.5q0 -27 -15.5 -44t-41.5 -17q-18 0 -33 9.5t-22 19t-22 35t-22 36.5l-808 1221q8 -78 8 -150l4 -1009q0 -20 3 -55.5t3 -45.5q0 -27 -15.5 -44t-41.5 -17q-25 0 -41.5 17.5t-16.5 43.5z" />
<glyph unicode="O" horiz-adv-x="1583" d="M154 733q0 217 77.5 388t223 269.5t336.5 98.5t336.5 -98.5t222.5 -269.5t77 -388t-77 -388.5t-222.5 -270.5t-336.5 -99q-143 0 -263 57.5t-201.5 158.5t-127 240.5t-45.5 301.5zM258 733q0 -185 63 -335t186 -240t284 -90q122 0 223 52.5t168 142.5t104 211t37 259 q0 184 -62.5 334.5t-185.5 242t-284 91.5q-160 0 -283 -91.5t-186.5 -242t-63.5 -334.5z" />
<glyph unicode="P" horiz-adv-x="1224" d="M225 51q0 10 4 45.5t4 55.5v1151q0 20 -4 54t-4 44q0 27 17.5 44t46.5 17h366q224 0 351 -108.5t127 -296.5q0 -186 -129 -301t-332 -115h-338v-489q0 -20 3 -55.5t3 -45.5q0 -27 -15.5 -44t-41.5 -17q-25 0 -41.5 17.5t-16.5 43.5zM334 731h338q162 0 261 91.5t99 234.5 q0 148 -97.5 231.5t-277.5 83.5h-323v-641z" />
<glyph unicode="Q" horiz-adv-x="1593" d="M154 733q0 217 77.5 388t223 269.5t336.5 98.5t336.5 -98.5t222.5 -269.5t77 -388q0 -173 -55.5 -330t-163.5 -260l105 -141q43 -60 73 -86.5t60 -26.5q58 0 65 58q9 39 45 39q27 0 40.5 -17t13.5 -39q0 -52 -44 -88.5t-106 -36.5q-58 0 -108 31t-107 107l-106 143 q-155 -111 -348 -111q-143 0 -263 57.5t-201.5 158.5t-127 240.5t-45.5 301.5zM258 733q0 -185 63 -335t186 -240t284 -90q170 0 296 94l-106 143q-44 58 -68.5 78t-56.5 20q-55 0 -65 -57q-12 -35 -48 -35q-21 0 -34 15t-13 39q0 51 44 86.5t100 35.5q67 0 114.5 -33.5 t100.5 -103.5l98 -131q86 92 129 226.5t43 287.5q0 138 -37 259.5t-105 212t-169 143.5t-223 53q-160 0 -283 -91.5t-186.5 -242t-63.5 -334.5z" />
<glyph unicode="R" horiz-adv-x="1290" d="M225 51q0 10 4 45.5t4 55.5v1151q0 20 -4 54t-4 44q0 27 17.5 44t46.5 17h368q210 0 339.5 -104.5t129.5 -288.5q0 -163 -105.5 -267t-279.5 -126l336 -541q21 -39 51 -39q7 0 21.5 5t28.5 5q24 0 39.5 -16t15.5 -37q0 -26 -24.5 -44.5t-61.5 -18.5q-46 0 -83 24.5 t-73 81.5l-358 576h-299v-520q0 -20 3 -55.5t3 -45.5q0 -27 -15.5 -44t-41.5 -17q-25 0 -41.5 17.5t-16.5 43.5zM334 764h325q168 0 267.5 82t99.5 223q0 144 -99.5 222.5t-269.5 78.5h-323v-606z" />
<glyph unicode="S" horiz-adv-x="1175" d="M94 319q0 24 15.5 40t37.5 16q47 0 58 -70q20 -106 122 -172.5t246 -66.5q176 0 277.5 89.5t101.5 215.5q0 109 -77.5 184t-256.5 145l-94 35q-164 64 -253 166t-89 234q0 158 113.5 256t290.5 98q136 0 238.5 -53.5t154.5 -145.5q22 -35 22 -61q0 -22 -15 -37.5 t-38 -15.5q-43 0 -61 57q-29 76 -109.5 122t-197.5 46q-130 0 -213.5 -74t-83.5 -188q0 -101 65.5 -178t212.5 -134l101 -39q207 -79 299 -176.5t92 -242.5q0 -76 -31 -146t-89.5 -125.5t-151.5 -89t-208 -33.5q-172 0 -293 75.5t-169 197.5q-17 39 -17 71z" />
<glyph unicode="T" horiz-adv-x="1163" d="M49 1409q0 24 15.5 38.5t39.5 14.5h955q24 0 39.5 -14.5t15.5 -38.5q0 -21 -16.5 -36t-38.5 -15q-11 0 -40 6t-52 6h-334v-1218q0 -20 3 -55.5t3 -45.5q0 -27 -15.5 -44t-41.5 -17t-42 17t-16 44q0 10 3 45.5t3 55.5v1218h-333q-23 0 -52 -6t-41 -6q-22 0 -38.5 15 t-16.5 36z" />
<glyph unicode="U" horiz-adv-x="1454" d="M203 1411q0 26 16 44t41 18q26 0 41.5 -17.5t15.5 -44.5q0 -10 -3 -45t-3 -55v-770q0 -217 112.5 -346t303.5 -129t303.5 129t112.5 346v770q0 20 -3 55t-3 45q0 27 15.5 44.5t41.5 17.5q25 0 41 -18t16 -44q0 -10 -4 -45t-4 -55v-770q0 -260 -140 -413t-376 -153 t-376 153t-140 413v770q0 20 -4 55t-4 45z" />
<glyph unicode="V" horiz-adv-x="1284" d="M55 1419q0 22 16.5 38t39.5 16q38 0 55 -43q2 -8 10 -41.5t14 -51.5l424 -1149q22 -63 29 -96q12 45 31 96l420 1149q7 19 15 53.5t9 39.5q17 43 56 43q24 0 39.5 -15.5t17.5 -38.5q0 -12 -6 -30q-24 -47 -37 -84l-438 -1174l-27 -88q-20 -53 -74 -53h-14q-55 0 -72 53 q-21 70 -28 88l-439 1174q-7 19 -20 49t-15 35q-6 12 -6 30z" />
<glyph unicode="W" horiz-adv-x="1689" d="M55 1419q0 22 16 38t40 16q23 0 37.5 -16t17.5 -38q1 -6 5 -37.5t9 -50.5l271 -1081q19 -82 22 -127q16 61 41 129l254 700q22 64 25 70q13 37 55 37q41 0 57 -37l23 -70l256 -700q30 -91 37 -129q0 1 9 51t15 76l268 1081q5 19 9.5 50.5t5.5 37.5q7 54 55 54 q23 0 38 -16t15 -38q0 -16 -10 -39l-22 -73l-295 -1174l-21 -90q-6 -26 -22 -38.5t-33 -12.5h-14q-41 0 -56 39q-2 7 -13 41t-15 45l-254 694q-24 63 -35 111q-14 -59 -35 -111l-252 -694q-4 -11 -15.5 -45.5l-13.5 -40.5q-9 -22 -21.5 -30.5t-35.5 -8.5h-12q-47 0 -58 51 l-20 90l-297 1174q-6 26 -23 69q-8 28 -8 43z" />
<glyph unicode="X" horiz-adv-x="1200" d="M55 43q0 20 15 41q4 6 25 31.5t30 40.5l416 602l-379 545q-10 15 -32.5 40t-27.5 33q-12 17 -12 39t15 38.5t38 16.5q29 0 50 -28q6 -9 24.5 -40.5t26.5 -45.5l360 -522l357 522q10 16 25.5 45.5t19.5 36.5q21 32 53 32q22 0 37.5 -15.5t15.5 -37.5q0 -17 -14 -41 q-3 -4 -25 -29.5t-33 -41.5l-381 -553l416 -596q10 -15 31.5 -39.5t26.5 -32.5q14 -20 14 -41t-15 -37t-38 -16q-32 0 -52 30q-7 9 -24 40.5t-25 43.5l-397 574l-391 -574q-9 -14 -24 -43.5t-21 -37.5q-22 -33 -51 -33q-23 0 -38.5 15.5t-15.5 37.5z" />
<glyph unicode="Y" d="M55 1419q0 22 14 38t37 16q40 0 54 -37q4 -8 16 -39.5t21 -48.5l385 -744l383 744q9 18 20.5 50t13.5 36q17 39 56 39q23 0 37 -16t14 -38q0 -21 -10 -33q-4 -10 -22.5 -38t-26.5 -43l-416 -801v-352q0 -20 3 -55.5t3 -45.5q0 -26 -16 -43.5t-41 -17.5q-26 0 -42 17 t-16 44q0 10 3 45.5t3 55.5v354l-415 797q-8 17 -27 46.5t-23 36.5q-8 13 -8 33z" />
<glyph unicode="Z" horiz-adv-x="1130" d="M55 51q0 16 17 43l798 1186q24 36 70 94h-676q-22 0 -50 -6t-40 -6q-24 0 -39.5 13.5t-15.5 35.5q0 23 15.5 37t39.5 14h823q26 0 42 -15t16 -36q0 -19 -15 -43l-796 -1182q-14 -20 -41 -56t-29 -38h752q22 0 50 6t40 6q23 0 39 -14.5t16 -36.5q0 -23 -16 -38t-39 -15 h-903q-27 0 -42.5 15t-15.5 36z" />
<glyph unicode="[" horiz-adv-x="661" d="M182 -102q0 10 3 44t3 54v1337q0 20 -3 54.5t-3 44.5q0 27 16.5 44t45.5 17h319q25 0 40 -13t15 -36t-15 -36t-40 -13q-7 0 -38.5 7t-49.5 7h-196v-1489h196q18 0 49.5 7t38.5 7q25 0 40 -13t15 -36t-15 -36t-40 -13h-319q-29 0 -45.5 17.5t-16.5 44.5z" />
<glyph unicode="\" horiz-adv-x="806" d="M47 1442q-1 23 13.5 38t39.5 15q37 0 52 -35q6 -14 15 -42t15 -42l727 -1540q7 -15 21 -36t20 -33q11 -18 11 -35q1 -23 -14.5 -38.5t-39.5 -15.5q-36 0 -51 37q-7 14 -16.5 43t-14.5 41l-727 1538q-7 15 -21 36.5t-20 33.5q-10 17 -10 35z" />
<glyph unicode="]" horiz-adv-x="661" d="M31 -115q0 23 15 36t40 13q7 0 38.5 -7t49.5 -7h197v1489h-197q-18 0 -49.5 -7t-38.5 -7q-25 0 -40 13t-15 36t15 36t40 13h320q29 0 45 -17t16 -44q0 -10 -3 -44.5t-3 -54.5v-1337q0 -20 3 -54t3 -44q0 -27 -16.5 -44.5t-44.5 -17.5h-320q-25 0 -40 13t-15 36z" />
<glyph unicode="^" horiz-adv-x="1087" d="M86 727q0 23 12 35q0 1 17.5 21t25.5 34l320 494q28 46 35 55q16 23 47 23q29 0 49 -23q13 -17 33 -55l323 -490q13 -21 43 -55q13 -16 13 -35q0 -21 -15.5 -36t-36.5 -15q-24 0 -41 20q-8 10 -19 33t-15 31l-332 518l-332 -522q-7 -10 -17.5 -32t-19.5 -32 q-17 -20 -41 -20q-20 0 -34.5 14.5t-14.5 36.5z" />
<glyph unicode="_" horiz-adv-x="825" d="M4 -174q0 41 49 41h717q51 0 51 -41q0 -20 -14 -31.5t-37 -11.5h-717q-22 0 -35.5 11.5t-13.5 31.5z" />
<glyph unicode="`" horiz-adv-x="667" d="M164 1421q0 28 16.5 43t38.5 15q24 0 47 -23q7 -6 20.5 -23t28.5 -30l123 -121q27 -27 45 -39q21 -21 21 -43q0 -19 -13.5 -32t-33.5 -13q-21 0 -37 16q-6 4 -20 18.5t-25 24.5l-111 103l-78 59q-22 22 -22 45z" />
<glyph unicode="a" horiz-adv-x="1013" d="M100 272q0 132 92 215t263 95q120 7 183.5 27t88.5 57v47q0 88 -62 147.5t-165 59.5q-82 0 -134.5 -33t-70.5 -90q-19 -58 -53 -58q-25 0 -39.5 16.5t-14.5 39.5q0 26 17 53q37 69 111 111t186 42q146 0 235.5 -83.5t89.5 -217.5v-561q0 -49 23 -49q6 0 18 4t21 4 q21 0 35 -14t14 -35q0 -26 -23.5 -42.5t-60.5 -16.5q-40 0 -70.5 23.5t-42.5 68.5q-113 -107 -290 -107q-155 0 -253 82.5t-98 214.5zM201 272q0 -93 69.5 -151t190.5 -58q77 0 148 25.5t118 71.5v411q-58 -58 -260 -75q-134 -12 -200 -70.5t-66 -153.5z" />
<glyph unicode="b" horiz-adv-x="1142" d="M193 51q0 8 7 43t7 53v1190q0 18 -3 50.5t-3 46.5q0 25 15 41t40 16t40 -16t15 -41q0 -14 -3 -46.5t-3 -50.5v-454q108 118 270 118q194 0 313.5 -140.5t119.5 -358.5q0 -146 -52.5 -265t-154.5 -190.5t-236 -71.5q-153 0 -260 111v-35q0 -26 -15 -42.5t-38 -16.5 q-25 0 -42 16.5t-17 42.5zM305 180q94 -117 252 -117q156 0 254 123t98 316q0 178 -90 295.5t-248 117.5q-165 0 -266 -124v-611z" />
<glyph unicode="c" horiz-adv-x="1079" d="M133 489q0 140 53 255t157.5 186t242.5 71q223 0 338 -161q30 -37 30 -66q0 -21 -15.5 -36t-39.5 -15q-33 0 -57 53q-73 139 -254 139q-108 0 -190 -60t-123.5 -156t-41.5 -210q0 -115 41.5 -211.5t123 -155.5t186.5 -59q101 0 170 40.5t102 113.5q21 53 57 53 q23 0 37.5 -14.5t14.5 -36.5q0 -34 -31 -72q-120 -172 -352 -172q-136 0 -239.5 70t-156.5 186t-53 258z" />
<glyph unicode="d" horiz-adv-x="1142" d="M133 502q0 218 119 358.5t313 140.5q164 0 271 -114v450q0 18 -3.5 50.5t-3.5 46.5q0 25 16.5 41t41.5 16t40 -16t15 -41q0 -14 -3 -46.5t-3 -50.5v-1190q0 -18 6 -53t6 -43q0 -26 -16 -42.5t-41 -16.5q-24 0 -39.5 16.5t-15.5 42.5v33q-109 -109 -261 -109 q-201 0 -321.5 151t-120.5 376zM233 502q0 -193 98.5 -316t254.5 -123q157 0 250 113v615q-101 124 -265 124q-159 0 -248.5 -117t-89.5 -296z" />
<glyph unicode="e" horiz-adv-x="1122" d="M133 494q0 217 127.5 362t323.5 145q186 0 301.5 -131.5t115.5 -322.5q0 -44 -19 -65t-60 -21h-691q9 -174 107.5 -286t253.5 -112q96 0 169 39.5t105 114.5q21 53 58 53q24 0 38.5 -15t14.5 -36t-21 -53q-57 -91 -149 -141t-213 -50q-203 0 -332 145.5t-129 373.5z M233 545h674v7q1 67 -19 130q-20 66 -60 119t-103 85t-141 32q-149 0 -244.5 -105t-106.5 -268z" />
<glyph unicode="f" horiz-adv-x="671" d="M84 936q0 22 14.5 35.5t36.5 13.5q11 0 37 -3t43 -3h27v281q0 113 61 171t156 58q103 0 162 -53q28 -21 28 -52q0 -24 -14.5 -37.5t-34.5 -13.5q-25 0 -49 27q-23 23 -43.5 33t-54.5 10q-48 0 -81.5 -30t-33.5 -93v-301h149q13 0 41.5 3t36.5 3q22 0 36.5 -13.5 t14.5 -35.5t-14.5 -35.5t-36.5 -13.5q-8 0 -36.5 3t-41.5 3h-149v-750q0 -19 4 -52.5t4 -41.5q0 -26 -16 -42.5t-41 -16.5t-40.5 16.5t-15.5 42.5q0 8 4.5 41.5t4.5 52.5v752h-27q-17 0 -43 -4t-37 -4q-22 0 -36.5 13.5t-14.5 35.5z" />
<glyph unicode="g" horiz-adv-x="1138" d="M133 502q0 218 119 358.5t313 140.5q159 0 266 -110v16q0 26 16.5 43t41.5 17q22 0 38.5 -17t16.5 -43q0 -8 -6 -41.5t-6 -52.5v-795q0 -229 -106 -352t-291 -123q-207 0 -320 146q-25 31 -25 61q0 20 15.5 34.5t38.5 14.5q32 0 59 -49q65 -121 232 -121q136 0 216 97 t80 276v78q-108 -105 -256 -105q-201 0 -321.5 151t-120.5 376zM233 502q0 -193 98.5 -316t254.5 -123q150 0 245 109v627q-97 116 -260 116q-159 0 -248.5 -117t-89.5 -296z" />
<glyph unicode="h" horiz-adv-x="1144" d="M193 47q0 14 4 46t4 50v1194q0 17 -4 49.5t-4 45.5q0 25 16 41t41 16t40 -16t15 -41q0 -13 -3 -45.5t-3 -49.5v-489q123 153 315 153q154 0 247 -103t93 -267v-488q0 -18 4.5 -50t4.5 -46q0 -23 -16.5 -40t-41.5 -17q-24 0 -39.5 16.5t-15.5 40.5q0 14 3 46t3 50v478 q0 134 -71 214t-193 80q-88 0 -164 -46t-129 -124v-602q0 -18 3 -50t3 -46q0 -24 -15.5 -40.5t-39.5 -16.5t-40.5 16.5t-16.5 40.5z" />
<glyph unicode="i" horiz-adv-x="538" d="M193 1303q0 31 22.5 53t54.5 22q31 0 53.5 -22t22.5 -53q0 -32 -22.5 -54t-53.5 -22q-32 0 -54.5 22t-22.5 54zM213 47q0 14 3 46t3 50v680q0 18 -3 50.5t-3 46.5q0 24 16.5 40.5t40.5 16.5t40 -16.5t16 -40.5q0 -14 -3.5 -46.5t-3.5 -50.5v-680q0 -18 3.5 -50t3.5 -46 q0 -24 -16 -40.5t-40 -16.5t-40.5 16.5t-16.5 40.5z" />
<glyph unicode="j" horiz-adv-x="542" d="M-8 -397q0 22 15.5 37.5t37.5 15.5q17 0 36 -9t42 -9q52 0 76 35.5t24 109.5v1040q0 18 -3 50.5t-3 46.5q0 24 15.5 40.5t39.5 16.5t40 -16.5t16 -40.5q0 -14 -3 -46.5t-3 -50.5v-1071q0 -94 -58 -153.5t-170 -59.5q-47 0 -74.5 17t-27.5 47zM193 1303q0 31 22.5 53 t54.5 22q31 0 53.5 -22t22.5 -53q0 -32 -22.5 -54t-53.5 -22q-32 0 -54.5 22t-22.5 54z" />
<glyph unicode="k" horiz-adv-x="970" d="M193 47q0 14 4 46t4 50v1194q0 17 -4 49.5t-4 45.5q0 25 16 41t41 16t40 -16t15 -41q0 -13 -3 -45.5t-3 -49.5v-495q0 -199 -4 -367l235 246l152 162q14 16 30.5 38.5t26.5 32.5q20 23 45 23q23 0 38.5 -16t15.5 -39q0 -19 -15 -37q-7 -8 -30.5 -28t-42.5 -40l-242 -252 l313 -418q13 -17 33 -37t29 -32q12 -15 12 -37q0 -20 -14.5 -35.5t-38.5 -15.5q-28 0 -45 24q-5 7 -19.5 33t-27.5 43l-308 412l-143 -148v-211q0 -18 3 -50t3 -46q0 -24 -15.5 -40.5t-39.5 -16.5t-40.5 16.5t-16.5 40.5z" />
<glyph unicode="l" horiz-adv-x="499" d="M193 47q0 14 4 46t4 50v1194q0 17 -4 49.5t-4 45.5q0 25 16 41t41 16t40 -16t15 -41q0 -13 -3 -45.5t-3 -49.5v-1194q0 -18 3 -50t3 -46q0 -24 -15.5 -40.5t-39.5 -16.5t-40.5 16.5t-16.5 40.5z" />
<glyph unicode="m" horiz-adv-x="1763" d="M193 907q0 26 16 43t41 17t40 -17t15 -43v-65q116 159 303 159q213 0 295 -198q53 93 138 145.5t188 52.5q156 0 250 -102t94 -278v-478q0 -18 4 -50t4 -46q0 -24 -16.5 -40.5t-40.5 -16.5t-40 16.5t-16 40.5q0 14 3.5 46t3.5 50v478q0 136 -67.5 215t-190.5 79 q-89 0 -167.5 -51t-119.5 -139q10 -52 10 -115v-467q0 -18 3 -50t3 -46q0 -24 -15.5 -40.5t-39.5 -16.5t-40.5 16.5t-16.5 40.5q0 14 4 46t4 50v457q0 92 -21 156q-26 76 -86 117.5t-145 41.5q-175 0 -285 -174v-598q0 -18 3 -50t3 -46q0 -24 -15.5 -40.5t-39.5 -16.5 t-39.5 16.5t-15.5 40.5q0 14 3 46t3 50v668q0 18 -7 53t-7 43z" />
<glyph unicode="n" horiz-adv-x="1150" d="M193 907q0 26 16 43t41 17t40 -17t15 -43v-59q123 153 316 153q154 0 247 -103t93 -267v-488q0 -18 3 -50t3 -46q0 -24 -16 -40.5t-40 -16.5t-40.5 16.5t-16.5 40.5q0 14 4 46t4 50v478q0 134 -71 214t-193 80q-88 0 -164 -46t-129 -124v-602q0 -18 3 -50t3 -46 q0 -24 -15.5 -40.5t-39.5 -16.5t-39.5 16.5t-15.5 40.5q0 14 3 46t3 50v668q0 18 -7 53t-7 43z" />
<glyph unicode="o" horiz-adv-x="1171" d="M133 487q0 103 31 196t88 164t143.5 112.5t190.5 41.5q139 0 243.5 -72t156.5 -187.5t52 -254.5t-52 -254t-156.5 -186.5t-243.5 -71.5q-104 0 -190.5 41.5t-143.5 112t-88 163t-31 195.5zM233 487q0 -113 41 -208.5t122.5 -155.5t189.5 -60q109 0 191 60t122.5 155.5 t40.5 208.5q0 114 -40.5 210t-123 157t-190.5 61q-107 0 -189 -61t-123 -157.5t-41 -209.5z" />
<glyph unicode="p" horiz-adv-x="1142" d="M193 907q0 26 17 43t42 17q23 0 38 -17t15 -43v-28q109 122 270 122q194 0 313.5 -140.5t119.5 -358.5q0 -146 -52.5 -265t-154.5 -190.5t-236 -71.5q-153 0 -260 111v-397q0 -17 3 -49.5t3 -45.5q0 -25 -15 -41t-40 -16t-40 16t-15 41q0 13 3 45.5t3 49.5v1122 q0 18 -7 53t-7 43zM305 180q94 -117 252 -117q156 0 254 123t98 316q0 178 -90 295.5t-248 117.5q-165 0 -266 -124v-611z" />
<glyph unicode="q" horiz-adv-x="1142" d="M133 502q0 218 119 358.5t313 140.5q159 0 271 -122v28q0 26 16 43t41 17q22 0 38.5 -17t16.5 -43q0 -8 -6 -41.5t-6 -52.5v-1124q0 -58 25 -58q5 0 17.5 7.5t27.5 7.5q22 0 36.5 -14.5t14.5 -34.5q0 -28 -23.5 -45t-64.5 -17q-62 0 -97.5 42.5t-35.5 123.5v383 q-109 -109 -261 -109q-201 0 -321.5 151t-120.5 376zM233 502q0 -193 98.5 -316t254.5 -123q157 0 250 113v615q-101 124 -265 124q-159 0 -248.5 -117t-89.5 -296z" />
<glyph unicode="r" horiz-adv-x="700" d="M193 907q0 26 16 43t41 17q24 0 37.5 -16.5t13.5 -43.5v-67q58 77 126.5 119t127.5 42q42 0 67 -18.5t25 -46.5q0 -23 -17.5 -39t-41.5 -16q-16 0 -36 10t-38 10q-46 0 -101.5 -42t-107.5 -122v-594q0 -18 3 -50t3 -46q0 -24 -15.5 -40.5t-39.5 -16.5t-39.5 16.5 t-15.5 40.5q0 14 3 46t3 50v668q0 18 -7 53t-7 43z" />
<glyph unicode="s" horiz-adv-x="878" d="M74 223q0 21 14.5 37t36.5 16q45 0 57 -63q20 -70 88.5 -111t155.5 -41q110 0 180 51t70 134q0 71 -54.5 117t-191.5 92l-47 16q-248 82 -248 279q0 104 82.5 176.5t208.5 72.5q190 0 287 -129q24 -27 24 -57q0 -21 -15 -36t-38 -15q-33 0 -57 49q-55 104 -197 104 q-88 0 -144.5 -45.5t-56.5 -117.5q0 -64 43 -112.5t156 -84.5l37 -12q164 -54 235.5 -120.5t71.5 -174.5q0 -115 -92 -194t-252 -79q-113 0 -203 49t-135 142q-16 36 -16 57z" />
<glyph unicode="t" horiz-adv-x="686" d="M68 936q0 22 14.5 35.5t36.5 13.5q11 0 37 -4t43 -4h30v129q0 19 -4 52.5t-4 41.5q0 26 15 43t40 17t41.5 -17t16.5 -43q0 -8 -4 -41.5t-4 -52.5v-127h153q13 0 41.5 3t36.5 3q22 0 36.5 -13.5t14.5 -35.5t-14.5 -35.5t-36.5 -13.5q-8 0 -36.5 3t-41.5 3h-153v-686 q0 -68 33 -98.5t77 -30.5q61 0 92 39q33 33 54 33q20 0 34.5 -13.5t14.5 -36.5q0 -29 -31 -57q-59 -53 -156 -53q-99 0 -157 56t-58 163v686h-30q-17 0 -43 -4t-37 -4q-22 0 -36.5 13.5t-14.5 35.5z" />
<glyph unicode="u" horiz-adv-x="1150" d="M182 922q0 24 17 40.5t41 16.5t39.5 -16.5t15.5 -40.5q0 -14 -3 -46.5t-3 -50.5v-469q0 -135 72 -215t200 -80q174 0 283 136v628q0 18 -3 50.5t-3 46.5q0 24 16.5 40.5t40.5 16.5t39.5 -16.5t15.5 -40.5q0 -14 -3 -46.5t-3 -50.5v-680q0 -19 6 -53.5t6 -42.5 q0 -26 -16 -42.5t-41 -16.5t-40 16.5t-15 42.5v55q-116 -129 -299 -129q-160 0 -257.5 104t-97.5 269v477q0 18 -4 50.5t-4 46.5z" />
<glyph unicode="v" horiz-adv-x="927" d="M55 924q0 22 15.5 37.5t38.5 15.5q37 0 53 -39q3 -8 12 -40.5t14 -49.5l244 -635q15 -40 35 -107q6 35 33 105l241 637q4 11 13 45.5t14 44.5q12 39 51 39q23 0 39 -15.5t16 -37.5q0 -11 -6 -29q-2 -5 -10 -19.5t-16.5 -30t-14.5 -30.5l-270 -692q-3 -6 -27 -78 q-8 -28 -19.5 -39.5t-37.5 -11.5h-16q-27 0 -39 12t-21 39l-26 78l-271 692q-7 19 -22 46.5t-17 33.5q-6 12 -6 29z" />
<glyph unicode="w" horiz-adv-x="1398" d="M55 922q0 23 16 39t38 16q43 0 55 -45q15 -73 20 -92l211 -643q17 -61 23 -86q9 35 28 86l175 491q18 54 18 68q15 49 63 49q43 0 58 -49l20 -68l176 -489l27 -86q3 18 25 86l209 641q5 19 11 51t9 41q12 45 53 45q23 0 39.5 -16t16.5 -39q0 -4 -1 -8.5t-3 -10t-3 -8.5 q-2 -4 -9.5 -19.5t-15 -32t-11.5 -30.5l-230 -686l-24 -88q-12 -45 -58 -45h-12q-22 0 -35 9t-22 32l-35 98l-166 461q-22 68 -23 74q-1 -3 -22 -74l-166 -461l-37 -98q-8 -25 -20.5 -33t-34.5 -8h-15q-39 0 -53 45q-23 80 -26 88l-228 686q-6 15 -19.5 45t-15.5 37 q-6 12 -6 27z" />
<glyph unicode="x" horiz-adv-x="931" d="M55 45q0 15 13 35q6 7 27 29.5t32 37.5l276 365l-237 307q-11 15 -33.5 38t-28.5 30q-12 18 -12 35q0 25 16 40t37 15q30 0 50 -27q5 -7 20.5 -34.5t26.5 -43.5l227 -299l219 299q6 9 22.5 38.5t24.5 39.5q16 25 47 25q21 0 37.5 -14.5t16.5 -38.5q0 -18 -13 -37 q-7 -9 -28 -31t-31 -35l-240 -317l279 -355q11 -15 33 -37.5t28 -29.5q13 -19 13 -35q0 -25 -16 -40t-38 -15q-31 0 -47 26q-7 9 -23 34.5t-26 39.5l-266 348l-256 -344q-10 -14 -26 -42.5t-23 -37.5q-21 -24 -47 -24q-22 0 -38 15t-16 40z" />
<glyph unicode="y" horiz-adv-x="937" d="M55 924q0 23 16 38t40 15q40 0 49 -35q4 -11 12.5 -44.5t13.5 -47.5l240 -676q16 -46 31 -102l295 778q7 17 15 50t11 42q14 35 51 35q23 0 38.5 -16t15.5 -39q0 -14 -9 -35q-23 -41 -34 -70l-437 -1139q-56 -143 -210 -143q-46 0 -74.5 18t-28.5 48q0 20 15.5 35.5 t37.5 15.5q17 0 38.5 -11.5t41.5 -11.5q66 0 101 92l100 269q-49 4 -62 41q-3 9 -8.5 41.5t-13.5 54.5l-242 688q-7 19 -17.5 41t-12.5 27q-13 26 -13 41z" />
<glyph unicode="z" horiz-adv-x="897" d="M63 55q0 18 21 47l563 725q14 19 53 64h-452q-18 0 -49.5 -6t-38.5 -6q-25 0 -40.5 13.5t-15.5 35.5q0 23 16 37t42 14h598q27 0 43 -14.5t16 -40.5q0 -20 -14 -41l-574 -740q-28 -36 -45 -53h502q17 0 48 6t40 6q23 0 39 -14.5t16 -36.5q0 -23 -15.5 -37t-39.5 -14h-653 q-27 0 -43.5 14.5t-16.5 40.5z" />
<glyph unicode="{" horiz-adv-x="749" d="M90 633q0 23 14.5 37t36.5 14q14 0 30 -2t22 -2q65 0 111 59.5t46 132.5q0 57 -9 246t-9 232q0 78 59 126t154 48q91 0 131 -25q31 -14 31 -43q0 -21 -15 -34t-35 -13q-15 0 -39 12q-31 23 -86 23q-53 0 -82.5 -29t-29.5 -76q0 -43 10 -232t10 -241q0 -80 -44.5 -143 t-116.5 -90q71 -27 116 -91t45 -143q0 -51 -10 -239.5t-10 -231.5q0 -47 29.5 -76.5t82.5 -29.5q57 0 86 22q26 13 39 13q20 0 35 -12.5t15 -34.5q0 -26 -31 -43q-45 -25 -131 -25q-95 0 -154 48t-59 126q0 43 9 232.5t9 244.5q0 74 -46.5 134.5t-113.5 60.5q-6 0 -20.5 -2 t-28.5 -2q-22 0 -36.5 13.5t-14.5 35.5z" />
<glyph unicode="|" horiz-adv-x="493" d="M193 -401q0 14 4 46t4 50v1790q0 18 -4 50t-4 46q0 24 15.5 40.5t39.5 16.5t38.5 -16.5t14.5 -40.5q0 -14 -3 -46t-3 -50v-1790q0 -18 3 -50t3 -46q0 -24 -14.5 -41t-38.5 -17t-39.5 17t-15.5 41z" />
<glyph unicode="}" horiz-adv-x="749" d="M49 -190q0 22 14.5 34.5t34.5 12.5q13 0 39 -13q29 -22 86 -22q53 0 83 29.5t30 76.5q0 43 -10.5 231.5t-10.5 239.5q0 79 45.5 143t116.5 91q-72 27 -117 90t-45 143q0 52 10.5 241t10.5 232q0 47 -30 76t-83 29q-55 0 -86 -23q-24 -12 -39 -12q-20 0 -34.5 13t-14.5 34 q0 29 31 43q40 25 131 25q95 0 154 -48t59 -126q0 -43 -9 -232t-9 -246q0 -73 46 -132.5t111 -59.5q6 0 21.5 2t29.5 2q22 0 37 -14t15 -37q0 -21 -15 -35t-37 -14q-14 0 -28.5 2t-20.5 2q-66 0 -112.5 -60.5t-46.5 -134.5q0 -55 9 -244.5t9 -232.5q0 -78 -59 -126t-154 -48 q-86 0 -131 25q-31 17 -31 43z" />
<glyph unicode="~" horiz-adv-x="894" d="M90 692q0 35 23 68q60 80 166 80q75 0 165 -49l56 -29q74 -39 114 -39q59 0 78 61q17 43 62 43q22 0 36.5 -13.5t14.5 -35.5q0 -34 -23 -67q-57 -80 -166 -80q-73 0 -159 47l-56 27q-82 43 -120 43q-60 0 -78 -60q-17 -45 -62 -45q-20 0 -35.5 14.5t-15.5 34.5z" />
<glyph unicode="&#xa1;" horiz-adv-x="411" d="M139 1231q0 31 23 53.5t55 22.5q31 0 53.5 -22.5t22.5 -53.5q0 -32 -22.5 -54t-53.5 -22q-32 0 -55 22t-23 54zM154 -127q0 10 3 44t3 54l12 865q0 21 -3 47t-3 39q0 23 14 38t37 15q21 0 35 -15t14 -38q0 -13 -2 -39t-2 -47l8 -865q0 -20 3 -54t3 -44q0 -28 -16 -47 t-45 -19q-28 0 -44.5 19t-16.5 47z" />
<glyph unicode="&#xa2;" horiz-adv-x="1069" d="M109 512q0 128 47 239.5t140 189t216 93.5v49q0 18 -4 50.5t-4 46.5q0 24 16.5 40.5t40.5 16.5t39.5 -16.5t15.5 -40.5q0 -14 -4 -46.5t-4 -50.5v-45q110 -6 194 -52t128 -114q22 -31 22 -57q0 -21 -14.5 -36t-38.5 -15q-37 0 -59 53q-29 59 -91.5 94.5t-142.5 40.5v-889 q89 4 153 42.5t93 103.5q20 55 57 55q24 0 40 -15t16 -36q0 -17 -21 -57q-51 -80 -138.5 -127.5t-197.5 -53.5v-20q0 -19 4 -50t4 -44q0 -25 -15.5 -41.5t-39.5 -16.5q-25 0 -41 16.5t-16 41.5q0 13 4 44t4 50v27q-123 18 -216 96t-140 191t-47 243zM209 512 q0 -159 81.5 -286.5t223.5 -155.5v878q-138 -25 -221.5 -150t-83.5 -286z" />
<glyph unicode="&#xa3;" horiz-adv-x="1069" d="M72 59q0 11 2 20t9 19.5t10 14.5t16.5 17.5t15.5 16.5q44 42 76 81t67 95t53.5 126t18.5 149q0 7 -1 22.5t-1 22.5h-76q-16 0 -47 -3t-37 -3q-23 0 -37 13.5t-14 35.5t14 35.5t37 13.5q6 0 37 -3t47 -3h62q-5 21 -45.5 156t-40.5 207q0 146 99 234.5t247 88.5 q203 0 311 -153q20 -29 20 -54q0 -23 -12.5 -37t-36.5 -14q-31 0 -55 49q-29 59 -88 93t-141 34q-108 0 -179 -63t-71 -180q0 -69 39 -201.5t45 -159.5h297q16 0 46 3t36 3q23 0 38 -13.5t15 -35.5t-15 -35.5t-38 -13.5q-6 0 -36 3t-46 3h-285q0 -8 1 -23.5t1 -23.5 q0 -248 -184 -444q-26 -33 -66 -64h682q21 0 47 6t37 6q22 0 37.5 -14t15.5 -35q0 -23 -15 -37t-38 -14h-819q-55 0 -55 59z" />
<glyph unicode="&#xa4;" horiz-adv-x="1183" d="M135 758q0 194 121 321l-35 43q-9 12 -32 35t-29 33q-17 24 -17 39q0 23 16.5 38t37.5 15q30 0 49 -29q6 -7 14 -19.5t18 -29t17 -26.5l31 -41q119 82 266 82q149 0 268 -82l31 41q7 10 17 26.5t18 29t14 19.5q18 27 49 27q21 0 37 -14.5t16 -38.5q0 -17 -16 -39 q-6 -8 -28.5 -31.5t-32.5 -36.5l-35 -43q119 -132 119 -319q0 -201 -129 -330l45 -53q12 -15 35.5 -40.5t25.5 -27.5q14 -20 14 -39q0 -24 -15.5 -38.5t-37.5 -14.5q-28 0 -49 27q-6 8 -22.5 35.5t-24.5 39.5l-43 54q-113 -74 -256 -74q-145 0 -258 74l-37 -47 q-10 -15 -26 -42.5t-21 -35.5q-21 -27 -49 -27q-22 0 -38 15t-16 38q0 18 15 39q7 9 29 32t32 36l41 49q-129 129 -129 330zM227 758q0 -162 103 -268.5t262 -106.5t261.5 106.5t102.5 268.5t-102.5 269.5t-261.5 107.5t-262 -107.5t-103 -269.5z" />
<glyph unicode="&#xa5;" horiz-adv-x="1103" d="M53 1348q0 21 13.5 36t35.5 15q34 0 52 -37q32 -79 34 -84l365 -703l360 703q5 9 35 84q18 37 53 37q22 0 36 -15t14 -36q0 -15 -9 -33q-1 -2 -20 -32t-27 -48l-209 -393h97q15 0 45.5 3t38.5 3q23 0 37 -13t14 -36q0 -22 -14 -35.5t-37 -13.5q-8 0 -38.5 4t-45.5 4h-140 l-75 -142h118q15 0 45 3.5t37 3.5q23 0 37.5 -13.5t14.5 -34.5q0 -23 -14.5 -37t-37.5 -14q-7 0 -37 3t-45 3h-163l-23 -45v-338q0 -19 4 -53.5t4 -42.5q0 -27 -16 -44t-41 -17t-40 16.5t-15 44.5q0 8 2 42.5t2 53.5v340l-39 74l-33 -31q-6 0 -69 -1t-66 -1q-60 0 -68 4 q-20 3 -29 17t-6 33q10 39 68 39q5 0 63 -2.5t68 -2.5l45 -6l-78 148h-137q-15 0 -45.5 -4t-38.5 -4q-23 0 -37 13.5t-14 35.5q0 23 14 36t37 13q8 0 38.5 -3t45.5 -3h94l-207 393q-8 17 -25 44.5t-20 35.5q-8 16 -8 33z" />
<glyph unicode="&#xa6;" horiz-adv-x="493" d="M193 -385q0 13 4 44t4 50v666q0 17 -4 49t-4 45q0 25 15 41t40 16q24 0 38.5 -16t14.5 -41q0 -13 -3 -45t-3 -49v-666q0 -19 3 -50t3 -44q0 -25 -14.5 -42t-38.5 -17t-39.5 17t-15.5 42zM193 721q0 14 4 46t4 50v664q0 18 -4 50t-4 46q0 24 15.5 40.5t39.5 16.5 t38.5 -16.5t14.5 -40.5q0 -14 -3 -46t-3 -50v-664q0 -18 3 -50t3 -46q0 -24 -14.5 -40.5t-38.5 -16.5t-39.5 16.5t-15.5 40.5z" />
<glyph unicode="&#xa7;" horiz-adv-x="892" d="M74 215q0 21 14.5 37t36.5 16q43 0 59 -63q18 -70 87.5 -111t154.5 -41q110 0 181 54t71 137q0 71 -58.5 121t-195.5 94l-37 12q-135 44 -211 123t-76 176q0 77 43.5 137.5t118.5 91.5q-139 84 -139 224q0 109 90 183.5t215 74.5q103 0 177.5 -40.5t117.5 -107.5 q12 -18 12 -39t-15 -36t-38 -15q-31 0 -57 47q-57 107 -193 107q-89 0 -151 -49t-62 -123q0 -66 47 -113t164 -84l37 -12q163 -53 240 -126.5t77 -182.5q0 -76 -41.5 -137.5t-121.5 -92.5q78 -45 115.5 -101.5t37.5 -133.5q0 -113 -96 -194t-248 -81q-121 0 -214.5 55 t-133.5 158q-8 16 -8 35zM195 772q0 -67 56 -122t169 -91l39 -12l69 -25q72 22 117 73t45 114q0 70 -60.5 122.5t-195.5 96.5l-39 12l-37 12q-71 -12 -117 -63t-46 -117z" />
<glyph unicode="&#xa8;" horiz-adv-x="811" d="M164 1298q0 32 22.5 54t53.5 22q32 0 53.5 -22t21.5 -54q0 -31 -21.5 -53t-53.5 -22q-31 0 -53.5 22t-22.5 53zM494 1298q0 32 22.5 54t54.5 22q31 0 53.5 -22t22.5 -54q0 -31 -22.5 -53t-53.5 -22q-32 0 -54.5 22t-22.5 53z" />
<glyph unicode="&#xa9;" horiz-adv-x="1689" d="M115 727q0 162 59 303.5t158.5 239.5t233 154.5t280.5 56.5q146 0 279.5 -56.5t233.5 -154.5t159 -239.5t59 -303.5t-59 -303.5t-159 -239t-233.5 -153.5t-279.5 -56q-147 0 -280.5 56t-233 153.5t-158.5 239t-59 303.5zM182 727q0 -150 53 -280t143 -218.5t211.5 -139 t256.5 -50.5q134 0 255 50.5t210.5 139t142.5 218.5t53 280t-53 280t-142.5 219.5t-210.5 140t-255 50.5q-135 0 -256.5 -50.5t-211.5 -140t-143 -219.5t-53 -280zM506 719q0 111 40.5 200.5t122 144t191.5 54.5q92 0 166 -39.5t109 -105.5q10 -20 10 -33q0 -16 -13 -29.5 t-36 -13.5q-14 0 -27.5 9.5t-19.5 25.5q-21 53 -71 79.5t-118 26.5q-126 0 -193 -89.5t-67 -229.5t67 -231t193 -91q72 0 126 31t73 84q12 37 45 37q23 0 36 -13t13 -30q0 -18 -12 -39q-37 -66 -114 -107t-167 -41q-110 0 -191.5 55t-122 144.5t-40.5 200.5z" />
<glyph unicode="&#xaa;" horiz-adv-x="686" d="M80 999q0 87 60.5 141.5t176.5 61.5q134 8 164 49v31q0 54 -38 89.5t-101 35.5q-48 0 -79 -19.5t-42 -52.5q-14 -43 -43 -43q-21 0 -32 13t-11 30t15 43q24 43 73 70t121 27q100 0 160.5 -56.5t60.5 -150.5v-338q0 -33 15 -33q4 0 10.5 2t11.5 2q17 0 28 -11t11 -28 q0 -21 -18 -35t-48 -14q-58 0 -81 57q-71 -65 -185 -65q-103 0 -166 54t-63 140zM164 999q0 -55 43 -90t115 -35q103 0 159 62v244q-42 -37 -157 -45q-80 -7 -120 -43t-40 -93z" />
<glyph unicode="&#xab;" horiz-adv-x="1042" d="M92 551q0 29 27 49q7 6 24 18t25 19l258 227q9 8 22.5 23.5t22.5 23.5q16 13 35 13q20 0 34.5 -15t14.5 -35q0 -26 -20 -43q-7 -5 -26.5 -16t-29.5 -20l-289 -240l287 -240q10 -8 29 -19.5t29 -19.5q20 -17 20 -43q0 -19 -14.5 -33t-34.5 -14q-19 0 -35 13 q-10 8 -23.5 23t-21.5 22l-258 223q-8 7 -28 21.5t-29 23.5q-19 19 -19 39zM440 551q0 26 25 47q8 7 26.5 21t24.5 18l258 223q8 7 21.5 22t23.5 23q16 13 35 13q20 0 34.5 -14.5t14.5 -33.5q0 -26 -20 -43q-8 -6 -27 -17.5t-29 -21.5l-288 -233l286 -233q12 -11 32.5 -23.5 t25.5 -15.5q20 -17 20 -43q0 -20 -14.5 -35t-34.5 -15q-19 0 -35 13q-9 8 -22.5 23.5t-22.5 23.5l-258 217q-8 7 -26.5 20.5t-26.5 20.5q-23 23 -23 43z" />
<glyph unicode="&#xac;" horiz-adv-x="1040" d="M82 778q0 24 16 40t39 16h676q28 0 44.5 -17.5t16.5 -44.5q0 -10 -3 -44.5t-3 -53.5v-117q0 -19 3 -54.5t3 -43.5q0 -28 -15.5 -45t-41.5 -17q-25 0 -41 17t-16 45q0 8 3 43.5t3 54.5v182h-539q-22 0 -50 -5t-40 -5q-23 0 -39 14.5t-16 34.5z" />
<glyph unicode="&#xad;" horiz-adv-x="788" d="M121 551q0 22 15.5 37.5t39.5 15.5q7 0 37 -3t47 -3h268q17 0 47 3t37 3q24 0 40 -15.5t16 -37.5t-16 -37.5t-40 -15.5q-7 0 -37 3t-47 3h-268q-17 0 -47 -3t-37 -3q-24 0 -39.5 15.5t-15.5 37.5z" />
<glyph unicode="&#xae;" horiz-adv-x="1689" d="M115 727q0 162 59 303.5t158.5 239.5t233 154.5t280.5 56.5q146 0 279.5 -56.5t233.5 -154.5t159 -239.5t59 -303.5t-59 -303.5t-159 -239t-233.5 -153.5t-279.5 -56q-147 0 -280.5 56t-233 153.5t-158.5 239t-59 303.5zM182 727q0 -150 53 -280t143 -218.5t211.5 -139 t256.5 -50.5q134 0 255 50.5t210.5 139t142.5 218.5t53 280t-53 280t-142.5 219.5t-210.5 140t-255 50.5q-135 0 -256.5 -50.5t-211.5 -140t-143 -219.5t-53 -280zM602 403q0 9 3 32t3 36v533q0 8 -3 28t-3 35q0 18 16 31.5t37 13.5h191q111 0 183.5 -59.5t72.5 -157.5 q0 -79 -47 -136t-129 -77l123 -221q9 -17 24 -17q3 0 11 3.5t16 3.5q19 0 32 -12t13 -31q0 -20 -18 -36t-48 -16q-67 0 -104 72l-133 246h-144v-203q0 -13 3.5 -36t3.5 -32q0 -20 -14 -35.5t-38 -15.5q-23 0 -37 15.5t-14 35.5zM698 750h144q85 0 129.5 39.5t44.5 105.5 q0 65 -45 105t-125 40h-148v-290z" />
<glyph unicode="&#xaf;" horiz-adv-x="847" d="M164 1305q0 21 14 34t37 13q6 0 35 -2t45 -2h258q16 0 44 2t36 2q22 0 36.5 -13.5t14.5 -33.5q0 -21 -15 -35.5t-36 -14.5q-8 0 -36 3.5t-44 3.5h-258q-16 0 -45 -3.5t-35 -3.5q-23 0 -37 14.5t-14 35.5z" />
<glyph unicode="&#xb0;" horiz-adv-x="628" d="M88 1237q0 94 65 161.5t160 67.5t161.5 -67.5t66.5 -161.5t-66.5 -160.5t-161.5 -66.5t-160 66.5t-65 160.5zM158 1237q0 -68 45 -116t110 -48q66 0 112 48t46 116t-46 117t-112 49q-65 0 -110 -49t-45 -117z" />
<glyph unicode="&#xb1;" horiz-adv-x="962" d="M133 47q0 25 15.5 40t41.5 15q8 0 40.5 -4t50.5 -4h401q18 0 50 4t40 4q26 0 41.5 -15t15.5 -40q0 -24 -15.5 -39.5t-41.5 -15.5q-8 0 -40 4t-50 4h-401q-18 0 -50.5 -4t-40.5 -4q-26 0 -41.5 15.5t-15.5 39.5zM133 625q0 25 15.5 40t41.5 15q8 0 40.5 -3t50.5 -3h151 v166q0 18 -3 52t-3 42q0 25 15 41t40 16t40.5 -16t15.5 -41q0 -8 -3.5 -42t-3.5 -52v-166h152q18 0 50 3t40 3q26 0 41.5 -15t15.5 -40q0 -24 -15.5 -40t-41.5 -16q-8 0 -40 4.5t-50 4.5h-152v-166q0 -19 3.5 -53t3.5 -42q0 -26 -15.5 -42.5t-40.5 -16.5t-40 16.5t-15 42.5 q0 8 3 42t3 53v166h-151q-18 0 -50.5 -4.5t-40.5 -4.5q-26 0 -41.5 16t-15.5 40z" />
<glyph unicode="&#xb2;" horiz-adv-x="716" d="M76 643q0 133 58.5 227t187.5 164l92 49q137 70 137 174q0 64 -50.5 105t-131.5 41q-75 0 -125 -33.5t-60 -97.5q-6 -49 -45 -49q-19 0 -31 11.5t-12 33.5q0 24 17 63q29 67 97 105.5t159 38.5q120 0 193 -62.5t73 -157.5q0 -75 -45.5 -133.5t-143.5 -111.5l-96 -52 q-102 -56 -145 -126t-45 -173h399q11 0 30 4.5t27 4.5q19 0 32.5 -12.5t13.5 -30.5t-13.5 -30.5t-32.5 -12.5h-481q-26 0 -42.5 15.5t-16.5 45.5z" />
<glyph unicode="&#xb3;" horiz-adv-x="733" d="M55 764q0 19 11.5 31t31.5 12q31 0 45 -43q21 -58 75.5 -91.5t131.5 -33.5q102 1 169 70t67 168q0 91 -59 144.5t-160 53.5q-19 0 -31.5 -2t-22.5 -2q-16 0 -25 9.5t-9 23.5q0 17 12 31q4 4 25.5 21t27.5 24l150 163l41 41h-297q-14 0 -34.5 -3t-27.5 -3 q-18 0 -31.5 10.5t-13.5 28.5q0 20 12.5 30.5t32.5 10.5h412q45 0 45 -41q0 -28 -29 -57l-180 -193l-35 -32q121 3 201 -68t80 -190q0 -130 -90 -220t-232 -90q-92 0 -161.5 38t-110.5 106q-21 31 -21 53z" />
<glyph unicode="&#xb4;" horiz-adv-x="667" d="M164 1204q0 24 20 41q24 20 45 41l123 121q15 13 28.5 30t20.5 23q26 23 48 23t38.5 -15t16.5 -43q0 -25 -23 -45q-11 -10 -37.5 -28.5t-40.5 -30.5l-110 -104q-13 -10 -27 -25t-18 -18q-19 -15 -37 -15q-20 0 -33.5 13t-13.5 32z" />
<glyph unicode="&#xb5;" horiz-adv-x="1124" d="M174 922q0 24 16.5 40.5t40.5 16.5t40 -16.5t16 -40.5q0 -14 -3 -46.5t-3 -50.5v-477q0 -120 76.5 -199t193.5 -79q182 0 285 149v606q0 18 -3.5 50.5t-3.5 46.5q0 24 16.5 40.5t41.5 16.5q24 0 39.5 -16.5t15.5 -40.5q0 -14 -3 -46.5t-3 -50.5v-680q0 -19 6 -53.5 t6 -42.5q0 -26 -16 -42.5t-41 -16.5t-40 16.5t-15 42.5v62q-120 -136 -291 -136q-82 0 -152 37t-112 101v-420q0 -19 6 -53.5t6 -42.5q0 -26 -16 -43t-41 -17q-24 0 -39 16.5t-15 43.5v1228q0 18 -4 50.5t-4 46.5z" />
<glyph unicode="&#xb6;" horiz-adv-x="1302" d="M80 1057q-2 176 122.5 290.5t336.5 114.5h661q24 0 39.5 -14t15.5 -37q0 -21 -16.5 -36t-38.5 -15q-12 0 -41 6t-53 6h-57v-1220q0 -20 3 -55.5t3 -45.5q0 -26 -15.5 -43.5t-40.5 -17.5q-26 0 -41.5 17t-15.5 44q0 10 4 45.5t4 55.5v1220h-110v-1220q0 -20 3 -55.5 t3 -45.5q0 -27 -14.5 -44t-40.5 -17t-41 17t-15 44q0 10 3 45.5t3 55.5v497h-217q-204 0 -325 116t-119 292zM180 1057q0 -142 88.5 -230t245.5 -88h227v633h-217q-161 0 -252.5 -87t-91.5 -228z" />
<glyph unicode="&#xb7;" horiz-adv-x="397" d="M123 551q0 31 22.5 53.5t53.5 22.5q32 0 53.5 -22.5t21.5 -53.5t-21.5 -53.5t-53.5 -22.5q-31 0 -53.5 22.5t-22.5 53.5z" />
<glyph unicode="&#xb8;" horiz-adv-x="788" d="M164 -381q0 18 12.5 31.5t32.5 13.5q31 0 45 -26q43 -66 139 -66q61 0 103.5 35t42.5 90q0 51 -38.5 87t-101.5 36q-27 0 -48.5 -6.5t-33.5 -6.5q-19 0 -31 12t-12 29q0 30 31 43q39 21 56 57t24 93l76 -25q-11 -89 -58 -133q13 2 60 -6q70 -12 116 -61.5t46 -116.5 q0 -90 -67.5 -147.5t-164.5 -57.5q-127 0 -203 76q-26 26 -26 49z" />
<glyph unicode="&#xb9;" horiz-adv-x="452" d="M45 1325q0 15 12 27t29 12q8 0 18 -3t15 -3q12 0 33 18l61 62q18 20 29 25t30 5t31 -13.5t12 -33.5q0 -7 -2 -30t-2 -33v-668q0 -13 2 -36t2 -29q0 -22 -12.5 -36t-32.5 -14q-21 0 -34 14t-13 36q0 6 1 29t1 36v596q0 36 4 76q-30 -34 -41 -43q-40 -37 -86 -37 q-26 0 -41.5 11.5t-15.5 31.5z" />
<glyph unicode="&#xba;" horiz-adv-x="780" d="M100 1139q0 140 83 238t218 98q134 0 215.5 -97t81.5 -237q0 -142 -81 -239t-216 -97t-218 97t-83 237zM186 1139q0 -109 58 -184.5t157 -75.5q96 0 154.5 76t58.5 184q0 109 -58.5 186.5t-154.5 77.5q-99 0 -157 -76.5t-58 -187.5z" />
<glyph unicode="&#xbb;" horiz-adv-x="1042" d="M137 231q0 25 21 43q8 6 26.5 17.5t28.5 21.5l287 234l-285 233q-12 11 -32.5 23.5t-24.5 15.5q-21 17 -21 43q0 20 14.5 34.5t34.5 14.5t35 -12q9 -8 22.5 -23.5t22.5 -23.5l258 -217q8 -7 27 -19.5t27 -19.5q22 -22 22 -45q0 -24 -25 -45q-6 -5 -23.5 -18.5 t-27.5 -22.5l-258 -223q-8 -7 -21.5 -22t-23.5 -23q-16 -13 -35 -13q-20 0 -34.5 14t-14.5 33zM485 227q0 25 21 43q5 4 25 16t30 21l289 240l-287 239q-10 8 -28.5 19.5t-28.5 19.5q-21 17 -21 43q0 19 15 33t35 14q19 0 34 -12q10 -8 23.5 -23t21.5 -22l258 -223 q6 -5 18.5 -13.5t22.5 -16t17 -15.5q18 -15 18 -39q0 -29 -26 -49q-42 -30 -50 -37l-258 -227q-9 -8 -22.5 -24t-22.5 -24q-15 -12 -34 -12q-20 0 -35 14.5t-15 34.5z" />
<glyph unicode="&#xbc;" horiz-adv-x="1601" d="M141 1325q0 15 12 27t29 12q8 0 18 -3t15 -3q12 0 33 18l61 62q18 19 29 24.5t31 5.5q19 0 31 -13.5t12 -33.5q0 -7 -2 -30t-2 -33v-668q0 -13 2 -36t2 -29q0 -22 -12.5 -36t-32.5 -14q-22 0 -35 14t-13 36q0 6 1.5 29t1.5 36v596q0 36 4 76q-30 -34 -41 -43 q-40 -37 -86 -37q-27 0 -42.5 11.5t-15.5 31.5zM317 41q0 13 11 35q6 12 19.5 32t19.5 33l616 1243q5 12 14.5 40t16.5 42q15 35 49 35q22 0 36 -14.5t13 -36.5q0 -20 -10 -37q-6 -12 -19.5 -31.5t-19.5 -33.5l-614 -1242q-5 -12 -14.5 -39.5t-16.5 -41.5q-18 -35 -49 -35 q-23 0 -38 14.5t-14 36.5zM829 301v25q0 12 3.5 22.5t7.5 16t14.5 16.5t15.5 18l314 414q5 7 16.5 24.5t16 22.5t15.5 11t25 6h46q40 0 40 -48q0 -5 -1 -27.5t-1 -33.5l-2 -436h23q14 0 33 3t26 3q18 0 30.5 -11t12.5 -28t-13 -29t-32 -12h-80v-152q0 -12 2 -35t2 -30 q0 -21 -12 -34t-33 -13q-20 0 -32.5 13.5t-12.5 33.5q0 7 2 30t2 35v152h-385q-18 0 -30.5 11.5t-12.5 31.5zM909 332h348v463z" />
<glyph unicode="&#xbd;" horiz-adv-x="1634" d="M141 1325q0 15 12 27t29 12q8 0 18 -3t15 -3q12 0 33 18l61 62q18 19 29 24.5t31 5.5q19 0 31 -13.5t12 -33.5q0 -7 -2 -30t-2 -33v-668q0 -13 2 -36t2 -29q0 -22 -12.5 -36t-32.5 -14q-22 0 -35 14t-13 36q0 6 1.5 29t1.5 36v596q0 36 4 76q-30 -34 -41 -43 q-40 -37 -86 -37q-27 0 -42.5 11.5t-15.5 31.5zM319 41q0 13 11 35q6 12 19.5 32t19.5 33l616 1243q5 12 14.5 40t16.5 42q15 35 49 35q22 0 36 -14.5t13 -36.5q0 -20 -10 -37q-6 -12 -19.5 -31.5t-19.5 -33.5l-614 -1242q-5 -12 -14.5 -39.5t-16.5 -41.5q-18 -35 -49 -35 q-23 0 -38 14.5t-14 36.5zM903 61q0 133 58.5 227.5t187.5 164.5l92 49q137 70 137 174q0 64 -50.5 104.5t-131.5 40.5q-75 0 -124.5 -33.5t-59.5 -97.5q-6 -49 -45 -49q-19 0 -31 11.5t-12 33.5q0 27 16 64q29 67 97 105t159 38q120 0 193 -62.5t73 -156.5 q0 -75 -45 -134.5t-143 -111.5l-96 -51q-102 -56 -145.5 -126t-45.5 -173h399q10 0 30 4t28 4q19 0 32 -12t13 -31t-13 -31t-32 -12h-481q-26 0 -43 16t-17 45z" />
<glyph unicode="&#xbe;" horiz-adv-x="1701" d="M74 764q0 19 11.5 31t31.5 12q31 0 45 -43q21 -58 75.5 -91.5t131.5 -33.5q102 1 168.5 70t66.5 168q0 91 -59 144.5t-160 53.5q-19 0 -31 -2t-22 -2q-17 0 -26 9.5t-9 23.5q0 17 12 31q4 4 25.5 21t27.5 24l150 163l41 41h-297q-14 0 -34 -3t-27 -3q-18 0 -31.5 10.5 t-13.5 28.5q0 20 12.5 30.5t32.5 10.5h411q45 0 45 -41q0 -29 -28 -57l-181 -193l-34 -32q121 3 200.5 -68t79.5 -190q0 -130 -89.5 -220t-231.5 -90q-92 0 -162 38t-111 106q-20 30 -20 53zM487 41q0 13 11 35q6 12 19.5 32t19.5 33l616 1243q5 12 14.5 40t16.5 42 q15 35 49 35q22 0 36 -14.5t13 -36.5q0 -20 -10 -37q-6 -12 -19.5 -31.5t-19.5 -33.5l-615 -1242q-5 -12 -14 -39.5t-16 -41.5q-18 -35 -49 -35q-23 0 -38 14.5t-14 36.5zM999 301v25q0 12 3.5 22.5t7.5 16t14.5 16.5t15.5 18l314 414q5 7 16.5 24.5t16 22.5t15.5 11t25 6 h46q40 0 40 -48q0 -5 -1 -27.5t-1 -33.5l-2 -436h23q14 0 33 3t26 3q18 0 30.5 -11t12.5 -28t-13 -29t-32 -12h-80v-152q0 -12 2 -35t2 -30q0 -21 -12 -34t-33 -13q-20 0 -32.5 13.5t-12.5 33.5q0 7 2 30t2 35v152h-385q-18 0 -30.5 11.5t-12.5 31.5zM1079 332h348v463z" />
<glyph unicode="&#xbf;" horiz-adv-x="980" d="M49 168q0 106 52.5 190.5t170.5 165.5q101 69 148 120t57 110q7 46 -2 88q-1 6 -10.5 23t-9.5 30q0 25 15 40t40 15q32 0 55 -35.5t23 -95.5q0 -102 -55 -186.5t-195 -175.5q-95 -61 -143 -129.5t-48 -161.5q0 -110 85 -189t239 -79q144 0 230.5 76t86.5 171q0 19 -7 40 t-7 34q0 21 14 35t33 14q70 0 70 -112q0 -65 -30.5 -127.5t-84 -111.5t-133.5 -79.5t-172 -30.5q-99 0 -181 30.5t-133.5 82t-79.5 115.5t-28 133zM426 1229q0 31 22.5 53.5t53.5 22.5q32 0 55 -22.5t23 -53.5q0 -32 -23 -54t-55 -22q-31 0 -53.5 22t-22.5 54z" />
<glyph unicode="&#xc0;" horiz-adv-x="1280" d="M55 43q0 19 6 31q2 5 15 35t20 49l436 1175l27 88q20 52 74 52h14q55 0 72 -52q17 -58 29 -88l436 -1175q6 -20 20 -51t15 -33q6 -12 6 -31q0 -22 -16.5 -37.5t-39.5 -15.5q-41 0 -55 43q-2 8 -10 41t-14 51l-93 252h-716l-91 -252q-6 -18 -14 -51t-10 -41 q-17 -43 -55 -43q-23 0 -39.5 15.5t-16.5 37.5zM313 465h652l-295 811q-27 78 -33 100q-17 -61 -31 -100zM381 1874q0 27 16 41t39 14q22 0 43 -18q7 -6 20.5 -24t28.5 -32l95 -88q10 -10 24.5 -21t18.5 -15q20 -17 20 -39q0 -19 -12.5 -32t-32.5 -13q-19 0 -37 14 q-4 4 -18 17t-25 22l-86 74q-15 14 -40 31.5t-32 23.5q-22 19 -22 45z" />
<glyph unicode="&#xc1;" horiz-adv-x="1280" d="M55 43q0 19 6 31q2 5 15 35t20 49l436 1175l27 88q20 52 74 52h14q55 0 72 -52q17 -58 29 -88l436 -1175q6 -20 20 -51t15 -33q6 -12 6 -31q0 -22 -16.5 -37.5t-39.5 -15.5q-41 0 -55 43q-2 8 -10 41t-14 51l-93 252h-716l-91 -252q-6 -18 -14 -51t-10 -41 q-17 -43 -55 -43q-23 0 -39.5 15.5t-16.5 37.5zM313 465h652l-295 811q-27 78 -33 100q-17 -61 -31 -100zM586 1692q0 22 20 39q42 35 43 36l94 88q15 15 30 33t20 23q21 18 45 18q21 0 37 -14t16 -41q0 -25 -23 -45q-7 -6 -30.5 -23.5t-38.5 -31.5l-88 -74l-41 -39 q-21 -14 -37 -14q-20 0 -33.5 13t-13.5 32z" />
<glyph unicode="&#xc2;" horiz-adv-x="1280" d="M55 43q0 19 6 31q2 5 15 35t20 49l436 1175l27 88q20 52 74 52h14q55 0 72 -52q17 -58 29 -88l436 -1175q6 -20 20 -51t15 -33q6 -12 6 -31q0 -22 -16.5 -37.5t-39.5 -15.5q-41 0 -55 43q-2 8 -10 41t-14 51l-93 252h-716l-91 -252q-6 -18 -14 -51t-10 -41 q-17 -43 -55 -43q-23 0 -39.5 15.5t-16.5 37.5zM313 465h652l-295 811q-27 78 -33 100q-17 -61 -31 -100zM428 1692q0 21 12 37q39 39 49 53l66 78q22 32 41 53q15 22 43 22q27 0 45 -22q22 -28 37 -53l67 -78q8 -11 15.5 -19.5t19 -19t15.5 -14.5q12 -16 12 -37t-14.5 -34 t-34.5 -13q-26 0 -41 18q-7 9 -19 29t-22 34l-80 103l-82 -103q-8 -12 -19.5 -32.5t-19.5 -30.5q-15 -18 -41 -18q-20 0 -34.5 13t-14.5 34z" />
<glyph unicode="&#xc3;" horiz-adv-x="1280" d="M55 43q0 19 6 31q2 5 15 35t20 49l436 1175l27 88q20 52 74 52h14q55 0 72 -52q17 -58 29 -88l436 -1175q6 -20 20 -51t15 -33q6 -12 6 -31q0 -22 -16.5 -37.5t-39.5 -15.5q-41 0 -55 43q-2 8 -10 41t-14 51l-93 252h-716l-91 -252q-6 -18 -14 -51t-10 -41 q-17 -43 -55 -43q-23 0 -39.5 15.5t-16.5 37.5zM313 465h652l-295 811q-27 78 -33 100q-17 -61 -31 -100zM348 1749q0 61 49 98q45 33 107 33q68 0 151 -55q54 -37 79 -48.5t50 -11.5q45 0 45 31q0 5 -2 14.5t-2 14.5q0 23 14.5 38t39.5 15q22 0 37.5 -17t15.5 -44 q0 -66 -55 -103q-39 -28 -101 -28q-70 0 -153 55q-56 36 -80 47.5t-49 11.5q-43 0 -43 -33q0 -4 2 -12.5t2 -13.5q0 -22 -15 -37.5t-39 -15.5q-23 0 -38 16.5t-15 44.5z" />
<glyph unicode="&#xc4;" horiz-adv-x="1280" d="M55 43q0 19 6 31q2 5 15 35t20 49l436 1175l27 88q20 52 74 52h14q55 0 72 -52q17 -58 29 -88l436 -1175q6 -20 20 -51t15 -33q6 -12 6 -31q0 -22 -16.5 -37.5t-39.5 -15.5q-41 0 -55 43q-2 8 -10 41t-14 51l-93 252h-716l-91 -252q-6 -18 -14 -51t-10 -41 q-17 -43 -55 -43q-23 0 -39.5 15.5t-16.5 37.5zM313 465h652l-295 811q-27 78 -33 100q-17 -61 -31 -100zM399 1796q0 32 22.5 54t53.5 22q32 0 54 -22t22 -54q0 -31 -22 -53.5t-54 -22.5q-31 0 -53.5 22.5t-22.5 53.5zM729 1796q0 32 22.5 54t53.5 22q32 0 54 -22t22 -54 q0 -31 -22 -53.5t-54 -22.5q-31 0 -53.5 22.5t-22.5 53.5z" />
<glyph unicode="&#xc5;" horiz-adv-x="1280" d="M55 43q0 19 6 31q2 5 15 35t20 49l436 1175q1 3 15 42t14 42q-61 22 -100 78t-39 125q0 92 63 156.5t154 64.5q90 0 153.5 -64.5t63.5 -156.5q0 -69 -39 -124t-100 -79q1 -1 15 -40t16 -44l436 -1175q6 -20 20 -51t15 -33q6 -12 6 -31q0 -22 -16.5 -37.5t-39.5 -15.5 q-41 0 -55 43q-2 8 -10 41t-14 51l-93 252h-716l-91 -252q-6 -18 -14 -51t-10 -41q-17 -43 -55 -43q-23 0 -39.5 15.5t-16.5 37.5zM313 465h652l-295 811l-33 100q-17 -61 -31 -100zM498 1620q0 -60 38.5 -103.5t98.5 -43.5q62 0 103.5 42.5t41.5 104.5t-40.5 105.5 t-100.5 43.5t-100.5 -43.5t-40.5 -105.5z" />
<glyph unicode="&#xc6;" horiz-adv-x="1855" d="M33 45q0 22 14 39q22 26 49 72l711 1179q9 17 25.5 49.5t19.5 38.5q14 24 37 31.5t67 7.5h715q23 0 39 -15t16 -38q0 -21 -16.5 -36t-38.5 -15q-12 0 -41 5t-51 5h-551v-534h404q18 0 45.5 2t35.5 2q24 0 40 -14.5t16 -37.5t-16 -37t-40 -14q-8 0 -35.5 2t-45.5 2h-404 v-645h600q22 0 50 5t40 5q23 0 39.5 -14.5t16.5 -36.5q0 -23 -16 -38t-40 -15h-733q-29 0 -45 17t-16 44q0 10 3 44.5t3 54.5v217h-586l-168 -281q-8 -13 -20.5 -40t-18.5 -36q-20 -30 -49 -30q-26 0 -40.5 17t-14.5 38zM395 465h535v915q-37 -82 -72 -141z" />
<glyph unicode="&#xc7;" horiz-adv-x="1458" d="M154 733q0 217 76.5 388t220.5 269.5t333 98.5q151 0 274.5 -63t192.5 -175q35 -54 35 -86q0 -23 -15 -39t-40 -16q-38 0 -60 61q-45 106 -149.5 167t-237.5 61q-159 0 -280.5 -91t-183.5 -241t-62 -334q0 -138 37 -258.5t104 -210.5t167.5 -142t221.5 -52q149 0 261 73 t161 207q23 62 60 62q25 0 39 -17t14 -39q0 -21 -25 -73q-67 -136 -188.5 -215.5t-275.5 -90.5q-13 -57 -50 -94q13 2 60 -6q70 -12 116 -61.5t46 -116.5q0 -90 -67.5 -147.5t-164.5 -57.5q-127 0 -203 76q-26 26 -26 49q0 18 12.5 31.5t32.5 13.5q31 0 45 -26 q43 -66 139 -66q61 0 103.5 35t42.5 90q0 51 -38.5 87t-101.5 36q-27 0 -48.5 -6.5t-33.5 -6.5q-19 0 -31 12t-12 29q0 30 31 43q49 26 68 86q-181 8 -318 108.5t-209.5 268.5t-72.5 379z" />
<glyph unicode="&#xc8;" d="M225 61q0 10 4 44.5t4 54.5v1143q0 20 -4 54t-4 44q0 27 17.5 44t46.5 17h688q24 0 39.5 -14.5t15.5 -38.5q0 -21 -16.5 -36t-38.5 -15q-11 0 -40 6t-52 6h-551v-539h401q17 0 48 4.5t38 4.5q23 0 38 -16t15 -38q0 -23 -15 -38t-38 -15q-7 0 -38 3t-48 3h-401v-647h600 q22 0 51 6t41 6q22 0 38.5 -15t16.5 -36q0 -24 -15.5 -38.5t-39.5 -14.5h-737q-29 0 -46.5 17t-17.5 44zM395 1874q0 27 16.5 41t39.5 14q22 0 43 -18q7 -6 20.5 -24t28.5 -32l94 -88q10 -10 24.5 -21t18.5 -15q20 -17 20 -39q0 -19 -12.5 -32t-32.5 -13q-19 0 -37 14 q-4 4 -18 17t-25 22l-86 74q-15 14 -39.5 31.5t-31.5 23.5q-23 20 -23 45z" />
<glyph unicode="&#xc9;" d="M225 61q0 10 4 44.5t4 54.5v1143q0 20 -4 54t-4 44q0 27 17.5 44t46.5 17h688q24 0 39.5 -14.5t15.5 -38.5q0 -21 -16.5 -36t-38.5 -15q-11 0 -40 6t-52 6h-551v-539h401q17 0 48 4.5t38 4.5q23 0 38 -16t15 -38q0 -23 -15 -38t-38 -15q-7 0 -38 3t-48 3h-401v-647h600 q22 0 51 6t41 6q22 0 38.5 -15t16.5 -36q0 -24 -15.5 -38.5t-39.5 -14.5h-737q-29 0 -46.5 17t-17.5 44zM600 1692q0 22 21 39q42 35 43 36l94 88q15 15 29.5 33t19.5 23q21 18 45 18q21 0 37 -14t16 -41q0 -26 -22 -45q-7 -6 -31 -23.5t-39 -31.5l-88 -74l-41 -39 q-21 -14 -37 -14q-20 0 -33.5 13t-13.5 32z" />
<glyph unicode="&#xca;" d="M225 61q0 10 4 44.5t4 54.5v1143q0 20 -4 54t-4 44q0 27 17.5 44t46.5 17h688q24 0 39.5 -14.5t15.5 -38.5q0 -21 -16.5 -36t-38.5 -15q-11 0 -40 6t-52 6h-551v-539h401q17 0 48 4.5t38 4.5q23 0 38 -16t15 -38q0 -23 -15 -38t-38 -15q-7 0 -38 3t-48 3h-401v-647h600 q22 0 51 6t41 6q22 0 38.5 -15t16.5 -36q0 -24 -15.5 -38.5t-39.5 -14.5h-737q-29 0 -46.5 17t-17.5 44zM442 1692q0 20 13 37q39 39 49 53l65 78q22 32 41 53q15 22 43 22q27 0 45 -22q22 -28 37 -53l68 -78q10 -14 49 -53q12 -16 12 -37t-14.5 -34t-34.5 -13q-26 0 -41 18 q-7 9 -19 29t-22 34l-80 103l-82 -103q-8 -12 -19.5 -32.5t-19.5 -30.5q-15 -18 -40 -18q-20 0 -35 13t-15 34z" />
<glyph unicode="&#xcb;" d="M225 61q0 10 4 44.5t4 54.5v1143q0 20 -4 54t-4 44q0 27 17.5 44t46.5 17h688q24 0 39.5 -14.5t15.5 -38.5q0 -21 -16.5 -36t-38.5 -15q-11 0 -40 6t-52 6h-551v-539h401q17 0 48 4.5t38 4.5q23 0 38 -16t15 -38q0 -23 -15 -38t-38 -15q-7 0 -38 3t-48 3h-401v-647h600 q22 0 51 6t41 6q22 0 38.5 -15t16.5 -36q0 -24 -15.5 -38.5t-39.5 -14.5h-737q-29 0 -46.5 17t-17.5 44zM414 1796q0 32 22 54t53 22q32 0 54 -22t22 -54q0 -31 -22 -53.5t-54 -22.5q-31 0 -53 22.5t-22 53.5zM743 1796q0 32 22.5 54t53.5 22q32 0 54 -22t22 -54 q0 -31 -22 -53.5t-54 -22.5q-31 0 -53.5 22.5t-22.5 53.5z" />
<glyph unicode="&#xcc;" horiz-adv-x="606" d="M45 1874q0 27 16 41t39 14q22 0 43 -18q7 -6 21 -24t29 -32l94 -88q10 -10 24.5 -21t18.5 -15q20 -17 20 -39q0 -19 -12.5 -32t-32.5 -13q-19 0 -37 14q-4 4 -18 17t-25 22l-86 74q-15 14 -39.5 31.5t-31.5 23.5q-23 20 -23 45zM246 51q0 10 3 45.5t3 55.5v1159 q0 20 -3 55t-3 45q0 27 15.5 44.5t41.5 17.5q25 0 41 -18t16 -44q0 -10 -3 -45t-3 -55v-1159q0 -20 3 -55.5t3 -45.5q0 -26 -16 -43.5t-41 -17.5q-26 0 -41.5 17t-15.5 44z" />
<glyph unicode="&#xcd;" horiz-adv-x="606" d="M246 51q0 10 3 45.5t3 55.5v1159q0 20 -3 55t-3 45q0 27 15.5 44.5t41.5 17.5q25 0 41 -18t16 -44q0 -10 -3 -45t-3 -55v-1159q0 -20 3 -55.5t3 -45.5q0 -26 -16 -43.5t-41 -17.5q-26 0 -41.5 17t-15.5 44zM250 1692q0 22 20 39q42 35 43 36l95 88q15 15 29.5 33t19.5 23 q21 18 45 18q21 0 37 -14t16 -41q0 -25 -23 -45q-7 -6 -30.5 -23.5t-38.5 -31.5l-88 -74l-41 -39q-21 -14 -37 -14q-20 0 -33.5 13t-13.5 32z" />
<glyph unicode="&#xce;" horiz-adv-x="606" d="M92 1692q0 21 12 37q4 4 15.5 14.5t19 19t15.5 19.5l65 78q22 32 41 53q15 22 43 22q27 0 45 -22q22 -28 37 -53l68 -78q10 -14 49 -53q12 -16 12 -37t-14.5 -34t-34.5 -13q-26 0 -41 18q-7 9 -19 29t-22 34l-80 103l-82 -103q-8 -12 -19.5 -32.5t-19.5 -30.5 q-15 -18 -41 -18q-20 0 -34.5 13t-14.5 34zM246 51q0 10 3 45.5t3 55.5v1159q0 20 -3 55t-3 45q0 27 15.5 44.5t41.5 17.5q25 0 41 -18t16 -44q0 -10 -3 -45t-3 -55v-1159q0 -20 3 -55.5t3 -45.5q0 -26 -16 -43.5t-41 -17.5q-26 0 -41.5 17t-15.5 44z" />
<glyph unicode="&#xcf;" horiz-adv-x="606" d="M63 1796q0 32 22.5 54t53.5 22q32 0 54 -22t22 -54q0 -31 -22 -53.5t-54 -22.5q-31 0 -53.5 22.5t-22.5 53.5zM246 51q0 10 3 45.5t3 55.5v1159q0 20 -3 55t-3 45q0 27 15.5 44.5t41.5 17.5q25 0 41 -18t16 -44q0 -10 -3 -45t-3 -55v-1159q0 -20 3 -55.5t3 -45.5 q0 -26 -16 -43.5t-41 -17.5q-26 0 -41.5 17t-15.5 44zM393 1796q0 32 22.5 54t53.5 22q32 0 54 -22t22 -54q0 -31 -22 -53.5t-54 -22.5q-31 0 -53.5 22.5t-22.5 53.5z" />
<glyph unicode="&#xd0;" horiz-adv-x="1488" d="M49 731q0 23 17 38t43 15q8 0 39.5 -3t50.5 -3h108v525q0 20 -4 54t-4 44q0 27 16 44t45 17h359q292 0 454 -183.5t162 -526.5q0 -230 -71.5 -398t-214 -261t-344.5 -93h-343q-29 0 -46 17t-17 44q0 10 4 44.5t4 54.5v524h-108q-19 0 -50.5 -4t-39.5 -4q-26 0 -43 15 t-17 40zM408 90h297q247 0 387.5 175t140.5 487q0 299 -131.5 459.5t-374.5 160.5h-319v-594h153q19 0 50.5 4t39.5 4q25 0 41.5 -16t16.5 -39q0 -24 -16.5 -39.5t-41.5 -15.5q-8 0 -39.5 4t-50.5 4h-153v-594z" />
<glyph unicode="&#xd1;" horiz-adv-x="1511" d="M225 51q0 10 4 45.5t4 55.5v1151q0 19 -4 53.5t-4 44.5q0 26 17 43.5t43 17.5q25 0 38.5 -8t28.5 -31l713 -1073q86 -128 123 -196q-6 117 -6 170l-4 987q0 20 -3.5 55t-3.5 45q0 27 16 44.5t42 17.5t41.5 -17.5t15.5 -44.5q0 -10 -3 -45t-3 -55v-1159q0 -20 3 -55.5 t3 -45.5q0 -27 -15.5 -44t-41.5 -17q-18 0 -33 9.5t-22 19t-22 35t-22 36.5l-808 1221q8 -78 8 -150l4 -1009q0 -20 3 -55.5t3 -45.5q0 -27 -15.5 -44t-41.5 -17q-25 0 -41.5 17.5t-16.5 43.5zM465 1749q0 61 49 98q45 33 107 33q68 0 151 -55q54 -37 79 -48.5t50 -11.5 q45 0 45 31q0 5 -2 14.5t-2 14.5q0 23 14 38t39 15q22 0 38 -17t16 -44q0 -65 -56 -103q-39 -28 -100 -28q-71 0 -154 55q-56 36 -80 47.5t-49 11.5q-43 0 -43 -33q0 -4 2 -12.5t2 -13.5q0 -22 -14.5 -37.5t-38.5 -15.5q-23 0 -38 16.5t-15 44.5z" />
<glyph unicode="&#xd2;" horiz-adv-x="1583" d="M154 733q0 217 77.5 388t223 269.5t336.5 98.5t336.5 -98.5t222.5 -269.5t77 -388t-77 -388.5t-222.5 -270.5t-336.5 -99q-143 0 -263 57.5t-201.5 158.5t-127 240.5t-45.5 301.5zM258 733q0 -185 63 -335t186 -240t284 -90q122 0 223 52.5t168 142.5t104 211t37 259 q0 184 -62.5 334.5t-185.5 242t-284 91.5q-160 0 -283 -91.5t-186.5 -242t-63.5 -334.5zM532 1874q0 27 16.5 41t39.5 14q22 0 43 -18q7 -6 20.5 -24t28.5 -32l94 -88q10 -10 24.5 -21t18.5 -15q21 -17 21 -39q0 -19 -12.5 -32t-32.5 -13q-19 0 -37 14q-4 4 -18 17t-25 22 l-86 74q-15 14 -40 31.5t-32 23.5q-23 20 -23 45z" />
<glyph unicode="&#xd3;" horiz-adv-x="1583" d="M154 733q0 217 77.5 388t223 269.5t336.5 98.5t336.5 -98.5t222.5 -269.5t77 -388t-77 -388.5t-222.5 -270.5t-336.5 -99q-143 0 -263 57.5t-201.5 158.5t-127 240.5t-45.5 301.5zM258 733q0 -185 63 -335t186 -240t284 -90q122 0 223 52.5t168 142.5t104 211t37 259 q0 184 -62.5 334.5t-185.5 242t-284 91.5q-160 0 -283 -91.5t-186.5 -242t-63.5 -334.5zM737 1692q0 22 21 39q42 35 43 36l94 88q15 15 29.5 33t19.5 23q21 18 45 18q21 0 37 -14t16 -41q0 -26 -22 -45q-7 -6 -31 -23.5t-39 -31.5l-88 -74l-41 -39q-21 -14 -37 -14 q-20 0 -33.5 13t-13.5 32z" />
<glyph unicode="&#xd4;" horiz-adv-x="1583" d="M154 733q0 217 77.5 388t223 269.5t336.5 98.5t336.5 -98.5t222.5 -269.5t77 -388t-77 -388.5t-222.5 -270.5t-336.5 -99q-143 0 -263 57.5t-201.5 158.5t-127 240.5t-45.5 301.5zM258 733q0 -185 63 -335t186 -240t284 -90q122 0 223 52.5t168 142.5t104 211t37 259 q0 184 -62.5 334.5t-185.5 242t-284 91.5q-160 0 -283 -91.5t-186.5 -242t-63.5 -334.5zM582 1692q0 21 12 37q39 39 49 53l66 78q22 32 41 53q15 22 43 22q27 0 45 -22q17 -22 36 -53l68 -78q10 -14 49 -53q13 -17 13 -37q0 -21 -15 -34t-35 -13q-26 0 -41 18q-7 9 -19 29 t-22 34l-79 103l-82 -103q-8 -12 -19.5 -32.5t-19.5 -30.5q-15 -18 -41 -18q-20 0 -34.5 13t-14.5 34z" />
<glyph unicode="&#xd5;" horiz-adv-x="1583" d="M154 733q0 217 77.5 388t223 269.5t336.5 98.5t336.5 -98.5t222.5 -269.5t77 -388t-77 -388.5t-222.5 -270.5t-336.5 -99q-143 0 -263 57.5t-201.5 158.5t-127 240.5t-45.5 301.5zM258 733q0 -185 63 -335t186 -240t284 -90q122 0 223 52.5t168 142.5t104 211t37 259 q0 184 -62.5 334.5t-185.5 242t-284 91.5q-160 0 -283 -91.5t-186.5 -242t-63.5 -334.5zM502 1749q0 61 49 98q45 33 106 33q69 0 152 -55q54 -37 79 -48.5t50 -11.5q45 0 45 31q0 5 -2 14.5t-2 14.5q0 23 14 38t39 15q22 0 37.5 -17t15.5 -44q0 -66 -55 -103 q-39 -28 -100 -28q-71 0 -154 55q-56 36 -80 47.5t-49 11.5q-43 0 -43 -33q0 -4 2 -12.5t2 -13.5q0 -22 -14.5 -37.5t-38.5 -15.5q-23 0 -38 16.5t-15 44.5z" />
<glyph unicode="&#xd6;" horiz-adv-x="1583" d="M154 733q0 217 77.5 388t223 269.5t336.5 98.5t336.5 -98.5t222.5 -269.5t77 -388t-77 -388.5t-222.5 -270.5t-336.5 -99q-143 0 -263 57.5t-201.5 158.5t-127 240.5t-45.5 301.5zM258 733q0 -185 63 -335t186 -240t284 -90q122 0 223 52.5t168 142.5t104 211t37 259 q0 184 -62.5 334.5t-185.5 242t-284 91.5q-160 0 -283 -91.5t-186.5 -242t-63.5 -334.5zM551 1796q0 32 22.5 54t53.5 22q32 0 53.5 -22t21.5 -54q0 -31 -21.5 -53.5t-53.5 -22.5q-31 0 -53.5 22.5t-22.5 53.5zM881 1796q0 32 22 54t53 22q32 0 54 -22t22 -54 q0 -31 -22 -53.5t-54 -22.5q-31 0 -53 22.5t-22 53.5z" />
<glyph unicode="&#xd7;" horiz-adv-x="962" d="M106 227q0 18 23 45q5 5 31 25t37 33l217 221l-211 217q-11 13 -37.5 34t-30.5 25q-22 26 -22 43q0 24 15.5 41t39.5 17q25 0 43 -21q7 -6 16.5 -17.5t21.5 -26.5t19 -23l215 -224l213 224q13 13 32.5 37t25.5 30q21 21 45 21t39.5 -17t15.5 -41q0 -18 -25 -43 q-4 -4 -28.5 -25t-36.5 -34l-213 -221l215 -217q12 -13 36.5 -33.5t28.5 -24.5q25 -25 25 -45q0 -23 -15.5 -40t-39.5 -17q-25 0 -45 20q-6 6 -25.5 31.5t-32.5 38.5l-221 227l-215 -227q-7 -8 -27.5 -35t-29.5 -35q-17 -20 -43 -20q-24 0 -40 17t-16 40z" />
<glyph unicode="&#xd8;" horiz-adv-x="1583" d="M154 733q0 217 77.5 388t223 269.5t336.5 98.5q229 0 389 -141l12 18q11 14 27 43.5t22 38.5q14 22 45 22q24 0 39.5 -16.5t15.5 -38.5q0 -23 -12 -37q-8 -10 -28 -32t-31 -37l-21 -29q178 -213 178 -547q0 -217 -77 -388.5t-222.5 -270.5t-336.5 -99q-218 0 -373 127 l-2 -4q-11 -15 -26.5 -44.5t-22.5 -39.5q-16 -22 -45 -22q-24 0 -40 16.5t-16 38.5q0 21 13 37q7 10 27 33t30 37l12 16q-93 102 -143.5 247.5t-50.5 315.5zM258 733q0 -143 38.5 -269t111.5 -218l720 1022q-139 133 -337 133q-160 0 -283 -91.5t-186.5 -242t-63.5 -334.5z M469 182q136 -114 322 -114q122 0 223 52.5t169 142.5t105 211t37 259q0 283 -137 467z" />
<glyph unicode="&#xd9;" horiz-adv-x="1454" d="M203 1411q0 26 16 44t41 18q26 0 41.5 -17.5t15.5 -44.5q0 -10 -3 -45t-3 -55v-770q0 -217 112.5 -346t303.5 -129t303.5 129t112.5 346v770q0 20 -3 55t-3 45q0 27 15.5 44.5t41.5 17.5q25 0 41 -18t16 -44q0 -10 -4 -45t-4 -55v-770q0 -260 -140 -413t-376 -153 t-376 153t-140 413v770q0 20 -4 55t-4 45zM469 1874q0 27 16 41t39 14q22 0 43 -18q7 -6 20.5 -24t28.5 -32l95 -88q10 -10 24.5 -21t18.5 -15q20 -17 20 -39q0 -19 -12.5 -32t-32.5 -13q-19 0 -37 14q-4 4 -18 17t-25 22l-86 74q-15 14 -39.5 31.5t-31.5 23.5 q-23 20 -23 45z" />
<glyph unicode="&#xda;" horiz-adv-x="1454" d="M203 1411q0 26 16 44t41 18q26 0 41.5 -17.5t15.5 -44.5q0 -10 -3 -45t-3 -55v-770q0 -217 112.5 -346t303.5 -129t303.5 129t112.5 346v770q0 20 -3 55t-3 45q0 27 15.5 44.5t41.5 17.5q25 0 41 -18t16 -44q0 -10 -4 -45t-4 -55v-770q0 -260 -140 -413t-376 -153 t-376 153t-140 413v770q0 20 -4 55t-4 45zM674 1692q0 22 20 39q42 35 43 36l94 88q15 15 30 33t20 23q21 18 45 18q21 0 37 -14t16 -41q0 -25 -23 -45q-7 -6 -30.5 -23.5t-38.5 -31.5l-88 -74l-41 -39q-21 -14 -37 -14q-20 0 -33.5 13t-13.5 32z" />
<glyph unicode="&#xdb;" horiz-adv-x="1454" d="M203 1411q0 26 16 44t41 18q26 0 41.5 -17.5t15.5 -44.5q0 -10 -3 -45t-3 -55v-770q0 -217 112.5 -346t303.5 -129t303.5 129t112.5 346v770q0 20 -3 55t-3 45q0 27 15.5 44.5t41.5 17.5q25 0 41 -18t16 -44q0 -10 -4 -45t-4 -55v-770q0 -260 -140 -413t-376 -153 t-376 153t-140 413v770q0 20 -4 55t-4 45zM516 1692q0 21 12 37q4 4 15.5 14.5t19 19t15.5 19.5l65 78q22 32 41 53q15 22 43 22q27 0 45 -22q22 -28 37 -53l68 -78q10 -14 49 -53q12 -16 12 -37t-14.5 -34t-34.5 -13q-26 0 -41 18q-7 9 -19 29t-22 34l-80 103l-82 -103 q-8 -12 -19.5 -32.5t-19.5 -30.5q-15 -18 -41 -18q-20 0 -34.5 13t-14.5 34z" />
<glyph unicode="&#xdc;" horiz-adv-x="1454" d="M203 1411q0 26 16 44t41 18q26 0 41.5 -17.5t15.5 -44.5q0 -10 -3 -45t-3 -55v-770q0 -217 112.5 -346t303.5 -129t303.5 129t112.5 346v770q0 20 -3 55t-3 45q0 27 15.5 44.5t41.5 17.5q25 0 41 -18t16 -44q0 -10 -4 -45t-4 -55v-770q0 -260 -140 -413t-376 -153 t-376 153t-140 413v770q0 20 -4 55t-4 45zM487 1796q0 32 22.5 54t53.5 22q32 0 54 -22t22 -54q0 -31 -22 -53.5t-54 -22.5q-31 0 -53.5 22.5t-22.5 53.5zM817 1796q0 32 22.5 54t53.5 22q32 0 54 -22t22 -54q0 -31 -22 -53.5t-54 -22.5q-31 0 -53.5 22.5t-22.5 53.5z" />
<glyph unicode="&#xdd;" d="M55 1419q0 22 14 38t37 16q40 0 54 -37q4 -8 16 -39.5t21 -48.5l385 -744l383 744q9 18 20.5 50t13.5 36q17 39 56 39q23 0 37 -16t14 -38q0 -21 -10 -33q-4 -10 -22.5 -38t-26.5 -43l-416 -801v-352q0 -20 3 -55.5t3 -45.5q0 -26 -16 -43.5t-41 -17.5q-26 0 -42 17 t-16 44q0 10 3 45.5t3 55.5v354l-415 797q-8 17 -27 46.5t-23 36.5q-8 13 -8 33zM526 1692q0 22 21 39q42 35 43 36l94 88q15 15 29.5 33t19.5 23q21 18 45 18q21 0 37 -14t16 -41q0 -26 -22 -45q-7 -6 -31 -23.5t-39 -31.5l-88 -74l-41 -39q-21 -14 -37 -14q-20 0 -33.5 13 t-13.5 32z" />
<glyph unicode="&#xde;" horiz-adv-x="1265" d="M225 49q0 10 4 44.5t4 53.5v1196q0 20 -4 55.5t-4 45.5q0 26 16.5 43.5t41.5 17.5q26 0 41.5 -17t15.5 -44q0 -10 -3 -45.5t-3 -55.5v-165h336q217 0 350 -113.5t133 -306.5q0 -205 -134.5 -325t-348.5 -120h-336v-166q0 -19 3 -53.5t3 -44.5q0 -27 -15.5 -44t-41.5 -17 q-25 0 -41.5 17.5t-16.5 43.5zM334 403h336q173 0 278 94.5t105 260.5q0 163 -104.5 246t-278.5 83h-336v-684z" />
<glyph unicode="&#xdf;" horiz-adv-x="1177" d="M193 51q0 10 4 45.5t4 55.5l-2 905q0 198 97 316t265 118q157 0 252.5 -101.5t95.5 -256.5q0 -107 -50.5 -188t-129.5 -124q138 -23 230 -137t92 -260q0 -186 -118 -311t-306 -125q-97 0 -156 26q-47 21 -47 60q0 21 13 36t38 15q6 0 12.5 -2.5t15 -8t13.5 -8.5 q44 -24 70 -28q25 -4 61 -4q126 0 215.5 100t89.5 248q0 151 -93.5 242.5t-231.5 91.5q-13 0 -29 -2t-25 -2q-25 0 -40 13.5t-15 33.5q0 23 19.5 36t46.5 13q91 0 160 77.5t69 209.5q0 69 -25 127.5t-83.5 98.5t-143.5 40q-127 0 -195.5 -95t-68.5 -249v-905q0 -20 3 -55.5 t3 -45.5q0 -27 -14.5 -44t-40.5 -17q-24 0 -39.5 17t-15.5 44z" />
<glyph unicode="&#xe0;" horiz-adv-x="1013" d="M100 272q0 132 92 215t263 95q120 7 183.5 27t88.5 57v47q0 88 -62 147.5t-165 59.5q-82 0 -134.5 -33t-70.5 -90q-19 -58 -53 -58q-25 0 -39.5 16.5t-14.5 39.5q0 26 17 53q37 69 111 111t186 42q146 0 235.5 -83.5t89.5 -217.5v-561q0 -49 23 -49q6 0 18 4t21 4 q21 0 35 -14t14 -35q0 -26 -23.5 -42.5t-60.5 -16.5q-40 0 -70.5 23.5t-42.5 68.5q-113 -107 -290 -107q-155 0 -253 82.5t-98 214.5zM201 272q0 -93 69.5 -151t190.5 -58q77 0 148 25.5t118 71.5v411q-58 -58 -260 -75q-134 -12 -200 -70.5t-66 -153.5zM225 1421 q0 27 17 42.5t39 15.5q24 0 47 -23q7 -6 20.5 -23t28.5 -30l123 -121q27 -27 45 -39q20 -20 20 -43q0 -19 -13.5 -32t-33.5 -13q-21 0 -37 16q-6 4 -20 18.5t-25 24.5l-110 103l-78 59q-23 23 -23 45z" />
<glyph unicode="&#xe1;" horiz-adv-x="1013" d="M100 272q0 132 92 215t263 95q120 7 183.5 27t88.5 57v47q0 88 -62 147.5t-165 59.5q-82 0 -134.5 -33t-70.5 -90q-19 -58 -53 -58q-25 0 -39.5 16.5t-14.5 39.5q0 26 17 53q37 69 111 111t186 42q146 0 235.5 -83.5t89.5 -217.5v-561q0 -49 23 -49q6 0 18 4t21 4 q21 0 35 -14t14 -35q0 -26 -23.5 -42.5t-60.5 -16.5q-40 0 -70.5 23.5t-42.5 68.5q-113 -107 -290 -107q-155 0 -253 82.5t-98 214.5zM201 272q0 -93 69.5 -151t190.5 -58q77 0 148 25.5t118 71.5v411q-58 -58 -260 -75q-134 -12 -200 -70.5t-66 -153.5zM473 1204 q0 24 21 41q24 20 45 41l123 121q15 13 28.5 30t20.5 23q26 23 47 23q22 0 38.5 -15t16.5 -43q0 -26 -22 -45q-11 -10 -37.5 -28.5t-40.5 -30.5l-111 -104q-13 -10 -27 -25t-18 -18q-19 -15 -37 -15q-20 0 -33.5 13t-13.5 32z" />
<glyph unicode="&#xe2;" horiz-adv-x="1013" d="M100 272q0 132 92 215t263 95q120 7 183.5 27t88.5 57v47q0 88 -62 147.5t-165 59.5q-82 0 -134.5 -33t-70.5 -90q-19 -58 -53 -58q-25 0 -39.5 16.5t-14.5 39.5q0 26 17 53q37 69 111 111t186 42q146 0 235.5 -83.5t89.5 -217.5v-561q0 -49 23 -49q6 0 18 4t21 4 q21 0 35 -14t14 -35q0 -26 -23.5 -42.5t-60.5 -16.5q-40 0 -70.5 23.5t-42.5 68.5q-113 -107 -290 -107q-155 0 -253 82.5t-98 214.5zM201 272q0 -93 69.5 -151t190.5 -58q77 0 148 25.5t118 71.5v411q-58 -58 -260 -75q-134 -12 -200 -70.5t-66 -153.5zM283 1233 q0 23 14 37q8 9 24.5 25.5t26.5 29.5l88 105q5 7 12 17.5t13 19t12 16.5q21 24 47 24t47 -24q6 -8 12 -16.5t13 -19t12 -17.5l88 -105q12 -14 29 -31.5t22 -23.5q15 -20 15 -37q0 -22 -16 -35.5t-37 -13.5q-24 0 -41 20q-8 10 -20.5 31.5t-22.5 34.5l-101 131l-102 -131 q-6 -8 -20 -31t-23 -35q-17 -20 -41 -20q-21 0 -36 13.5t-15 35.5z" />
<glyph unicode="&#xe3;" horiz-adv-x="1013" d="M100 272q0 132 92 215t263 95q120 7 183.5 27t88.5 57v47q0 88 -62 147.5t-165 59.5q-82 0 -134.5 -33t-70.5 -90q-19 -58 -53 -58q-25 0 -39.5 16.5t-14.5 39.5q0 26 17 53q37 69 111 111t186 42q146 0 235.5 -83.5t89.5 -217.5v-561q0 -49 23 -49q6 0 18 4t21 4 q21 0 35 -14t14 -35q0 -26 -23.5 -42.5t-60.5 -16.5q-40 0 -70.5 23.5t-42.5 68.5q-113 -107 -290 -107q-155 0 -253 82.5t-98 214.5zM201 272q0 -93 69.5 -151t190.5 -58q77 0 148 25.5t118 71.5v411q-58 -58 -260 -75q-134 -12 -200 -70.5t-66 -153.5zM229 1264 q0 60 50 98q45 33 106 33q67 0 152 -56q56 -36 80 -47.5t49 -11.5q45 0 45 33q0 4 -2 12.5t-2 13.5q0 23 14 38.5t39 15.5q22 0 37.5 -17.5t15.5 -44.5q0 -65 -55 -102q-40 -29 -101 -29q-70 0 -153 55q-54 37 -79 48.5t-50 11.5q-20 0 -31.5 -8.5t-11.5 -22.5q0 -5 2 -14.5 t2 -14.5q0 -22 -14.5 -37.5t-38.5 -15.5q-23 0 -38.5 17t-15.5 45z" />
<glyph unicode="&#xe4;" horiz-adv-x="1013" d="M100 272q0 132 92 215t263 95q120 7 183.5 27t88.5 57v47q0 88 -62 147.5t-165 59.5q-82 0 -134.5 -33t-70.5 -90q-19 -58 -53 -58q-25 0 -39.5 16.5t-14.5 39.5q0 26 17 53q37 69 111 111t186 42q146 0 235.5 -83.5t89.5 -217.5v-561q0 -49 23 -49q6 0 18 4t21 4 q21 0 35 -14t14 -35q0 -26 -23.5 -42.5t-60.5 -16.5q-40 0 -70.5 23.5t-42.5 68.5q-113 -107 -290 -107q-155 0 -253 82.5t-98 214.5zM201 272q0 -93 69.5 -151t190.5 -58q77 0 148 25.5t118 71.5v411q-58 -58 -260 -75q-134 -12 -200 -70.5t-66 -153.5zM279 1298 q0 32 22 54t53 22q32 0 54 -22t22 -54q0 -31 -22 -53t-54 -22q-31 0 -53 22t-22 53zM608 1298q0 32 23 54t55 22q31 0 53.5 -22t22.5 -54q0 -31 -22.5 -53t-53.5 -22q-32 0 -55 22t-23 53z" />
<glyph unicode="&#xe5;" horiz-adv-x="1013" d="M100 272q0 132 92 215t263 95q120 7 183.5 27t88.5 57v47q0 88 -62 147.5t-165 59.5q-82 0 -134.5 -33t-70.5 -90q-19 -58 -53 -58q-25 0 -39.5 16.5t-14.5 39.5q0 26 17 53q37 69 111 111t186 42q146 0 235.5 -83.5t89.5 -217.5v-561q0 -49 23 -49q6 0 18 4t21 4 q21 0 35 -14t14 -35q0 -26 -23.5 -42.5t-60.5 -16.5q-40 0 -70.5 23.5t-42.5 68.5q-113 -107 -290 -107q-155 0 -253 82.5t-98 214.5zM201 272q0 -93 69.5 -151t190.5 -58q77 0 148 25.5t118 71.5v411q-58 -58 -260 -75q-134 -12 -200 -70.5t-66 -153.5zM303 1407 q0 91 63 155t154 64q89 0 153 -64t64 -155q0 -92 -63.5 -155.5t-153.5 -63.5q-91 0 -154 63.5t-63 155.5zM379 1407q0 -63 40.5 -106.5t100.5 -43.5t101 43.5t41 106.5q0 62 -41 105.5t-101 43.5t-100.5 -43.5t-40.5 -105.5z" />
<glyph unicode="&#xe6;" horiz-adv-x="1673" d="M100 276q0 134 90.5 214t262.5 92q57 4 101 12.5t86 26t66 49t25 75.5q-2 70 -65 122.5t-160 52.5q-169 0 -207 -123q-19 -58 -55 -58q-25 0 -38 16t-13 40q0 13 6 28q27 77 104.5 127.5t202.5 50.5q111 0 187.5 -49t107.5 -135q59 85 146 134.5t188 49.5 q123 0 218.5 -63t145 -166t49.5 -227q0 -84 -78 -84h-682q9 -174 103 -286t244 -112q99 0 171.5 39.5t104.5 114.5q21 53 57 53q24 0 38 -15t14 -36q0 -25 -19 -53q-119 -191 -364 -191q-202 0 -322 152q-136 -152 -354 -152q-160 0 -260.5 86.5t-100.5 214.5zM201 276 q0 -94 74.5 -154.5t195.5 -60.5q178 0 299 134q-72 129 -72 305q0 42 4 69q-70 -58 -239 -73q-262 -22 -262 -220zM791 545h665q-1 70 -21 135t-58 118t-101 85t-141 32q-138 0 -233.5 -102.5t-110.5 -267.5z" />
<glyph unicode="&#xe7;" horiz-adv-x="1079" d="M133 489q0 140 53 255t157.5 186t242.5 71q223 0 338 -161q30 -37 30 -66q0 -21 -15.5 -36t-39.5 -15q-33 0 -57 53q-73 139 -254 139q-108 0 -190 -60t-123.5 -156t-41.5 -210q0 -115 41.5 -211.5t123 -155.5t186.5 -59q101 0 170 40.5t102 113.5q21 53 57 53 q23 0 37.5 -14.5t14.5 -36.5q0 -34 -31 -72q-106 -149 -297 -167q-14 -60 -51 -97q12 2 59 -6q70 -12 116 -61.5t46 -116.5q0 -90 -67.5 -147.5t-164.5 -57.5q-126 0 -202 76q-27 27 -27 49q0 18 12.5 31.5t32.5 13.5q31 0 45 -26q43 -66 139 -66q61 0 103.5 35t42.5 90 q0 51 -38 87t-101 36q-27 0 -48.5 -6.5t-33.5 -6.5q-19 0 -31 12t-12 29q0 30 30 43q49 26 68 86q-128 7 -225 77.5t-147 183.5t-50 251z" />
<glyph unicode="&#xe8;" horiz-adv-x="1128" d="M131 494q0 217 127.5 362t323.5 145q186 0 301.5 -131.5t115.5 -322.5q0 -44 -19 -65t-60 -21h-691q9 -174 107.5 -286t253.5 -112q96 0 169 39.5t105 114.5q21 53 58 53q24 0 38.5 -15t14.5 -36t-21 -53q-57 -91 -149 -141t-213 -50q-203 0 -332 145.5t-129 373.5z M231 545h674q1 71 -19.5 137t-60 119t-102.5 85t-141 32q-149 0 -244.5 -105t-106.5 -268zM299 1421q0 28 16.5 43t38.5 15q24 0 47 -23q7 -6 21.5 -23t28.5 -30l122 -121q27 -27 45 -39q21 -21 21 -43q0 -19 -13.5 -32t-33.5 -13q-21 0 -37 16q-6 4 -20 18.5t-25 24.5 l-111 103l-77 59q-23 23 -23 45z" />
<glyph unicode="&#xe9;" horiz-adv-x="1128" d="M131 494q0 217 127.5 362t323.5 145q186 0 301.5 -131.5t115.5 -322.5q0 -44 -19 -65t-60 -21h-691q9 -174 107.5 -286t253.5 -112q96 0 169 39.5t105 114.5q21 53 58 53q24 0 38.5 -15t14.5 -36t-21 -53q-57 -91 -149 -141t-213 -50q-203 0 -332 145.5t-129 373.5z M231 545h674q1 71 -19.5 137t-60 119t-102.5 85t-141 32q-149 0 -244.5 -105t-106.5 -268zM549 1204q0 24 20 41q24 20 45 41l123 121q15 13 28.5 30t20.5 23q26 23 48 23t38.5 -15t16.5 -43q0 -25 -23 -45q-11 -10 -37.5 -28.5t-40.5 -30.5l-110 -104q-13 -10 -27 -25 t-18 -18q-19 -15 -37 -15q-20 0 -33.5 13t-13.5 32z" />
<glyph unicode="&#xea;" horiz-adv-x="1128" d="M131 494q0 217 127.5 362t323.5 145q186 0 301.5 -131.5t115.5 -322.5q0 -44 -19 -65t-60 -21h-691q9 -174 107.5 -286t253.5 -112q96 0 169 39.5t105 114.5q21 53 58 53q24 0 38.5 -15t14.5 -36t-21 -53q-57 -91 -149 -141t-213 -50q-203 0 -332 145.5t-129 373.5z M231 545h674q1 71 -19.5 137t-60 119t-102.5 85t-141 32q-149 0 -244.5 -105t-106.5 -268zM358 1233q0 22 15 37q7 9 23.5 25.5t27.5 29.5l88 105q5 7 12 17.5t13 19t12 16.5q21 24 47 24t47 -24q6 -8 12 -16.5t13 -19t12 -17.5l88 -105q12 -14 29 -31.5t22 -23.5 q15 -20 15 -37q0 -22 -16 -35.5t-38 -13.5q-24 0 -41 20q-8 10 -20.5 31.5t-22.5 34.5l-100 131l-102 -131q-6 -8 -20 -31t-23 -35q-17 -20 -41 -20q-21 0 -36.5 13.5t-15.5 35.5z" />
<glyph unicode="&#xeb;" horiz-adv-x="1128" d="M131 494q0 217 127.5 362t323.5 145q186 0 301.5 -131.5t115.5 -322.5q0 -44 -19 -65t-60 -21h-691q9 -174 107.5 -286t253.5 -112q96 0 169 39.5t105 114.5q21 53 58 53q24 0 38.5 -15t14.5 -36t-21 -53q-57 -91 -149 -141t-213 -50q-203 0 -332 145.5t-129 373.5z M231 545h674q1 71 -19.5 137t-60 119t-102.5 85t-141 32q-149 0 -244.5 -105t-106.5 -268zM354 1298q0 32 22.5 54t53.5 22q32 0 54 -22t22 -54q0 -31 -22 -53t-54 -22q-31 0 -53.5 22t-22.5 53zM684 1298q0 32 23 54t55 22q31 0 53.5 -22t22.5 -54q0 -31 -22.5 -53 t-53.5 -22q-32 0 -55 22t-23 53z" />
<glyph unicode="&#xec;" horiz-adv-x="520" d="M-35 1421q0 28 16.5 43t38.5 15q25 0 48 -23q7 -6 20.5 -23t28.5 -30l123 -121q27 -27 45 -39q20 -20 20 -43q0 -19 -13.5 -32t-33.5 -13q-21 0 -37 16q-6 4 -20 18.5t-25 24.5l-110 103l-78 59q-23 23 -23 45zM203 47q0 14 4 46t4 50v680q0 18 -4 50.5t-4 46.5 q0 24 16.5 40.5t40.5 16.5t39.5 -16.5t15.5 -40.5q0 -14 -3 -46.5t-3 -50.5v-680q0 -18 3 -50t3 -46q0 -24 -15.5 -40.5t-39.5 -16.5t-40.5 16.5t-16.5 40.5z" />
<glyph unicode="&#xed;" horiz-adv-x="520" d="M203 47q0 14 4 46t4 50v680q0 18 -4 50.5t-4 46.5q0 24 16.5 40.5t40.5 16.5t39.5 -16.5t15.5 -40.5q0 -14 -3 -46.5t-3 -50.5v-680q0 -18 3 -50t3 -46q0 -24 -15.5 -40.5t-39.5 -16.5t-40.5 16.5t-16.5 40.5zM213 1204q0 24 20 41q30 25 46 41l122 121q14 13 28.5 30 t21.5 23q26 23 47 23q22 0 38.5 -15t16.5 -43q0 -25 -23 -45q-11 -10 -37 -29t-40 -30l-111 -104q-13 -10 -27 -25t-18 -18q-19 -15 -37 -15q-20 0 -33.5 13t-13.5 32z" />
<glyph unicode="&#xee;" horiz-adv-x="520" d="M23 1233q0 23 14 37q7 9 24 25.5t27 29.5l88 105q5 7 12 17.5t13 19t12 16.5q21 24 47 24t47 -24q6 -8 12 -16.5t13 -19t12 -17.5l88 -105q12 -14 29 -31.5t22 -23.5q15 -20 15 -37q0 -22 -16 -35.5t-38 -13.5q-24 0 -41 20q-8 10 -20.5 31.5t-22.5 34.5l-100 131 l-102 -131q-6 -8 -20 -31t-23 -35q-17 -20 -41 -20q-21 0 -36 13.5t-15 35.5zM203 47q0 14 4 46t4 50v680q0 18 -4 50.5t-4 46.5q0 24 16.5 40.5t40.5 16.5t39.5 -16.5t15.5 -40.5q0 -14 -3 -46.5t-3 -50.5v-680q0 -18 3 -50t3 -46q0 -24 -15.5 -40.5t-39.5 -16.5 t-40.5 16.5t-16.5 40.5z" />
<glyph unicode="&#xef;" horiz-adv-x="520" d="M18 1298q0 32 22.5 54t53.5 22q32 0 54 -22t22 -54q0 -31 -22 -53t-54 -22q-31 0 -53.5 22t-22.5 53zM203 47q0 14 4 46t4 50v680q0 18 -4 50.5t-4 46.5q0 24 16.5 40.5t40.5 16.5t39.5 -16.5t15.5 -40.5q0 -14 -3 -46.5t-3 -50.5v-680q0 -18 3 -50t3 -46 q0 -24 -15.5 -40.5t-39.5 -16.5t-40.5 16.5t-16.5 40.5zM348 1298q0 32 23 54t55 22q31 0 53.5 -22t22.5 -54q0 -31 -22.5 -53t-53.5 -22q-32 0 -55 22t-23 53z" />
<glyph unicode="&#xf0;" horiz-adv-x="1183" d="M133 489q0 103 31 195.5t88 163t143.5 112t190.5 41.5q103 0 188.5 -38t143.5 -107q-57 227 -220 387l-88 -49q-17 -8 -40.5 -25t-24.5 -18q-20 -10 -33 -10q-19 0 -33 13.5t-14 33.5q0 26 31 43q9 5 31 14t40 19l66 36q-59 44 -127 70q-10 4 -21.5 6.5t-24 4.5t-18.5 3 q-53 10 -53 52q0 22 15 34.5t34 12.5q23 0 74 -19q116 -45 203 -118l92 51q15 8 36.5 24.5t28.5 20.5q13 8 31 8q20 0 34.5 -12.5t14.5 -32.5q0 -32 -30 -45q-9 -5 -31 -15t-41 -20l-72 -39q127 -134 194.5 -314t67.5 -378q0 -103 -17.5 -194.5t-54 -169.5t-89 -134 t-127.5 -87.5t-166 -31.5q-104 0 -190.5 41.5t-143.5 112t-88 163t-31 195.5zM233 489q0 -113 41 -209t122.5 -156.5t189.5 -60.5q81 0 145 32t104 83.5t67 122.5t37.5 143.5t10.5 151.5q0 77 -8 137q-58 86 -146.5 135.5t-191.5 49.5q-116 0 -202.5 -61.5t-127.5 -157.5 t-41 -210z" />
<glyph unicode="&#xf1;" horiz-adv-x="1150" d="M193 907q0 26 16 43t41 17t40 -17t15 -43v-59q123 153 316 153q154 0 247 -103t93 -267v-488q0 -18 3 -50t3 -46q0 -24 -16 -40.5t-40 -16.5t-40.5 16.5t-16.5 40.5q0 14 4 46t4 50v478q0 134 -71 214t-193 80q-88 0 -164 -46t-129 -124v-602q0 -18 3 -50t3 -46 q0 -24 -15.5 -40.5t-39.5 -16.5t-39.5 16.5t-15.5 40.5q0 14 3 46t3 50v668q0 18 -7 53t-7 43zM299 1264q0 61 49 98q45 33 107 33q66 0 151 -56q56 -36 80 -47.5t49 -11.5q45 0 45 33q0 4 -2 12.5t-2 13.5q0 23 14 38.5t39 15.5q22 0 38 -17.5t16 -44.5q0 -64 -56 -102 q-40 -29 -100 -29q-71 0 -154 55q-54 37 -79 48.5t-50 11.5q-20 0 -31.5 -8.5t-11.5 -22.5q0 -5 2.5 -14.5t2.5 -14.5q0 -22 -15 -37.5t-39 -15.5q-23 0 -38 17t-15 45z" />
<glyph unicode="&#xf2;" horiz-adv-x="1171" d="M133 487q0 103 31 196t88 164t143.5 112.5t190.5 41.5q139 0 243.5 -72t156.5 -187.5t52 -254.5t-52 -254t-156.5 -186.5t-243.5 -71.5q-104 0 -190.5 41.5t-143.5 112t-88 163t-31 195.5zM233 487q0 -113 41 -208.5t122.5 -155.5t189.5 -60q109 0 191 60t122.5 155.5 t40.5 208.5q0 114 -40.5 210t-123 157t-190.5 61q-107 0 -189 -61t-123 -157.5t-41 -209.5zM291 1421q0 28 16.5 43t38.5 15q24 0 47 -23q7 -6 20.5 -23t28.5 -30l123 -121q27 -27 45 -39q21 -21 21 -43q0 -19 -13.5 -32t-33.5 -13q-21 0 -37 16q-6 4 -20 18.5t-25 24.5 l-111 103l-78 59q-22 22 -22 45z" />
<glyph unicode="&#xf3;" horiz-adv-x="1171" d="M133 487q0 103 31 196t88 164t143.5 112.5t190.5 41.5q139 0 243.5 -72t156.5 -187.5t52 -254.5t-52 -254t-156.5 -186.5t-243.5 -71.5q-104 0 -190.5 41.5t-143.5 112t-88 163t-31 195.5zM233 487q0 -113 41 -208.5t122.5 -155.5t189.5 -60q109 0 191 60t122.5 155.5 t40.5 208.5q0 114 -40.5 210t-123 157t-190.5 61q-107 0 -189 -61t-123 -157.5t-41 -209.5zM541 1204q0 24 20 41q24 20 45 41l123 121q15 13 28.5 30t20.5 23q26 23 47 23q22 0 39 -15.5t17 -42.5q0 -25 -23 -45q-11 -10 -37.5 -28.5t-40.5 -30.5l-110 -104 q-13 -10 -27 -25t-18 -18q-19 -15 -37 -15q-20 0 -33.5 13t-13.5 32z" />
<glyph unicode="&#xf4;" horiz-adv-x="1171" d="M133 487q0 103 31 196t88 164t143.5 112.5t190.5 41.5q139 0 243.5 -72t156.5 -187.5t52 -254.5t-52 -254t-156.5 -186.5t-243.5 -71.5q-104 0 -190.5 41.5t-143.5 112t-88 163t-31 195.5zM233 487q0 -113 41 -208.5t122.5 -155.5t189.5 -60q109 0 191 60t122.5 155.5 t40.5 208.5q0 114 -40.5 210t-123 157t-190.5 61q-107 0 -189 -61t-123 -157.5t-41 -209.5zM350 1233q0 22 15 37q7 9 23.5 25.5t27.5 29.5l88 105q5 7 12 17.5t13 19t12 16.5q21 24 47 24t47 -24q6 -8 12 -16.5t13 -19t12 -17.5l88 -105q12 -14 29 -31.5t22 -23.5 q14 -19 14 -37q0 -22 -16 -35.5t-37 -13.5q-24 0 -41 20q-8 10 -20.5 31.5t-22.5 34.5l-100 131l-103 -131q-6 -8 -20 -31t-23 -35q-17 -20 -41 -20q-21 0 -36 13.5t-15 35.5z" />
<glyph unicode="&#xf5;" horiz-adv-x="1171" d="M133 487q0 103 31 196t88 164t143.5 112.5t190.5 41.5q139 0 243.5 -72t156.5 -187.5t52 -254.5t-52 -254t-156.5 -186.5t-243.5 -71.5q-104 0 -190.5 41.5t-143.5 112t-88 163t-31 195.5zM233 487q0 -113 41 -208.5t122.5 -155.5t189.5 -60q109 0 191 60t122.5 155.5 t40.5 208.5q0 114 -40.5 210t-123 157t-190.5 61q-107 0 -189 -61t-123 -157.5t-41 -209.5zM295 1264q0 61 49 98q45 33 107 33q66 0 151 -56q56 -36 80 -47.5t49 -11.5q45 0 45 33q0 4 -2 12.5t-2 13.5q0 23 14 38.5t39 15.5q22 0 38 -17.5t16 -44.5q0 -64 -56 -102 q-40 -29 -100 -29q-71 0 -154 55q-54 37 -79 48.5t-50 11.5q-20 0 -31.5 -8.5t-11.5 -22.5q0 -5 2 -14.5t2 -14.5q0 -22 -14.5 -37.5t-38.5 -15.5q-23 0 -38 17t-15 45z" />
<glyph unicode="&#xf6;" horiz-adv-x="1171" d="M133 487q0 103 31 196t88 164t143.5 112.5t190.5 41.5q139 0 243.5 -72t156.5 -187.5t52 -254.5t-52 -254t-156.5 -186.5t-243.5 -71.5q-104 0 -190.5 41.5t-143.5 112t-88 163t-31 195.5zM233 487q0 -113 41 -208.5t122.5 -155.5t189.5 -60q109 0 191 60t122.5 155.5 t40.5 208.5q0 114 -40.5 210t-123 157t-190.5 61q-107 0 -189 -61t-123 -157.5t-41 -209.5zM346 1298q0 32 22.5 54t53.5 22q32 0 54 -22t22 -54q0 -31 -22 -53t-54 -22q-31 0 -53.5 22t-22.5 53zM676 1298q0 32 23 54t55 22q31 0 53 -22t22 -54q0 -31 -22 -53t-53 -22 q-32 0 -55 22t-23 53z" />
<glyph unicode="&#xf7;" horiz-adv-x="962" d="M127 625q0 25 15.5 40t41.5 15q8 0 40 -3t50 -3h414q18 0 50 3t40 3q26 0 42 -15t16 -40q0 -24 -16 -40t-42 -16q-8 0 -40 4.5t-50 4.5h-414q-18 0 -50 -4.5t-40 -4.5q-26 0 -41.5 16t-15.5 40zM401 324q0 35 24 58.5t58 23.5q35 0 59.5 -23.5t24.5 -58.5 q0 -34 -24.5 -57t-59.5 -23q-34 0 -58 23t-24 57zM401 909q0 34 24 57t58 23q35 0 59.5 -23t24.5 -57q0 -35 -24.5 -58.5t-59.5 -23.5q-34 0 -58 23.5t-24 58.5z" />
<glyph unicode="&#xf8;" horiz-adv-x="1187" d="M137 487q0 103 31 196t88 164t143.5 112.5t190.5 41.5q165 0 284 -106l3 2q11 14 29.5 44t23.5 38q16 22 45 22q24 0 39.5 -16.5t15.5 -38.5q0 -23 -12 -37q-7 -8 -31 -30t-35 -37l-16 -17q106 -143 106 -338q0 -139 -52 -254t-156.5 -186.5t-243.5 -71.5 q-172 0 -291 113q-10 -14 -25.5 -39.5t-21.5 -34.5q-16 -22 -43 -22q-24 0 -40.5 16.5t-16.5 38.5q0 19 12 37q7 9 30.5 31.5t34.5 38.5l7 6q-99 141 -99 327zM236 487q0 -153 65 -260l514 598q-93 90 -227 90q-107 0 -189 -61t-122.5 -157.5t-40.5 -209.5zM356 156 q93 -93 232 -93q109 0 191 60t122.5 155.5t40.5 208.5q0 154 -72 267z" />
<glyph unicode="&#xf9;" horiz-adv-x="1150" d="M182 922q0 24 17 40.5t41 16.5t39.5 -16.5t15.5 -40.5q0 -14 -3 -46.5t-3 -50.5v-469q0 -135 72 -215t200 -80q174 0 283 136v628q0 18 -3 50.5t-3 46.5q0 24 16.5 40.5t40.5 16.5t39.5 -16.5t15.5 -40.5q0 -14 -3 -46.5t-3 -50.5v-680q0 -19 6 -53.5t6 -42.5 q0 -26 -16 -42.5t-41 -16.5t-40 16.5t-15 42.5v55q-116 -129 -299 -129q-160 0 -257.5 104t-97.5 269v477q0 18 -4 50.5t-4 46.5zM274 1421q0 27 17 42.5t39 15.5q24 0 47 -23q7 -6 20.5 -23t28.5 -30l123 -121q27 -27 45 -39q20 -20 20 -43q0 -19 -13.5 -32t-33.5 -13 q-21 0 -37 16q-6 4 -20 18.5t-25 24.5l-110 103l-78 59q-23 23 -23 45z" />
<glyph unicode="&#xfa;" horiz-adv-x="1150" d="M182 922q0 24 17 40.5t41 16.5t39.5 -16.5t15.5 -40.5q0 -14 -3 -46.5t-3 -50.5v-469q0 -135 72 -215t200 -80q174 0 283 136v628q0 18 -3 50.5t-3 46.5q0 24 16.5 40.5t40.5 16.5t39.5 -16.5t15.5 -40.5q0 -14 -3 -46.5t-3 -50.5v-680q0 -19 6 -53.5t6 -42.5 q0 -26 -16 -42.5t-41 -16.5t-40 16.5t-15 42.5v55q-116 -129 -299 -129q-160 0 -257.5 104t-97.5 269v477q0 18 -4 50.5t-4 46.5zM522 1204q0 24 21 41q24 20 45 41l123 121q15 13 28.5 30t20.5 23q26 23 47 23q22 0 38.5 -15t16.5 -43q0 -26 -22 -45q-11 -10 -37.5 -28.5 t-40.5 -30.5l-111 -104q-13 -10 -27 -25t-18 -18q-19 -15 -37 -15q-20 0 -33.5 13t-13.5 32z" />
<glyph unicode="&#xfb;" horiz-adv-x="1150" d="M182 922q0 24 17 40.5t41 16.5t39.5 -16.5t15.5 -40.5q0 -14 -3 -46.5t-3 -50.5v-469q0 -135 72 -215t200 -80q174 0 283 136v628q0 18 -3 50.5t-3 46.5q0 24 16.5 40.5t40.5 16.5t39.5 -16.5t15.5 -40.5q0 -14 -3 -46.5t-3 -50.5v-680q0 -19 6 -53.5t6 -42.5 q0 -26 -16 -42.5t-41 -16.5t-40 16.5t-15 42.5v55q-116 -129 -299 -129q-160 0 -257.5 104t-97.5 269v477q0 18 -4 50.5t-4 46.5zM332 1233q0 23 14 37q8 9 24.5 25.5t26.5 29.5l88 105q5 7 12 17.5t13 19t12 16.5q21 24 47 24t47 -24q6 -8 12 -16.5t13 -19t12 -17.5 l88 -105q11 -14 28.5 -31t23.5 -24q14 -19 14 -37q0 -22 -16 -35.5t-37 -13.5q-24 0 -41 20q-8 10 -20.5 31.5t-22.5 34.5l-101 131l-102 -131q-6 -8 -20 -31t-23 -35q-17 -20 -41 -20q-21 0 -36 13.5t-15 35.5z" />
<glyph unicode="&#xfc;" horiz-adv-x="1150" d="M182 922q0 24 17 40.5t41 16.5t39.5 -16.5t15.5 -40.5q0 -14 -3 -46.5t-3 -50.5v-469q0 -135 72 -215t200 -80q174 0 283 136v628q0 18 -3 50.5t-3 46.5q0 24 16.5 40.5t40.5 16.5t39.5 -16.5t15.5 -40.5q0 -14 -3 -46.5t-3 -50.5v-680q0 -19 6 -53.5t6 -42.5 q0 -26 -16 -42.5t-41 -16.5t-40 16.5t-15 42.5v55q-116 -129 -299 -129q-160 0 -257.5 104t-97.5 269v477q0 18 -4 50.5t-4 46.5zM328 1298q0 32 22 54t53 22q32 0 54 -22t22 -54q0 -31 -22 -53t-54 -22q-31 0 -53 22t-22 53zM657 1298q0 32 23 54t55 22q31 0 53.5 -22 t22.5 -54q0 -31 -22.5 -53t-53.5 -22q-32 0 -55 22t-23 53z" />
<glyph unicode="&#xfd;" horiz-adv-x="937" d="M55 924q0 23 16 38t40 15q40 0 49 -35q4 -11 12.5 -44.5t13.5 -47.5l240 -676q16 -46 31 -102l295 778q7 17 15 50t11 42q14 35 51 35q23 0 38.5 -16t15.5 -39q0 -14 -9 -35q-23 -41 -34 -70l-437 -1139q-56 -143 -210 -143q-46 0 -74.5 18t-28.5 48q0 20 15.5 35.5 t37.5 15.5q17 0 38.5 -11.5t41.5 -11.5q66 0 101 92l100 269q-49 4 -62 41q-3 9 -8.5 41.5t-13.5 54.5l-242 688q-7 19 -17.5 41t-12.5 27q-13 26 -13 41zM422 1204q0 24 20 41q24 20 45 41l123 121q15 13 28.5 30t20.5 23q26 23 48 23t38.5 -15t16.5 -43q0 -25 -23 -45 q-11 -10 -37 -29t-40 -30l-111 -104q-13 -10 -27 -25t-18 -18q-19 -15 -37 -15q-20 0 -33.5 13t-13.5 32z" />
<glyph unicode="&#xfe;" horiz-adv-x="1134" d="M193 -369q0 13 4 45.5t4 49.5v1611q0 17 -4 49.5t-4 45.5q0 25 16 41t41 16t40 -16t15 -41q0 -13 -3 -45.5t-3 -49.5v-452q104 116 272 116q128 0 227 -67.5t151 -181.5t52 -256q0 -144 -52 -261.5t-154 -188.5t-236 -71q-153 0 -260 111v-360q0 -17 3 -49.5t3 -45.5 q0 -25 -15 -41t-40 -16t-41 16t-16 41zM299 178q88 -115 252 -115q156 0 254 122t98 311q0 178 -91.5 298.5t-246.5 120.5q-168 0 -266 -127v-610z" />
<glyph unicode="&#xff;" horiz-adv-x="937" d="M55 924q0 23 16 38t40 15q40 0 49 -35q4 -11 12.5 -44.5t13.5 -47.5l240 -676q16 -46 31 -102l295 778q7 17 15 50t11 42q14 35 51 35q23 0 38.5 -16t15.5 -39q0 -14 -9 -35q-23 -41 -34 -70l-437 -1139q-56 -143 -210 -143q-46 0 -74.5 18t-28.5 48q0 20 15.5 35.5 t37.5 15.5q17 0 38.5 -11.5t41.5 -11.5q66 0 101 92l100 269q-49 4 -62 41q-3 9 -8.5 41.5t-13.5 54.5l-242 688q-7 19 -17.5 41t-12.5 27q-13 26 -13 41zM227 1298q0 32 22.5 54t53.5 22q32 0 54 -22t22 -54q0 -31 -22 -53t-54 -22q-31 0 -53.5 22t-22.5 53zM557 1298 q0 32 23 54t55 22q31 0 53.5 -22t22.5 -54q0 -31 -22.5 -53t-53.5 -22q-32 0 -55 22t-23 53z" />
<glyph unicode="&#x152;" horiz-adv-x="2004" d="M154 733q0 217 77.5 388t223 269.5t336.5 98.5q94 0 188 -33q153 6 233 6h611q24 0 39.5 -14.5t15.5 -38.5q0 -20 -16 -33.5t-39 -13.5q-11 0 -40 6t-52 6h-601q117 -85 189.5 -225t89.5 -318h213q17 0 45 3.5t35 3.5q24 0 39.5 -15t15.5 -37q0 -23 -15 -37t-40 -14 q-7 0 -35 2t-45 2h-209v-6q0 -213 -78.5 -382.5t-216.5 -262.5h660q24 0 52 6t40 6q22 0 38.5 -13.5t16.5 -33.5q0 -24 -15.5 -38.5t-39.5 -14.5h-670q-44 0 -132 1t-110 1q-86 -27 -167 -27q-143 0 -263 57.5t-201.5 158.5t-127 240.5t-45.5 301.5zM254 733q0 -138 37 -259 t105 -211t169 -142.5t223 -52.5q161 0 282.5 90t183 240t61.5 335q0 184 -61.5 334.5t-183 242t-282.5 91.5q-121 0 -222.5 -53t-169 -144t-105 -212.5t-37.5 -258.5z" />
<glyph unicode="&#x153;" horiz-adv-x="1900" d="M133 487q0 139 52 254.5t156 187.5t241 72q145 0 247 -78t150 -210q48 135 148.5 211.5t242.5 76.5q186 0 299 -132.5t113 -323.5q0 -84 -80 -84h-678q9 -173 106 -285.5t244 -112.5q99 0 172 39.5t105 114.5q21 53 57 53q23 0 37 -15t14 -36q0 -26 -18 -53 q-119 -191 -365 -191q-139 0 -244 77t-155 210q-51 -134 -151.5 -210.5t-243.5 -76.5q-137 0 -241 71.5t-156 186.5t-52 254zM231 487q0 -113 40 -208.5t121 -155.5t188 -60q106 0 185.5 60t119 155.5t39.5 208.5q0 114 -39.5 210t-119 157t-185.5 61q-107 0 -188 -61 t-121 -157.5t-40 -209.5zM1026 545h662q0 70 -19.5 135.5t-57.5 119t-100.5 86t-140.5 32.5q-148 0 -240.5 -105t-103.5 -268z" />
<glyph unicode="&#x178;" d="M55 1419q0 22 14 38t37 16q40 0 54 -37q4 -8 16 -39.5t21 -48.5l385 -744l383 744q9 18 20.5 50t13.5 36q17 39 56 39q23 0 37 -16t14 -38q0 -21 -10 -33q-4 -10 -22.5 -38t-26.5 -43l-416 -801v-352q0 -20 3 -55.5t3 -45.5q0 -26 -16 -43.5t-41 -17.5q-26 0 -42 17 t-16 44q0 10 3 45.5t3 55.5v354l-415 797q-8 17 -27 46.5t-23 36.5q-8 13 -8 33zM340 1796q0 32 22.5 54t53.5 22q32 0 54 -22t22 -54q0 -31 -22 -53.5t-54 -22.5q-31 0 -53.5 22.5t-22.5 53.5zM670 1796q0 32 22 54t53 22q32 0 54 -22t22 -54q0 -31 -22 -53.5t-54 -22.5 q-31 0 -53 22.5t-22 53.5z" />
<glyph unicode="&#x2c6;" horiz-adv-x="802" d="M164 1233q0 23 14 37q8 9 24.5 25.5t26.5 29.5l88 105q5 7 12 17.5t13 19t12 16.5q21 24 47 24q27 0 48 -24q8 -10 19.5 -28t16.5 -25l88 -105q11 -14 28.5 -31t23.5 -24q14 -19 14 -37q0 -22 -16 -35.5t-37 -13.5q-24 0 -41 20q-8 10 -20.5 31.5t-22.5 34.5l-101 131 l-102 -131q-6 -8 -20 -31t-23 -35q-17 -20 -41 -20q-21 0 -36 13.5t-15 35.5z" />
<glyph unicode="&#x2dc;" horiz-adv-x="911" d="M164 1264q0 61 49 98q45 33 106 33q67 0 152 -56q56 -36 80 -47.5t49 -11.5q45 0 45 33q0 4 -2 12.5t-2 13.5q0 23 14 38.5t39 15.5q22 0 38 -17.5t16 -44.5q0 -64 -56 -102q-40 -29 -100 -29q-71 0 -154 55q-54 37 -79 48.5t-50 11.5q-20 0 -31.5 -8.5t-11.5 -22.5 q0 -5 2 -14.5t2 -14.5q0 -22 -14.5 -37.5t-38.5 -15.5q-23 0 -38 17t-15 45z" />
<glyph unicode="&#x2000;" horiz-adv-x="967" />
<glyph unicode="&#x2001;" horiz-adv-x="1935" />
<glyph unicode="&#x2002;" horiz-adv-x="967" />
<glyph unicode="&#x2003;" horiz-adv-x="1935" />
<glyph unicode="&#x2004;" horiz-adv-x="645" />
<glyph unicode="&#x2005;" horiz-adv-x="483" />
<glyph unicode="&#x2006;" horiz-adv-x="322" />
<glyph unicode="&#x2007;" horiz-adv-x="322" />
<glyph unicode="&#x2008;" horiz-adv-x="241" />
<glyph unicode="&#x2009;" horiz-adv-x="387" />
<glyph unicode="&#x200a;" horiz-adv-x="107" />
<glyph unicode="&#x2010;" horiz-adv-x="788" d="M121 551q0 22 15.5 37.5t39.5 15.5q7 0 37 -3t47 -3h268q17 0 47 3t37 3q24 0 40 -15.5t16 -37.5t-16 -37.5t-40 -15.5q-7 0 -37 3t-47 3h-268q-17 0 -47 -3t-37 -3q-24 0 -39.5 15.5t-15.5 37.5z" />
<glyph unicode="&#x2011;" horiz-adv-x="788" d="M121 551q0 22 15.5 37.5t39.5 15.5q7 0 37 -3t47 -3h268q17 0 47 3t37 3q24 0 40 -15.5t16 -37.5t-16 -37.5t-40 -15.5q-7 0 -37 3t-47 3h-268q-17 0 -47 -3t-37 -3q-24 0 -39.5 15.5t-15.5 37.5z" />
<glyph unicode="&#x2012;" horiz-adv-x="788" d="M121 551q0 22 15.5 37.5t39.5 15.5q7 0 37 -3t47 -3h268q17 0 47 3t37 3q24 0 40 -15.5t16 -37.5t-16 -37.5t-40 -15.5q-7 0 -37 3t-47 3h-268q-17 0 -47 -3t-37 -3q-24 0 -39.5 15.5t-15.5 37.5z" />
<glyph unicode="&#x2013;" horiz-adv-x="1024" d="M121 551q0 22 15.5 37.5t39.5 15.5q7 0 37 -3t47 -3h504q17 0 47 3t37 3q24 0 39.5 -15.5t15.5 -37.5t-15.5 -37.5t-39.5 -15.5q-7 0 -37 3t-47 3h-504q-17 0 -47 -3t-37 -3q-24 0 -39.5 15.5t-15.5 37.5z" />
<glyph unicode="&#x2014;" horiz-adv-x="2048" d="M121 551q0 22 15.5 37.5t39.5 15.5q7 0 37 -3t47 -3h1528q17 0 47 3t37 3q24 0 39.5 -15.5t15.5 -37.5t-15.5 -37.5t-39.5 -15.5q-7 0 -37 3t-47 3h-1528q-17 0 -47 -3t-37 -3q-24 0 -39.5 15.5t-15.5 37.5z" />
<glyph unicode="&#x2018;" horiz-adv-x="430" d="M129 1227q-3 124 66 215q24 33 53 33q19 0 32 -12t13 -31q0 -22 -35 -54q-51 -48 -51 -106q0 -15 14 -15q33 0 54.5 -21.5t21.5 -51.5q0 -33 -22.5 -55.5t-55.5 -22.5q-40 0 -65 33t-25 88z" />
<glyph unicode="&#x2019;" horiz-adv-x="430" d="M133 1399q0 33 22.5 55.5t55.5 22.5q40 0 65 -33t25 -88q3 -125 -65 -215q-24 -33 -54 -33q-19 0 -32 12t-13 31q0 21 35 53q51 48 51 107q0 14 -14 14q-33 0 -54.5 22t-21.5 52z" />
<glyph unicode="&#x201a;" horiz-adv-x="430" d="M133 68q0 32 22 53.5t56 21.5q40 0 65 -32t25 -88q3 -123 -65 -216q-23 -30 -54 -30q-19 0 -32 12t-13 31q0 21 35 53q51 48 51 107q0 12 -14 12q-33 0 -54.5 22.5t-21.5 53.5z" />
<glyph unicode="&#x201c;" horiz-adv-x="663" d="M129 1225q0 134 64 217q24 33 53 33q19 0 31 -11.5t12 -31.5t-35 -52q-47 -44 -47 -106q0 -14 14 -14q34 0 55 -22t21 -54t-22.5 -53t-55.5 -21q-41 0 -65 29.5t-25 85.5zM360 1227q0 130 68 215q21 33 53 33q19 0 31 -12t12 -31q0 -24 -35 -54q-49 -46 -49 -106 q0 -15 15 -15q32 0 53.5 -21.5t21.5 -51.5q0 -33 -22 -55.5t-55 -22.5q-40 0 -66 33t-27 88z" />
<glyph unicode="&#x201d;" horiz-adv-x="669" d="M131 1399q0 33 23 54.5t57 21.5q40 0 64 -30t24 -85q3 -134 -63 -219q-22 -31 -54 -31q-18 0 -29.5 11.5t-11.5 29.5q0 14 6.5 24t26.5 29q47 44 47 107q0 14 -14 14q-33 0 -54.5 22t-21.5 52zM373 1399q0 33 22.5 55.5t55.5 22.5q40 0 65.5 -33t26.5 -88 q0 -125 -68 -215q-24 -33 -53 -33q-19 0 -31 12t-12 31q0 14 6.5 24t26.5 29q51 48 51 107q0 14 -14 14q-32 0 -54 22t-22 52z" />
<glyph unicode="&#x201e;" horiz-adv-x="669" d="M131 68q0 33 23 54t57 21q41 0 64.5 -29.5t23.5 -84.5q3 -134 -63 -219q-23 -33 -54 -33q-17 0 -29 12t-12 31q0 22 33 53q47 44 47 107q0 12 -14 12q-33 0 -54.5 22.5t-21.5 53.5zM373 68q0 32 22 53.5t56 21.5q40 0 65.5 -32t26.5 -88q0 -122 -68 -216q-23 -30 -53 -30 q-19 0 -31 12t-12 31q0 22 33 53q51 48 51 107q0 12 -14 12q-32 0 -54 22.5t-22 53.5z" />
<glyph unicode="&#x2022;" horiz-adv-x="673" d="M127 553q0 86 61.5 147.5t147.5 61.5q89 0 150 -61t61 -148q0 -88 -61 -149.5t-150 -61.5q-86 0 -147.5 61.5t-61.5 149.5z" />
<glyph unicode="&#x2026;" horiz-adv-x="1148" d="M129 68q0 32 22.5 53.5t55.5 21.5q31 0 53.5 -21.5t22.5 -53.5q0 -31 -22.5 -53.5t-53.5 -22.5q-32 0 -55 22.5t-23 53.5zM498 68q0 32 22 53.5t53 21.5q32 0 54 -21.5t22 -53.5q0 -31 -22 -53.5t-54 -22.5q-31 0 -53 22.5t-22 53.5zM866 68q0 32 22.5 53.5t55.5 21.5 q31 0 53.5 -21.5t22.5 -53.5q0 -31 -22.5 -53.5t-53.5 -22.5q-32 0 -55 22.5t-23 53.5z" />
<glyph unicode="&#x202f;" horiz-adv-x="387" />
<glyph unicode="&#x2039;" horiz-adv-x="694" d="M90 551q0 27 27 47q7 6 24.5 19t26.5 20l256 221q11 9 24 24.5t21 22.5q16 13 35 13q20 0 34.5 -15t14.5 -35q0 -26 -21 -43q-8 -7 -26 -18t-29 -19l-289 -235l287 -234q9 -7 28.5 -18.5t28.5 -19.5q21 -17 21 -43q0 -19 -14.5 -33.5t-34.5 -14.5q-19 0 -35 13 q-9 7 -22 22t-23 23l-256 219q-41 28 -55 41q-23 23 -23 43z" />
<glyph unicode="&#x203a;" horiz-adv-x="694" d="M137 238q0 26 21 43q10 8 28.5 19t28.5 19l287 236l-289 233q-10 9 -30 21t-25 16q-21 17 -21 43q0 20 14.5 35t34.5 15q19 0 35 -13q9 -8 22.5 -23.5t22.5 -23.5l258 -221q10 -9 26.5 -21.5t22.5 -17.5q27 -20 27 -47q0 -19 -20 -43q-9 -8 -29 -22t-27 -19l-258 -219 q-8 -7 -21.5 -22t-23.5 -23q-16 -13 -35 -13q-20 0 -34.5 14.5t-14.5 33.5z" />
<glyph unicode="&#x205f;" horiz-adv-x="483" />
<glyph unicode="&#x20ac;" horiz-adv-x="1306" d="M55 575q0 21 15 34.5t39 13.5q6 0 35.5 -3.5t45.5 -3.5h41q-4 45 -4 144h-37q-16 0 -45.5 -4t-35.5 -4q-25 0 -39.5 13.5t-14.5 35.5q0 23 14.5 36t39.5 13q6 0 35.5 -3t45.5 -3h41q31 260 176.5 415.5t362.5 155.5q254 0 385 -188q27 -37 27 -62q0 -22 -15 -37.5 t-39 -15.5q-35 0 -57 55q-30 70 -113.5 115t-189.5 45q-179 0 -294.5 -132t-139.5 -351h348q16 0 46 3t36 3q24 0 38.5 -13t14.5 -36q0 -22 -15 -35.5t-38 -13.5q-6 0 -36 4t-46 4h-354q-3 -79 2 -144h284q16 0 46 3.5t36 3.5q23 0 37.5 -13.5t14.5 -34.5q0 -23 -14.5 -37 t-37.5 -14q-6 0 -36 3t-46 3h-272q34 -212 143 -337t287 -125q106 0 192 44t117 124q20 55 56 55q23 0 37 -15t14 -36q0 -26 -21 -56q-62 -96 -163 -151.5t-236 -55.5q-204 0 -346.5 145.5t-181.5 407.5h-50q-16 0 -45.5 -3t-35.5 -3q-25 0 -39.5 14t-14.5 37z" />
<glyph unicode="&#x2122;" horiz-adv-x="1249" d="M45 1423q0 15 11 25t26 10h397q17 0 28 -10t11 -25q0 -16 -10.5 -25t-26.5 -9q-7 0 -25 3t-28 3h-111v-414q0 -11 2.5 -31t2.5 -28q0 -18 -11.5 -29.5t-29.5 -11.5q-17 0 -28 12t-11 29q0 8 2 28t2 31v414h-111q-11 0 -28.5 -3t-24.5 -3q-16 0 -26.5 9t-10.5 25zM590 922 q0 8 2 28t2 31v379q0 9 -1 29t-1 28q0 17 11 29t28 12h8q24 0 37 -20q1 -1 18 -41l150 -307q5 -9 24 -52q3 18 23 54l147 305q13 30 21 41q13 20 35 20h8q17 0 29 -12t12 -29q0 -8 -3 -28t-3 -29v-379q0 -11 2 -31t2 -28q0 -18 -10.5 -29.5t-28.5 -11.5t-28.5 11.5 t-10.5 29.5q0 8 2 28t2 31l2 295q0 12 1 38t1 36l-151 -324q-12 -16 -17 -37q-11 -22 -37 -22t-37 22q-1 3 -7.5 18.5t-8.5 18.5l-154 322q5 -57 5 -72l2 -295q0 -11 1 -31t1 -28q0 -18 -10.5 -29.5t-28.5 -11.5q-17 0 -28 12t-11 29z" />
<glyph unicode="&#x25fc;" horiz-adv-x="972" d="M0 0v973h973v-973h-973z" />
<glyph unicode="&#xfb03;" horiz-adv-x="1902" d="M84 936q0 22 14.5 35.5t36.5 13.5q11 0 37 -3t43 -3h27v281q0 113 61 171t156 58q103 0 162 -53q28 -21 28 -52q0 -24 -14.5 -37.5t-34.5 -13.5q-25 0 -49 27q-23 23 -43.5 33t-54.5 10q-48 0 -81.5 -30t-33.5 -93v-301h149q13 0 41.5 3t36.5 3q22 0 36.5 -13.5 t14.5 -35.5t-14.5 -35.5t-36.5 -13.5q-8 0 -36.5 3t-41.5 3h-149v-750q0 -19 4 -52.5t4 -41.5q0 -26 -16 -42.5t-41 -16.5t-40.5 16.5t-15.5 42.5q0 8 4.5 41.5t4.5 52.5v752h-27q-17 0 -43 -4t-37 -4q-22 0 -36.5 13.5t-14.5 35.5zM756 936q0 22 14.5 35.5t36.5 13.5 q11 0 37 -3t43 -3h26v281q0 113 61 171t156 58q103 0 162 -53q29 -22 29 -52q0 -24 -14.5 -37.5t-34.5 -13.5q-25 0 -49 27q-23 23 -44 33t-55 10q-48 0 -81 -30t-33 -93v-301h149q13 0 41.5 3t36.5 3q22 0 36.5 -13.5t14.5 -35.5t-14.5 -35.5t-36.5 -13.5q-8 0 -36.5 3 t-41.5 3h-149v-750q0 -19 4 -52.5t4 -41.5q0 -26 -16 -42.5t-41 -16.5t-40.5 16.5t-15.5 42.5q0 8 4 41.5t4 52.5v752h-26q-17 0 -43 -4t-37 -4q-22 0 -36.5 13.5t-14.5 35.5zM1550 1303q0 31 23 53t55 22q31 0 53.5 -22t22.5 -53q0 -32 -22.5 -54t-53.5 -22q-32 0 -55 22 t-23 54zM1571 47q0 14 3 46t3 50v680q0 18 -3 50.5t-3 46.5q0 24 16.5 40.5t40.5 16.5t39.5 -16.5t15.5 -40.5q0 -14 -3 -46.5t-3 -50.5v-680q0 -18 3 -50t3 -46q0 -24 -15.5 -40.5t-39.5 -16.5t-40.5 16.5t-16.5 40.5z" />
<glyph unicode="&#xfb04;" horiz-adv-x="1851" d="M84 936q0 22 14.5 35.5t36.5 13.5q11 0 37 -3t43 -3h27v281q0 113 61 171t156 58q103 0 162 -53q28 -21 28 -52q0 -24 -14.5 -37.5t-34.5 -13.5q-25 0 -49 27q-23 23 -43.5 33t-54.5 10q-48 0 -81.5 -30t-33.5 -93v-301h149q13 0 41.5 3t36.5 3q22 0 36.5 -13.5 t14.5 -35.5t-14.5 -35.5t-36.5 -13.5q-8 0 -36.5 3t-41.5 3h-149v-750q0 -19 4 -52.5t4 -41.5q0 -26 -16 -42.5t-41 -16.5t-40.5 16.5t-15.5 42.5q0 8 4.5 41.5t4.5 52.5v752h-27q-17 0 -43 -4t-37 -4q-22 0 -36.5 13.5t-14.5 35.5zM756 936q0 22 14.5 35.5t36.5 13.5 q11 0 37 -3t43 -3h26v281q0 113 61 171t156 58q103 0 162 -53q29 -22 29 -52q0 -24 -14.5 -37.5t-34.5 -13.5q-25 0 -49 27q-23 23 -44 33t-55 10q-48 0 -81 -30t-33 -93v-301h149q13 0 41.5 3t36.5 3q22 0 36.5 -13.5t14.5 -35.5t-14.5 -35.5t-36.5 -13.5q-8 0 -36.5 3 t-41.5 3h-149v-750q0 -19 4 -52.5t4 -41.5q0 -26 -16 -42.5t-41 -16.5t-40.5 16.5t-15.5 42.5q0 8 4 41.5t4 52.5v752h-26q-17 0 -43 -4t-37 -4q-22 0 -36.5 13.5t-14.5 35.5zM1540 47q0 14 4 46t4 50v1194q0 17 -4 49.5t-4 45.5q0 25 16 41t41 16t40.5 -16t15.5 -41 q0 -13 -3 -45.5t-3 -49.5v-1194q0 -18 3 -50t3 -46q0 -24 -16 -40.5t-40 -16.5t-40.5 16.5t-16.5 40.5z" />
</font>
</defs>
</svg>
